<svg width="2057" height="325" viewBox="0 0 2057 325" fill="none" xmlns="http://www.w3.org/2000/svg">
<path d="M1915.21 206.532C1935.47 197.69 1956.43 206.314 1956.43 206.314C1926.32 186.537 1894.47 194.749 1894.47 194.749C1910.92 182.342 1928.42 185.102 1928.42 185.102C1908.47 177.086 1883.61 188.33 1883.61 188.33L1887.82 182.199L1874.51 194.752L1817.17 188.005L1824.04 181.028L1807.55 187.442C1805.86 187.161 1804.16 186.877 1802.46 186.596L1762.53 171.112V177.099L1745.4 173.173L1761.44 166.022L1687.62 168.715C1655.04 163.984 1620.91 159.316 1585.48 154.838L1574.86 150.091L1530.4 131.838L1537.84 144.191L1508.46 140.229L1526.89 116.994L1494.68 143.022L1474.89 135.728L1491.16 130.204L1392.46 125.679C1386.14 65.0927 1356 49.4249 1356 49.4249C1365.75 67.6707 1358.16 112.804 1358.16 112.804C1345.56 53.3815 1307.4 41.6268 1307.4 41.6268C1329.8 56.3201 1336.81 119.334 1336.81 119.334L1311.95 98.2593L1324.9 121.564C1294.45 97.6736 1263.64 116.994 1263.64 116.994C1292.7 108.451 1321.41 128.27 1321.41 128.27C1226.51 121.301 1127.68 116.994 1028.33 116.994C959.101 116.994 890.12 119.083 822.546 122.71L782.644 120.344C801.418 107.339 811.002 108.231 811.002 108.231C776.345 99.4154 742.737 122.71 742.737 122.71C758.779 107.748 787.545 96.7223 787.545 96.7223C759.538 96.7223 721.032 118.653 721.032 118.653C730.133 77.814 761.642 57.2972 761.642 57.2972C729.785 66.7653 704.23 105.84 704.23 105.84C701.08 76.0238 710.181 47.9543 710.181 47.9543C696.527 63.7499 685.312 125.078 685.312 125.078L656.354 122.71L154.267 202.002C137.114 182.48 101.756 171.109 101.756 171.109C112.258 177.179 126.959 204.105 126.959 204.105C103.853 194.521 74.0976 202.002 74.0976 202.002C87.1396 202.002 102.822 208.092 111.888 212.179C41.095 225.918 0 235.525 0 235.525V324.751H2056.67V235.525C2056.67 235.525 2004.01 223.215 1915.21 206.532Z" fill="#471B00"/>
<mask id="mask0_295_112" style="mask-type:luminance" maskUnits="userSpaceOnUse" x="552" y="2" width="91" height="110">
<path d="M552.727 7.71716L634.02 2.22625L642.272 106.469L560.979 111.96L552.727 7.71716Z" fill="white"/>
</mask>
<g mask="url(#mask0_295_112)">
<path d="M641.252 98.5498C641.064 96.2187 640.858 93.892 640.655 91.5619C639.935 83.3215 639.261 75.0781 638.6 66.8337L637.607 54.4665C637.278 50.3482 637.028 46.2121 636.558 42.1032C636.543 41.9821 636.506 41.878 636.451 41.7921C636.691 41.3619 636.586 40.7834 636.012 40.5132C635.561 40.2979 635.035 40.2671 634.556 40.1171C634.137 39.9847 633.732 39.8097 633.343 39.6135C632.566 39.2225 631.848 38.6824 631.295 38.043C630.055 36.608 629.43 34.6927 629.689 32.8676C629.754 32.4167 629.483 32.0951 629.132 31.9503C628.992 31.6492 628.686 31.4228 628.228 31.4583C626.496 31.5907 624.765 31.7324 623.031 31.8542C622.684 29.0533 621.898 26.2868 620.732 23.688C616.15 13.4729 605.497 6.25111 593.588 5.00989C593.5 5.00039 593.42 5.00735 593.346 5.02472C593.27 5.01751 593.189 5.02139 593.104 5.04263C581.516 7.86941 572.113 16.4458 569.19 27.1664C568.445 29.8973 568.104 32.7384 568.201 35.5562C566.466 35.6687 564.732 35.7611 562.996 35.8629C562.538 35.8892 562.27 36.1545 562.181 36.4711C561.856 36.6614 561.639 37.016 561.773 37.4535C562.318 39.2243 562.001 41.2033 560.999 42.7897C560.554 43.4964 559.927 44.1259 559.22 44.6186C558.868 44.8649 558.493 45.0926 558.1 45.2783C557.649 45.4926 557.135 45.5953 556.721 45.8674C556.197 46.2117 556.183 46.7983 556.488 47.1917C556.447 47.2841 556.427 47.3921 556.432 47.5138C556.616 51.642 557.019 55.7662 557.341 59.8867L558.306 72.2557C558.951 80.5011 559.582 88.7475 560.168 96.9969C560.334 99.3279 560.498 101.659 560.678 103.991C560.854 106.289 560.905 108.691 561.501 110.936C561.625 111.397 562.253 111.498 562.652 111.29C562.734 111.316 562.825 111.33 562.925 111.331C565.447 111.341 567.988 111.094 570.502 110.93C573.024 110.766 575.547 110.6 578.071 110.436C583.115 110.106 588.162 109.777 593.209 109.452C595.98 109.273 598.827 109.256 601.555 108.738C604.334 108.883 607.153 108.518 609.925 108.323C614.968 107.967 620.012 107.614 625.057 107.262C627.578 107.086 630.1 106.911 632.621 106.734C635.135 106.558 637.689 106.461 640.18 106.112C640.28 106.098 640.369 106.072 640.445 106.036C640.872 106.189 641.479 106.003 641.527 105.53C641.768 103.23 641.439 100.847 641.252 98.5498Z" fill="#4F2A0A"/>
</g>
<path d="M651.934 105.83C650.071 103.058 648.087 103.874 646.142 104.043C644.052 104.226 641.961 104.407 639.872 104.589C635.691 104.953 631.51 105.311 627.325 105.618L602.664 107.422C586.073 108.635 569.49 109.948 552.907 111.258C549.579 111.521 550.507 123.774 553.845 123.569C570.45 122.55 587.056 121.533 603.653 120.416L628.326 118.757C632.513 118.475 636.704 118.246 640.895 118.024L647.181 117.686C649.138 117.582 651.215 118.121 652.641 115.11C653.888 112.477 653.567 108.259 651.934 105.83Z" fill="#4F2A0A"/>
<path d="M662.472 118.421C660.167 114.137 657.806 115.338 655.478 115.551C652.974 115.78 650.472 116.009 647.969 116.238C642.961 116.696 637.955 117.148 632.94 117.518L603.396 119.702C583.52 121.171 563.657 122.791 543.793 124.409C539.806 124.733 541.231 143.509 545.232 143.273C565.13 142.103 585.027 140.934 604.914 139.616L634.476 137.655C639.492 137.322 644.515 137.071 649.539 136.825L657.072 136.457C659.418 136.342 661.922 137.217 663.557 132.643C664.987 128.641 664.494 122.18 662.472 118.421Z" fill="#4F2A0A"/>
<path d="M560.549 120.148C558.006 119.879 553.895 118.884 553.738 115.954C553.687 114.998 552.117 115.121 552.127 116.067C552.128 116.194 552.133 116.322 552.143 116.447C552.102 116.506 552.068 116.569 552.047 116.632C551.419 118.526 551.293 121.244 553.286 122.48C555.249 123.698 558.223 122.805 560.382 122.551C561.785 122.387 562.111 120.313 560.549 120.148Z" fill="#474C4B" fill-opacity="0.5"/>
<path d="M613.611 118.248C611.997 117.613 610.098 118.002 608.39 118.11C606.454 118.234 604.521 118.358 602.587 118.482C598.491 118.743 594.405 119.125 590.308 119.374C582.228 119.863 574.137 120.164 566.057 120.679C565.082 120.743 565.191 122.116 566.163 122.077C574.254 121.75 582.332 121.208 590.42 120.854C594.41 120.679 598.402 120.634 602.395 120.476C604.332 120.4 606.271 120.319 608.208 120.242C610.026 120.168 612.079 120.378 613.709 119.535C614.235 119.264 614.139 118.454 613.611 118.248Z" fill="#474C4B" fill-opacity="0.5"/>
<path d="M551.164 139.276C551.166 139.273 551.167 139.27 551.168 139.266C549.176 139.11 547.368 138.155 546.493 136.46C545.509 134.554 545.532 132.182 544.941 130.15C544.62 129.042 543.126 129.359 542.78 130.238C542.505 130.417 542.321 130.701 542.373 131.063C542.769 133.908 542.742 137.428 544.249 140.019C545.431 142.051 548.137 142.626 550.434 141.954C550.614 141.971 550.793 141.983 550.976 141.99C552.726 142.062 552.743 139.577 551.164 139.276Z" fill="#474C4B" fill-opacity="0.5"/>
<path d="M581.716 117.189C577.138 117.622 572.532 117.577 567.993 116.895C566.006 116.596 564.426 116.055 562.814 114.952C561.522 114.066 560.298 113.278 558.663 113.071C558.371 113.034 558.035 113.126 557.792 113.305C557.355 113.351 556.954 113.602 556.914 114.057C556.917 114.095 556.911 114.133 556.911 114.171C556.731 114.2 556.556 114.275 556.405 114.386C555.767 114.383 555.243 114.886 555.452 115.541C555.707 116.34 555.093 117.106 555.531 117.905C555.904 118.586 556.642 118.76 557.394 118.918C560.054 119.476 562.914 119.62 565.635 119.772C570.999 120.073 576.532 119.64 581.85 118.96C583.077 118.803 582.968 117.07 581.716 117.189Z" fill="#535756" fill-opacity="0.25"/>
<path d="M619.514 115.849C617.332 115.485 615.035 115.784 612.832 115.874C610.431 115.971 608.033 116.068 605.634 116.166C600.837 116.36 596.04 116.555 591.243 116.749C590.234 116.791 590.345 118.229 591.352 118.192C596.15 118.011 600.949 117.831 605.747 117.65C608.033 117.564 610.318 117.478 612.602 117.392C614.91 117.306 617.348 117.43 619.592 116.873C620.155 116.734 620.049 115.939 619.514 115.849Z" fill="#535756" fill-opacity="0.25"/>
<path d="M590.061 136.867C585.559 135.66 580.773 136.145 576.197 136.698C573.972 136.968 571.718 137.067 569.462 137.044C569.31 136.708 568.978 136.43 568.423 136.328C565.735 135.836 563.017 135.526 560.337 134.978C560.327 134.975 560.315 134.973 560.304 134.971C560.303 134.971 560.301 134.971 560.299 134.97C558.556 134.261 556.836 133.513 555.138 132.715C554.142 131.369 553.8 129.541 552.551 128.435C551.678 126.815 550.415 125.426 548.711 125.362C547.465 125.317 546.475 126.221 546.18 127.288C545.919 128.228 546.146 129.067 546.658 129.799C545.848 133.23 546.121 137.108 550.076 138.741C552.381 139.691 555.316 139.678 557.797 139.871C560.729 140.099 563.446 140.104 566.36 139.691C566.488 139.673 566.607 139.638 566.713 139.592C566.726 139.596 566.734 139.602 566.745 139.606C570.042 140.672 573.718 139.947 577.113 139.623C579.023 139.441 580.932 139.252 582.843 139.096C584.103 138.992 585.406 138.822 586.705 138.714C587.784 138.742 588.862 138.746 589.937 138.649L589.935 138.623C590.965 138.486 591.207 137.175 590.061 136.867Z" fill="#535756" fill-opacity="0.25"/>
<path d="M630.371 132.776C625.022 132.323 619.485 132.807 614.132 133.11C608.624 133.421 603.122 133.836 597.631 134.344C595.764 134.517 595.792 136.981 597.386 137.249C597.623 137.545 598.001 137.74 598.523 137.694C603.798 137.232 609.075 136.772 614.35 136.287C615.675 136.165 617.004 136.037 618.336 135.912C622.303 135.792 626.3 135.715 630.202 135.216C631.691 135.216 631.878 132.903 630.371 132.776Z" fill="#535756" fill-opacity="0.25"/>
<path d="M641.589 113.805C638.635 113.656 635.501 114.159 632.55 114.37C631.334 114.459 631.464 116.188 632.683 116.104C635.635 115.903 638.812 115.964 641.711 115.405C641.709 115.4 641.709 115.397 641.707 115.394C642.736 115.31 642.778 113.866 641.589 113.805Z" fill="#535756" fill-opacity="0.25"/>
<path d="M632.882 42.6604C631.33 41.6111 629.955 40.4369 628.779 39.0314C627.69 37.7323 627.003 36.2649 626.101 34.8772C626.156 34.4263 625.837 33.9137 625.196 33.9307L620.276 34.0616C620.112 34.0669 619.973 34.1059 619.861 34.1661C619.71 33.7481 619.545 33.3187 619.352 32.9052C619.41 32.7377 619.47 32.5732 619.467 32.3838C619.462 32.1005 619.366 31.8297 619.284 31.5579C619.111 30.9889 618.919 30.4272 618.708 29.87C618.3 28.7886 617.813 27.7311 617.261 26.7045C616.149 24.6393 614.809 22.6871 613.233 20.8934C610.106 17.3379 606.183 14.4008 601.695 12.3957C599.168 11.2649 596.472 10.4218 593.713 9.91157C593.534 9.8794 593.38 9.90091 593.253 9.95911C593.242 9.67319 592.969 9.38856 592.585 9.51244C583.639 12.4066 576.314 19.2789 573.183 27.4661C572.292 29.7914 571.743 32.1931 571.571 34.6501C571.548 34.9955 572.123 35.1141 572.162 34.7553C573.087 26.3074 578.274 18.365 585.971 13.5972C588.119 12.2663 590.434 11.192 592.878 10.4077C592.788 10.7455 592.941 11.1433 593.42 11.2378C602.697 13.0641 610.81 19.0277 615.136 26.708C615.735 27.773 616.251 28.8793 616.701 30.0071C616.922 30.559 617.125 31.1198 617.307 31.6837C617.408 31.9942 617.468 32.3323 617.593 32.6318C617.676 32.8265 617.807 32.9607 617.945 33.0883C618.103 33.7447 618.346 34.4015 618.577 35.0081C618.759 35.4887 619.302 35.5386 619.671 35.3341C619.822 35.5255 620.065 35.6611 620.395 35.652C621.931 35.6156 623.467 35.5808 625.003 35.5444C625.404 37.1088 626.43 38.6204 627.43 39.881C628.605 41.3606 630.071 42.7072 631.714 43.7534C631.407 43.8395 631.152 44.0839 631.159 44.475C631.232 48.2777 631.618 52.0801 631.906 55.8708C632.195 59.6661 632.471 63.4623 632.775 67.2566C633.388 74.8909 633.996 82.5241 634.619 90.1578C634.966 94.4254 635.09 98.798 635.93 103.013C636.048 103.601 636.915 103.542 636.941 102.942C637.109 99.1488 636.659 95.3123 636.388 91.5327C636.116 87.7378 635.84 83.94 635.563 80.1439C635.007 72.5055 634.446 64.8691 633.856 57.233C633.526 52.9473 633.317 48.63 632.745 44.3643C632.72 44.1733 632.635 44.0282 632.519 43.9222C633.112 43.7698 633.503 43.0811 632.882 42.6604Z" fill="#474C4B" fill-opacity="0.5"/>
<path d="M570.335 39.2125C569.36 38.674 567.767 38.8104 566.698 39.0024C566.435 39.0486 566.257 39.1982 566.163 39.3788C565.874 39.302 565.539 39.4134 565.445 39.7851C565.051 41.3346 564.627 42.7831 563.792 44.1973C562.966 45.5954 561.863 46.8527 560.552 47.8936C560.218 48.1589 560.306 48.5779 560.555 48.7853C560.154 48.7857 559.751 49.0404 559.777 49.5192C560.628 64.7715 562.007 80.0038 563.19 95.2359C563.354 97.361 563.528 99.4854 563.698 101.609C563.786 102.693 563.872 103.779 563.96 104.864C564.043 105.918 564.07 106.974 564.36 107.998C564.523 108.574 565.569 108.5 565.643 107.908C565.87 106.079 565.518 104.14 565.387 102.308C565.249 100.409 565.112 98.5101 564.974 96.6096C564.699 92.8101 564.408 89.0133 564.124 85.2145C563.553 77.5724 562.978 69.9305 562.404 62.2885C562.082 57.9933 561.723 53.7006 561.307 49.4119C561.285 49.1655 561.156 48.9958 560.984 48.8939C561.06 48.8778 561.138 48.8415 561.215 48.7821C563.896 46.7025 566.165 43.5734 566.581 40.3C566.645 40.3063 566.717 40.3058 566.797 40.2926C567.356 40.1994 567.918 40.1462 568.485 40.1772C569.029 40.2068 569.547 40.363 570.091 40.348C570.789 40.3283 570.847 39.4971 570.335 39.2125Z" fill="#474C4B" fill-opacity="0.5"/>
<path d="M632.831 88.1497C632.636 85.9785 632.479 83.4799 630.94 81.7042C628.156 78.4909 622.965 79.5125 619.893 81.807C617.949 83.2619 616.447 85.1095 614.788 86.8182C613.135 88.5218 611.258 90.0153 609.203 91.3001C600.041 97.0325 588.698 98.2879 577.925 98.8355C576.843 98.8895 575.763 98.9387 574.681 98.9865C572.726 98.8372 570.686 99.0849 569.444 100.665C568.113 102.357 569.002 104.516 570.739 105.611C572.913 106.984 575.766 106.551 578.239 106.355C581.198 106.121 584.157 105.888 587.116 105.644C599.051 104.661 610.987 103.688 622.915 102.637C625.188 102.438 627.567 102.276 629.596 101.213C631.699 100.112 632.616 98.0824 632.861 95.964C633.157 93.3873 633.063 90.725 632.831 88.1497Z" fill="#535756" fill-opacity="0.25"/>
<path d="M593.934 15.7425C592.781 16.0222 591.653 16.3742 590.557 16.8074C590.007 17.0249 589.437 17.2129 588.879 17.4232C588.778 17.3963 588.663 17.4027 588.547 17.4525C588.711 16.9239 588.815 16.3887 588.826 15.8662C588.832 15.5879 588.379 15.5886 588.311 15.8389C588.116 16.561 587.936 17.2528 587.699 17.927C587.613 17.9747 587.526 18.024 587.44 18.0732C587.133 18.2475 587.179 18.5608 587.375 18.7447C587.185 19.1686 586.959 19.5842 586.679 19.9958C585.791 21.3052 584.58 22.4009 583.163 23.2285C582.88 23.3934 583.173 23.7835 583.456 23.6187C584.925 22.7689 586.166 21.6403 587.103 20.2982C587.332 19.9672 587.558 19.6118 587.766 19.2392C587.861 19.2912 587.981 19.2982 588.1 19.2174C588.36 19.0402 588.624 18.8674 588.889 18.6991C588.935 18.8117 589.043 18.8984 589.226 18.9118C590.129 18.9753 591.136 19.1613 592.037 19.0736C592.528 19.0255 592.553 18.4093 592.091 18.298C591.405 18.1314 590.625 18.1287 589.888 18.0999C590.223 17.9098 590.562 17.724 590.906 17.5502C591.915 17.0429 593.004 16.4929 594.087 16.1363C594.367 16.0442 594.216 15.6735 593.934 15.7425Z" fill="#474C4B" fill-opacity="0.5"/>
<path d="M570.537 68.3064C569.97 67.4061 569.179 66.6154 568.788 65.6241C568.325 64.4515 568.841 63.497 569.376 62.4379C570.317 60.5708 570.119 58.7555 568.997 56.9986C567.82 55.1548 565.802 53.9521 563.899 52.8062C563.504 52.5688 563.184 53.1783 563.572 53.4146C565.4 54.5196 567.344 55.695 568.436 57.4925C568.969 58.3705 569.243 59.4223 569.12 60.4341C569.003 61.3699 568.449 62.1745 568.077 63.0342C568.067 63.058 568.06 63.0801 568.05 63.1023C567.671 61.5725 566.925 60.1623 565.822 58.945C565.585 58.6842 565.03 58.8771 565.195 59.24C565.424 59.7433 565.653 60.2466 565.883 60.7498C565.044 60.4449 564.117 60.4049 563.224 60.6769C562.821 60.7991 563.056 61.3466 563.438 61.229L563.438 61.2336C564.414 60.9651 565.414 61.0692 566.259 61.5772L566.524 62.1581C566.745 62.645 566.967 63.1318 567.196 63.6151C567.367 63.9776 567.503 64.3718 567.748 64.6953C567.753 64.7997 567.762 64.9038 567.777 65.0076C567.594 64.9695 567.393 65.0406 567.364 65.2599C567.236 66.2766 567.144 67.2893 567.045 68.3056C567.012 68.6423 567.564 68.7562 567.618 68.4088C567.751 67.569 567.887 66.735 568.007 65.8961C568.213 66.4379 568.531 66.9674 568.924 67.5039C569.814 68.716 571.423 70.7393 569.867 72.0855C569.477 72.4225 570.105 72.9118 570.492 72.5811C571.825 71.4385 571.339 69.5802 570.537 68.3064Z" fill="#474C4B" fill-opacity="0.5"/>
<path d="M631.16 69.4746C630.972 69.5756 630.914 69.6105 630.821 69.6941C629.396 69.4406 627.966 69.2152 626.538 68.9758C627.358 68.4422 628.301 67.9894 628.726 67.135C629.438 65.6978 628.037 64.3065 628.601 62.9044C628.69 62.6839 628.387 62.551 628.248 62.7456C627.3 64.1036 629.008 65.455 628.476 66.8256C627.857 68.4243 625.347 68.4563 624.577 70.0177C624.327 70.5238 624.274 71.1226 624.543 71.6248C624.914 72.3157 626.006 72.4414 626.037 73.3133C626.096 74.9417 623.843 75.8251 623.24 77.23C623.126 77.4908 623.552 77.683 623.667 77.4206C624.267 76.0545 625.931 75.411 626.423 73.9785C626.604 73.4525 626.635 72.7813 626.319 72.2885C626.159 72.0392 625.881 71.8936 625.65 71.7109C625.166 71.3285 625.018 70.8794 625.248 70.3176C625.405 69.9398 625.668 69.6393 625.983 69.3768C626.014 69.3994 626.052 69.4152 626.098 69.4243C627.689 69.7355 629.272 70.0705 630.867 70.366C631.031 70.3962 631.177 70.3136 631.258 70.1877C631.413 69.9487 631.416 69.9362 631.49 69.672C631.54 69.4943 631.31 69.3963 631.16 69.4746Z" fill="#474C4B" fill-opacity="0.5"/>
<path d="M632.739 66.6923C632.414 66.2352 631.684 66.2938 631.27 66.6314C630.998 66.8524 630.876 67.1681 630.788 67.4812C630.663 67.9359 630.615 69.0316 629.806 68.869C629.41 68.7902 629.287 69.3573 629.683 69.4346C630.306 69.5531 630.83 69.1956 631.095 68.6849C631.286 68.3121 631.503 66.2139 632.422 66.9506C632.605 67.0998 632.87 66.8776 632.739 66.6923Z" fill="#474C4B" fill-opacity="0.5"/>
<path d="M605.876 39.6354C604.354 38.8607 602.566 39.453 601.307 40.4173C600.545 41.0013 599.756 41.8233 599.505 42.7235C599.176 43.8975 600.379 45.5463 601.621 45.8391C603.213 46.2156 605.101 45.252 606.265 44.3236C607.713 43.1718 607.64 40.5337 605.876 39.6354Z" fill="#78726D"/>
<path d="M586.126 41.0364C587.514 40.0584 589.372 40.3962 590.765 41.1754C591.608 41.6473 592.514 42.3509 592.9 43.2066C593.404 44.3224 592.465 46.1208 591.28 46.5831C589.763 47.1766 587.748 46.4856 586.455 45.7288C584.847 44.7903 584.517 42.1702 586.126 41.0364Z" fill="#78726D"/>
<path d="M598.525 48.335C598.439 48.1189 598.302 47.9356 598.113 47.7853C598.012 47.7229 597.91 47.6622 597.807 47.5999C597.576 47.4972 597.332 47.4557 597.073 47.4722C596.877 47.4798 596.697 47.5294 596.532 47.6242C596.359 47.6886 596.212 47.79 596.093 47.9263C595.962 48.0527 595.876 48.2007 595.829 48.3674C595.752 48.5286 595.725 48.6987 595.745 48.8793C595.771 48.9932 595.797 49.1087 595.822 49.2226C595.908 49.4403 596.045 49.6235 596.234 49.7739C596.335 49.8347 596.437 49.897 596.538 49.9578C596.771 50.0604 597.017 50.1034 597.274 50.087C597.47 50.0794 597.65 50.0283 597.815 49.935C597.988 49.8705 598.135 49.7692 598.255 49.6328C598.385 49.5049 598.471 49.3585 598.518 49.1917C598.595 49.029 598.622 48.8589 598.602 48.6799C598.576 48.5644 598.55 48.4505 598.525 48.335Z" fill="#78726D"/>
<path d="M585.341 77.064C584.734 77.8141 584.04 78.2156 583.259 78.2702C582.788 78.3031 582.449 78.2127 582.242 77.9974C582.036 77.782 581.913 77.4283 581.875 76.9345L581.717 74.8642C581.669 73.6897 581.105 73.1401 580.026 73.2154C579.758 73.2342 579.477 73.2846 579.185 73.3667L579.508 77.584C579.525 77.8063 579.496 77.9625 579.423 78.054C579.347 78.1471 579.244 78.2068 579.111 78.2345C578.978 78.2608 578.743 78.288 578.406 78.3116L576.365 78.4541C576.702 78.4305 576.858 78.2393 576.83 77.882L576 67.0429C575.959 66.5 575.688 66.246 575.19 66.2808C575.797 65.5323 576.491 65.1307 577.272 65.0762C577.663 65.0489 577.957 65.0993 578.157 65.2271C578.356 65.3567 578.494 65.5737 578.571 65.8766C578.781 65.6014 579.061 65.369 579.411 65.1766C579.762 64.9856 580.18 64.8716 580.664 64.8377C581.218 64.7991 581.773 64.8975 582.334 65.1297C582.893 65.3636 583.374 65.7709 583.777 66.3486C584.181 66.9279 584.419 67.6806 584.489 68.6054C584.559 69.5178 584.472 70.2963 584.232 70.9391C583.989 71.5819 583.624 72.0807 583.138 72.437C583.912 72.9904 584.334 73.7363 584.406 74.6733L584.531 76.3004C584.572 76.8448 584.843 77.0988 585.341 77.064ZM580.297 71.6887C580.54 71.6717 580.77 71.6742 580.989 71.6959C581.579 71.2831 581.822 70.3858 581.717 69.0056C581.637 67.9689 581.417 67.2196 581.057 66.7545C580.696 66.2909 580.254 66.0767 579.729 66.1134C579.269 66.1455 578.92 66.3364 578.675 66.6895L579.075 71.9051C579.499 71.7891 579.907 71.716 580.297 71.6887Z" fill="#78726D"/>
<path d="M589.97 77.0544C589.638 76.7922 589.457 76.4516 589.424 76.0311C589.393 75.6245 589.521 75.2685 589.81 74.9629C590.099 74.6574 590.465 74.4898 590.91 74.4588C591.355 74.4277 591.743 74.5425 592.075 74.8047C592.406 75.067 592.588 75.4014 592.62 75.808C592.652 76.2285 592.523 76.5908 592.236 76.8962C591.947 77.2018 591.58 77.3709 591.135 77.4019C590.689 77.4331 590.302 77.3166 589.97 77.0544Z" fill="#78726D"/>
<path d="M602.033 76.6284L599.996 76.771C599.23 76.8246 598.821 76.5127 598.769 75.8337L597.978 65.4827C597.937 64.9402 597.667 64.6863 597.17 64.7211C597.776 63.9731 598.468 63.5718 599.247 63.5172C599.717 63.4844 600.055 63.5747 600.262 63.7898C600.467 64.0051 600.589 64.3586 600.627 64.8505L601.489 76.1257C601.516 76.4843 601.697 76.6519 602.033 76.6284Z" fill="#78726D"/>
<path d="M607.98 75.7699C607.649 75.5076 607.466 75.1671 607.434 74.7466C607.403 74.34 607.531 73.9839 607.82 73.6784C608.108 73.3728 608.475 73.2053 608.92 73.1742C609.365 73.1432 609.753 73.258 610.085 73.5202C610.417 73.7824 610.598 74.1169 610.629 74.5235C610.662 74.944 610.534 75.3061 610.245 75.6117C609.957 75.9173 609.59 76.0863 609.145 76.1174C608.701 76.1484 608.312 76.0321 607.98 75.7699Z" fill="#78726D"/>
<path d="M622.764 62.2501C623.323 62.4839 623.806 62.8896 624.209 63.4689C624.612 64.0482 624.849 64.7995 624.92 65.7257C624.992 66.675 624.9 67.4924 624.641 68.1812C624.381 68.8684 623.999 69.3962 623.493 69.7676C622.985 70.1376 622.403 70.3464 621.742 70.3925C621.271 70.4254 620.845 70.3734 620.471 70.2392C620.095 70.1036 619.789 69.9214 619.556 69.6895L619.94 74.7011C619.957 74.9235 619.927 75.0813 619.853 75.1728C619.779 75.2643 619.674 75.3241 619.543 75.3517C619.408 75.3796 619.173 75.4053 618.837 75.4287L616.797 75.5713C617.134 75.5477 617.288 75.3581 617.26 74.9993L616.43 64.1602C616.389 63.6173 616.12 63.3632 615.622 63.398C616.227 62.6496 616.921 62.2481 617.702 62.1935C618.093 62.1662 618.387 62.2166 618.587 62.3445C618.788 62.4738 618.926 62.6908 619.003 62.9938C619.211 62.7187 619.491 62.4864 619.843 62.2938C620.194 62.1027 620.611 61.9888 621.096 61.9549C621.649 61.9178 622.205 62.0163 622.764 62.2501ZM621.837 68.4417C622.122 67.9316 622.226 67.1596 622.147 66.1229C622.067 65.0878 621.846 64.3369 621.487 63.8733C621.126 63.4082 620.683 63.194 620.159 63.2307C619.699 63.2628 619.35 63.4552 619.105 63.8068L619.491 68.8384C619.786 69.1523 620.161 69.2942 620.62 69.2621C621.145 69.2239 621.551 68.9504 621.837 68.4417Z" fill="#78726D"/>
<path d="M638.665 17.5195C638.279 17.152 637.815 16.8981 637.304 16.5718C636.45 16.025 635.761 15.2871 634.937 14.7043C634.315 14.2665 633.966 14.5308 633.164 14.4739C632.274 14.4108 631.37 14.1507 630.519 13.9224C629.962 13.7726 629.411 13.6023 628.869 13.4112C628.362 13.2331 627.851 12.9548 627.317 12.8591C626.81 12.7692 626.323 12.941 625.84 13.0615C625.188 13.2262 624.541 13.3983 623.892 13.5675C621.783 14.119 619.763 14.6563 617.853 15.6781C619.891 15.206 621.714 14.9222 623.816 14.8927C624.879 15.0071 625.925 15.2171 626.927 15.5772C628.756 16.2353 630.203 17.231 631.11 18.8232C631.009 18.6446 632.548 17.7664 632.732 17.6823C633.488 17.3355 634.205 17.2636 635.032 17.3017C636.476 17.3647 637.744 18.1116 639.209 18.2288C639.052 17.9427 638.869 17.7157 638.665 17.5195Z" fill="#78726D"/>
<mask id="mask1_295_112" style="mask-type:luminance" maskUnits="userSpaceOnUse" x="637" y="0" width="25" height="15">
<path d="M637.486 1.92175L660.893 0.338565L661.922 13.3545L638.515 14.9376L637.486 1.92175Z" fill="white"/>
</mask>
<g mask="url(#mask1_295_112)">
<path d="M659.976 0.893192C660.283 0.765419 660.595 0.643477 660.91 0.529135C658.75 1.05987 656.623 1.64112 654.424 1.90775C653.444 2.02678 652.458 2.10901 651.468 2.14188C650.488 2.17561 649.483 2.08848 648.509 2.173C648.355 2.18652 648.215 2.32004 648.239 2.46889C648.299 2.86345 648.023 3.4017 647.901 3.78062C647.756 4.22935 647.599 4.67425 647.404 5.10776C647.038 5.93439 646.564 6.72023 645.989 7.44003C644.84 8.87951 643.316 10.0699 641.567 10.8458C641.495 10.877 641.452 10.9249 641.42 10.9767C641.348 10.9986 641.275 11.03 641.212 11.09C640.996 11.2955 640.829 11.5332 640.647 11.7642C640.464 11.9937 640.28 12.2233 640.092 12.4485C639.719 12.9018 639.347 13.3581 638.966 13.8073C638.812 13.9884 638.807 14.2477 638.982 14.4189C639.163 14.5959 639.418 14.6065 639.642 14.4875C640.243 14.1645 640.844 13.8385 641.446 13.5139C641.953 13.2407 642.471 12.987 642.923 12.6463C643.106 12.5951 643.291 12.5485 643.475 12.5127C643.942 12.4253 644.419 12.3837 644.893 12.3858C645.429 12.3899 645.946 12.51 646.477 12.5268C646.578 12.5308 646.698 12.4467 646.735 12.3636C647.572 10.362 649.963 9.35342 652.144 9.16089C652.338 9.14311 652.513 8.94053 652.421 8.76062C651.486 6.9503 653.36 5.12049 654.717 4.02833C656.298 2.75191 658.063 1.69104 659.976 0.893192Z" fill="#78726D"/>
</g>
<path d="M641.985 17.6736C641.833 17.493 641.607 17.4039 641.465 17.2149C641.32 17.023 641.248 16.792 641.207 16.5636C641.103 15.9925 641.072 15.4071 641.006 14.8334C640.944 14.2872 640.855 13.7444 640.535 13.2701C640.284 12.899 639.907 12.6215 639.464 12.472C639.455 12.3971 639.439 12.3226 639.42 12.2515C639.351 11.9895 639.202 11.7408 639.034 11.5228C638.687 11.0689 638.235 10.6918 637.776 10.3367C637.512 10.1331 637.106 10.4482 637.317 10.7142C637.342 10.7464 637.371 10.7768 637.395 10.809C637.4 10.8287 637.435 10.9497 637.418 10.8861C637.445 10.9906 637.474 11.0888 637.514 11.1893C637.579 11.356 637.637 11.5216 637.686 11.6955C637.697 11.7364 637.709 11.7772 637.72 11.818C637.725 11.8362 637.73 11.8544 637.733 11.8727C637.735 11.8787 637.735 11.8817 637.738 11.8954C637.753 11.9792 637.768 12.0645 637.776 12.1488C637.786 12.2345 637.791 12.3205 637.791 12.4053C637.791 12.4531 637.79 12.5025 637.787 12.5506C637.788 12.5613 637.786 12.5614 637.786 12.5676C637.785 12.5923 637.782 12.6157 637.78 12.6405C637.777 12.6608 637.781 12.6805 637.783 12.7004C637.515 12.753 637.257 12.8312 637.009 12.9442C636.706 13.0825 636.437 13.2648 636.208 13.4951C636.163 13.4628 636.117 13.4321 636.062 13.4004C636.022 13.374 635.981 13.3491 635.94 13.3241C635.923 13.3146 635.907 13.3049 635.88 13.2898C635.841 13.2647 635.804 13.2396 635.766 13.2129C635.688 13.1582 635.614 13.0986 635.544 13.0357C635.509 13.0057 635.477 12.974 635.44 12.9396C635.426 12.9252 635.413 12.9091 635.398 12.8947C635.335 12.8266 635.278 12.7535 635.223 12.6772C635.196 12.6404 635.172 12.6036 635.149 12.5667C635.135 12.546 635.122 12.5269 635.108 12.5016C635.07 12.418 635.027 12.3392 634.993 12.2552C634.956 12.1607 634.869 12.0865 634.768 12.0473C634.768 12.0196 634.764 11.9921 634.765 11.9642C634.778 11.823 634.707 11.6846 634.541 11.656C634.383 11.6269 634.239 11.7234 634.202 11.8632C634.142 12.0925 634.11 12.3092 634.132 12.5467C634.203 13.2989 634.724 13.9195 635.047 14.594C635.84 16.2505 637.274 17.6386 639.104 18.3668C639.713 18.6095 640.379 18.779 641.048 18.6829C641.528 18.6154 642.481 18.2667 641.985 17.6736Z" fill="#78726D"/>
<path d="M552.542 100.729C552.622 100.224 552.557 99.734 552.524 99.1645C552.469 98.211 552.681 97.259 552.677 96.3051C552.674 95.5854 552.233 95.4975 551.793 94.8869C551.303 94.209 550.975 93.3964 550.651 92.6422C550.438 92.1483 550.248 91.6468 550.081 91.1389C549.923 90.6644 549.85 90.1253 549.605 89.68C549.373 89.26 548.929 89.015 548.529 88.7424C547.992 88.3776 547.449 88.0178 546.907 87.6549C545.147 86.4783 543.456 85.3586 541.414 84.6165C543.063 85.7915 544.418 86.9269 545.726 88.4218C546.278 89.2557 546.737 90.1393 547.04 91.0831C547.592 92.805 547.623 94.4646 546.813 96.1027C546.903 95.9191 548.596 96.4838 548.779 96.5619C549.537 96.8913 550.035 97.3636 550.509 97.9811C551.336 99.0594 551.472 100.434 552.266 101.561C552.417 101.27 552.5 100.997 552.542 100.729Z" fill="#78726D"/>
<path d="M579.874 105.736C580.172 105.877 580.468 106.028 580.76 106.184C578.977 104.955 577.172 103.781 575.59 102.359C574.885 101.723 574.208 101.064 573.571 100.371C572.939 99.6843 572.396 98.9059 571.722 98.2558C571.616 98.1534 571.415 98.135 571.302 98.2434C571.001 98.5303 570.37 98.6642 569.971 98.8096C569.496 98.9834 569.017 99.1437 568.525 99.2724C567.59 99.5186 566.625 99.6603 565.653 99.6912C563.712 99.7511 561.752 99.3887 560.012 98.6044C559.942 98.5722 559.874 98.5708 559.809 98.5815C559.747 98.541 559.676 98.5105 559.584 98.5014C559.274 98.472 558.969 98.4996 558.659 98.5089C558.349 98.5213 558.041 98.5289 557.73 98.5336C557.111 98.5429 556.491 98.5569 555.871 98.5584C555.62 98.5605 555.395 98.7169 555.357 98.9484C555.317 99.1893 555.463 99.3801 555.704 99.4668C556.352 99.7013 557.002 99.9342 557.649 100.167C558.196 100.365 558.731 100.582 559.303 100.698C559.46 100.797 559.614 100.9 559.757 101.012C560.118 101.295 560.448 101.613 560.736 101.957C561.065 102.345 561.278 102.792 561.59 103.185C561.65 103.259 561.795 103.297 561.889 103.269C564.122 102.637 566.457 103.738 567.963 105.193C568.096 105.321 568.378 105.321 568.476 105.144C569.455 103.352 572.178 103.575 573.95 103.877C576.017 104.231 578.011 104.849 579.874 105.736Z" fill="#78726D"/>
<path d="M554.432 103.209C554.494 102.988 554.431 102.769 554.507 102.549C554.583 102.326 554.738 102.132 554.909 101.96C555.336 101.53 555.819 101.144 556.272 100.739C556.703 100.356 557.119 99.9537 557.33 99.4286C557.496 99.0177 557.502 98.5748 557.359 98.1623C557.419 98.1088 557.474 98.0525 557.523 97.9951C557.706 97.7819 557.828 97.5206 557.914 97.2632C558.091 96.7313 558.139 96.1714 558.163 95.6193C558.177 95.3038 557.657 95.2059 557.557 95.5229C557.545 95.5622 557.536 95.5999 557.523 95.6393C557.51 95.6557 557.428 95.7554 557.471 95.7046C557.398 95.7883 557.332 95.87 557.268 95.9608C557.165 96.1129 557.058 96.2561 556.939 96.3985C556.91 96.433 556.884 96.4672 556.854 96.5016C556.842 96.5163 556.83 96.5311 556.817 96.5458C556.813 96.5492 556.811 96.5524 556.8 96.5624C556.736 96.627 556.672 96.6901 556.605 96.7487C556.538 96.809 556.468 96.8647 556.394 96.9176C556.353 96.9483 556.309 96.9775 556.268 97.0066C556.258 97.0119 556.256 97.0136 556.252 97.0155C556.231 97.0293 556.208 97.0432 556.186 97.0555C556.166 97.0662 556.152 97.0825 556.136 97.096C555.927 96.9349 555.701 96.798 555.453 96.6889C555.149 96.5559 554.826 96.4767 554.489 96.454C554.49 96.4015 554.488 96.3493 554.482 96.2896C554.478 96.2451 554.476 96.199 554.471 96.1546C554.47 96.1362 554.468 96.1178 554.465 96.0888C554.463 96.0457 554.461 96.0027 554.461 95.9595C554.461 95.8686 554.466 95.7788 554.476 95.6887C554.481 95.6451 554.488 95.603 554.494 95.5548C554.5 95.5359 554.503 95.5156 554.509 95.4968C554.53 95.4074 554.556 95.3208 554.588 95.2337C554.603 95.1941 554.619 95.153 554.638 95.1131C554.646 95.0894 554.656 95.0686 554.669 95.043C554.717 94.9641 554.758 94.8827 554.811 94.8049C554.871 94.7206 554.879 94.6121 554.851 94.5154C554.875 94.4983 554.897 94.4782 554.922 94.4627C555.05 94.3828 555.126 94.2464 555.051 94.1083C554.979 93.9792 554.807 93.9341 554.665 93.9949C554.432 94.0945 554.224 94.2061 554.034 94.3674C553.432 94.8859 553.217 95.6471 552.835 96.2997C551.896 97.9009 551.581 99.7977 552.074 101.567C552.237 102.156 552.498 102.742 552.99 103.164C553.342 103.466 554.224 103.936 554.432 103.209Z" fill="#78726D"/>
</svg>
