<svg width="977" height="125" viewBox="0 0 977 125" fill="none" xmlns="http://www.w3.org/2000/svg">
<mask id="path-1-outside-1_228_3764" maskUnits="userSpaceOnUse" x="4" y="0" width="969" height="125" fill="black">
<rect fill="white" x="4" width="969" height="125"/>
<path d="M42.3501 103.7H73.1502V124H28.7001C21.0001 116.767 15.1667 107.608 11.2 96.5249C7.23336 85.4415 5.25002 74.0665 5.25002 62.3998C5.25002 50.6164 7.46669 39.2997 11.9 28.4497C16.3334 17.5997 22.9251 8.6163 31.6751 1.49962H73.1502V22.4997H42.3501C39.2001 26.1164 36.4584 31.9497 34.1251 39.9997C31.9084 48.0498 30.8001 55.7498 30.8001 63.0998C30.8001 70.4498 31.9084 78.1499 34.1251 86.1999C36.4584 94.2499 39.2001 100.083 42.3501 103.7ZM85.9882 1.49962H132.538C139.888 3.94963 146.13 8.49964 151.263 15.1497C156.513 21.683 159.138 29.733 159.138 39.2997C159.138 54.9331 152.955 66.4248 140.588 73.7748L158.263 124H133.763L118.888 79.3749H109.613V124H85.9882V1.49962ZM109.613 22.4997V59.7748H124.663C126.647 59.3081 128.805 57.3248 131.138 53.8248C133.588 50.2081 134.813 46.0081 134.813 41.2247C134.813 36.4414 133.763 32.2414 131.663 28.6247C129.68 25.008 127.697 22.9664 125.713 22.4997H109.613ZM223.93 124L220.255 104.575H192.604L188.929 124H165.129L188.754 1.49962H224.98L247.38 124H223.93ZM206.08 24.2497L199.255 65.0248L195.404 85.8499H217.28L213.255 65.0248L206.43 24.2497H206.08ZM289.812 103.7H320.612V124H276.162C268.462 116.767 262.628 107.608 258.662 96.5249C254.695 85.4415 252.712 74.0665 252.712 62.3998C252.712 50.6164 254.928 39.2997 259.362 28.4497C263.795 17.5997 270.387 8.6163 279.137 1.49962H320.612V22.4997H289.812C286.662 26.1164 283.92 31.9497 281.587 39.9997C279.37 48.0498 278.262 55.7498 278.262 63.0998C278.262 70.4498 279.37 78.1499 281.587 86.1999C283.92 94.2499 286.662 100.083 289.812 103.7ZM333.45 124V1.49962H357.425V53.1248H358.3L380.175 1.49962H404.85L379.3 59.9498L406.075 124H379.475L358.65 70.4498H357.425V124H333.45ZM438.431 124H414.456V1.49962H438.431V50.8498H466.431V1.49962H490.406V124H466.431V73.2498H438.431V124ZM537.529 103.7H552.229C554.796 100.9 556.604 98.0999 557.654 95.2999C558.821 92.3832 559.404 88.1249 559.404 82.5249V1.49962H583.379V73.7748C583.379 79.7249 583.204 84.3915 582.854 87.7749C582.621 91.0416 581.921 95.0666 580.754 99.8499C578.771 108.367 573.288 116.417 564.304 124H525.454C516.471 116.65 510.987 108.6 509.004 99.8499C507.254 92.7332 506.379 84.0415 506.379 73.7748V1.49962H530.354V82.5249C530.354 88.1249 530.879 92.3832 531.929 95.2999C533.096 98.0999 534.963 100.9 537.529 103.7ZM653.969 124L621.244 56.2748L620.369 56.6248L621.419 77.2749V124H599.369V1.49962H617.044L649.244 71.8498L650.119 71.4998L648.194 49.9748V1.49962H670.244V124H653.969ZM706.815 22.4997H680.39V1.49962H757.04V22.4997H730.615V124H706.815V22.4997ZM790.319 106.5L825.144 23.7247L824.619 22.4997H793.994V1.49962H831.794C841.944 5.8163 847.019 12.6997 847.019 22.1497C847.019 27.283 845.736 33.1164 843.169 39.6497C842.469 41.6331 841.886 43.2664 841.419 44.5498C840.952 45.8331 840.194 47.6998 839.144 50.1498C838.094 52.4831 837.336 54.2331 836.869 55.3998C834.886 59.9498 833.019 64.1498 831.269 67.9998L815.519 103.7H846.144V124H790.319V106.5ZM858.077 98.0999H883.277V124H858.077V98.0999ZM950.063 124H916.638C908.821 116.183 903.163 106.967 899.663 96.3499C896.279 85.7332 894.588 75.1165 894.588 64.4998C894.588 37.3164 901.938 16.3163 916.638 1.49962H950.063C957.763 9.31631 963.363 18.533 966.863 29.1497C970.363 39.6497 972.113 50.1498 972.113 60.6498C972.113 88.1832 964.763 109.3 950.063 124ZM940.963 22.4997H925.913C920.779 32.9997 918.213 46.3581 918.213 62.5748C918.213 78.7915 920.721 92.4999 925.738 103.7H941.138C946.154 90.8666 948.663 76.7499 948.663 61.3498C948.663 45.9498 946.096 32.9997 940.963 22.4997Z"/>
</mask>
<path d="M42.3501 103.7H73.1502V124H28.7001C21.0001 116.767 15.1667 107.608 11.2 96.5249C7.23336 85.4415 5.25002 74.0665 5.25002 62.3998C5.25002 50.6164 7.46669 39.2997 11.9 28.4497C16.3334 17.5997 22.9251 8.6163 31.6751 1.49962H73.1502V22.4997H42.3501C39.2001 26.1164 36.4584 31.9497 34.1251 39.9997C31.9084 48.0498 30.8001 55.7498 30.8001 63.0998C30.8001 70.4498 31.9084 78.1499 34.1251 86.1999C36.4584 94.2499 39.2001 100.083 42.3501 103.7ZM85.9882 1.49962H132.538C139.888 3.94963 146.13 8.49964 151.263 15.1497C156.513 21.683 159.138 29.733 159.138 39.2997C159.138 54.9331 152.955 66.4248 140.588 73.7748L158.263 124H133.763L118.888 79.3749H109.613V124H85.9882V1.49962ZM109.613 22.4997V59.7748H124.663C126.647 59.3081 128.805 57.3248 131.138 53.8248C133.588 50.2081 134.813 46.0081 134.813 41.2247C134.813 36.4414 133.763 32.2414 131.663 28.6247C129.68 25.008 127.697 22.9664 125.713 22.4997H109.613ZM223.93 124L220.255 104.575H192.604L188.929 124H165.129L188.754 1.49962H224.98L247.38 124H223.93ZM206.08 24.2497L199.255 65.0248L195.404 85.8499H217.28L213.255 65.0248L206.43 24.2497H206.08ZM289.812 103.7H320.612V124H276.162C268.462 116.767 262.628 107.608 258.662 96.5249C254.695 85.4415 252.712 74.0665 252.712 62.3998C252.712 50.6164 254.928 39.2997 259.362 28.4497C263.795 17.5997 270.387 8.6163 279.137 1.49962H320.612V22.4997H289.812C286.662 26.1164 283.92 31.9497 281.587 39.9997C279.37 48.0498 278.262 55.7498 278.262 63.0998C278.262 70.4498 279.37 78.1499 281.587 86.1999C283.92 94.2499 286.662 100.083 289.812 103.7ZM333.45 124V1.49962H357.425V53.1248H358.3L380.175 1.49962H404.85L379.3 59.9498L406.075 124H379.475L358.65 70.4498H357.425V124H333.45ZM438.431 124H414.456V1.49962H438.431V50.8498H466.431V1.49962H490.406V124H466.431V73.2498H438.431V124ZM537.529 103.7H552.229C554.796 100.9 556.604 98.0999 557.654 95.2999C558.821 92.3832 559.404 88.1249 559.404 82.5249V1.49962H583.379V73.7748C583.379 79.7249 583.204 84.3915 582.854 87.7749C582.621 91.0416 581.921 95.0666 580.754 99.8499C578.771 108.367 573.288 116.417 564.304 124H525.454C516.471 116.65 510.987 108.6 509.004 99.8499C507.254 92.7332 506.379 84.0415 506.379 73.7748V1.49962H530.354V82.5249C530.354 88.1249 530.879 92.3832 531.929 95.2999C533.096 98.0999 534.963 100.9 537.529 103.7ZM653.969 124L621.244 56.2748L620.369 56.6248L621.419 77.2749V124H599.369V1.49962H617.044L649.244 71.8498L650.119 71.4998L648.194 49.9748V1.49962H670.244V124H653.969ZM706.815 22.4997H680.39V1.49962H757.04V22.4997H730.615V124H706.815V22.4997ZM790.319 106.5L825.144 23.7247L824.619 22.4997H793.994V1.49962H831.794C841.944 5.8163 847.019 12.6997 847.019 22.1497C847.019 27.283 845.736 33.1164 843.169 39.6497C842.469 41.6331 841.886 43.2664 841.419 44.5498C840.952 45.8331 840.194 47.6998 839.144 50.1498C838.094 52.4831 837.336 54.2331 836.869 55.3998C834.886 59.9498 833.019 64.1498 831.269 67.9998L815.519 103.7H846.144V124H790.319V106.5ZM858.077 98.0999H883.277V124H858.077V98.0999ZM950.063 124H916.638C908.821 116.183 903.163 106.967 899.663 96.3499C896.279 85.7332 894.588 75.1165 894.588 64.4998C894.588 37.3164 901.938 16.3163 916.638 1.49962H950.063C957.763 9.31631 963.363 18.533 966.863 29.1497C970.363 39.6497 972.113 50.1498 972.113 60.6498C972.113 88.1832 964.763 109.3 950.063 124ZM940.963 22.4997H925.913C920.779 32.9997 918.213 46.3581 918.213 62.5748C918.213 78.7915 920.721 92.4999 925.738 103.7H941.138C946.154 90.8666 948.663 76.7499 948.663 61.3498C948.663 45.9498 946.096 32.9997 940.963 22.4997Z" fill="#0F0F0F"/>
<path d="M42.3501 103.7L41.9597 104.04L42.1145 104.218H42.3501V103.7ZM73.1502 103.7H73.668V103.182H73.1502V103.7ZM73.1502 124V124.518H73.668V124H73.1502ZM28.7001 124L28.3456 124.377L28.495 124.518H28.7001V124ZM11.2 96.5249L11.6875 96.3505L11.2 96.5249ZM11.9 28.4497L12.3793 28.6455L12.3793 28.6455L11.9 28.4497ZM31.6751 1.49962V0.981865H31.4911L31.3484 1.09795L31.6751 1.49962ZM73.1502 1.49962H73.668V0.981865H73.1502V1.49962ZM73.1502 22.4997V23.0174H73.668V22.4997H73.1502ZM42.3501 22.4997V21.9819H42.1145L41.9597 22.1596L42.3501 22.4997ZM34.1251 39.9997L33.6278 39.8556L33.6259 39.8623L34.1251 39.9997ZM34.1251 86.1999L33.6259 86.3373L33.6278 86.344L34.1251 86.1999ZM42.3501 104.218H73.1502V103.182H42.3501V104.218ZM72.6325 103.7V124H73.668V103.7H72.6325ZM73.1502 123.482H28.7001V124.518H73.1502V123.482ZM29.0546 123.623C21.4209 116.452 15.6298 107.366 11.6875 96.3505L10.7126 96.6994C14.7037 107.851 20.5792 117.082 28.3456 124.377L29.0546 123.623ZM11.6875 96.3505C7.74068 85.3226 5.76777 74.0065 5.76777 62.3998H4.73226C4.73226 74.1265 6.72603 85.5605 10.7126 96.6994L11.6875 96.3505ZM5.76777 62.3998C5.76777 50.6832 7.97152 39.4331 12.3793 28.6455L11.4208 28.2539C6.96186 39.1664 4.73226 50.5497 4.73226 62.3998H5.76777ZM12.3793 28.6455C16.7812 17.8725 23.3218 8.96105 32.0018 1.90129L31.3484 1.09795C22.5284 8.27156 15.8856 17.3268 11.4208 28.2539L12.3793 28.6455ZM31.6751 2.01737H73.1502V0.981865H31.6751V2.01737ZM72.6325 1.49962V22.4997H73.668V1.49962H72.6325ZM73.1502 21.9819H42.3501V23.0174H73.1502V21.9819ZM41.9597 22.1596C38.7362 25.8607 35.9687 31.7795 33.6278 39.8556L34.6224 40.1439C36.9482 32.1199 39.664 26.372 42.7406 22.8397L41.9597 22.1596ZM33.6259 39.8623C31.3986 47.9511 30.2823 55.6975 30.2823 63.0998H31.3178C31.3178 55.802 32.4183 48.1484 34.6243 40.1372L33.6259 39.8623ZM30.2823 63.0998C30.2823 70.5021 31.3986 78.2485 33.6259 86.3373L34.6243 86.0624C32.4183 78.0512 31.3178 70.3976 31.3178 63.0998H30.2823ZM33.6278 86.344C35.9687 94.4201 38.7362 100.339 41.9597 104.04L42.7406 103.36C39.664 99.8276 36.9482 94.0797 34.6224 86.0557L33.6278 86.344ZM85.9882 1.49962V0.981865H85.4704V1.49962H85.9882ZM132.538 1.49962L132.702 1.00843L132.622 0.981865H132.538V1.49962ZM151.263 15.1497L150.853 15.4661L150.86 15.474L151.263 15.1497ZM140.588 73.7748L140.324 73.3298L139.959 73.5465L140.1 73.9467L140.588 73.7748ZM158.263 124V124.518H158.994L158.752 123.828L158.263 124ZM133.763 124L133.272 124.164L133.39 124.518H133.763V124ZM118.888 79.3749L119.379 79.2111L119.261 78.8571H118.888V79.3749ZM109.613 79.3749V78.8571H109.095V79.3749H109.613ZM109.613 124V124.518H110.131V124H109.613ZM85.9882 124H85.4704V124.518H85.9882V124ZM109.613 22.4997V21.9819H109.095V22.4997H109.613ZM109.613 59.7748H109.095V60.2926H109.613V59.7748ZM124.663 59.7748V60.2926H124.723L124.782 60.2788L124.663 59.7748ZM131.138 53.8248L130.71 53.5344L130.707 53.5376L131.138 53.8248ZM131.663 28.6247L131.209 28.8737L131.216 28.8847L131.663 28.6247ZM125.713 22.4997L125.832 21.9957L125.773 21.9819H125.713V22.4997ZM85.9882 2.01737H132.538V0.981865H85.9882V2.01737ZM132.375 1.9908C139.619 4.40553 145.777 8.89026 150.854 15.466L151.673 14.8333C146.483 8.10903 140.158 3.49373 132.702 1.00843L132.375 1.9908ZM150.86 15.474C156.026 21.9026 158.621 29.8334 158.621 39.2997H159.656C159.656 29.6327 157.001 21.4635 151.667 14.8253L150.86 15.474ZM158.621 39.2997C158.621 54.7696 152.518 66.0824 140.324 73.3298L140.853 74.2199C153.392 66.7672 159.656 55.0966 159.656 39.2997H158.621ZM140.1 73.9467L157.775 124.172L158.752 123.828L141.077 73.603L140.1 73.9467ZM158.263 123.482H133.763V124.518H158.263V123.482ZM134.254 123.836L119.379 79.2111L118.397 79.5386L133.272 124.164L134.254 123.836ZM118.888 78.8571H109.613V79.8926H118.888V78.8571ZM109.095 79.3749V124H110.131V79.3749H109.095ZM109.613 123.482H85.9882V124.518H109.613V123.482ZM86.5059 124V1.49962H85.4704V124H86.5059ZM109.095 22.4997V59.7748H110.131V22.4997H109.095ZM109.613 60.2926H124.663V59.257H109.613V60.2926ZM124.782 60.2788C126.974 59.763 129.228 57.6229 131.569 54.112L130.707 53.5376C128.381 57.0267 126.319 58.8533 124.545 59.2708L124.782 60.2788ZM131.567 54.1152C134.081 50.4046 135.331 46.1013 135.331 41.2247H134.296C134.296 45.9148 133.096 50.0116 130.71 53.5344L131.567 54.1152ZM135.331 41.2247C135.331 36.3634 134.263 32.0712 132.111 28.3647L131.216 28.8847C133.263 32.4116 134.296 36.5194 134.296 41.2247H135.331ZM132.117 28.3758C130.127 24.7459 128.049 22.5175 125.832 21.9957L125.595 23.0037C127.344 23.4152 129.233 25.2702 131.209 28.8737L132.117 28.3758ZM125.713 21.9819H109.613V23.0174H125.713V21.9819ZM223.93 124L223.421 124.096L223.501 124.518H223.93V124ZM220.255 104.575L220.763 104.479L220.684 104.057H220.255V104.575ZM192.604 104.575V104.057H192.176L192.096 104.479L192.604 104.575ZM188.929 124V124.518H189.358L189.438 124.096L188.929 124ZM165.129 124L164.621 123.902L164.502 124.518H165.129V124ZM188.754 1.49962V0.981865H188.327L188.246 1.40157L188.754 1.49962ZM224.98 1.49962L225.489 1.40649L225.411 0.981865H224.98V1.49962ZM247.38 124V124.518H248.001L247.889 123.907L247.38 124ZM206.08 24.2497V23.7319H205.641L205.569 24.1642L206.08 24.2497ZM199.255 65.0248L199.764 65.119L199.765 65.1103L199.255 65.0248ZM195.404 85.8499L194.895 85.7558L194.782 86.3676H195.404V85.8499ZM217.28 85.8499V86.3676H217.907L217.788 85.7516L217.28 85.8499ZM213.255 65.0248L212.744 65.1103L212.746 65.1231L213.255 65.0248ZM206.43 24.2497L206.94 24.1642L206.868 23.7319H206.43V24.2497ZM224.438 123.904L220.763 104.479L219.746 104.671L223.421 124.096L224.438 123.904ZM220.255 104.057H192.604V105.093H220.255V104.057ZM192.096 104.479L188.421 123.904L189.438 124.096L193.113 104.671L192.096 104.479ZM188.929 123.482H165.129V124.518H188.929V123.482ZM165.638 124.098L189.263 1.59766L188.246 1.40157L164.621 123.902L165.638 124.098ZM188.754 2.01737H224.98V0.981865H188.754V2.01737ZM224.47 1.59275L246.87 124.093L247.889 123.907L225.489 1.40649L224.47 1.59275ZM247.38 123.482H223.93V124.518H247.38V123.482ZM205.569 24.1642L198.744 64.9393L199.765 65.1103L206.59 24.3352L205.569 24.1642ZM198.745 64.9307L194.895 85.7558L195.914 85.944L199.764 65.1189L198.745 64.9307ZM195.404 86.3676H217.28V85.3321H195.404V86.3676ZM217.788 85.7516L213.763 64.9266L212.746 65.1231L216.771 85.9481L217.788 85.7516ZM213.765 64.9393L206.94 24.1642L205.919 24.3352L212.744 65.1103L213.765 64.9393ZM206.43 23.7319H206.08V24.7674H206.43V23.7319ZM289.812 103.7L289.421 104.04L289.576 104.218H289.812V103.7ZM320.612 103.7H321.13V103.182H320.612V103.7ZM320.612 124V124.518H321.13V124H320.612ZM276.162 124L275.807 124.377L275.957 124.518H276.162V124ZM258.662 96.5249L259.149 96.3505L258.662 96.5249ZM259.362 28.4497L259.841 28.6455L259.841 28.6455L259.362 28.4497ZM279.137 1.49962V0.981865H278.953L278.81 1.09795L279.137 1.49962ZM320.612 1.49962H321.13V0.981865H320.612V1.49962ZM320.612 22.4997V23.0174H321.13V22.4997H320.612ZM289.812 22.4997V21.9819H289.576L289.421 22.1596L289.812 22.4997ZM281.587 39.9997L281.089 39.8556L281.088 39.8623L281.587 39.9997ZM281.587 86.1999L281.088 86.3373L281.09 86.344L281.587 86.1999ZM289.812 104.218H320.612V103.182H289.812V104.218ZM320.094 103.7V124H321.13V103.7H320.094ZM320.612 123.482H276.162V124.518H320.612V123.482ZM276.516 123.623C268.883 116.452 263.091 107.366 259.149 96.3505L258.174 96.6994C262.165 107.851 268.041 117.082 275.807 124.377L276.516 123.623ZM259.149 96.3505C255.202 85.3226 253.229 74.0065 253.229 62.3998H252.194C252.194 74.1265 254.188 85.5605 258.174 96.6994L259.149 96.3505ZM253.229 62.3998C253.229 50.6832 255.433 39.4331 259.841 28.6455L258.882 28.2539C254.424 39.1664 252.194 50.5497 252.194 62.3998H253.229ZM259.841 28.6455C264.243 17.8725 270.783 8.96105 279.463 1.90129L278.81 1.09795C269.99 8.27156 263.347 17.3268 258.882 28.2539L259.841 28.6455ZM279.137 2.01737H320.612V0.981865H279.137V2.01737ZM320.094 1.49962V22.4997H321.13V1.49962H320.094ZM320.612 21.9819H289.812V23.0174H320.612V21.9819ZM289.421 22.1596C286.198 25.8607 283.43 31.7795 281.09 39.8556L282.084 40.1439C284.41 32.1199 287.126 26.372 290.202 22.8397L289.421 22.1596ZM281.088 39.8623C278.86 47.9511 277.744 55.6975 277.744 63.0998H278.78C278.78 55.802 279.88 48.1484 282.086 40.1372L281.088 39.8623ZM277.744 63.0998C277.744 70.5021 278.86 78.2485 281.088 86.3373L282.086 86.0624C279.88 78.0512 278.78 70.3976 278.78 63.0998H277.744ZM281.09 86.344C283.43 94.4201 286.198 100.339 289.421 104.04L290.202 103.36C287.126 99.8276 284.41 94.0797 282.084 86.0557L281.09 86.344ZM333.45 124H332.932V124.518H333.45V124ZM333.45 1.49962V0.981865H332.932V1.49962H333.45ZM357.425 1.49962H357.943V0.981865H357.425V1.49962ZM357.425 53.1248H356.907V53.6425H357.425V53.1248ZM358.3 53.1248V53.6425H358.643L358.777 53.3268L358.3 53.1248ZM380.175 1.49962V0.981865H379.832L379.698 1.29762L380.175 1.49962ZM404.85 1.49962L405.324 1.70699L405.641 0.981865H404.85V1.49962ZM379.3 59.9498L378.826 59.7424L378.737 59.9453L378.822 60.1495L379.3 59.9498ZM406.075 124V124.518H406.853L406.553 123.8L406.075 124ZM379.475 124L378.992 124.188L379.121 124.518H379.475V124ZM358.65 70.4498L359.132 70.2622L359.004 69.9321H358.65V70.4498ZM357.425 70.4498V69.9321H356.907V70.4498H357.425ZM357.425 124V124.518H357.943V124H357.425ZM333.968 124V1.49962H332.932V124H333.968ZM333.45 2.01737H357.425V0.981865H333.45V2.01737ZM356.907 1.49962V53.1248H357.943V1.49962H356.907ZM357.425 53.6425H358.3V52.607H357.425V53.6425ZM358.777 53.3268L380.652 1.70162L379.698 1.29762L357.823 52.9228L358.777 53.3268ZM380.175 2.01737H404.85V0.981865H380.175V2.01737ZM404.376 1.29224L378.826 59.7424L379.774 60.1572L405.324 1.70699L404.376 1.29224ZM378.822 60.1495L405.597 124.2L406.553 123.8L379.778 59.7501L378.822 60.1495ZM406.075 123.482H379.475V124.518H406.075V123.482ZM379.958 123.812L359.132 70.2622L358.167 70.6375L378.992 124.188L379.958 123.812ZM358.65 69.9321H357.425V70.9676H358.65V69.9321ZM356.907 70.4498V124H357.943V70.4498H356.907ZM357.425 123.482H333.45V124.518H357.425V123.482ZM438.431 124V124.518H438.949V124H438.431ZM414.456 124H413.938V124.518H414.456V124ZM414.456 1.49962V0.981865H413.938V1.49962H414.456ZM438.431 1.49962H438.949V0.981865H438.431V1.49962ZM438.431 50.8498H437.913V51.3675H438.431V50.8498ZM466.431 50.8498V51.3675H466.949V50.8498H466.431ZM466.431 1.49962V0.981865H465.913V1.49962H466.431ZM490.406 1.49962H490.924V0.981865H490.406V1.49962ZM490.406 124V124.518H490.924V124H490.406ZM466.431 124H465.913V124.518H466.431V124ZM466.431 73.2498H466.949V72.7321H466.431V73.2498ZM438.431 73.2498V72.7321H437.913V73.2498H438.431ZM438.431 123.482H414.456V124.518H438.431V123.482ZM414.974 124V1.49962H413.938V124H414.974ZM414.456 2.01737H438.431V0.981865H414.456V2.01737ZM437.913 1.49962V50.8498H438.949V1.49962H437.913ZM438.431 51.3675H466.431V50.332H438.431V51.3675ZM466.949 50.8498V1.49962H465.913V50.8498H466.949ZM466.431 2.01737H490.406V0.981865H466.431V2.01737ZM489.888 1.49962V124H490.924V1.49962H489.888ZM490.406 123.482H466.431V124.518H490.406V123.482ZM466.949 124V73.2498H465.913V124H466.949ZM466.431 72.7321H438.431V73.7676H466.431V72.7321ZM437.913 73.2498V124H438.949V73.2498H437.913ZM537.529 103.7L537.148 104.05L537.301 104.218H537.529V103.7ZM552.229 103.7V104.218H552.457L552.611 104.05L552.229 103.7ZM557.654 95.2999L557.173 95.1076L557.169 95.1181L557.654 95.2999ZM559.404 1.49962V0.981865H558.886V1.49962H559.404ZM583.379 1.49962H583.897V0.981865H583.379V1.49962ZM582.854 87.7749L582.339 87.7216L582.338 87.7298L582.338 87.738L582.854 87.7749ZM580.754 99.8499L580.251 99.7272L580.25 99.7325L580.754 99.8499ZM564.304 124V124.518H564.494L564.638 124.396L564.304 124ZM525.454 124L525.126 124.401L525.269 124.518H525.454V124ZM509.004 99.8499L509.509 99.7355L509.507 99.7263L509.004 99.8499ZM506.379 1.49962V0.981865H505.861V1.49962H506.379ZM530.354 1.49962H530.872V0.981865H530.354V1.49962ZM531.929 95.2999L531.442 95.4753L531.446 95.4873L531.451 95.499L531.929 95.2999ZM537.529 104.218H552.229V103.182H537.529V104.218ZM552.611 104.05C555.211 101.214 557.06 98.3581 558.139 95.4817L557.169 95.1181C556.148 97.8417 554.381 100.586 551.848 103.35L552.611 104.05ZM558.135 95.4922C559.338 92.484 559.922 88.1474 559.922 82.5249H558.886C558.886 88.1024 558.304 92.2824 557.174 95.1076L558.135 95.4922ZM559.922 82.5249V1.49962H558.886V82.5249H559.922ZM559.404 2.01737H583.379V0.981865H559.404V2.01737ZM582.862 1.49962V73.7748H583.897V1.49962H582.862ZM582.862 73.7748C582.862 79.7181 582.687 84.3643 582.339 87.7216L583.369 87.8282C583.722 84.4188 583.897 79.7316 583.897 73.7748H582.862ZM582.338 87.738C582.107 90.9652 581.414 94.9595 580.251 99.7272L581.257 99.9726C582.428 95.1736 583.135 91.1179 583.371 87.8118L582.338 87.738ZM580.25 99.7325C578.299 108.109 572.897 116.068 563.97 123.604L564.638 124.396C573.678 116.765 579.242 108.625 581.259 99.9674L580.25 99.7325ZM564.304 123.482H525.454V124.518H564.304V123.482ZM525.782 123.599C516.861 116.301 511.46 108.344 509.509 99.7355L508.499 99.9644C510.515 108.856 516.08 116.999 525.126 124.401L525.782 123.599ZM509.507 99.7263C507.77 92.6626 506.897 84.0151 506.897 73.7748H505.861C505.861 84.068 506.738 92.8039 508.501 99.9736L509.507 99.7263ZM506.897 73.7748V1.49962H505.861V73.7748H506.897ZM506.379 2.01737H530.354V0.981865H506.379V2.01737ZM529.836 1.49962V82.5249H530.872V1.49962H529.836ZM529.836 82.5249C529.836 88.1445 530.362 92.4741 531.442 95.4753L532.416 95.1245C531.397 92.2924 530.872 88.1052 530.872 82.5249H529.836ZM531.451 95.499C532.646 98.3665 534.55 101.216 537.148 104.05L537.911 103.35C535.375 100.584 533.546 97.8334 532.407 95.1008L531.451 95.499ZM653.969 124L653.503 124.225L653.644 124.518H653.969V124ZM621.244 56.2748L621.71 56.0495L621.5 55.6147L621.051 55.7941L621.244 56.2748ZM620.369 56.6248L620.176 56.1441L619.833 56.2815L619.852 56.6511L620.369 56.6248ZM621.419 77.2749H621.936V77.2617L621.936 77.2486L621.419 77.2749ZM621.419 124V124.518H621.936V124H621.419ZM599.369 124H598.851V124.518H599.369V124ZM599.369 1.49962V0.981865H598.851V1.49962H599.369ZM617.044 1.49962L617.514 1.28414L617.376 0.981865H617.044V1.49962ZM649.244 71.8498L648.773 72.0653L648.978 72.5137L649.436 72.3306L649.244 71.8498ZM650.119 71.4998L650.311 71.9806L650.669 71.8375L650.635 71.4537L650.119 71.4998ZM648.194 49.9748H647.676V49.9979L647.678 50.0209L648.194 49.9748ZM648.194 1.49962V0.981865H647.676V1.49962H648.194ZM670.244 1.49962H670.762V0.981865H670.244V1.49962ZM670.244 124V124.518H670.762V124H670.244ZM654.435 123.775L621.71 56.0495L620.778 56.5001L653.503 124.225L654.435 123.775ZM621.051 55.7941L620.176 56.1441L620.561 57.1055L621.436 56.7555L621.051 55.7941ZM619.852 56.6511L620.902 77.3011L621.936 77.2486L620.886 56.5985L619.852 56.6511ZM620.901 77.2749V124H621.936V77.2749H620.901ZM621.419 123.482H599.369V124.518H621.419V123.482ZM599.886 124V1.49962H598.851V124H599.886ZM599.369 2.01737H617.044V0.981865H599.369V2.01737ZM616.573 1.7151L648.773 72.0653L649.715 71.6344L617.514 1.28414L616.573 1.7151ZM649.436 72.3306L650.311 71.9806L649.927 71.0191L649.052 71.3691L649.436 72.3306ZM650.635 71.4537L648.71 49.9287L647.678 50.0209L649.603 71.546L650.635 71.4537ZM648.712 49.9748V1.49962H647.676V49.9748H648.712ZM648.194 2.01737H670.244V0.981865H648.194V2.01737ZM669.726 1.49962V124H670.762V1.49962H669.726ZM670.244 123.482H653.969V124.518H670.244V123.482ZM706.815 22.4997H707.333V21.9819H706.815V22.4997ZM680.39 22.4997H679.872V23.0174H680.39V22.4997ZM680.39 1.49962V0.981865H679.872V1.49962H680.39ZM757.04 1.49962H757.558V0.981865H757.04V1.49962ZM757.04 22.4997V23.0174H757.558V22.4997H757.04ZM730.615 22.4997V21.9819H730.097V22.4997H730.615ZM730.615 124V124.518H731.133V124H730.615ZM706.815 124H706.297V124.518H706.815V124ZM706.815 21.9819H680.39V23.0174H706.815V21.9819ZM680.908 22.4997V1.49962H679.872V22.4997H680.908ZM680.39 2.01737H757.04V0.981865H680.39V2.01737ZM756.522 1.49962V22.4997H757.558V1.49962H756.522ZM757.04 21.9819H730.615V23.0174H757.04V21.9819ZM730.097 22.4997V124H731.133V22.4997H730.097ZM730.615 123.482H706.815V124.518H730.615V123.482ZM707.333 124V22.4997H706.297V124H707.333ZM790.319 106.5L789.842 106.299L789.801 106.395V106.5H790.319ZM825.144 23.7247L825.621 23.9255L825.706 23.7228L825.62 23.5207L825.144 23.7247ZM824.619 22.4997L825.095 22.2957L824.96 21.9819H824.619V22.4997ZM793.994 22.4997H793.476V23.0174H793.994V22.4997ZM793.994 1.49962V0.981865H793.476V1.49962H793.994ZM831.794 1.49962L831.997 1.02316L831.899 0.981865H831.794V1.49962ZM843.169 39.6497L842.687 39.4604L842.684 39.4689L842.681 39.4774L843.169 39.6497ZM841.419 44.5498L840.932 44.3728L840.932 44.3728L841.419 44.5498ZM839.144 50.1498L839.616 50.3623L839.62 50.3537L839.144 50.1498ZM836.869 55.3998L837.344 55.6067L837.347 55.5994L837.35 55.5921L836.869 55.3998ZM831.269 67.9998L830.798 67.7856L830.795 67.7908L831.269 67.9998ZM815.519 103.7L815.045 103.491L814.725 104.218H815.519V103.7ZM846.144 103.7H846.662V103.182H846.144V103.7ZM846.144 124V124.518H846.662V124H846.144ZM790.319 124H789.801V124.518H790.319V124ZM790.796 106.701L825.621 23.9255L824.667 23.5239L789.842 106.299L790.796 106.701ZM825.62 23.5207L825.095 22.2957L824.143 22.7036L824.668 23.9286L825.62 23.5207ZM824.619 21.9819H793.994V23.0174H824.619V21.9819ZM794.512 22.4997V1.49962H793.476V22.4997H794.512ZM793.994 2.01737H831.794V0.981865H793.994V2.01737ZM831.591 1.97607C836.605 4.10846 840.327 6.85839 842.796 10.2069C845.261 13.5502 846.501 17.523 846.501 22.1497H847.537C847.537 17.3263 846.239 13.1324 843.629 9.59239C841.023 6.05754 837.133 3.20746 831.997 1.02316L831.591 1.97607ZM846.501 22.1497C846.501 27.1992 845.238 32.9667 842.687 39.4604L843.651 39.8391C846.233 33.2661 847.537 27.3669 847.537 22.1497H846.501ZM842.681 39.4774C841.981 41.4599 841.398 43.0916 840.932 44.3728L841.906 44.7267C842.373 43.4412 842.957 41.8062 843.657 39.8221L842.681 39.4774ZM840.932 44.3728C840.471 45.6421 839.717 47.498 838.668 49.9458L839.62 50.3537C840.671 47.9015 841.434 46.0241 841.906 44.7267L840.932 44.3728ZM838.672 49.9373C837.621 52.272 836.859 54.0302 836.388 55.2075L837.35 55.5921C837.812 54.436 838.567 52.6942 839.616 50.3622L838.672 49.9373ZM836.394 55.1929C834.412 59.7409 832.546 63.9384 830.798 67.7856L831.74 68.2141C833.492 64.3612 835.359 60.1587 837.344 55.6067L836.394 55.1929ZM830.795 67.7908L815.045 103.491L815.993 103.909L831.743 68.2088L830.795 67.7908ZM815.519 104.218H846.144V103.182H815.519V104.218ZM845.626 103.7V124H846.662V103.7H845.626ZM846.144 123.482H790.319V124.518H846.144V123.482ZM790.837 124V106.5H789.801V124H790.837ZM858.077 98.0999V97.5822H857.559V98.0999H858.077ZM883.277 98.0999H883.795V97.5822H883.277V98.0999ZM883.277 124V124.518H883.795V124H883.277ZM858.077 124H857.559V124.518H858.077V124ZM858.077 98.6177H883.277V97.5822H858.077V98.6177ZM882.759 98.0999V124H883.795V98.0999H882.759ZM883.277 123.482H858.077V124.518H883.277V123.482ZM858.595 124V98.0999H857.559V124H858.595ZM950.063 124V124.518H950.277L950.429 124.366L950.063 124ZM916.638 124L916.272 124.366L916.423 124.518H916.638V124ZM899.663 96.3499L899.169 96.5071L899.171 96.512L899.663 96.3499ZM916.638 1.49962V0.981865H916.422L916.27 1.13496L916.638 1.49962ZM950.063 1.49962L950.432 1.13627L950.28 0.981865H950.063V1.49962ZM966.863 29.1497L966.371 29.3118L966.372 29.3134L966.863 29.1497ZM940.963 22.4997L941.428 22.2723L941.286 21.9819H940.963V22.4997ZM925.913 22.4997V21.9819H925.59L925.448 22.2723L925.913 22.4997ZM925.738 103.7L925.265 103.912L925.402 104.218H925.738V103.7ZM941.138 103.7V104.218H941.491L941.62 103.888L941.138 103.7ZM950.063 123.482H916.638V124.518H950.063V123.482ZM917.004 123.634C909.245 115.875 903.629 106.729 900.154 96.1878L899.171 96.512C902.696 107.205 908.397 116.492 916.272 124.366L917.004 123.634ZM900.156 96.1927C896.788 85.6243 895.105 75.0606 895.105 64.4998H894.07C894.07 75.1725 895.771 85.8421 899.169 96.5071L900.156 96.1927ZM895.105 64.4998C895.105 37.41 902.428 16.5573 917.005 1.86427L916.27 1.13496C901.447 16.0754 894.07 37.2228 894.07 64.4998H895.105ZM916.638 2.01737H950.063V0.981865H916.638V2.01737ZM949.694 1.86296C957.337 9.62182 962.896 18.7693 966.371 29.3118L967.355 28.9876C963.83 18.2967 958.189 9.0108 950.432 1.13627L949.694 1.86296ZM966.372 29.3134C969.855 39.7635 971.595 50.2084 971.595 60.6498H972.631C972.631 50.0912 970.871 39.5359 967.354 28.986L966.372 29.3134ZM971.595 60.6498C971.595 88.092 964.271 109.059 949.697 123.634L950.429 124.366C965.254 109.541 972.631 88.2744 972.631 60.6498H971.595ZM940.963 21.9819H925.913V23.0174H940.963V21.9819ZM925.448 22.2723C920.269 32.8651 917.695 46.308 917.695 62.5748H918.73C918.73 46.4082 921.29 33.1344 926.378 22.7271L925.448 22.2723ZM917.695 62.5748C917.695 78.8421 920.211 92.6272 925.265 103.912L926.21 103.488C921.231 92.3726 918.73 78.7409 918.73 62.5748H917.695ZM925.738 104.218H941.138V103.182H925.738V104.218ZM941.62 103.888C946.663 90.9883 949.181 76.8068 949.181 61.3498H948.145C948.145 76.6929 945.646 90.7448 940.656 103.511L941.62 103.888ZM949.181 61.3498C949.181 45.8949 946.605 32.8619 941.428 22.2723L940.498 22.7271C945.587 33.1375 948.145 46.0046 948.145 61.3498H949.181Z" fill="black" mask="url(#path-1-outside-1_228_3764)"/>
</svg>
