<svg width="687" height="676" viewBox="0 0 687 676" fill="none" xmlns="http://www.w3.org/2000/svg">
<g clip-path="url(#clip0_279_2085)">
<rect width="687" height="676" rx="338" fill="#777777"/>
<path d="M821.06 185.323C749.904 206.72 680.831 233.58 615.113 268.292C610.485 270.796 605.973 273.755 599.494 275.235C600.419 261.008 600.188 246.782 598.8 232.555C598.105 225.727 600.419 221.288 605.626 216.963C628.303 198.184 649.939 178.153 670.534 156.984C709.293 117.264 746.549 76.2918 776.515 29.5152C792.598 4.47661 806.829 -21.5863 816.663 -49.6978C820.134 -59.827 818.052 -61.8756 807.176 -59.827C785.656 -55.7298 766.218 -46.511 747.359 -36.268C668.683 6.75284 599.494 61.041 542.338 129.67C541.412 130.808 540.371 131.946 539.445 133.198C537.363 136.043 535.164 135.815 532.619 133.994C530.421 132.401 528.222 130.921 525.908 129.556C464.587 93.1359 398.291 77.8852 326.904 83.6896C319.267 84.2586 311.747 85.5106 304.111 86.4211C303.532 85.3968 303.069 84.1448 302.838 83.0067C298.21 37.7096 290.458 -7.13219 279.582 -51.2911C270.673 -87.8247 260.376 -123.903 244.988 -158.388C239.666 -170.224 233.881 -181.833 226.129 -192.304C220.575 -199.815 217.567 -199.474 213.054 -191.052C212.129 -189.345 211.435 -187.638 210.625 -185.93C196.509 -157.591 190.724 -126.976 187.485 -96.0191C179.386 -18.5134 185.749 59.7891 206.344 135.019C208.079 141.62 207.501 146.4 203.683 151.863C191.303 169.39 182.278 188.852 177.187 209.565C170.477 237.335 159.254 263.512 148.725 289.916C147.915 291.851 148.147 294.697 146.642 294.81C138.775 287.754 131.717 281.381 124.659 275.007C120.263 271.137 117.486 267.04 117.255 260.439C117.023 250.879 111.354 248.148 103.486 254.066C97.1227 258.96 92.9574 258.163 88.098 252.814C86.941 251.789 85.784 250.879 84.3956 250.196C80.2304 247.806 76.9908 248.944 74.6768 252.814C73.7512 254.521 73.1727 256.228 72.7099 258.163C71.6686 262.146 69.8174 264.195 65.305 262.374C63.8009 261.919 62.2968 261.577 60.7927 261.577C53.3879 260.894 52.1152 261.691 51.0739 269.089C50.8425 270.91 51.3053 272.845 49.4541 274.21C37.6526 273.072 37.4212 273.072 36.6113 283.429C36.3799 286.502 35.2229 287.868 32.6775 289.461C25.0413 294.583 24.8099 296.062 30.5949 303.801C33.3717 307.557 35.6857 311.199 36.3799 315.979C37.7683 325.312 39.3882 334.644 41.3551 343.977C51.5367 391.892 63.1067 439.351 85.5526 483.51C104.875 521.409 123.734 559.536 142.824 597.663C152.196 616.442 152.08 616.442 141.899 634.994C139.469 639.546 136.924 642.05 131.37 641.595C125.585 641.253 119.8 641.936 114.246 643.416C91.6847 649.106 74.3297 662.536 59.0572 679.153C55.8176 682.681 52.6937 686.209 49.107 690.192C47.1401 687.802 45.9831 686.323 44.8261 684.843C42.2807 681.543 40.4295 677.218 37.1898 674.942C31.4048 670.844 24.4628 668.568 19.2563 663.446C18.4464 662.65 15.6696 662.308 14.9754 662.991C9.42175 668.682 0.397121 671.641 0.0500201 681.656C-0.297081 690.875 1.20702 699.866 3.17393 708.744C12.7771 752.447 31.1734 792.85 51.8838 832.343C55.7019 839.741 60.9084 846.456 65.7679 853.285C69.2389 858.292 73.8669 862.503 79.3048 865.462C86.8253 869.446 92.6103 869.104 97.8169 862.617C101.866 857.609 105.916 857.154 111.701 857.837C143.866 861.707 176.262 863.186 208.658 862.048C244.062 860.91 279.466 859.886 314.987 862.276C368.556 865.918 422.125 865.69 475.694 865.121C494.554 864.893 513.413 863.983 532.156 861.024C538.057 860.113 542.801 860.682 547.66 865.576C556.685 874.681 565.362 874.226 575.081 865.804C581.792 859.999 586.42 852.374 590.701 844.749C613.956 803.663 628.65 759.617 636.286 713.068C638.138 701.915 638.022 691.899 630.27 682.112C623.675 673.803 621.593 672.551 613.841 680.518C606.667 687.916 598.915 694.745 592.552 704.419C585.031 693.493 577.858 683.25 567.792 673.803C572.651 670.503 576.007 667.999 579.478 665.723C582.949 663.446 586.651 661.398 590.122 658.894C595.791 654.683 596.023 651.724 590.353 647.285C585.263 643.302 579.709 639.774 574.387 636.018C570.8 633.742 567.445 631.238 564.321 628.506C561.313 625.775 560.734 622.588 565.594 620.653C568.139 619.743 570.569 618.719 573.114 617.808C597.411 609.272 621.708 600.85 646.005 592.314C660.237 587.306 660.236 587.307 653.757 574.446C639.873 546.903 626.105 519.361 612.452 491.818C609.097 484.99 609.213 484.99 615.808 481.917C617.196 481.234 618.584 480.665 620.088 480.096C674.93 456.878 729.657 433.547 784.614 410.557C791.672 407.598 795.606 403.501 798.151 396.444C807.639 369.471 813.192 341.587 818.746 313.703C826.267 275.804 831.242 237.449 836.564 199.095C838.878 182.137 837.374 180.43 821.06 185.323ZM553.098 564.658C548.701 550.887 548.47 537.002 547.429 522.775C558.42 533.701 568.255 545.651 576.817 558.398C568.602 561.699 561.081 562.609 553.098 564.658Z" fill="#030203"/>
<path d="M149.768 643.188C165.272 606.654 184.363 571.6 189.916 530.059C181.817 532.221 182.049 537.115 180.776 540.529C174.297 557.601 168.049 574.673 161.685 591.745C160.528 594.818 159.95 598.346 156.826 600.736C153.702 599.256 153.124 596.183 151.851 593.566C134.727 559.65 118.298 525.279 100.48 491.704C77.1084 447.545 63.4558 400.313 53.0427 352.057C50.2659 339.083 47.9519 325.994 45.8693 312.906C45.0594 307.557 42.514 303.118 39.5058 298.907C47.7205 293.899 47.7205 293.899 48.7618 285.933C49.456 285.705 50.1502 285.136 50.7287 285.25C64.4971 288.209 64.9599 287.754 62.993 273.641C67.621 271.137 71.9019 276.031 76.2985 274.438C81.6207 272.389 79.5381 266.357 82.5463 262.146C87.4057 264.308 90.9925 266.812 88.5627 273.072C87.8685 274.893 87.6372 276.828 90.0669 277.738C92.2652 278.535 93.6536 276.941 94.9263 275.576C98.513 271.82 101.406 267.267 106.265 264.195C107.422 271.934 107.538 271.82 112.744 277.055C120.612 284.908 128.248 292.875 136 300.842C140.512 305.394 141.322 310.174 139.124 316.434C135.306 327.474 131.603 338.627 131.025 350.578C129.984 372.543 136.463 392.46 146.76 411.581C154.281 425.693 163.652 438.782 174.644 450.618C200.098 477.592 226.015 504.224 259.684 521.751C263.155 523.572 267.898 528.579 270.559 524.596C273.568 520.157 266.741 518.336 263.733 516.174C234.577 494.777 206.461 472.47 182.627 445.269C173.371 434.685 164.694 423.645 157.636 410.784C181.354 398.151 187.602 377.437 183.784 353.651C180.892 335.213 171.057 321.214 149.768 318.255C149.305 313.247 151.735 309.264 153.355 305.167C166.313 272.73 179.388 240.408 188.412 206.606C197.09 174.056 215.602 146.627 240.362 123.182C243.023 120.678 248.808 117.946 246.494 114.76C243.139 110.321 239.205 115.784 235.849 117.605C228.907 121.588 223.354 127.393 216.643 133.88C211.321 118.857 208.428 104.858 205.652 90.9731C196.743 46.5865 193.734 1.63087 193.85 -43.6662C193.619 -49.0153 195.47 -54.1369 199.057 -58.2341C212.825 -74.2816 230.064 -85.4351 249.849 -92.7191C256.675 -95.2229 257.601 -94.7677 259.568 -87.8252C269.518 -52.4297 278.543 -16.6928 284.096 19.6131C287.105 39.4164 289.419 59.4473 292.543 79.2505C293.584 86.3068 293.584 91.9974 285.485 94.7289C283.749 95.2979 281.667 96.6637 282.477 98.8261C283.402 101.785 285.948 100.989 288.262 100.533C300.989 97.688 313.716 94.6151 326.79 93.2493C373.301 88.3554 418.193 95.867 462.159 110.321C483.448 117.264 503.696 126.369 522.439 138.774C531.117 144.465 531.117 144.465 527.53 154.025C526.604 156.073 525.91 158.236 525.332 160.512C525.216 161.65 525.563 162.674 526.373 163.471C527.646 164.382 529.497 164.154 530.423 162.902C531.233 162.105 531.927 161.195 532.505 160.171C574.852 98.0294 631.545 50.4561 693.097 7.77671C700.271 2.76899 707.791 -1.89729 715.081 -6.56358C719.13 -4.28735 720.171 -0.417732 721.791 2.769C732.32 24.0518 735.56 48.1799 731.047 71.5113C730.122 76.519 727.345 80.6162 724.105 84.372C680.255 136.043 632.586 183.957 579.133 226.068C577.628 227.206 576.124 228.458 574.736 229.71C573.81 230.392 573.463 231.644 573.926 232.783C574.62 234.717 576.356 234.49 577.744 234.262C579.595 233.807 581.447 233.238 583.182 232.555C585.033 231.986 586.884 231.303 589.546 232.669C591.05 253.61 590.934 274.665 589.314 295.607C585.612 341.017 576.356 385.518 563.744 429.449C550.786 474.746 520.819 504.679 477.895 523.23C473.614 525.051 469.333 526.872 465.168 528.693C463.663 529.148 462.622 530.628 462.854 532.221C463.316 534.839 465.63 534.725 467.366 534.384C471.531 533.587 475.581 532.563 479.63 531.311C497.448 525.62 513.068 515.946 527.53 504.337C529.266 502.972 530.423 500.582 533.778 501.037C536.323 510.369 536.323 520.043 537.018 529.717C537.249 533.132 535.051 535.294 532.737 537.343C528.456 541.212 523.943 544.854 520.01 548.952C510.985 558.398 513.299 565.909 526.142 569.551C529.034 570.348 532.274 571.259 535.166 570.917C542.571 569.893 543.844 574.332 545.579 579.908C550.555 595.501 549.513 608.703 533.315 617.808C529.381 619.97 526.373 623.84 523.481 627.368C517.811 634.424 519.315 640.911 527.53 644.895C532.737 647.399 538.522 648.537 544.307 648.423C552.984 648.423 552.984 648.423 552.984 656.731C552.984 659.008 552.984 661.17 552.984 664.584C536.67 660.146 521.861 661.853 507.861 669.251C500.109 673.348 492.589 677.673 487.382 685.298C491.432 689.054 494.324 686.664 497.101 684.957C505.316 680.063 514.109 676.079 523.365 673.348C537.249 668.909 549.282 672.21 560.158 680.632C570.339 688.485 577.281 698.955 583.876 709.768C586.422 713.979 585.265 717.507 583.066 721.49C576.934 732.075 571.959 743.114 568.141 754.723C567.331 757.227 566.637 759.845 566.174 762.462C565.943 763.828 566.174 765.763 568.372 765.763C569.529 765.649 570.455 765.194 571.149 764.283C573 761.438 574.62 758.365 576.24 755.406C584.455 739.928 591.86 724.108 601.578 709.54C603.082 707.378 604.008 704.76 607.595 703.28C607.248 712.954 604.124 721.718 602.967 730.709C602.62 732.985 601.81 735.148 601.694 737.31C601.578 739.814 604.124 741.066 605.396 739.7C608.636 736.172 610.95 732.075 617.198 733.213C618.586 733.44 620.785 728.888 623.33 725.587C624.603 729.798 622.752 732.644 622.057 735.603C613.496 771.567 601.463 806.28 583.066 838.602C579.248 845.204 575.43 851.805 569.876 857.268C562.703 864.21 558.075 863.869 551.711 856.357C548.125 852.032 546.274 846.342 540.257 842.131C538.753 849.984 533.894 851.918 526.72 852.487C507.167 853.967 487.613 855.902 467.944 856.016C421.664 856.357 375.384 856.812 329.22 853.398C287.567 850.325 246.031 851.691 204.379 852.032C175.917 852.26 147.339 852.487 118.992 849.187C107.191 847.821 107.075 848.163 106.496 836.781C106.496 835.302 106.381 833.709 106.149 832.229C105.918 831.205 105.571 830.067 104.067 829.839C102.91 829.611 101.753 830.18 101.29 831.318C99.67 835.529 98.513 839.968 96.5461 844.065C94.2321 849.073 93.5379 856.471 87.29 857.381C81.2736 858.292 77.3398 852.374 73.9845 847.821C69.4722 842.131 65.4227 836.099 61.836 829.839C43.0925 795.354 27.0101 759.731 16.4814 721.832C15.7872 719.328 14.9773 716.71 15.6715 713.979C16.25 714.092 17.1756 713.979 17.407 714.32C19.6053 717.165 19.8367 723.653 23.8862 722.401C29.6712 720.694 24.9275 715.231 25.0432 711.475C24.9275 709.54 25.0432 707.719 25.2746 705.784C28.8613 712.84 30.3654 720.694 34.2993 727.522C35.3406 729.343 36.6133 732.075 39.3901 730.823C42.1669 729.571 41.1256 726.953 40.6628 724.904C38.9273 716.027 36.9604 707.036 35.1092 698.159C34.5307 695.655 33.8365 693.265 34.6464 690.306C38.9273 692.241 39.7372 696.224 41.4727 699.411C53.3898 721.149 62.0674 744.253 70.8606 767.356C72.249 770.998 71.6705 778.51 77.5712 777.03C82.3149 775.892 78.7282 769.633 78.2654 765.877C76.6456 751.309 70.1664 738.334 64.3814 725.132C62.5302 720.921 61.1418 716.482 58.712 712.727C53.0427 704.191 55.3567 697.817 61.836 690.647C76.877 673.917 93.3065 659.349 115.752 653.203C134.033 648.309 150.81 651.951 166.661 661.398C175.685 666.747 183.206 673.689 190.379 681.201C191.999 682.794 193.734 684.957 196.164 683.477C199.057 681.656 196.743 679.38 195.701 677.559C188.181 664.129 176.611 654.91 162.611 648.651C158.793 646.83 154.512 645.122 149.768 643.188Z" fill="#FCD824"/>
<path d="M826.382 195.793C827.077 205.58 824.763 215.141 823.374 224.701C816.201 273.754 809.259 322.92 795.837 370.835C793.292 379.94 792.251 390.183 786.35 397.353C780.449 404.523 769.573 406.003 760.78 409.759C710.335 431.269 659.774 452.779 609.213 474.062L608.171 474.517C595.676 479.98 595.676 479.981 601.461 491.703C614.651 518.221 627.956 544.739 641.146 571.258C642.766 574.558 645.427 577.631 645.08 582.411L585.725 603.239C579.246 605.515 572.651 607.791 566.172 610.067C562.701 611.319 560.387 610.864 559.809 606.539C558.536 597.889 556.916 589.354 555.181 580.818C554.255 576.151 555.759 573.875 560.734 573.079C567.561 571.94 574.271 570.233 580.982 568.526C593.246 565.567 594.172 563.518 586.651 553.958C574.618 538.707 562.47 523.457 550.437 508.206C540.949 496.256 540.834 492.614 549.858 480.322C557.957 469.282 564.321 456.991 568.718 444.016C580.519 409.19 588.965 373.339 593.94 336.919C595.907 323.376 597.411 309.832 598.337 296.288C598.684 290.029 601.345 286.614 606.552 283.883C617.774 278.078 628.766 271.591 640.105 266.128C696.914 238.927 755.111 215.141 815.738 197.272C818.977 196.248 822.101 194.541 826.382 195.793Z" fill="#FCD824"/>
<path d="M140.51 354.79C140.163 348.075 141.088 341.36 143.055 334.987C144.791 328.613 147.452 327.361 154.162 329.069C160.294 330.548 165.385 334.418 168.394 339.881C177.187 356.497 177.881 373.228 168.046 389.616C166.658 391.893 164.923 393.941 162.84 395.648C154.741 402.932 151.964 402.363 148.262 392.576C143.518 380.625 139.816 368.334 140.51 354.79Z" fill="#EC2123"/>
<path d="M529.844 634.995C535.05 627.142 542.571 622.817 549.513 616.785C553.794 623.045 552.174 629.532 552.637 635.564C552.752 638.068 550.091 638.978 547.662 639.092C541.529 639.548 535.744 638.751 529.844 634.995Z" fill="#EACB21"/>
<path d="M564.32 663.334V642.051C570.568 644.099 574.618 648.538 580.287 651.839C576.237 657.415 570.8 660.033 564.32 663.334Z" fill="#F2D423"/>
<path d="M525.098 559.309C525.329 555.553 527.412 554.301 529.147 553.049C532.04 550.887 534.238 547.472 538.172 546.676C541.064 551.114 542.916 557.033 540.023 560.333C536.205 564.658 530.304 560.788 525.098 559.309Z" fill="#DCC020"/>
<path d="M341.249 779.761C326.092 787.956 325.745 787.728 321.58 773.729C320.654 772.819 319.613 772.933 318.572 773.274C307.464 776.575 305.266 775.437 305.15 764.511C305.035 759.503 303.762 757.341 298.787 755.633C290.688 753.016 289.299 749.032 295.316 743.342C304.456 734.806 306.654 723.994 309.315 712.954C322.505 658.666 347.265 609.841 380.24 564.771C385.909 557.032 392.851 550.431 399.793 543.83C401.76 542.009 403.727 540.188 406.388 539.505C407.545 539.163 408.702 539.505 409.512 540.415C410.322 541.212 410.553 542.578 409.859 543.488C408.934 544.74 408.008 545.878 407.082 547.016C368.67 591.631 341.48 642.277 323.662 697.817C320.886 706.922 318.572 716.027 316.72 725.359C315.216 732.985 313.365 740.155 305.497 745.39C312.902 748.577 317.993 752.788 314.175 762.462C324.588 758.706 331.877 760.072 333.265 771.226C344.488 766.901 344.488 766.901 354.207 778.054C358.951 777.371 361.149 772.022 365.893 771.567C371.331 770.998 372.025 776.689 375.265 778.965C398.058 750.284 426.173 726.611 451.164 699.979C470.833 678.924 489.23 657.186 504.849 633.058C506.7 630.213 508.204 624.067 512.485 626.457C517.345 629.075 512.948 633.855 511.444 637.269C503.345 655.138 491.312 670.502 478.354 685.07C454.52 711.93 429.181 737.423 403.264 762.462C395.744 769.632 389.149 777.371 384.174 786.59C379.199 795.809 376.885 796.15 369.133 788.184C366.124 785.111 364.389 784.769 360.455 787.045C351.662 792.395 350.852 791.939 344.488 783.859L341.249 779.761Z" fill="#040405"/>
<path d="M311.515 500.468C303.185 499.444 295.433 495.574 289.532 489.656C280.392 480.551 274.375 469.739 269.863 457.789C259.334 429.791 254.938 400.655 254.243 370.837C254.128 364.463 253.433 359.114 248.227 354.562C245.103 351.83 243.483 347.733 242.673 343.522C242.326 341.929 242.326 340.221 243.715 339.425C245.103 338.628 246.954 338.969 247.88 340.221C249.731 342.156 251.467 344.205 253.202 346.253C259.103 353.651 266.623 355.586 275.879 353.765C284.904 351.944 293.813 349.44 302.606 346.595C314.986 342.611 326.44 343.522 337.895 350.806C349.465 358.204 361.96 364.236 373.993 371.178C383.712 376.755 393.662 376.983 403.96 372.885C406.042 371.975 408.241 371.292 410.555 370.723C411.712 370.609 412.753 371.064 413.447 371.861C413.91 372.885 413.794 374.023 413.331 375.048C411.712 377.665 409.513 380.169 406.621 381.194C398.869 383.584 396.786 389.616 394.704 396.444C387.415 420.117 376.423 442.424 361.96 462.569C354.324 473.609 345.068 483.283 334.424 491.477C327.482 496.485 319.614 499.558 311.515 500.468Z" fill="#050304"/>
<path d="M507.858 305.394C507.396 318.368 503.577 328.27 495.247 336.464C477.661 353.764 449.777 350.463 436.934 329.067C427.794 313.702 428.025 297.882 438.091 282.859C447.347 269.202 460.653 263.397 477.082 266.584C493.164 269.657 501.958 280.81 506.47 295.492C507.511 299.134 507.511 303.118 507.858 305.394Z" fill="#010100"/>
<path d="M195.7 261.804C195.584 239.383 212.245 222.425 233.418 223.336C234.922 223.336 236.542 223.45 238.046 223.677C256.905 227.319 268.591 245.529 266.046 267.039C263.847 285.818 247.649 299.59 228.906 298.679C210.394 297.882 195.816 281.607 195.7 261.804Z" fill="#010101"/>
<path d="M493.975 476.111C467.132 475.997 446.422 455.625 446.422 429.22C446.538 403.157 468.174 382.102 494.785 382.33C521.28 382.444 542.685 403.727 542.453 429.903C541.99 455.966 520.817 476.225 493.975 476.111Z" fill="#060404"/>
<path d="M322.16 313.477C323.317 313.59 324.474 313.704 325.631 313.932C330.259 314.728 334.771 315.98 336.622 320.874C337.548 323.378 335.581 325.199 333.73 326.565C329.564 329.638 325.052 331.573 319.846 329.41C319.151 329.069 318.457 328.727 317.879 328.272C314.408 325.654 310.821 322.582 312.325 318.029C313.829 313.704 318.457 313.932 322.16 313.477Z" fill="#0D0B05"/>
<path d="M312.327 490.682C307.352 490.34 302.608 488.292 298.79 484.991C291.616 478.959 286.873 471.106 282.823 463.026C272.757 443.109 269.518 421.257 266.162 399.632C266.047 397.356 266.394 395.08 267.204 393.031C268.245 389.845 269.865 386.772 271.022 383.585C278.542 361.847 297.401 357.067 317.302 354.108C321.698 353.425 325.517 355.701 329.103 357.864C338.822 363.327 348.425 368.79 358.028 374.366C365.318 378.577 372.607 383.016 380.937 384.723C386.259 385.861 386.838 388.593 385.449 392.918C374.921 424.557 360.342 453.921 335.93 477.707C329.335 483.853 322.046 489.316 312.327 490.682Z" fill="#EF548E"/>
<path d="M264.309 372.544C263.384 368.788 262.111 365.488 266.739 364.122C267.549 363.894 269.632 364.691 269.632 365.146C269.747 368.219 268.359 370.609 264.309 372.544Z" fill="#AA9F1B"/>
<path d="M474.307 290.029C474.538 297.996 470.489 302.89 463.315 303.118C456.142 303.345 451.051 298.224 450.935 291.168C450.82 284.339 456.142 278.079 462.274 277.738C468.985 277.51 474.076 282.632 474.307 290.029Z" fill="#F7F8F7"/>
<path d="M249.039 250.539C248.692 256.457 243.485 261.692 237.931 261.465C232.378 261.237 227.171 255.774 227.287 250.084C227.403 243.71 233.188 238.133 239.088 238.589C244.642 239.044 249.386 244.621 249.039 250.539Z" fill="#F5F6F4"/>
<path d="M532.271 429.222C532.271 450.619 516.073 466.553 494.437 466.666C473.379 466.666 456.371 449.822 456.371 429.109C456.487 409.078 474.883 391.437 495.246 391.778C515.841 392.347 532.386 408.964 532.271 429.222Z" fill="#ED2123"/>
</g>
<defs>
<clipPath id="clip0_279_2085">
<rect width="687" height="676" rx="338" fill="white"/>
</clipPath>
</defs>
</svg>
