<svg width="692" height="764" viewBox="0 0 692 764" fill="none" xmlns="http://www.w3.org/2000/svg">
<path d="M140.488 564.003C76.9275 598.412 16.3694 571.246 16.3694 571.246C31.6441 571.246 47.7382 559.778 47.7382 559.778C27.0059 556.459 14.4583 546.496 14.4583 546.496H26.4619C11.4592 537.138 -0.000229479 525.365 -0.000229479 525.365C35.7348 534.422 89.4749 516.309 89.4749 516.309C71.4697 519.627 43.9197 509.066 43.9197 509.066C71.7453 509.066 92.2021 491.86 92.2021 491.86C73.9249 489.444 59.1943 485.52 59.1943 485.52L72.8333 481.896C48.8263 478.273 38.462 467.106 38.462 467.106C78.2911 467.106 106.113 420.623 106.113 420.623C68.4707 418.813 49.3738 405.23 49.3738 405.23H68.1952C44.1882 400.098 36.2789 391.346 36.2789 391.346C69.2867 396.479 95.7454 368.707 95.7454 368.707L85.1056 365.084C126.298 356.934 147.031 321.619 147.031 321.619C115.114 350.594 63.0095 332.184 63.0095 332.184C93.0182 332.184 124.659 294.152 124.659 294.152C94.9259 297.775 83.742 294.152 83.742 294.152C99.0201 291.435 123.296 264.871 123.296 264.871H110.748C126.023 256.722 144.847 232.273 144.847 232.273C125.479 248.572 87.5605 240.723 87.5605 240.723C112.931 240.723 127.114 214.163 127.114 214.163C115.658 212.655 104.746 206.616 104.746 206.616C126.023 209.633 164.488 174.92 164.488 174.92C141.573 187.901 104.746 180.353 104.746 180.353C115.386 180.353 141.573 166.469 141.573 166.469C132.297 164.054 125.751 158.62 125.751 158.62C139.39 153.488 158.215 131.756 158.215 131.756L153.848 126.323C163.121 122.097 187.128 105.192 187.128 105.192C173.214 105.192 160.122 99.4578 160.122 99.4578C173.489 94.3257 179.491 80.4418 179.491 80.4418L196.677 75.6144L188.22 59.616L199.404 65.9559V30.0347L210.044 36.2223L213.728 10.8663L215.773 14.7906L218.366 0L220.959 14.7906L223.004 10.8663L226.689 36.2223L237.329 30.0347V65.9559L248.513 59.616L240.056 75.6144L257.241 80.4418C257.241 80.4418 263.243 94.3257 276.61 99.4578C276.61 99.4578 263.515 105.192 249.604 105.192C249.604 105.192 273.611 122.097 282.884 126.323L278.518 131.756C278.518 131.756 297.339 153.488 310.982 158.62C310.982 158.62 304.436 164.054 295.159 166.469C295.159 166.469 321.346 180.353 331.986 180.353C331.986 180.353 295.159 187.901 272.244 174.92C272.244 174.92 310.706 209.63 331.986 206.616C331.986 206.616 321.074 212.651 309.618 214.163C309.618 214.163 323.805 240.723 349.172 240.723C349.172 240.723 311.254 248.572 291.885 232.273C291.885 232.273 310.706 256.722 325.984 264.871H313.437C313.437 264.871 337.716 291.435 352.99 294.152C352.99 294.152 341.806 297.775 312.073 294.152C312.073 294.152 343.718 332.184 373.723 332.184C373.723 332.184 321.618 350.598 289.702 321.619C289.702 321.619 308.332 353.262 345.303 363.538C354.011 361.308 367.184 354.336 367.184 354.336C360.574 352.616 355.909 348.743 355.909 348.743C365.629 345.087 379.043 329.597 379.043 329.597L375.933 325.725C382.542 322.715 399.651 310.667 399.651 310.667C389.736 310.667 380.403 306.579 380.403 306.579C389.928 302.922 394.207 293.026 394.207 293.026L406.455 289.584L400.43 278.183L408.4 282.698V257.101L415.98 261.512L418.606 243.444L420.064 246.238L421.911 235.699L423.758 246.238L425.216 243.444L427.842 261.512L435.426 257.101V282.698L443.396 278.183L437.371 289.584L449.619 293.026C449.619 293.026 453.895 302.922 463.423 306.579C463.423 306.579 454.09 310.667 444.175 310.667C444.175 310.667 461.284 322.715 467.893 325.725L464.783 329.597C464.783 329.597 478.197 345.087 487.917 348.743C487.917 348.743 483.252 352.616 476.642 354.336C476.642 354.336 495.306 364.233 502.889 364.233C502.889 364.233 476.642 369.61 460.313 360.36C460.313 360.36 487.725 385.099 502.889 382.948C502.889 382.948 495.114 387.251 486.946 388.325C486.946 388.325 497.056 407.256 515.135 407.256C515.135 407.256 488.112 412.849 474.308 401.232C474.308 401.232 487.722 418.657 498.611 424.465H489.667C489.667 424.465 506.97 443.396 517.855 445.332C517.855 445.332 509.885 447.915 488.693 445.332C488.693 445.332 511.245 472.438 532.629 472.438C532.629 472.438 495.497 485.56 472.75 464.909C472.75 464.909 487.524 490.08 516.881 495.884L509.298 498.467C509.298 498.467 519.689 509.344 534.655 513.477C536.441 511.258 537.382 509.512 537.382 509.512C531.669 508.757 526.225 505.747 526.225 505.747C536.838 507.252 556.018 489.942 556.018 489.942C544.589 496.416 526.225 492.651 526.225 492.651C531.531 492.651 544.592 485.728 544.592 485.728C539.968 484.524 536.703 481.815 536.703 481.815C543.504 479.254 552.892 468.417 552.892 468.417L550.715 465.708C555.34 463.601 567.313 455.173 567.313 455.173C560.374 455.173 553.845 452.311 553.845 452.311C560.512 449.751 563.504 442.827 563.504 442.827L572.075 440.419L567.857 432.441L573.436 435.603V417.691L578.742 420.775L580.579 408.129L581.6 410.087L582.893 402.711L584.186 410.087L585.208 408.129L587.045 420.775L592.351 417.691V435.603L597.93 432.441L593.711 440.419L602.282 442.827C602.282 442.827 605.275 449.751 611.941 452.311C611.941 452.311 605.413 455.173 598.474 455.173C598.474 455.173 610.447 463.601 615.072 465.708L612.895 468.417C612.895 468.417 622.282 479.258 629.084 481.815C629.084 481.815 625.819 484.524 621.194 485.728C621.194 485.728 634.256 492.651 639.562 492.651C639.562 492.651 621.194 496.416 609.769 489.942C609.769 489.942 628.953 507.252 639.562 505.747C639.562 505.747 634.121 508.757 628.405 509.512C628.405 509.512 635.482 522.76 648.133 522.76C648.133 522.76 629.221 526.673 619.562 518.546C619.562 518.546 628.949 530.739 636.566 534.804H630.309C630.309 534.804 642.417 548.053 650.038 549.406C650.038 549.406 644.459 551.212 629.631 549.406C629.631 549.406 645.413 568.373 660.379 568.373C660.379 568.373 634.393 577.556 618.474 563.104C618.474 563.104 628.812 580.715 649.356 584.781L644.049 586.587C644.049 586.587 657.245 600.437 673.709 597.876C673.709 597.876 669.762 602.243 657.793 604.8H667.18C667.18 604.8 657.655 611.575 638.88 612.478C638.88 612.478 652.758 635.66 672.621 635.66C672.621 635.66 667.452 641.23 655.478 643.036L662.28 644.842C662.28 644.842 654.934 646.797 645.819 648.005C645.819 648.005 656.023 656.586 669.9 656.586C669.9 656.586 656.16 661.855 647.179 660.198C647.179 660.198 673.981 669.228 691.805 664.713C691.805 664.713 686.092 670.585 678.609 675.252H684.594C684.594 675.252 678.337 680.221 667.996 681.875C667.996 681.875 676.023 687.594 683.64 687.594C683.64 687.594 653.437 701.143 621.739 683.982C621.739 683.982 650.444 711.984 686.77 711.984C686.77 711.984 679.015 718.758 670.307 721.014L676.291 721.769C676.291 721.769 669.759 729.145 652.483 730.197L660.51 733.962C660.51 733.962 643.233 739.833 623.639 731.854L632.889 741.639C632.889 741.639 613.161 741.186 605.134 734.263L612.617 746.909L596.425 737.875V763.766H569.352V737.875L553.164 746.909L560.646 734.263C552.62 741.186 532.891 741.639 532.891 741.639L542.144 731.854C522.554 739.833 505.274 733.962 505.274 733.962L513.301 730.197C496.024 729.142 489.492 721.769 489.492 721.769L495.477 721.014C494.406 720.736 493.348 720.386 492.317 719.992C487.222 719.769 463.883 718.279 453.697 709.49L464.39 727.559L441.257 714.652V751.651H402.569V714.652L379.436 727.559L390.129 709.49C378.66 719.387 350.468 720.029 350.468 720.029L363.687 706.045C335.694 717.447 311.002 709.055 311.002 709.055L322.471 703.678C297.779 702.173 288.449 691.63 288.449 691.63L297.003 690.556C284.56 687.33 273.48 677.649 273.48 677.649C279.297 677.649 284.946 677.085 290.447 676.193C280.244 674.033 269.614 670.537 262.971 664.806L277.974 690.162L245.513 672.053V723.969H191.229V672.053L158.765 690.162L173.768 664.806C157.674 678.69 118.12 679.597 118.12 679.597L136.669 659.975C97.3877 675.973 62.7443 664.2 62.7443 664.2L78.8384 656.653C44.195 654.542 31.1 639.751 31.1 639.751L43.1034 638.242C25.6456 633.716 10.0955 620.133 10.0955 620.133C82.9325 620.148 140.488 564.003 140.488 564.003ZM477.418 637.648C477.418 637.648 486.664 646.596 501.818 656.028C509.025 654.783 514.685 651.651 517.65 649.677C505.254 648.618 491.44 645.24 477.418 637.648ZM485.462 711.686C488.495 711.415 491.433 710.925 494.322 710.326C489.764 709.394 485.008 708.037 480.139 706.056L485.462 711.686ZM528.938 524.496H541.18C544.156 521.229 546.231 518.542 546.231 518.542C542.762 521.463 538.1 522.816 533.549 523.366C532.102 523.76 530.587 524.143 528.938 524.496ZM529.173 580.076C530.728 579.217 532.179 578.303 533.536 577.352C531.148 578.05 528.586 578.69 525.63 579.135L529.173 580.076ZM521.741 586.59L518.003 585.316C516.035 585.639 513.973 585.955 511.83 586.234C511.83 586.234 513.919 587.988 517.583 590.169C520.209 588.177 521.741 586.59 521.741 586.59ZM543.733 567.976C546.101 565.144 547.316 563.104 547.316 563.104C545.362 564.88 543.249 566.292 541.056 567.414C541.939 567.63 542.833 567.82 543.733 567.976ZM518.611 660.202C515.538 660.767 511.91 660.517 508.461 659.949C509.717 660.651 510.973 661.35 512.29 662.041C516.159 661.023 518.611 660.202 518.611 660.202ZM501.915 535.466C501.915 535.466 510.752 550.149 525.026 559.963C531.578 554.891 536.162 549.406 536.162 549.406C521.334 551.212 515.756 549.406 515.756 549.406C523.377 548.049 535.484 534.804 535.484 534.804H529.224C532.703 532.946 536.542 529.401 539.699 526.09C534.547 528.888 521.909 534.507 501.915 535.466ZM318.196 579.135C316.463 578.875 314.898 578.526 313.359 578.166C314.092 578.712 314.831 579.258 315.606 579.823L318.196 579.135ZM296.251 564.003C296.251 564.003 297.749 565.46 300.533 567.883C301.336 567.734 302.135 567.578 302.921 567.381C300.705 566.322 298.481 565.211 296.251 564.003ZM355.133 445.336C353.87 445.488 352.658 445.622 351.486 445.741C352.08 446.295 352.695 446.845 353.313 447.395C354.458 446.135 355.133 445.336 355.133 445.336ZM342.065 435.952C348.742 430.393 354.162 424.469 354.162 424.469H345.219C348.211 422.875 351.385 420.393 354.428 417.646C347.55 419.081 339.633 420.199 330.626 420.63C330.626 420.63 334.747 427.498 342.065 435.952ZM331.999 586.234C328.678 585.795 325.528 585.286 322.666 584.773C324.564 586.055 326.555 587.356 328.628 588.671C330.78 587.248 331.999 586.234 331.999 586.234ZM350.495 365.474L340.99 368.711C340.99 368.711 346.253 374.211 354.979 379.863C368.809 373.609 383.516 360.36 383.516 360.36C373.447 366.065 359.627 366.206 350.495 365.474ZM322.377 666.464C315.264 665.163 307.764 663.123 300.073 659.99L310.615 671.142C314.716 669.734 318.616 668.143 322.377 666.464Z" fill="#0C0B0A"/>
</svg>
