<svg width="296" height="301" viewBox="0 0 296 301" fill="none" xmlns="http://www.w3.org/2000/svg">
<mask id="mask0_12_3" style="mask-type:luminance" maskUnits="userSpaceOnUse" x="-25" y="0" width="321" height="301">
<path d="M-25 0H296V301H-25V0Z" fill="white"/>
</mask>
<g mask="url(#mask0_12_3)">
<path fill-rule="evenodd" clip-rule="evenodd" d="M-4.99339 0.983114C-5.1173 1.76218 -5.42319 5.35535 -5.59355 8.01656C-5.98462 14.3292 -6.17048 20.1358 -6.12789 24.9085L-6.09304 28.6254L-6.68933 28.5708C-10.9679 28.174 -12.7567 27.7044 -15.7537 26.1972C-16.9269 25.6111 -17.3373 25.582 -16.652 26.139C-15.4865 27.0855 -15.1574 27.3258 -14.4411 27.7517C-12.3928 28.964 -9.55073 29.9251 -6.87131 30.311L-6.05819 30.4275L-5.98462 31.0427C-5.9459 31.3813 -5.91106 32.8557 -5.90718 34.3228C-5.89944 37.075 -5.86459 37.3189 -5.49288 37.1842C-5.25282 37.0969 -5.15215 36.6964 -5.10181 35.6661C-5.06309 34.7597 -4.57909 30.7624 -4.50165 30.6896C-4.48229 30.675 -3.94021 30.7078 -3.29359 30.7697C0.473864 31.1264 8.3921 30.9335 12.4771 30.3911C13.4063 30.2673 13.4179 30.2345 11.9892 31.5669C1.27537 41.5455 -11.0143 43.5806 -23.517 37.4463C-24.1946 37.1151 -24.7638 36.8457 -24.787 36.8457C-24.8064 36.8457 -24.8258 37.45 -24.8258 38.189V39.5323L-23.9042 40.0457C-10.813 47.3703 5.16285 43.4131 16.1245 30.1289C16.3723 29.8304 16.4536 29.8013 17.7623 29.5537C24.3834 28.2868 31.0162 26.1499 36.7738 23.4195C37.7844 22.9426 38.6208 22.564 38.6401 22.5822C38.6905 22.6295 37.8231 28.1157 37.374 30.584C36.4408 35.7098 34.9346 42.1571 33.8543 45.6557L33.6917 46.169L31.6357 47.6106C24.004 52.9621 16.5272 57.0249 8.96128 59.9373C5.24804 61.3681 2.38276 61.9578 -2.25202 62.2454L-3.37877 62.3146L-4.92757 60.2613L-6.48024 58.2081L-6.85582 56.9412C-7.06104 56.2422 -7.23141 55.576 -7.23528 55.4559C-7.24302 54.9135 -7.86254 53.1988 -8.0484 53.1988C-8.24974 53.1988 -8.22264 55.2702 -8.01742 55.6452C-7.97096 55.7289 -7.93224 55.8964 -7.93224 56.0092C-7.93224 56.2386 -8.12971 55.9838 -10.4568 52.7292C-12.083 50.4575 -12.7877 49.7294 -12.962 50.1517C-13.0588 50.3883 -11.5642 52.8311 -8.95057 56.6973L-7.81995 58.3756L-7.62635 60.1558C-7.52181 61.1351 -7.41726 62.0488 -7.39016 62.1908C-7.3437 62.442 -7.35144 62.4493 -7.81221 62.4493C-8.06776 62.4493 -8.37365 62.4748 -8.48593 62.5039C-8.78795 62.5803 -15.7963 55.1137 -22.8317 47.2174C-23.7222 46.2163 -24.5354 45.3098 -24.6399 45.2115C-24.8219 45.0295 -24.8258 45.0513 -24.8219 46.1908L-24.818 47.3558L-23.3854 49.0668C-19.0371 54.2582 -13.9958 59.8172 -8.88475 65.0595C-7.81221 66.1626 -6.9139 67.1528 -6.89067 67.2584C-6.65448 68.3469 -6.48798 74.8343 -6.63125 77.4008C-6.78226 80.1385 -7.26625 84.4379 -7.49083 85.0495C-7.53342 85.1696 -8.65243 84.1175 -9.76369 82.9125C-11.6765 80.8338 -12.1062 80.4552 -12.1062 80.8484C-12.1062 80.9685 -11.2196 82.3992 -10.7356 83.0691C-10.5187 83.3676 -10.0812 83.9901 -9.76756 84.4561C-9.45393 84.9184 -8.89249 85.6575 -8.52078 86.098L-7.84318 86.8989L-8.23425 88.5262C-9.89147 95.4031 -13.5002 103.969 -16.5939 108.374C-17.4496 109.59 -17.4612 109.71 -16.6791 109.255C-13.3763 107.344 -8.5324 97.9805 -6.38731 89.3598C-6.29051 88.974 -6.19758 88.6427 -6.17822 88.6208C-6.16274 88.599 -5.91106 88.7919 -5.62453 89.0468C-2.61212 91.7116 1.2986 92.5198 5.17834 91.2784C6.15021 90.9653 6.10375 90.8342 6.03405 93.7576C5.85981 101.217 5.11639 104.759 2.30145 111.509C1.79809 112.714 1.14372 114.334 0.849449 115.105C0.0789223 117.122 0.121513 117.06 -0.610294 117.195C-2.02744 117.45 -7.11525 118.251 -8.71438 118.469C-13.4266 119.11 -22.9517 120.104 -24.4037 120.104H-24.8374L-24.7754 120.803L-20.1058 120.796C-15.5678 120.788 -14.0074 120.734 -9.69012 120.421C-8.55176 120.337 -7.60699 120.286 -7.58763 120.304C-7.57214 120.322 -7.70379 120.759 -7.88965 121.272C-9.38036 125.459 -9.38037 132.321 -7.88577 139.992C-7.69992 140.949 -7.42888 142.409 -7.28562 143.232C-6.89842 145.442 -6.4996 147.164 -6.00011 148.787C-5.75618 149.581 -5.56645 150.24 -5.57807 150.247C-7.93998 151.885 -19.3314 156.96 -24.1559 158.526L-24.8258 158.744V159.469C-24.8258 160.339 -24.9613 160.306 -23.0795 159.869C-19.223 158.973 -14.6966 157.434 -10.5923 155.624C-10.0038 155.366 -9.52363 155.187 -9.52363 155.227C-9.52363 155.267 -9.59332 155.759 -9.67851 156.32C-10.1625 159.479 -9.25646 166.564 -7.62635 172.432C-5.10955 181.475 -1.02073 187.1 6.50643 191.876L7.62157 192.583L7.45895 192.856C6.04179 195.233 2.56087 200.821 2.40986 200.967C2.35953 201.01 2.28983 200.908 2.25111 200.734C2.13108 200.209 1.9065 199.773 1.8097 199.867C1.75162 199.918 1.78647 200.257 1.89876 200.745L2.08074 201.535L0.566793 203.875C-0.691605 205.819 -3.03416 209.376 -4.19963 211.113L-4.47842 211.528L-5.09794 210.086C-5.43867 209.292 -6.21694 207.538 -6.82872 206.183C-11.3977 196.096 -12.8535 191.083 -13.2524 184.078C-13.3337 182.662 -13.3918 182.338 -13.5505 182.338C-14.4449 182.338 -14.7741 188.651 -14.0848 192.641C-13.3414 196.973 -9.9418 204.509 -5.8917 210.821L-4.97403 212.256L-6.03883 213.814C-8.34267 217.189 -11.3822 221.521 -19.4747 232.985C-21.6352 236.043 -23.7222 239.021 -24.1172 239.603L-24.8296 240.663L-24.7754 243.087L-23.1143 240.99C-20.4775 237.663 -15.9085 231.623 -11.6571 225.853L-9.67076 223.159L-9.61268 225.995C-9.57784 227.553 -9.5004 231.201 -9.44232 234.106C-9.26033 242.789 -8.86539 256.273 -8.6292 262.094C-8.57499 263.379 -8.5324 264.704 -8.5324 265.036L-8.53627 265.644L-10.3019 263.962C-13.8099 260.616 -17.9646 256.885 -18.1195 256.943C-18.406 257.045 -17.9181 257.969 -17.2366 258.61C-17.1592 258.683 -16.3693 259.702 -15.4826 260.886C-12.8768 264.34 -11.5797 265.895 -9.12094 268.516L-8.35816 269.331L-8.28846 270.853C-8.25361 271.687 -8.06776 275.207 -7.87803 278.673C-7.6883 282.135 -7.53342 285.521 -7.53342 286.194C-7.53342 286.868 -7.44437 288.866 -7.33595 290.643C-7.22754 292.412 -7.13848 294.109 -7.13848 294.407V294.946L-9.12481 296.806C-10.2167 297.829 -11.1111 298.688 -11.1111 298.718C-11.1111 299.009 -8.72213 297.432 -7.47534 296.318L-7.06878 295.954L-7.00296 296.395C-6.96811 296.635 -6.93713 297.09 -6.93713 297.407C-6.93713 298.204 -6.84034 298.678 -6.67771 298.678C-6.56542 298.678 -6.54219 298.361 -6.54219 297.032V295.39L-5.96139 294.793C-2.6973 291.444 1.24826 284.887 3.70311 278.742C3.98964 278.021 4.05546 277.927 4.23357 277.97C4.34586 278 4.69434 278.072 5.00797 278.131C5.4881 278.218 5.58103 278.269 5.58103 278.436C5.58103 278.546 5.64685 279.434 5.72816 280.41C6.20055 286.129 6.58775 291.44 6.62259 292.744C6.68068 294.691 7.15306 300.476 7.26922 300.582C7.72224 301.007 7.78419 297.691 7.42022 292.558C7.34278 291.477 7.23437 288.43 7.17629 285.783C7.11821 283.136 7.04851 280.391 7.02141 279.685L6.97107 278.4H7.80743C12.8255 278.4 17.3093 275.386 21.0574 269.495C29.7655 255.807 37.1804 224.703 41.699 182.902C41.9468 180.616 42.1482 178.661 42.1482 178.556C42.1482 178.446 42.5199 178.891 43.0387 179.637L43.9254 180.907L45.025 194.075C45.6252 201.316 46.3222 209.7 46.57 212.707C46.8178 215.714 47.1314 219.428 47.2669 220.96C47.4025 222.493 47.5147 224.069 47.5147 224.466C47.5147 224.859 47.7548 227.957 48.0529 231.35C48.3511 234.743 48.7383 239.276 48.9203 241.423C49.0984 243.568 49.2765 245.377 49.3191 245.435C49.5088 245.726 49.5282 245.246 49.4236 243.24C48.8932 233.371 48.3859 224.87 48.262 223.782C48.1807 223.061 48.0452 221.255 47.96 219.762C47.5689 212.966 45.6678 186.215 45.3658 183.274C45.3271 182.892 45.3387 182.699 45.4006 182.76C45.451 182.811 45.9195 183.357 46.4461 183.973C53.5551 192.331 59.3437 192.601 64.4315 184.803C69.6238 176.845 74.3438 155.857 77.8092 125.335C78.2661 121.327 78.3281 121.575 78.2661 127.064C77.8867 159.261 77.8286 216.166 78.1771 216.166C78.2545 216.166 78.3165 216.155 78.3203 216.14C78.3745 215.711 78.7114 199.955 78.7114 197.778C78.7153 196.066 78.7772 191.629 78.8585 187.919C78.936 184.206 79.025 179.571 79.056 177.62C79.1606 170.907 79.2225 168.086 79.269 167.762C79.4006 166.79 79.4316 129.38 79.3038 123.187C79.2303 119.565 79.1838 116.234 79.1993 115.79C79.2148 115.342 79.1489 114.155 79.056 113.147C78.9631 112.138 78.9128 111.29 78.9437 111.257C78.9786 111.228 80.024 111.25 81.2708 111.308C82.5137 111.367 84.1283 111.414 84.8563 111.414H86.1766L86.7923 111.978C90.3003 115.196 97.4712 116.642 101.421 114.927C103.256 114.126 105.56 112.033 105.982 110.777C106.028 110.639 106.412 110.577 108.514 110.358C111.283 110.067 116.103 109.426 119.081 108.953L121.044 108.644V113.977C121.048 116.907 121.071 124.88 121.106 131.692L121.164 144.073L120.463 144.932C120.033 145.46 119.677 146.021 119.538 146.381C119.282 147.033 119.197 146.942 119.166 145.988C119.143 145.22 118.953 144.954 118.531 145.107C118.256 145.205 118.252 146.556 118.527 147.266C118.562 147.36 118.399 147.215 118.171 146.945C117.513 146.181 116.754 146.359 117.199 147.171C117.451 147.63 118.566 148.696 119.077 148.973C119.569 149.239 119.557 149.352 119.031 149.352C118.454 149.352 117.451 151.015 117.292 152.231L117.242 152.635L117.613 152.606C117.981 152.577 117.989 152.566 118.272 151.838C118.426 151.43 118.57 151.088 118.585 151.074C118.601 151.055 118.597 151.609 118.577 152.3L118.535 153.556H118.895C119.317 153.556 119.325 153.538 119.383 152.235C119.437 151.103 119.596 150.811 120.355 150.455L120.893 150.196L120.994 150.498C121.148 150.964 121.226 151.034 121.602 151.034C122.016 151.034 122.337 150.892 122.337 150.71C122.337 150.327 122.844 150.527 123.084 151.008C123.201 151.241 123.522 153.163 123.526 153.673C123.53 153.84 124.211 153.742 124.269 153.567C124.358 153.309 124.052 151.001 123.878 150.589L123.727 150.24L123.983 150.52C124.389 150.972 124.641 151.489 124.916 152.435C125.148 153.247 125.191 153.327 125.427 153.353C126.658 153.487 125.202 149.905 123.778 149.293C123.379 149.126 123.328 149.082 123.53 149.075C124.92 149.042 127.406 146.214 126.143 146.101C125.857 146.075 125.791 146.122 125.435 146.614C125.02 147.182 124.726 147.506 124.343 147.808L124.114 147.986L124.211 147.757C124.262 147.633 124.385 147.386 124.482 147.207C124.982 146.279 124.664 144.375 123.994 144.324C123.565 144.288 123.499 144.575 123.774 145.289C123.925 145.686 123.975 146.366 123.851 146.355C123.778 146.352 123.39 145.871 122.419 144.586L121.958 143.975L121.923 126.242C121.888 108.571 121.888 108.509 122.086 108.465C122.198 108.443 123.247 108.25 124.42 108.043C125.597 107.835 127.491 107.475 128.633 107.246L130.708 106.831L131.766 107.835C139.002 114.741 151.977 116.143 162.18 111.123C168.391 108.065 174.958 101.377 180.959 91.9919L181.997 90.3719L185.973 88.5007C188.161 87.4704 190.132 86.5348 190.353 86.4183C190.57 86.3018 191.189 85.9887 191.723 85.723C199.572 81.824 208.052 76.8766 215.788 71.6852C218.312 69.9888 218.386 69.9451 219.067 69.8359C226.989 68.5617 236.836 63.0427 243.678 56.0347C248.8 50.7888 254.21 43.1874 256.432 38.1053C256.672 37.5628 256.916 37.2534 257.869 36.285C258.504 35.6407 259.607 34.5157 260.331 33.784C261.741 32.3496 268.246 25.4873 269.539 24.0675C269.973 23.5942 270.333 23.2156 270.34 23.2266C270.344 23.2375 270.309 25.5383 270.255 28.3415C270.193 31.7672 270.197 35.5278 270.271 39.8345C270.333 43.3549 270.352 47.7708 270.321 49.6456C270.259 53.2388 270.298 53.6029 270.712 53.2133C270.844 53.0896 271.212 48.386 271.13 47.8691C271.084 47.5706 271.219 45.4118 271.777 37.7303C272.067 33.733 272.369 27.7553 272.536 22.7351C272.609 20.4561 272.319 21.0095 275.01 18.0061C276.872 15.931 277.457 15.2721 278.189 14.4166C278.355 14.2236 279.451 12.9567 280.628 11.6024C283.075 8.7847 287.323 3.77902 289.793 0.797449C289.871 0.706437 289.363 0.680952 287.319 0.684594L284.748 0.688234L283.505 2.0607C282.216 3.48778 279.695 6.23635 278.042 8.01656C277.515 8.58083 276.16 10.0443 275.025 11.2639C273.891 12.4834 272.946 13.4846 272.923 13.4846C272.896 13.4846 272.908 11.6024 272.942 9.30165L273.004 5.11872L274.108 4.03749C275.053 3.11645 276.512 1.3144 276.71 0.826573C276.76 0.702796 276.667 0.680953 276.086 0.680953H275.397L275.037 1.12509C274.84 1.36901 274.298 1.94785 273.829 2.41019L272.981 3.25114L272.977 2.82157C272.977 2.58493 272.946 2.00609 272.908 1.53647L272.846 0.680953H271.212L271.157 1.12509C271.126 1.36901 271.049 2.1772 270.987 2.9235C270.809 5.01679 270.898 4.802 269.965 5.36627C265.423 8.12577 258.926 9.88777 250.616 10.6049C248.839 10.7578 241.796 10.7578 239.837 10.6049C237.928 10.4557 235.508 10.2154 235.318 10.1535C235.233 10.128 235.632 9.88049 236.259 9.56741C240.123 7.65251 244.142 5.01679 249.563 0.848416C249.765 0.691874 249.718 0.684594 248.495 0.684594L247.217 0.680953L245.513 1.88232C241.049 5.03499 236.867 7.56513 233.51 9.14511L232.24 9.74579L230.075 9.32714C223.183 7.99107 216.415 5.64659 210.077 2.39927C207.815 1.24159 207.935 1.32896 208.133 0.968552L208.292 0.680953H206.329L204.362 0.684594L204.884 1.15786C205.171 1.41633 205.403 1.64933 205.403 1.67481C205.403 1.78402 200.846 6.97537 198.205 9.87685L196.513 11.7371L196.451 6.23271C196.42 3.20382 196.385 0.717358 196.378 0.706437C196.37 0.691875 196.145 0.680953 195.882 0.680953H195.402L195.336 2.43203C195.301 3.39676 195.27 6.0252 195.27 8.27503C195.27 10.5212 195.247 12.3633 195.22 12.3633C195.189 12.3633 194.67 12.2104 194.058 12.0247C190.848 11.0491 187.356 9.59653 184.27 7.95467L183.058 7.3103L184.13 6.26184C185.416 5.0095 186.934 3.3822 188.25 1.84955L189.214 0.728279L188.343 0.702796L187.468 0.673672L184.986 2.98903C183.619 4.2632 182.229 5.52646 181.892 5.79585L181.284 6.28732L180.053 5.48277C178.013 4.14671 175.345 2.11531 174.307 1.11053C173.87 0.684594 172.615 0.43704 172.615 0.775606C172.615 1.23795 176.719 4.63089 180.065 6.92805L180.309 7.09915L178.973 8.09665C172.309 13.0768 164.329 15.6907 154.668 16.0621L152.965 16.1239L151.737 15.4905C148.562 13.8523 145.228 11.7117 142.568 9.60745C141.914 9.0905 141.291 8.59904 141.174 8.51166C140.923 8.31872 140.826 8.46798 142.406 6.66229C143.653 5.2425 146.673 1.50371 147.01 0.968552L147.188 0.680953H145.736L143.351 3.04C142.042 4.33965 140.609 5.74853 140.172 6.1781L139.37 6.95353L137.93 5.57014C136.389 4.08846 135.088 2.69415 134.077 1.45274C133.485 0.713717 133.438 0.680953 133.063 0.680953C132.59 0.680953 132.59 0.680952 132.977 1.20883C133.953 2.54125 135.711 4.47071 137.628 6.30916L138.867 7.49961L138.178 8.17674C137.798 8.55171 136.675 9.65478 135.676 10.6304L133.868 12.3997L133.341 12.2286C131.572 11.6425 126.209 9.33806 126.209 9.16331C126.209 9.11963 126.744 8.12577 127.39 6.96081C129.299 3.52418 130.782 0.80837 130.782 0.742841C130.782 0.710076 130.252 0.680953 129.601 0.680953H128.42L127.928 1.50007C127.657 1.94785 126.658 3.62976 125.706 5.23158L123.975 8.14761L123.328 7.80905C119.96 6.04705 116.858 4.0739 112.932 1.19426L112.224 0.673672L110.895 0.702796L109.567 0.728279L111.008 2.08619C113.718 4.64181 117.706 7.3467 121.911 9.48368C123.17 10.1171 123.216 10.0152 120.943 11.4969C113.637 16.2514 107.202 18.1663 97.4209 18.5012L95.7056 18.5594V14.1217C95.7056 11.6789 95.6746 7.65615 95.6398 5.18061L95.574 0.680953H95.1519C94.5595 0.680953 94.5982 0.113036 94.5401 9.82588L94.482 18.6432L92.4376 18.5813C86.9704 18.4138 82.3705 17.9806 77.0232 17.1214L74.6884 16.7465L73.7436 16.2186C71.4979 14.9626 66.1119 11.3986 64.0753 9.8186L63.7926 9.60017L64.052 6.93897C64.1953 5.47549 64.3657 3.4805 64.4315 2.50484L64.5554 0.728279L62.2787 0.702796C61.028 0.688234 59.9787 0.699156 59.9516 0.728279C59.8354 0.837494 58.7435 9.09414 57.76 17.3217L57.187 22.1271L56.1996 23.4486C55.6575 24.1767 55.0458 25.0068 54.8406 25.2907C51.6926 29.6302 44.1035 37.6029 39.066 41.855C37.374 43.2857 35.2637 44.9785 35.225 44.9421C35.2095 44.9276 35.5696 43.5078 36.0304 41.7931C37.614 35.8409 39.2945 27.5988 40.0186 22.2145C40.0805 21.7558 40.1037 21.7267 40.642 21.4281C47.7006 17.511 53.0556 12.5963 56.6255 6.75694C57.5781 5.19881 59.7348 1.01588 59.7348 0.724639C59.7348 0.699155 59.1346 0.680953 58.4028 0.680953H57.067L56.0331 2.57401C52.5638 8.93032 49.1836 12.8111 43.786 16.63C42.4928 17.5474 40.611 18.7196 40.5761 18.6322C40.5606 18.5849 40.6807 17.46 40.8472 16.1312C41.2499 12.873 41.4899 10.4775 41.85 6.14898C42.0165 4.14307 42.1946 2.30097 42.2488 2.05342C42.303 1.80951 42.3456 1.39813 42.3456 1.1433V0.680953H42.0088C41.6487 0.680953 41.4512 1.11053 41.4512 1.89688C41.4512 2.04978 40.9827 5.65387 40.4096 9.90597C39.128 19.4404 39.1125 19.546 39.0583 19.5897C38.9305 19.7026 35.7594 21.2862 34.7449 21.7449C31.415 23.252 27.4423 24.6682 23.5664 25.7239C22.1261 26.1171 18.6722 26.9471 18.6335 26.9107C18.6219 26.8998 19.0052 26.2737 19.4854 25.5164C23.5936 19.0436 27.1751 9.98242 28.391 2.97083C28.48 2.45752 28.6155 1.85683 28.693 1.63476C28.9408 0.921226 28.8904 0.680953 28.4916 0.680953C28.0812 0.680953 28.0657 0.702796 27.8953 1.4491C27.5198 3.09096 25.3785 9.2434 23.9653 12.7346C21.3672 19.1528 19.2376 23.1355 16.6162 26.4812L15.8418 27.4714L14.2156 27.7153C8.60893 28.5635 0.981096 29.0113 -3.29746 28.7456L-4.2732 28.6837L-4.21512 28.3014C-3.44847 23.394 -2.36818 8.38789 -2.36818 2.66866V0.680953H-4.94306L-4.99339 0.983114ZM294.401 1.12509C294.072 3.45865 293.251 11.5296 292.945 15.3995C292.833 16.8375 292.697 18.1626 292.647 18.341C292.597 18.523 292.484 19.637 292.399 20.8202C292.318 21.9997 292.221 23.2557 292.186 23.6088C292.128 24.1949 292.14 24.2459 292.306 24.2131C292.492 24.1804 293.425 19.4696 293.437 18.4975C293.441 18.3046 293.642 17.0195 293.886 15.6507C294.579 11.7335 296.027 1.84591 296.027 1.00496V0.680953H294.463L294.401 1.12509ZM207.378 3.09824C211.103 5.85774 218.943 9.22156 225.476 10.8671C226.324 11.0819 227.218 11.3076 227.462 11.3731L227.911 11.4896L226.072 12.0575C217.697 14.6459 207.242 15.1556 199.289 13.3644L198.79 13.248L200.606 11.0054C202.422 8.7665 204.865 5.59563 206.162 3.79358C206.936 2.71235 206.89 2.73784 207.378 3.09824ZM270.751 7.52509C270.72 8.00199 270.662 9.90961 270.627 11.7663C270.592 13.6229 270.538 15.3776 270.503 15.6652L270.441 16.1858L268.056 18.6869C264.161 22.7679 258.333 28.7601 254.79 32.3205C250.465 36.6636 242.946 43.8209 238.892 47.4468C237.444 48.7392 237.285 48.8557 236.259 49.3289C235.117 49.8532 234.915 49.9187 235.105 49.7039C235.183 49.6165 234.997 49.6493 234.567 49.7985C234.207 49.9187 233.758 50.0206 233.572 50.0206C233.196 50.0206 233.084 50.2026 233.452 50.2136C234.617 50.2573 231.334 50.6723 229.847 50.6723C222.905 50.665 218.591 47.6325 213.039 38.8552C211.261 36.0411 210.189 34.1663 205.968 26.5066C204.462 23.769 201.256 18.2027 200.761 17.4673C200.075 16.4479 199.169 14.5913 199.382 14.6386C208.071 16.6809 221.011 15.6507 230.211 12.1922L230.718 11.9993L232.097 12.2177C246.001 14.4311 261.539 12.3779 269.845 7.23021C270.336 6.92441 270.755 6.67321 270.774 6.66957C270.793 6.66593 270.786 7.05183 270.751 7.52509ZM183.53 8.94488C186.841 10.7287 191.429 12.6291 194.155 13.3462C194.5 13.4336 194.767 13.5428 194.751 13.5829C194.713 13.6885 190.089 18.5158 189.741 18.8216C189.207 19.2839 182.07 20.7547 178.28 21.1879C171.643 21.9451 165.618 21.1078 158.455 18.4393C156.972 17.8859 156.802 17.7804 157.386 17.7804C159.292 17.7804 164.236 16.8775 167.43 15.9492C172.836 14.3729 176.983 12.2577 181.11 8.96673C181.656 8.53351 182.125 8.18766 182.152 8.20222C182.183 8.21678 182.802 8.55171 183.53 8.94488ZM141.07 9.3963C143.695 11.5406 146.572 13.5028 149.612 15.2065C150.32 15.607 150.924 15.9565 150.951 15.982C151.129 16.1567 146.657 15.6834 144.493 15.2976C141.968 14.8498 136.598 13.4882 136.342 13.2297C136.3 13.1897 136.954 12.4616 137.798 11.6134C138.638 10.7651 139.56 9.81132 139.85 9.4946C140.477 8.79198 140.35 8.8029 141.07 9.3963ZM65.2988 12.2832C66.1778 12.9822 68.1292 14.4129 69.2599 15.1847C69.771 15.5342 70.162 15.8181 70.1272 15.8181C69.9336 15.8181 66.4256 14.9517 66.0229 14.8024C65.7635 14.7078 65.0394 14.4894 64.416 14.3183L63.2893 14.0052L63.3473 13.3936C63.3822 13.0586 63.4596 12.3487 63.5254 11.8172L63.6377 10.8525L64.145 11.3112C64.4276 11.5624 64.9465 11.9993 65.2988 12.2832ZM129.427 12.913C130.31 13.2625 131.254 13.6266 131.525 13.7176C131.8 13.8122 132.044 13.9032 132.068 13.9214C132.296 14.0925 127.096 18.3629 124.769 19.9137C123.588 20.7001 123.812 20.8238 122.631 18.7415L121.722 17.1287L122.937 14.9553C123.603 13.7613 124.37 12.3961 124.637 11.9265L125.125 11.0709L126.476 11.6716C127.22 12.0065 128.548 12.5635 129.427 12.913ZM121.323 12.6509C121.199 12.8657 119.731 15.334 118.063 18.1408L115.031 23.2448L114.485 23.3649C109.056 24.5408 102.087 24.7738 96.2515 23.9692L95.7559 23.9L95.7288 21.774L95.7017 19.6516L95.9766 19.6479C106.032 19.6334 114.032 17.4636 120.397 13.0222C120.994 12.6072 121.501 12.2687 121.516 12.2687C121.536 12.2687 121.451 12.4398 121.323 12.6509ZM198.526 14.4602C198.542 14.4748 198.646 14.7952 198.755 15.1738C198.867 15.556 199.045 16.0329 199.146 16.2404C199.251 16.4443 199.587 17.2452 199.901 18.0134C203.878 27.9082 211.749 41.2834 216.504 46.2345C221.131 51.0545 227.284 53.0022 233.498 51.6079C233.92 51.5132 234.28 51.4477 234.292 51.4586C234.35 51.5096 227.051 57.531 224.879 59.2274C218.696 64.0547 213.139 68.0556 212.617 68.0556C211.261 68.0556 208.539 67.3021 206.708 66.4211C200.679 63.5196 195.468 56.9521 186.028 40.3478C185.358 39.1683 184.456 37.6029 184.026 36.8748C183.6 36.143 183.097 35.2402 182.907 34.8652C182.721 34.4903 182.303 33.7403 181.978 33.2052L181.381 32.2295L182.977 30.6386C186.372 27.2457 190.353 23.0081 193.477 19.455L195.34 17.3399L195.402 19.3603C195.44 20.4707 195.471 23.1865 195.479 25.3963C195.491 30.8425 195.681 37.1442 195.832 37.1915C196.029 37.2534 196.265 30.4457 196.257 24.9303C196.257 23.5942 196.285 21.0641 196.323 19.313L196.393 16.1239L197.14 15.2211C197.88 14.3255 198.17 14.169 198.526 14.4602ZM64.2069 15.0536C64.6716 15.2138 65.2988 15.4068 65.597 15.4796C65.899 15.556 67.1496 15.8873 68.3809 16.2186C69.6084 16.5499 71.041 16.9176 71.5598 17.0341C72.3536 17.2161 72.733 17.3763 73.9295 18.0352C80.0744 21.4136 88.1242 24.2714 93.878 25.1233C94.1026 25.156 94.3349 25.2106 94.3969 25.247C94.4743 25.2907 94.513 26.5867 94.5363 29.5319L94.5634 33.7549L94.3156 33.8058C89.0458 34.8397 79.5981 34.6723 72.7021 33.4199C69.0392 32.7574 61.9728 30.6641 61.0435 29.9688C61.0241 29.9542 61.2332 28.4143 61.512 26.5503C62.0657 22.8443 62.693 18.3629 62.9795 16.1203C63.0879 15.2721 63.2041 14.7078 63.2622 14.7296C63.3164 14.7478 63.7423 14.8935 64.2069 15.0536ZM135.978 15.2138C141.98 17.0304 147.896 17.9624 153.476 17.966L155.156 17.9697L156.655 18.5667C167.57 22.9208 175.902 23.3139 187.511 20.0302C188.246 19.8227 188.862 19.6661 188.877 19.6844C189.222 20.0084 171.562 36.4452 164.782 42.1135L163.256 43.384H160.887C156.848 43.384 154.595 42.9763 150.773 41.5528C141.403 38.0579 132.737 32.1785 127.328 25.6438C126.387 24.5117 124.761 22.2909 124.827 22.2291C124.85 22.2072 125.361 21.8869 125.961 21.5155C128.161 20.154 131.049 17.9406 133.365 15.8363C133.992 15.2648 134.522 14.7988 134.546 14.7952C134.565 14.7915 135.212 14.9808 135.978 15.2138ZM79.8072 18.5667C84.1593 19.1965 89.855 19.6516 93.4366 19.6516H94.513V23.6853L94.091 23.6234C91.2606 23.1974 86.6993 21.9415 83.0364 20.5726C81.1043 19.8518 77.4182 18.2063 77.9177 18.29C78.057 18.3119 78.905 18.4357 79.8072 18.5667ZM121.923 20.8384L122.233 21.4172L121.66 21.7048C120.827 22.1198 118.361 23.1974 118.361 23.1428C118.361 23.1173 118.93 22.0944 119.623 20.8675L120.885 18.6359L121.245 19.4477C121.447 19.8919 121.749 20.518 121.923 20.8384ZM123.677 23.6925C130.976 34.381 147.904 44.3596 160.058 45.1424L161.065 45.2079L159.264 46.6677C156.132 49.2015 152.535 52.0083 149.561 54.2327C146.994 56.1549 142.317 59.5514 142.243 59.5514C140.861 59.5514 135.324 58.0443 132.308 56.8429L131.111 56.3696L130.159 54.5276C128.292 50.9235 126.589 47.0864 123.661 39.8818C120.765 32.7647 118.442 27.5988 117.307 25.7531C116.943 25.1597 117.095 24.9267 117.9 24.8429C119.185 24.7082 120.862 24.1876 122.403 23.445C123.274 23.0227 123.212 23.0118 123.677 23.6925ZM56.6875 26.4957C56.5094 28.0502 56.068 31.9929 55.7079 35.2548L55.0458 41.1888L53.8726 43.2966C46.57 56.417 37.8696 64.7392 27.2448 68.7692C26.3969 69.0896 25.6883 69.3335 25.6689 69.3153C25.6457 69.2934 25.9439 68.6563 26.3272 67.8955C29.0957 62.4202 31.9145 55.3831 34.0518 48.619L34.6249 46.7951L35.6781 45.9906C43.3175 40.1585 50.713 32.4698 56.5481 24.3005C56.7959 23.951 57.0011 23.6671 57.005 23.6671C57.0089 23.6671 56.8656 24.9412 56.6875 26.4957ZM113.765 25.3744C113.575 25.6948 113.203 26.3246 112.936 26.776L112.448 27.5952L109.618 28.9349C105.506 30.8752 103.221 31.7417 99.8719 32.6372C98.7374 32.9394 95.8798 33.5728 95.6514 33.5728C95.6127 33.5728 95.6088 33.1433 95.6398 32.6154C95.6746 32.0875 95.7017 30.2564 95.7017 28.5417L95.7056 25.4218L96.1276 25.48C101.843 26.2591 108.731 26.0989 112.847 25.0869C113.447 24.9376 113.978 24.8102 114.024 24.8029C114.07 24.7956 113.95 25.0541 113.765 25.3744ZM116.765 27.668C117.083 28.8402 117.888 31.414 118.31 32.5936C120.943 39.9474 124.866 49.2525 127.313 53.9451C127.785 54.8516 127.847 54.8516 126.089 53.9014C118.922 50.0279 112.696 45.2843 108.348 40.3769C108.224 40.2386 108.321 40.0384 109.176 38.6513C110.675 36.2268 114.009 30.6568 115.282 28.4616C115.91 27.3767 116.432 26.4957 116.44 26.503C116.452 26.5139 116.599 27.0382 116.765 27.668ZM109.192 32.8921C103.484 42.1171 101.703 44.8475 101.173 45.2152C100.639 45.5829 98.4276 46.7733 96.6813 47.6325L95.4268 48.2513L95.4617 44.0684C95.4849 41.764 95.5275 38.8224 95.5623 37.5301L95.6282 35.1783L96.5226 35.0254C101.328 34.1917 106.745 32.2841 110.559 30.078C110.779 29.9542 110.973 29.8668 110.996 29.885C111.015 29.9032 110.202 31.2575 109.192 32.8921ZM61.783 31.6215C70.6112 35.4586 83.0906 36.9731 93.6147 35.4914C94.1297 35.4186 94.5711 35.3713 94.5905 35.3931C94.6137 35.4113 94.6485 37.6903 94.6679 40.457C94.6873 43.2238 94.7337 46.169 94.7647 46.999L94.8228 48.5135L94.5324 48.6554C86.5057 52.558 75.8074 54.3237 66.987 53.1988C62.7936 52.6636 57.6749 51.3203 57.8065 50.7888C57.8297 50.7014 58.4957 46.402 59.2856 41.2361C60.7957 31.3776 60.8189 31.2357 60.8693 31.2357C60.8847 31.2357 61.299 31.4104 61.783 31.6215ZM181.439 33.4564C181.621 33.9587 181.95 34.7232 182.171 35.1601C182.392 35.597 182.748 36.3724 182.969 36.8893C184.583 40.7009 188.455 48.1348 191.069 52.4379C197.318 62.7296 203.363 68.3396 209.604 69.6465C209.918 69.7121 210.173 69.7994 210.173 69.8395C210.173 70.0907 201.508 75.4968 196.908 78.1107L195.119 79.1264H192.738C186.918 79.1228 181.815 77.1496 177.343 73.1742L176.785 72.6791L176.688 68.9439C176.592 65.2743 176.557 64.3205 176.239 57.3562C175.945 50.7997 175.519 43.617 175.302 41.5346C175.252 41.0541 175.233 40.6063 175.26 40.5371C175.287 40.468 175.24 39.9364 175.155 39.354L175 38.2982L177.896 35.5678C179.492 34.068 180.835 32.7719 180.886 32.6918C181.037 32.4334 181.102 32.528 181.439 33.4564ZM174.644 45.1132C174.954 53.0677 175.376 60.4324 175.697 63.5706C175.747 64.0584 175.79 64.8156 175.794 65.2525C175.794 65.6893 175.929 67.4331 176.088 69.126C176.251 70.8188 176.367 72.2204 176.352 72.2349C176.278 72.3041 174.303 70.2654 173.347 69.1296C170.311 65.5437 166.304 59.3585 162.532 52.4415L161.332 50.2391L162.525 49.2561C165.463 46.8388 172.332 40.8502 173.858 39.3722L174.354 38.8916L174.423 39.9947C174.458 40.599 174.559 42.9034 174.644 45.1132ZM108.131 41.9606C111.585 46.7515 119.251 52.4816 128.207 56.9667L129.264 57.4946L129.934 58.594C131.301 60.8293 133.09 63.2065 134.278 64.3751L134.669 64.7574L134.147 65.1214C133.279 65.7257 129.996 67.8481 126.523 70.0506C125.566 70.6586 125.609 70.6513 123.774 70.3965C115.778 69.2898 107.852 64.062 102.315 56.235C101.041 54.4365 100.034 52.7838 100.104 52.6127C100.131 52.5471 100.797 51.5496 101.591 50.3919C103.457 47.6579 104.267 46.4456 105.684 44.2249C106.361 43.1656 107 42.2773 107.213 42.0989C107.492 41.8695 107.546 41.7785 107.445 41.7166C107.333 41.6475 107.333 41.6001 107.445 41.4363C107.612 41.1851 107.523 41.1196 108.131 41.9606ZM251.139 43.0345C251.089 43.1 250.516 43.8463 249.869 44.6946C241.645 55.4959 235.198 61.2479 227.017 65.085C225.708 65.7002 223.203 66.6941 223.133 66.6286C223.11 66.6104 223.822 66.0534 224.709 65.3908C232.619 59.4896 239.961 53.3444 247.736 46.1144C250.903 43.1692 251.402 42.7178 251.139 43.0345ZM54.5076 46.0015C54.3256 47.6215 53.9035 51.364 53.5667 54.32L52.9588 59.6898L52.2579 60.8584C47.7587 68.325 43.4569 73.7749 40.2857 76.0283C35.6471 79.3266 31.7828 80.7828 25.1578 81.733C22.7611 82.0788 17.3093 82.5266 17.1234 82.3919C17.108 82.381 17.5261 81.8313 18.0527 81.1687C18.5832 80.5098 19.044 79.9237 19.0788 79.8654C19.1214 79.7963 19.7912 79.7417 21.0342 79.7089C33.7266 79.3812 48.0878 66.6541 52.4283 51.8882C52.5716 51.4004 52.7536 50.8761 52.8271 50.7196C52.9433 50.483 53.6751 47.9018 53.6751 47.7271C53.6751 47.2029 52.7032 48.8666 52.0334 50.5339C50.4768 54.4256 47.6774 59.7517 45.6523 62.6823C39.2597 71.9291 28.7356 78.6131 20.5618 78.6131C19.9616 78.6131 19.9539 78.6568 20.8328 77.3608C22.068 75.5478 23.4542 73.2761 24.5577 71.2629C24.9759 70.5021 25.1307 70.3018 25.3398 70.2509C27.2913 69.7994 32.4643 67.3785 35.2444 65.6202C42.4889 61.0295 49.7528 52.7291 54.4805 43.6461C54.6586 43.3003 54.8135 43.0272 54.8212 43.0381C54.8328 43.0491 54.6895 44.3815 54.5076 46.0015ZM99.7635 47.6616C97.6493 50.7815 96.2941 52.7364 94.3001 55.5323L92.1318 58.5685L91.5587 58.8233C90.2035 59.4167 84.016 61.6265 81.8439 62.2891C76.698 63.8618 72.8298 64.4734 67.3742 64.5717C63.0802 64.6481 60.7996 64.477 57.5006 63.8327L55.9092 63.5232L55.9363 63.1956C55.9634 62.8425 57.6671 51.5788 57.702 51.5351C57.7136 51.5205 58.1085 51.6552 58.5809 51.8336C63.6919 53.774 72.7021 54.8952 77.0736 54.1417C77.4027 54.0834 78.3939 53.956 79.2767 53.8504C84.3258 53.2643 89.1581 51.961 93.8935 49.915C94.3581 49.7148 94.757 49.5619 94.7724 49.5801C94.7918 49.5983 94.8383 50.4393 94.8731 51.4513C94.9235 52.8056 94.9738 53.2898 95.0629 53.2898C95.2642 53.2898 95.3068 52.9476 95.3068 51.1419C95.3107 49.0959 95.1597 49.3726 96.751 48.5571C97.4596 48.1931 98.598 47.5742 99.2833 47.1847C99.9648 46.7951 100.534 46.4748 100.549 46.4711C100.561 46.4711 100.209 47.0063 99.7635 47.6616ZM33.0412 48.3606C30.7955 55.6088 27.663 63.4286 24.9255 68.6163L24.3099 69.7812L22.9702 70.1344C16.9841 71.7071 10.0842 71.9655 5.13188 70.8079L4.14064 70.5749L2.96356 69.4318C1.23277 67.7571 -2.79023 63.2538 -2.65084 63.1555C-2.63148 63.1446 -1.60927 63.0827 -0.381845 63.0245C2.06913 62.9043 3.2617 62.7624 4.8376 62.3983C11.3968 60.8839 23.369 54.8516 31.9493 48.7392C32.6114 48.2659 33.1651 47.8764 33.1729 47.8764C33.1845 47.8727 33.1264 48.0912 33.0412 48.3606ZM161.08 52.1649C162.025 54.7933 163.953 58.6704 165.936 61.9323C171.91 71.769 178.411 77.7794 185.482 80.011C186.562 80.3532 186.67 80.4079 186.647 80.5972C186.612 80.8629 185.811 82.3774 185.002 83.7061L184.374 84.7364L182.891 85.4536C175.476 89.054 159.133 95.7016 155.71 96.5098C154.494 96.7974 148.566 91.6716 145.43 87.6197C141.763 82.8834 137.961 74.3719 136.997 68.7437L136.931 68.3578L138.255 67.4841L139.064 67.8081C141.949 68.9621 144.38 68.7328 147.068 67.0509C150.065 65.176 152.562 61.1059 153.089 57.2397L153.158 56.7555L155.706 54.7496C157.108 53.6502 158.769 52.3251 159.4 51.8117C160.027 51.2984 160.569 50.9053 160.6 50.938C160.635 50.9744 160.848 51.5241 161.08 52.1649ZM100.925 56.8393C106.102 64.71 116.436 71.6707 122.98 71.6998C123.824 71.7034 123.704 71.8199 121.524 73.1196C117.443 75.5514 113.525 77.7794 110.144 79.5851L108.441 80.4989L107.066 80.113C100.836 78.3692 96.0928 75.6643 89.7156 70.2108L88.0468 68.7874L88.3953 68.3505C91.1095 64.943 94.8499 59.9592 97.8197 55.7835L99.202 53.8395L99.7712 54.8952C100.085 55.4777 100.608 56.3514 100.925 56.8393ZM151.149 59.1473C148.829 65.2306 145.194 67.8591 140.896 66.5667C139.963 66.2864 139.924 66.3483 142.038 64.8775C144.295 63.3012 148.86 59.9992 150.405 58.8197C151.005 58.361 151.517 58.0006 151.536 58.0152C151.555 58.0334 151.381 58.543 151.149 59.1473ZM135.006 59.799C136.408 60.2868 138.22 60.7929 139.126 60.9567C139.482 61.0186 139.808 61.0987 139.85 61.1351C139.893 61.1678 139.126 61.7503 138.147 62.4238L136.369 63.647L135.885 63.1191C134.948 62.1034 134.549 61.612 133.663 60.3851C132.613 58.9326 132.617 58.9362 133.291 59.191C133.578 59.3003 134.348 59.5733 135.006 59.799ZM89.8357 61.6702C87.9113 64.2331 85.41 67.4622 83.6908 69.5919L82.1885 71.4559L81.2708 71.7253C75.9933 73.2688 71.2501 74.0588 67.289 74.0515C66.3868 74.0515 65.4227 74.0042 65.1517 73.9496C64.8768 73.895 64.1179 73.7603 63.4596 73.6547C60.1994 73.1196 55.6304 71.6889 54.8328 70.9535C54.7476 70.877 55.6498 64.4843 55.7698 64.3023C55.8086 64.2404 56.0564 64.2732 56.4668 64.3897C58.155 64.8775 62.3135 65.369 66.1507 65.5328C72.977 65.8277 78.5759 64.9285 84.926 62.5221C86.6645 61.8595 90.0564 60.4179 90.6643 60.083C91.2799 59.7407 91.2722 59.7517 89.8357 61.6702ZM-5.05535 62.2855C-5.04373 62.5294 -5.63614 62.3328 -5.69035 62.0743C-5.88395 61.1169 -5.89944 61.1387 -5.45803 61.6993C-5.23733 61.9833 -5.05535 62.2454 -5.05535 62.2855ZM-7.31272 63.141C-7.274 63.1956 -7.23915 63.4104 -7.23915 63.6142L-7.23528 63.9819L-7.73477 63.5232C-8.00581 63.2684 -8.23038 63.0354 -8.23038 62.999C-8.23038 62.8971 -7.39403 63.0245 -7.31272 63.141ZM-3.80856 63.8727C-2.92575 65.0231 -0.633528 67.6843 0.477736 68.8456C1.01207 69.4063 1.40314 69.8395 1.34119 69.8031C1.23278 69.7412 -1.16399 69.0859 -2.0894 68.8638C-2.59663 68.7437 -4.90047 66.5958 -4.99726 66.1517C-5.07471 65.8167 -5.44642 63.3995 -5.44642 63.2466C-5.44642 63.1337 -5.33026 63.1009 -4.92757 63.1009H-4.40098L-3.80856 63.8727ZM51.6423 70.8443L50.9105 77.1241L50.3645 77.7539C43.9835 85.1296 34.803 89.3489 24.5616 89.6038L22.4242 89.6547L20.6276 88.3623C18.378 86.746 15.3307 84.4707 15.323 84.4051C15.323 84.376 15.7334 84.4051 16.2368 84.467C20.6044 85.0095 29.297 83.8226 34.1564 82.0242C36.7467 81.0631 39.6701 79.4286 42.1559 77.5537C45.0909 75.3366 48.7189 70.7897 51.6888 65.602C52.0334 64.9976 52.3315 64.5171 52.347 64.5353C52.3663 64.5499 52.0489 67.3894 51.6423 70.8443ZM136.636 69.5519C138.673 79.8618 145.124 90.3865 152.69 95.738C154.072 96.7173 154.459 97.0231 154.312 97.0231C154.293 97.0231 152.868 97.4672 151.149 98.006C147.571 99.1346 144.725 99.9755 141.833 100.766L139.819 101.312L139.087 100.594C134.027 95.5887 130.918 88.0602 128.687 75.4131C128.571 74.7578 128.455 74.1426 128.428 74.0479C128.389 73.9059 128.78 73.622 130.453 72.5626C131.595 71.8418 133.399 70.6841 134.464 69.9924C135.672 69.1988 136.42 68.7692 136.454 68.8347C136.489 68.893 136.571 69.217 136.636 69.5519ZM4.79114 79.0572C4.85309 79.5596 4.93828 80.0329 4.98087 80.1093C5.06605 80.2695 5.08541 80.4188 5.42615 83.6151C5.69332 86.1344 5.99533 89.5637 5.95274 89.6038C5.84045 89.7093 4.24132 90.1316 3.48628 90.2554C0.609385 90.7287 -2.49983 89.7275 -5.04373 87.5141L-5.76779 86.8843L-5.41544 84.9221C-4.66427 80.7464 -4.46293 78.2272 -4.51327 73.6147C-4.53263 71.6597 -4.57909 69.9087 -4.61394 69.7194C-4.66815 69.4026 -4.29256 69.7303 0.0014801 73.7603L4.67498 78.1471L4.79114 79.0572ZM-0.734198 70.1089C-0.478645 70.2108 0.473864 70.5494 1.38378 70.8661C2.98679 71.4158 3.07197 71.4595 3.7728 72.0566C6.23927 74.1717 7.73773 75.293 9.63888 76.4397C11.9427 77.8304 14.8699 78.9844 17.1738 79.4176L18.0876 79.5851L17.4293 80.386C15.8728 82.2791 15.7024 82.4429 15.2881 82.4429C15.0752 82.4429 14.4866 82.4902 13.9716 82.5485L13.0424 82.654L11.9698 81.7803C6.8433 77.612 -1.72543 69.9232 -1.2453 69.9232C-1.21432 69.9232 -0.985878 70.007 -0.734198 70.1089ZM87.7641 70.9972C91.8104 75.7444 99.1517 80.4807 104.301 81.6675C104.847 81.7949 105.358 81.9187 105.44 81.9442C105.602 81.9915 105.242 82.1808 101.064 84.2267C97.3164 86.0579 89.0458 89.7712 88.0933 90.0479C87.9422 90.0916 87.7912 89.9423 87.3305 89.2798C86.0024 87.3721 85.5455 85.7703 84.2832 78.5985C83.896 76.4033 83.5592 74.5503 83.5282 74.4811C83.5011 74.4083 83.9386 73.804 84.5233 73.1123C85.0963 72.4279 85.8862 71.4704 86.2812 70.9863C86.6722 70.5021 87.0246 70.138 87.0594 70.1781C87.0982 70.2181 87.4118 70.5858 87.7641 70.9972ZM23.7484 70.8334C22.6294 73.1524 19.1214 78.4274 18.7032 78.4274C15.7024 78.4092 10.5643 75.9046 6.04954 72.2568C6.00307 72.224 6.18506 72.2313 6.44448 72.2786C9.65049 72.8356 17.4835 72.2895 21.9751 71.1901C23.853 70.7314 23.791 70.7423 23.7484 70.8334ZM55.3362 71.6707C57.3922 72.9048 61.8644 74.3319 64.5205 74.5976C69.9839 75.1401 73.0467 74.7942 80.1557 72.8356C80.7016 72.6827 81.1663 72.5735 81.1817 72.5917C81.2321 72.6354 78.2971 76.0429 76.5857 77.925C75.0369 79.6361 75.033 79.6361 74.0418 79.6433C73.6894 79.6433 72.6169 79.7089 71.6605 79.789C67.7459 80.1057 64.5128 80.0693 62.5884 79.6907C60.5672 79.2902 57.0398 77.379 55.1813 75.6752L54.1513 74.7323L54.4108 73.065C54.554 72.1476 54.6663 71.3831 54.6663 71.3612C54.6663 71.2848 54.7825 71.3394 55.3362 71.6707ZM127.804 74.7141C127.808 74.9325 127.874 75.4459 127.952 75.8572C128.025 76.2686 128.223 77.3608 128.385 78.2854C130.662 91.1146 133.562 98.3519 137.566 101.199C137.937 101.465 138.205 101.701 138.162 101.727C138.042 101.796 132.037 103.263 131.351 103.39C130.646 103.521 130.743 103.601 129.733 102.021C127.146 97.9696 124.358 91.3366 122.937 85.854C122.67 84.8274 122.155 82.8361 121.795 81.4272C121.431 80.022 121.071 78.7551 120.994 78.6131L120.854 78.3619L122.314 77.5137C123.119 77.044 124.649 76.1339 125.714 75.4895C127.94 74.1462 127.801 74.1972 127.804 74.7141ZM82.5215 76.5344C82.2582 81.4418 83.927 87.5578 86.1689 89.9314C86.711 90.503 86.7497 90.5758 86.5832 90.6595C86.3121 90.7942 82.7809 92.163 82.6957 92.163C82.5718 92.163 81.2398 90.1717 80.9765 89.5928C80.3802 88.2786 80.0356 86.7787 79.6601 83.8481C79.5168 82.7414 79.3193 81.2998 79.2186 80.6372L79.0289 79.4395L80.5584 77.7175C81.3986 76.7746 82.1846 75.8718 82.3046 75.7189C82.4285 75.5624 82.5408 75.4386 82.5524 75.4386C82.5679 75.4386 82.5524 75.93 82.5215 76.5344ZM55.1658 76.7528C58.7164 80.0402 62.027 81.5109 65.8796 81.5109C67.5639 81.5109 72.5356 80.9285 73.825 80.5826C74.2664 80.4625 74.247 80.488 72.4891 82.2718C69.0198 85.7994 66.0151 88.4643 65.353 88.6026C65.0278 88.6718 64.6948 88.7628 64.6096 88.8065C64.5244 88.8538 63.8546 89.0395 63.1189 89.2252C59.6806 90.0989 57.2954 90.4229 55.7931 90.2226C54.7128 90.0807 52.0837 89.2251 52.0837 89.014C52.0837 88.9739 52.4903 86.1635 52.982 82.7742C53.4776 79.3812 53.9113 76.407 53.9423 76.1594C54.012 75.6133 53.8571 75.5405 55.1658 76.7528ZM50.3336 82.0716L49.9038 85.763L48.9822 86.6076C44.5449 90.6777 38.7369 93.3425 32.0151 94.3983L30.2805 94.6713L28.5884 93.6411C26.9622 92.6472 23.7446 90.5721 23.4967 90.3537C23.4077 90.2736 23.9188 90.2445 25.5334 90.2408C34.5436 90.2008 44.39 85.6502 50.3336 78.7733C50.5465 78.5294 50.7324 78.3401 50.744 78.3546C50.7556 78.3692 50.5736 80.0402 50.3336 82.0716ZM8.56247 81.4017C9.51885 82.2063 10.5372 83.0581 10.8276 83.2948C11.4006 83.7644 11.4432 83.8809 11.5942 85.5337L11.6601 86.2363L10.9321 86.786C9.73568 87.6852 7.22662 89.1851 7.12595 89.0613C7.11434 89.0468 7.02915 88.275 6.93622 87.3503C6.69616 84.9221 6.30122 82.4575 5.68557 79.5487C5.63523 79.3157 5.56167 79.0427 5.51907 78.9407C5.47648 78.8388 5.74752 79.0172 6.13085 79.3448C6.51418 79.6725 7.60608 80.5972 8.56247 81.4017ZM119.313 79.5887C119.116 80.5826 119.611 84.1612 120.258 86.4183C121.896 92.1375 124.707 98.3992 127.572 102.717C128.029 103.405 128.366 103.998 128.323 104.031C128.215 104.122 125.419 104.686 125.086 104.686C124.715 104.686 121.884 104.013 120.73 103.649C113.985 101.526 109.962 96.1348 108.119 86.7496C107.837 85.3116 107.771 85.4536 108.994 84.8311C110.694 83.9719 113.978 82.2208 115.96 81.1214L117.784 80.1093L117.726 81.9551C117.695 82.9708 117.644 84.8311 117.613 86.0907C117.586 87.3503 117.54 89.2397 117.513 90.2954C117.455 92.3232 117.598 98.4829 117.702 98.5849C117.942 98.8106 118.314 93.6374 118.419 88.6135C118.457 86.6841 118.5 85.024 118.512 84.9221C118.523 84.8201 118.539 83.6006 118.547 82.2099L118.562 79.6907L118.883 79.4832C119.325 79.2029 119.387 79.2174 119.313 79.5887ZM190.031 81.0049C190.697 81.085 191.259 81.1651 191.278 81.1796C191.305 81.2088 190.159 81.8094 186.872 83.4986C186.326 83.779 185.865 83.9974 185.85 83.9865C185.83 83.9719 186.221 83.2001 186.717 82.2754L187.619 80.5935L188.215 80.7246C188.544 80.7974 189.361 80.9212 190.031 81.0049ZM77.1316 83.6588C77.5382 87.6961 78.5023 90.0479 80.5855 92.0902L81.2243 92.72L80.7907 92.8948C80.1092 93.1678 75.8694 94.6495 73.9953 95.2684C73.066 95.5742 72.0748 95.9018 71.796 95.9965L71.2849 96.1639L70.6383 94.8898C69.9375 93.51 69.7903 93.1168 69.1824 91.0272L68.7875 89.6584L71.5405 87.0481C73.0544 85.6138 74.8975 83.8081 75.6332 83.029L76.9768 81.6201L77 82.1007C77.0116 82.3664 77.0697 83.0691 77.1316 83.6588ZM16.0509 87.394C18.5483 89.298 20.7941 90.9325 22.8695 92.3487C23.7175 92.9275 24.4493 93.4336 24.4957 93.4736C24.5422 93.5136 24.5112 93.7503 24.4222 94.0015C24.337 94.249 24.1279 95.1264 23.9575 95.9492C23.3535 98.9162 22.4707 101.799 21.5259 103.907C20.5502 106.084 19.6131 107.744 16.5426 112.717C16.1593 113.336 15.9928 113.522 15.7605 113.58C14.5563 113.897 10.3358 114.927 9.17037 115.186L7.74547 115.506L8.88384 114.465C11.3 112.255 13.143 108.858 14.111 104.825C15.3849 99.5023 15.3114 91.5369 13.9368 86.5858C13.7664 85.9669 13.7626 85.8104 13.9213 85.8104C13.9523 85.8104 14.9125 86.5239 16.0509 87.394ZM107.233 86.0324C107.233 87.9218 108.998 93.51 110.485 96.3205C113.052 101.181 116.549 104.071 121.288 105.265L121.783 105.393L119.499 105.786C116.959 106.226 113.827 106.714 111.519 107.031L109.997 107.242L108.89 106.135C104.859 102.109 103.148 98.756 102.563 93.7539C102.516 93.368 102.389 92.3997 102.276 91.6024C102.164 90.8051 102.044 89.7348 102.009 89.2215L101.943 88.2859L103.469 87.5687C104.309 87.1755 105.444 86.6222 105.99 86.3382C107.124 85.7521 107.233 85.7266 107.233 86.0324ZM49.4043 89.7894L49.0132 92.8656L48.1343 93.6593C45.1218 96.3896 41.668 97.8458 37.7999 98.0133L36.5338 98.0643L35.2405 97.3981C33.1225 96.2986 31.2136 95.2138 31.2911 95.1482C31.3337 95.1155 31.8525 95.039 32.4488 94.9771C38.1368 94.3801 44.9825 91.2129 49.0984 87.2702C49.4507 86.9316 49.7528 86.6659 49.7682 86.6841C49.7837 86.6986 49.6211 88.0966 49.4043 89.7894ZM12.086 89.5928C12.8565 97.8058 11.8188 104.544 8.74057 111.367C8.27594 112.393 7.81517 113.529 7.7145 113.89C7.61769 114.25 7.44733 114.701 7.34278 114.894C7.23437 115.091 7.17242 115.331 7.19952 115.429C7.26147 115.652 7.49379 115.586 4.38845 116.216C1.41476 116.816 1.10887 116.871 1.10887 116.802C1.10887 116.769 1.34894 116.398 1.64708 115.972C4.73693 111.512 6.86653 105.819 7.26534 100.948C7.48992 98.1881 7.46282 91.7699 7.22275 90.7141C7.1879 90.5648 7.31568 90.4556 7.89261 90.1608C8.82189 89.6838 10.7734 88.4461 11.3426 87.9728C11.9079 87.5068 11.8846 87.4522 12.086 89.5928ZM101.374 90.7542C101.436 91.5441 101.545 92.5344 101.614 92.9494C101.688 93.3644 101.866 94.3983 102.009 95.2465C103.07 101.505 104.298 103.856 108.061 106.834C108.417 107.115 108.696 107.358 108.681 107.373C108.557 107.486 101.854 108.148 98.4005 108.389L96.0773 108.549L94.8499 107.34C91.7639 104.311 91.0437 102.735 90.6449 98.1444C90.521 96.7537 90.5094 94.7951 90.6139 93.9105L90.6875 93.277L92.5267 92.5016C95.2719 91.3476 97.0259 90.5794 99.233 89.5637L101.219 88.6463L101.243 88.9812C101.254 89.1633 101.316 89.9605 101.374 90.7542ZM64.2418 89.8986C61.6591 92.0028 57.8104 94.9116 57.3999 95.0681C57.2915 95.1082 56.8424 95.1883 56.4087 95.2429C55.9712 95.2939 55.0303 95.4468 54.3217 95.5778C53.6093 95.7089 52.5793 95.8399 52.0295 95.869L51.0305 95.9273L51.499 92.8693C52.0372 89.3708 51.9404 89.6474 52.4903 89.9715C55.2316 91.6024 59.487 91.5696 63.8584 89.8877C64.6135 89.5965 64.6135 89.5965 64.2418 89.8986ZM179.712 92.1303C174.838 99.5678 169.146 105.524 163.841 108.742C154.544 114.381 140.969 113.671 133.98 107.18L133.055 106.321L133.434 106.241C138.503 105.167 146.87 102.994 152.395 101.323C154.064 100.816 158.664 99.3567 159.117 99.1892C159.307 99.1164 159.493 99.12 159.764 99.1965C162.3 99.9173 166.222 98.5994 168.073 96.4042C168.503 95.8909 168.553 95.8654 170.145 95.2538C172.607 94.3036 176.526 92.7127 178.528 91.8499C179.511 91.424 180.328 91.0854 180.347 91.0964C180.363 91.1073 180.08 91.5733 179.712 92.1303ZM67.1884 91.697C67.1961 92.9567 68.0015 94.7187 69.2057 96.1057C69.4573 96.4006 69.6355 96.659 69.5929 96.6809C69.5348 96.7173 65.8177 97.8531 62.5187 98.8433C60.8383 99.3494 57.7291 100.212 57.6942 100.183C57.6787 100.165 57.7058 99.9646 57.7523 99.7316C57.7988 99.5023 57.8414 99.0545 57.8414 98.7378L57.8491 98.1662L58.8171 97.4854C61.0551 95.9091 64.2998 93.4117 66.4023 91.6497C67.0722 91.0854 67.1845 91.0927 67.1884 91.697ZM48.6105 95.5778L48.3279 97.4417L47.7935 97.8932C46.357 99.1127 45.2303 99.6552 43.0929 100.154L41.7997 100.456L41.2615 100.234C40.3012 99.8336 37.7728 98.6759 37.8038 98.6468C37.8193 98.6322 38.3459 98.5739 38.9731 98.5193C42.2759 98.2245 45.7956 96.5899 48.3046 94.1835C48.5989 93.8959 48.8545 93.6738 48.8699 93.6884C48.8854 93.703 48.7693 94.5548 48.6105 95.5778ZM89.7892 95.6725C89.9867 102.575 90.8811 104.941 94.4666 108.032L95.1054 108.582L93.9903 108.644C93.3747 108.676 91.0979 108.731 88.9335 108.764L84.9918 108.826L84.8718 108.414C84.8098 108.188 84.7207 107.959 84.6743 107.908C83.9192 107.031 81.5147 97.0122 81.9678 96.6445C82.0104 96.6117 83.0248 96.2222 84.229 95.778C85.4293 95.3339 87.1524 94.6786 88.0545 94.3255C88.9567 93.9687 89.704 93.6848 89.7117 93.692C89.7234 93.703 89.7582 94.5912 89.7892 95.6725ZM27.8566 95.5997C28.7472 96.1566 29.6919 96.7355 29.9514 96.8884C30.4857 97.1978 30.5205 97.3398 30.2766 98.1043C30.1914 98.3592 29.994 99.2802 29.8313 100.154C29.3318 102.804 27.1132 110.034 26.7105 110.304C26.6021 110.376 21.2781 112.055 20.1242 112.379L19.3189 112.604L19.8493 111.938C23.4968 107.366 26.1684 100.853 26.1917 96.4843C26.1955 95.4468 26.2071 94.5949 26.2149 94.5949C26.2226 94.5949 26.9622 95.0463 27.8566 95.5997ZM52.7303 97.3398C53.1136 97.3471 53.6247 97.318 53.8726 97.2779C54.283 97.2124 54.1552 97.3107 52.3818 98.4138C51.317 99.08 50.4304 99.6115 50.4149 99.5969C50.3878 99.5714 50.775 97.2561 50.8408 97.0595C50.864 96.9867 51.0576 97.0122 51.4564 97.1396C51.7972 97.2524 52.3199 97.3325 52.7303 97.3398ZM80.7829 98.4065C81.0927 101.818 81.8748 104.406 83.5243 107.468L84.2445 108.796L82.9938 108.749C78.7889 108.574 73.9643 108.287 73.8753 108.199C73.8598 108.188 74.0534 107.803 74.2973 107.344C75.4125 105.262 75.7493 103.19 75.5015 99.91L75.4241 98.8288L77.3485 98.2063C78.4055 97.864 79.5361 97.4818 79.8614 97.358C80.1866 97.2342 80.5003 97.1287 80.5584 97.125C80.6242 97.1214 80.7094 97.6165 80.7829 98.4065ZM32.5224 98.3592C33.2 98.7378 34.226 99.2911 34.803 99.5896L35.8562 100.136L35.5735 100.613C35.4186 100.875 34.8456 101.912 34.2996 102.921C32.7586 105.764 31.6125 107.286 30.4935 107.966C29.7462 108.421 29.7462 108.421 30.1605 107.475C31.4305 104.566 31.93 100.223 31.2562 97.8859C31.171 97.6019 31.1401 97.591 32.5224 98.3592ZM47.9561 99.546C47.8245 100.241 47.6929 100.9 47.6619 101.013C47.627 101.151 47.3289 101.377 46.7907 101.676L45.9737 102.131L44.7308 101.647C44.0493 101.381 43.2904 101.079 43.0426 100.98L42.5973 100.798L43.7434 100.543C45.2032 100.219 46.419 99.6625 47.4141 98.8615C47.8245 98.5303 48.1652 98.2645 48.1769 98.2718C48.1846 98.2791 48.0839 98.8506 47.9561 99.546ZM56.2964 99.9282L56.2306 100.624L54.3488 101.148C53.315 101.435 52.5019 101.643 52.5483 101.603C52.5948 101.566 53.2569 101.144 54.0236 100.664C54.7863 100.187 55.615 99.6552 55.8589 99.4877C56.401 99.12 56.37 99.0873 56.2964 99.9282ZM74.3399 99.2438C74.3399 100.063 72.4736 107.748 72.2065 108.028C72.129 108.112 64.4586 107.078 64.3192 106.965C64.2998 106.951 64.3966 106.754 64.5322 106.532C65.2717 105.353 65.8951 103.416 65.9377 102.174L65.9609 101.475L66.4023 101.363C69.1824 100.631 72.0361 99.8481 73.0002 99.5532C74.3399 99.1455 74.3399 99.1455 74.3399 99.2438ZM40.2586 102.229C40.8898 102.509 41.8152 102.906 42.3224 103.117L43.2439 103.5L42.9342 103.674C41.5054 104.49 32.8786 108.243 32.7392 108.108C32.7121 108.087 32.956 107.733 33.2774 107.329C34.5978 105.651 35.9878 102.87 36.2317 101.414C36.2705 101.184 36.3518 100.882 36.4137 100.747L36.526 100.5L37.8193 101.111C38.5317 101.446 39.6314 101.949 40.2586 102.229ZM64.0675 102.138C63.661 103.43 63.2118 105.607 63.2118 106.31V106.765L62.7898 106.703C62.2438 106.623 58.7126 105.891 58.6274 105.844C58.5887 105.822 58.7319 105.564 58.9371 105.269C59.4211 104.584 59.9129 103.674 60.0677 103.176L60.1878 102.786L61.9728 102.389C64.0675 101.927 64.1372 101.916 64.0675 102.138ZM58.5887 103.354C57.7252 104.61 57.0786 105.433 56.9469 105.433C56.8114 105.433 54.705 104.897 53.0517 104.442C52.2579 104.224 52.3044 104.195 53.8493 103.951C54.6005 103.831 55.9286 103.594 56.8037 103.427C58.8636 103.023 58.8132 103.026 58.5887 103.354ZM51.5261 106.419C52.7884 106.809 54.6934 107.351 55.7621 107.624C57.4929 108.068 57.7058 108.145 57.7678 108.341C57.8065 108.465 58.0388 109.321 58.2828 110.245C58.5267 111.17 58.7551 111.996 58.79 112.084C58.9294 112.411 56.2112 112.506 54.9219 112.215C52.8271 111.749 50.0122 109.514 48.8622 107.413C48.6802 107.082 48.9009 105.713 49.1332 105.713C49.1836 105.713 50.26 106.03 51.5261 106.419ZM43.9719 106.39C43.7357 106.772 36.2356 115.659 34.4506 117.676C32.2204 120.199 27.9728 124.662 26.877 125.637L26.5943 125.889L25.4521 124.432C21.8318 119.809 21.2975 118.811 20.98 116.056C20.8406 114.843 20.5657 115.08 22.8734 114.414C29.5409 112.484 36.193 109.998 41.85 107.315C43.0232 106.758 43.999 106.295 44.0145 106.288C44.0338 106.281 44.0145 106.325 43.9719 106.39ZM49.0248 108.891C51.3093 111.945 54.1939 113.365 57.911 113.267L59.2198 113.231L59.3359 113.606C59.8316 115.211 61.4307 117.501 62.6736 118.378C66.1894 120.868 70.6731 117.763 72.7989 111.367L73.0157 110.715L73.4068 110.744C75.8152 110.941 77.5304 111.112 77.5808 111.159C77.6156 111.192 77.5266 111.884 77.3872 112.695C77.1239 114.177 76.8064 116.431 76.4269 119.427C76.2914 120.537 76.1481 121.236 75.9817 121.651C75.699 122.357 75.6177 122.929 74.9362 128.794C74.4406 133.064 73.6313 139.722 73.2519 142.671C73.1474 143.494 72.8995 145.405 72.7021 146.923C72.5085 148.438 72.2839 150.142 72.2026 150.706C72.1213 151.274 71.9432 152.533 71.8038 153.509C68.5397 176.43 63.599 188.203 56.8308 189.19C54.1436 189.579 50.8369 187.388 45.8266 181.89L45.2032 181.21L44.967 178.341C44.8353 176.761 44.483 172.654 44.1771 169.211C43.5343 161.915 43.5537 162.578 43.8751 157.856C44.6998 145.817 45.2458 130.967 45.1799 122.266L45.1489 118.123L45.6407 116.755C46.2873 114.938 47.3366 111.763 47.7703 110.3C47.96 109.652 48.1885 108.898 48.2698 108.622C48.355 108.345 48.4556 108.156 48.4982 108.199C48.5369 108.247 48.777 108.556 49.0248 108.891ZM45.3309 110.304C44.9941 111.399 44.7075 112.31 44.6882 112.324C44.6378 112.375 44.541 111.611 44.5178 110.977C44.4985 110.453 45.7065 108.097 45.904 108.28C45.9233 108.298 45.6639 109.208 45.3309 110.304ZM59.305 108.483C59.8974 108.618 61.543 108.949 62.964 109.222L65.5466 109.714L65.1517 109.87C64.931 109.958 64.327 110.209 63.8081 110.431C61.7521 111.308 59.4947 112.113 59.3359 112.022C59.1811 111.931 58.0698 108.236 58.1976 108.236C58.2169 108.236 58.7126 108.345 59.305 108.483ZM69.4225 110.26C70.8977 110.449 72.1213 110.617 72.1368 110.628C72.1832 110.653 70.5221 113.394 69.9956 114.166C66.2707 119.598 63.2854 119.583 60.2846 114.115C59.8238 113.282 59.7735 113.001 60.0871 113.001C60.8809 113.001 64.1876 111.476 66.2939 110.14C66.716 109.867 66.2823 109.852 69.4225 110.26ZM105.482 110.784C104.201 112.83 101.49 114.607 99.0316 115.007C95.6862 115.557 90.6643 114.308 87.7525 112.204C86.7574 111.487 86.5561 111.541 90.3661 111.469C95.4655 111.374 100.182 111.141 103.705 110.813C105.498 110.646 105.568 110.646 105.482 110.784ZM43.6427 113.842C43.5111 115.881 43.5382 115.775 42.2914 119.077C40.7736 123.1 38.3962 129.012 35.8833 135.015L35.0585 136.985L34.5048 137.094C28.7472 138.259 26.695 137.866 23.369 134.964L22.6217 134.316L24.5616 132.565C32.4682 125.43 38.4736 118.968 42.5934 113.158C43.8712 111.359 43.8054 111.319 43.6427 113.842ZM19.7564 115.473C19.7254 115.55 19.6712 116.023 19.6325 116.525C19.4195 119.503 20.7554 121.833 25.0881 126.031L25.8238 126.74L23.276 129.1C20.0081 132.121 13.294 137.848 13.1585 137.727C13.1469 137.717 13.1779 137.353 13.2282 136.919C14.0142 130.159 13.3173 122.547 11.4858 117.978C11.1915 117.235 10.9476 117.388 13.2166 116.889C15.2765 116.434 19.3111 115.448 19.3808 115.378C19.497 115.269 19.8067 115.349 19.7564 115.473ZM10.4791 118.538C10.514 119.117 10.7192 121.083 10.9399 122.907C11.5323 127.865 11.6794 129.893 11.8382 135.201C11.8885 136.952 11.9543 138.445 11.9814 138.517C12.117 138.882 -0.46316 147.626 -0.741943 147.364C-0.761303 147.342 -0.664503 147.033 -0.521238 146.679C3.3314 137.112 4.40781 129.398 3.07972 120.897C2.96743 120.18 2.86676 119.438 2.85127 119.248L2.82804 118.91L4.02836 118.702C4.69047 118.589 6.35155 118.276 7.71837 118.003C9.08518 117.734 10.2507 117.505 10.3087 117.501C10.3823 117.49 10.4404 117.861 10.4791 118.538ZM2.04202 119.372C2.07687 119.536 2.08074 119.864 2.05364 120.097C2.02266 120.333 1.88714 122.565 1.75162 125.055C1.25601 134.047 0.861063 136.668 -0.923927 142.762C-1.22594 143.793 -1.73317 145.515 -2.05068 146.592L-2.62373 148.554L-3.46008 149.046C-3.92085 149.319 -4.32354 149.537 -4.36226 149.537C-4.3971 149.537 -4.45519 149.013 -4.49003 148.372C-4.52876 147.732 -4.66427 146.29 -4.79592 145.172C-4.92757 144.055 -5.06309 142.781 -5.09794 142.344C-5.13279 141.907 -5.24507 140.898 -5.34962 140.101C-5.86846 136.144 -6.03496 133.599 -6.14338 128.095C-6.23243 123.457 -6.306 122.299 -6.60027 120.959C-6.77064 120.18 -6.73579 120.107 -6.19371 120.104C-5.74069 120.104 -2.22879 119.663 -0.27343 119.365C2.03815 119.012 1.96458 119.008 2.04202 119.372ZM42.938 125.477C42.7019 129.482 42.4269 134.393 42.245 137.859C41.8268 145.842 41.5403 151.07 41.4009 153.181C41.3195 154.39 41.2537 155.551 41.2537 155.763V156.145L40.0379 156.254C39.3681 156.316 38.2142 156.425 37.4785 156.502C34.2299 156.833 32.6695 156.633 30.4896 155.599C29.7655 155.253 29.6261 155.777 31.7596 150.939C34.6713 144.335 39.6507 132.387 42.0049 126.344C42.5392 124.968 42.9922 123.854 43.0039 123.868C43.0194 123.883 42.9884 124.607 42.938 125.477ZM22.3623 135.572C25.1501 139.562 28.8362 140.48 33.4478 138.328C34.1021 138.022 34.6481 137.786 34.6675 137.8C34.7062 137.837 32.1042 143.887 30.3541 147.841L28.9718 150.957L28.0386 151.325C25.3359 152.388 23.9846 152.53 22.0293 151.962C19.6983 151.285 16.2174 147.502 13.778 142.988L13.143 141.812L14.5021 140.796C16.7479 139.118 19.4699 136.952 21.2123 135.456C21.9209 134.848 21.8473 134.841 22.3623 135.572ZM12.4538 143.214C13.2979 146.705 16.3684 151.274 19.1795 153.214C21.4175 154.758 24.2983 154.987 26.9351 153.829C27.3959 153.626 27.7792 153.473 27.7908 153.487C27.8373 153.538 25.0804 159.465 23.1754 163.404C21.3439 167.186 17.7972 174.245 17.6655 174.369C17.6268 174.402 16.6356 173.736 15.9154 173.193C13.5922 171.446 12.7829 170.809 12.7597 170.718C12.7481 170.659 12.4887 168.486 12.1867 165.89C11.8808 163.295 11.4355 159.596 11.1954 157.67C10.9554 155.741 10.7308 153.764 10.6959 153.276C10.603 151.965 10.0958 148.238 9.75117 146.326C9.37558 144.262 9.26717 144.557 10.7966 143.465C12.3493 142.358 12.2486 142.373 12.4538 143.214ZM9.20522 146.781C9.3872 149.079 9.83248 153.262 9.90217 153.371C9.92928 153.411 10.1539 155.249 10.4017 157.448C10.8237 161.172 11.7723 168.937 11.9079 169.757C11.993 170.259 11.8614 170.179 10.3475 168.774C6.39415 165.108 3.79991 160.335 1.36055 152.249C0.613258 149.767 0.566792 150 1.98007 149.166C3.49789 148.27 6.30896 146.508 7.81517 145.507C8.47341 145.074 9.01936 144.739 9.0271 144.768C9.03872 144.797 9.12003 145.704 9.20522 146.781ZM0.268648 153.323C1.34894 161.34 5.46487 168.075 11.6097 171.879C12.0899 172.178 12.1324 172.232 12.1905 172.665C12.2292 172.924 12.5429 175.083 12.8952 177.46C13.2437 179.841 13.5302 181.879 13.5302 181.992C13.5302 182.207 8.45405 191.345 8.10557 191.763C8.02038 191.865 2.81255 187.056 1.44186 185.607C-2.46498 181.483 -4.8966 176.535 -7.0804 168.249C-7.68056 165.974 -8.7531 160.987 -8.91573 159.723C-9.05899 158.62 -9.35326 155.144 -9.31067 155.104C-9.23323 155.031 -4.93919 152.996 -4.86562 152.996C-4.81915 152.996 -4.70299 153.258 -4.60232 153.582C-4.23836 154.758 -3.81631 154.732 -3.92085 153.535C-3.95957 153.109 -3.99442 152.704 -3.99829 152.632C-4.00216 152.563 -3.95183 152.486 -3.886 152.461C-3.80082 152.431 -3.76984 152.555 -3.78533 152.89C-3.82018 153.575 -3.6653 153.505 -3.18904 152.628L-2.76312 151.849L-1.49698 151.154C-0.803894 150.771 -0.188248 150.415 -0.134039 150.364C-0.0682163 150.305 -0.00626373 150.597 0.0440731 151.237C0.0827923 151.769 0.187336 152.704 0.268648 153.323ZM31.295 157.383C33.4245 158.573 37.4011 158.493 40.6148 157.201C40.8704 157.095 41.1027 157.026 41.1221 157.048C41.1956 157.113 40.4522 166.953 39.9605 172.527C39.7979 174.351 39.6662 175.935 39.6623 176.044C39.6623 176.211 39.5733 176.266 39.1396 176.36C38.8531 176.422 38.4852 176.528 38.3226 176.597C38.1561 176.666 37.3972 176.874 36.6344 177.059C33.3355 177.857 32.4953 177.5 30.2766 174.351C29.0221 172.567 24.9565 166.127 24.9565 165.923C24.9565 165.898 25.456 164.816 26.0639 163.524C27.0861 161.347 29.2273 156.694 29.4403 156.188C29.5293 155.974 29.5409 155.981 30.0714 156.483C30.3657 156.767 30.9194 157.171 31.295 157.383ZM24.4531 168.206C25.7464 171.635 28.6349 176.186 30.5515 177.817C32.6734 179.619 35.6974 179.284 39.3526 176.848L39.5926 176.692L39.5268 177.296C39.492 177.627 39.3061 179.477 39.1125 181.403C38.9228 183.332 38.7369 185.101 38.7059 185.334C38.6517 185.742 38.613 185.789 37.9896 186.183C37.6257 186.412 36.77 186.958 36.0846 187.402C31.597 190.304 29.2815 190.591 25.4482 188.731C22.7959 187.442 20.3217 185.545 18.0798 183.084C16.8059 181.687 16.8059 181.967 18.0566 179.619C19.2918 177.303 21.8163 172.312 23.1754 169.516C23.6903 168.453 24.1356 167.58 24.1627 167.576C24.1898 167.576 24.3215 167.856 24.4531 168.206ZM43.2943 172.622C43.3794 173.932 43.5343 176.033 43.6389 177.289C43.7395 178.548 43.817 179.586 43.8054 179.597C43.7434 179.651 42.2488 177.882 42.2488 177.755C42.2488 177.667 42.3572 176.448 42.4889 175.039C42.6244 173.63 42.7832 171.872 42.8451 171.125C42.9729 169.556 43.0736 169.05 43.1123 169.771C43.1278 170.026 43.2091 171.311 43.2943 172.622ZM16.442 174.446L17.4177 174.93L15.714 178.126C14.7731 179.884 13.991 181.308 13.9678 181.286C13.9252 181.246 13.1314 173.401 13.1314 173.026C13.1314 172.811 13.3134 172.887 16.442 174.446ZM17.9985 184.999C21.1193 189.346 26.4666 192.415 30.1527 191.971C32.5572 191.68 34.6094 190.628 37.4282 188.243C37.9741 187.777 38.4349 187.431 38.4504 187.471C38.6285 187.923 35.6819 209.125 34.6868 214.531L34.5823 215.092L33.7692 215.066C24.9139 214.786 21.7079 212.554 17.8243 203.966C16.5736 201.203 12.7249 190.824 12.6164 189.921C12.5893 189.699 14.111 186.78 14.3317 186.638C14.3705 186.612 14.4169 186.525 14.4363 186.448C14.4595 186.372 14.9358 185.454 15.4972 184.413L16.5233 182.513L17.0073 183.405C17.2783 183.896 17.7236 184.61 17.9985 184.999ZM12.7791 194.388C14.959 202.521 18.467 209.999 21.3749 212.707C24.2169 215.35 27.2487 216.151 33.107 215.794C33.8427 215.751 34.4584 215.725 34.47 215.736C34.6171 215.871 32.1739 228.03 30.9581 233.218C24.4647 260.977 16.3994 275.586 7.73386 275.295L6.92074 275.269L6.85491 272.43L6.78522 269.59L7.21888 267.897C11.6252 250.678 10.8586 232.501 4.77952 209.784C4.6169 209.18 4.41943 208.364 4.33812 207.971C4.25681 207.578 4.01287 206.638 3.79604 205.885L3.39722 204.509L4.61303 202.652C5.28288 201.629 6.36704 199.944 7.02141 198.906C7.67578 197.872 8.2256 197.035 8.23722 197.046C8.24883 197.057 8.35338 198.429 8.46566 200.096C8.86448 205.939 10.9011 228.001 11.2032 229.705C11.8227 233.225 9.99123 208.641 8.96902 199.718L8.58957 196.401L8.91094 195.888C9.08518 195.604 9.42205 195.065 9.65049 194.687C9.95638 194.188 10.1035 194.028 10.181 194.104C10.3513 194.264 10.5488 194.224 10.5488 194.031C10.5488 193.933 10.4868 193.806 10.4094 193.747C10.2971 193.656 10.421 193.391 11.1257 192.193L11.9814 190.751L12.1595 191.749C12.2602 192.299 12.539 193.489 12.7791 194.388ZM2.20077 212.613C2.33242 217.884 2.45246 221.222 2.80094 229.108C3.43981 243.513 4.33037 260.754 4.84148 268.494L5.00023 270.879L4.44266 272.641C4.13677 273.613 3.86186 274.443 3.83476 274.49C3.47853 275.029 -2.90252 270.708 -6.41829 267.544L-7.23915 266.809L-7.38629 262.768C-7.78897 251.719 -8.23425 240.648 -8.5324 234.357C-8.64469 232.002 -8.73761 229.668 -8.74149 229.17C-8.74923 228.674 -8.84216 226.96 -8.95444 225.362L-9.15579 222.456L-7.18882 219.741L-7.16558 220.873C-7.09201 224.786 -6.89067 230.447 -6.58866 236.957C-6.08917 247.769 -5.98462 249.844 -5.54709 257.42C-5.33026 261.173 -5.12504 264.821 -5.08632 265.527C-5.03986 266.434 -4.98565 266.812 -4.90047 266.812C-4.81141 266.812 -4.79205 266.583 -4.81915 265.949C-4.83851 265.473 -4.94693 261.93 -5.05535 258.075C-5.38446 246.56 -6.34472 224.863 -6.7629 219.529C-6.80161 219.071 -3.68079 214.658 -3.3749 214.731C-3.13483 214.793 -3.02642 214.633 -3.15032 214.411C-3.23164 214.269 -2.97221 213.843 -1.76028 212.096C-0.943285 210.916 0.249289 209.18 0.89204 208.237L2.05364 206.522L2.073 207.443C2.08462 207.949 2.14269 210.275 2.20077 212.613ZM5.4881 216.959C8.24496 230.433 9.23619 241.875 8.46566 251.395C8.06298 256.397 6.61872 265.939 6.58388 263.823C6.58 263.488 6.52966 262.203 6.47933 260.973C6.38253 258.716 6.35542 258.108 6.17731 253.31C6.07277 250.568 5.91789 246.837 5.82883 244.853C5.79786 244.212 5.66621 240.95 5.53069 237.612C5.00023 224.59 4.7137 218.809 4.24519 211.819C4.18324 210.923 4.63626 212.784 5.4881 216.959ZM-3.8589 273.511C-1.93839 275.014 0.187336 276.354 1.84455 277.104C2.87063 277.566 2.86289 277.311 1.93748 279.514C-0.277302 284.782 -2.94898 289.569 -5.67874 293.155L-6.49186 294.218L-6.55381 292.875C-6.58866 292.136 -6.61963 290.428 -6.62738 289.081C-6.63512 287.738 -6.68159 286.329 -6.73579 285.95C-6.78613 285.575 -6.87518 282.554 -6.93326 279.241C-6.99134 275.924 -7.06491 272.626 -7.09976 271.905L-7.16171 270.598L-5.93042 271.723C-5.25669 272.342 -4.32354 273.143 -3.8589 273.511Z" fill="black"/>
</g>
</svg>
