<svg width="414" height="398" viewBox="0 0 414 398" fill="none" xmlns="http://www.w3.org/2000/svg">
<mask id="mask0_197_511" style="mask-type:luminance" maskUnits="userSpaceOnUse" x="0" y="0" width="414" height="398">
<path d="M0 0H413.021V397.333H0V0Z" fill="white"/>
</mask>
<g mask="url(#mask0_197_511)">
<path fill-rule="evenodd" clip-rule="evenodd" d="M321.54 383.486C321.889 383.684 322.165 383.835 322.556 384.356C322.879 384.783 324.41 382.716 324.421 383.268C324.431 383.814 322.655 386.663 322.671 387.627C322.681 387.986 323.457 388.497 323.915 388.335C329.566 386.335 351.415 378.46 356.973 382.742C351.754 384.908 349.03 389.242 349.806 395.174C349.806 395.174 346.186 393.007 344.061 393.455C340.259 394.257 339.743 397.622 339.743 397.622C339.743 397.622 335.405 395.106 333.4 394.966C329.207 394.663 327.988 396.643 327.988 396.643C327.988 396.643 326.895 395.351 325.587 395.288C323.296 395.179 321.915 396.814 321.915 396.814C321.915 396.814 321.941 394.518 321.493 393.809C320.957 392.955 319.426 392.887 319.426 392.887C319.426 392.887 318.53 394.742 318.165 394.742C317.957 394.742 317.952 394.002 317.728 393.424C317.566 393.007 317.478 392.872 317.145 392.71C316.905 392.596 316.618 392.632 316.28 392.752C315.697 392.95 315.113 393.408 314.978 393.252C314.749 392.971 315.598 391.153 315.598 391.153C315.598 391.153 314.52 389.976 313.52 390.117C312.691 390.231 310.978 391.716 310.978 391.716C310.978 391.716 311.337 389.606 309.775 387.929C308.884 386.966 307.191 386.966 307.191 386.966C307.191 386.966 307.915 384.752 304.983 381.736C303.582 380.299 298.863 378.606 298.863 378.606C298.863 378.606 301.098 376.044 299.259 372.617C298.228 370.7 294.238 369.33 294.238 369.33C299.27 366.091 300.822 361.216 299.108 355.825C305.962 357.314 314.046 379.106 316.16 384.721C316.332 385.174 317.223 385.439 317.504 385.216C318.254 384.606 319.28 381.413 319.707 381.064C320.134 380.716 319.525 383.163 320.061 383.132C320.832 383.085 321.134 383.257 321.54 383.486ZM77.9675 371.184C78.3216 371.059 78.5925 370.955 79.1914 370.992C79.6862 371.028 79.1654 368.71 79.556 369.033C79.9466 369.356 80.8685 372.32 81.556 372.893C81.8112 373.101 82.6393 372.867 82.8008 372.45C84.8112 367.273 92.4987 347.179 98.8529 345.856C97.2227 350.835 98.6133 355.361 103.238 358.403C103.238 358.403 99.5352 359.637 98.5612 361.403C96.8268 364.554 98.8685 366.95 98.8685 366.95C98.8685 366.95 94.4883 368.476 93.1758 369.794C90.4362 372.554 91.082 374.611 91.082 374.611C91.082 374.611 89.5195 374.596 88.6862 375.476C87.2227 377.018 87.5352 378.971 87.5352 378.971C87.5352 378.971 85.9414 377.57 85.1758 377.46C84.2487 377.32 83.2852 378.346 83.2852 378.346C83.2852 378.346 84.0352 380.096 83.8164 380.356C83.6914 380.502 83.1706 380.054 82.6289 379.867C82.2435 379.726 82.0924 379.705 81.78 379.841C81.5508 379.939 81.405 380.163 81.28 380.476C81.0716 381.002 81.0404 381.689 80.8477 381.689C80.5091 381.684 79.7539 379.986 79.7539 379.986C79.7539 379.986 78.2747 380.038 77.7695 380.825C77.3477 381.476 77.3581 383.57 77.3581 383.57C77.3581 383.57 76.0977 382.049 73.9727 382.127C72.7591 382.174 71.7383 383.356 71.7383 383.356C71.7383 383.356 70.6237 381.512 66.7435 381.757C64.8841 381.867 60.8529 384.158 60.8529 384.158C60.8529 384.158 60.4049 381.038 56.8893 380.262C54.9258 379.825 51.556 381.799 51.556 381.799C52.3268 376.314 49.8477 372.278 45.0352 370.221C50.2227 366.309 70.3737 373.799 75.5872 375.705C76.0039 375.861 76.7331 375.393 76.7383 375.064C76.7695 374.169 75.1497 371.518 75.1654 371.007C75.181 370.497 76.5247 372.403 76.8268 372.007C77.2643 371.445 77.5664 371.335 77.9675 371.184ZM165.15 246.882C165.478 246.788 165.728 246.71 166.27 246.783C166.717 246.846 166.389 244.705 166.723 245.028C167.061 245.346 167.707 248.096 168.296 248.658C168.514 248.861 169.28 248.7 169.457 248.33C171.608 243.762 179.853 226.018 185.702 225.221C183.905 229.632 184.884 233.83 188.889 236.887C188.889 236.887 185.447 237.768 184.457 239.304C182.681 242.059 184.384 244.361 184.384 244.361C184.384 244.361 180.311 245.465 179.04 246.58C176.374 248.913 176.832 250.82 176.832 250.82C176.832 250.82 175.415 250.705 174.603 251.45C173.176 252.762 173.337 254.554 173.337 254.554C173.337 254.554 171.978 253.179 171.29 253.028C170.462 252.84 169.52 253.715 169.52 253.715C169.52 253.715 170.092 255.351 169.879 255.57C169.754 255.695 169.306 255.257 168.832 255.049C168.488 254.903 168.353 254.872 168.056 254.976C167.848 255.054 167.702 255.247 167.566 255.518C167.342 255.986 167.275 256.606 167.098 256.596C166.79 256.564 166.212 254.981 166.212 254.981C166.212 254.981 164.868 254.929 164.358 255.611C163.936 256.179 163.811 258.08 163.811 258.08C163.811 258.08 162.764 256.617 160.832 256.554C159.728 256.518 158.728 257.533 158.728 257.533C158.728 257.533 157.832 255.788 154.296 255.757C152.603 255.742 148.796 257.564 148.796 257.564C148.796 257.564 148.587 254.705 145.447 253.778C143.691 253.257 140.509 254.835 140.509 254.835C141.556 249.903 139.561 246.085 135.327 243.913C140.28 240.695 158.092 248.773 162.702 250.83C163.072 250.997 163.759 250.622 163.79 250.32C163.868 249.512 162.572 247.002 162.618 246.544C162.66 246.08 163.764 247.893 164.061 247.554C164.493 247.064 164.775 246.986 165.15 246.882ZM250.087 112.184C250.337 112.143 250.53 112.106 250.921 112.205C251.249 112.288 251.181 110.679 251.4 110.945C251.624 111.205 251.879 113.294 252.27 113.757C252.41 113.924 252.993 113.867 253.15 113.611C255.113 110.408 262.65 97.9603 267.04 97.8509C265.353 100.965 265.733 104.148 268.447 106.731C268.447 106.731 265.832 107.101 264.973 108.158C263.436 110.049 264.509 111.887 264.509 111.887C264.509 111.887 261.41 112.372 260.379 113.096C258.217 114.601 258.4 116.049 258.4 116.049C258.4 116.049 257.363 115.851 256.702 116.335C255.54 117.184 255.514 118.523 255.514 118.523C255.514 118.523 254.624 117.398 254.129 117.231C253.53 117.023 252.759 117.596 252.759 117.596C252.759 117.596 253.051 118.851 252.874 118.992C252.77 119.08 252.478 118.715 252.145 118.523C251.9 118.387 251.806 118.356 251.577 118.408C251.415 118.445 251.29 118.575 251.171 118.768C250.967 119.096 250.863 119.549 250.733 119.523C250.514 119.481 250.212 118.257 250.212 118.257C250.212 118.257 249.223 118.111 248.79 118.575C248.431 118.96 248.186 120.356 248.186 120.356C248.186 120.356 247.53 119.189 246.108 118.986C245.296 118.872 244.473 119.538 244.473 119.538C244.473 119.538 243.952 118.174 241.342 117.867C240.087 117.715 237.129 118.752 237.129 118.752C237.129 118.752 237.207 116.622 234.962 115.679C233.707 115.153 231.228 116.059 231.228 116.059C232.4 112.502 231.238 109.518 228.28 107.564C232.202 105.59 244.712 113.007 247.952 114.908C248.217 115.059 248.754 114.835 248.801 114.617C248.926 114.028 248.171 112.064 248.243 111.731C248.311 111.393 248.978 112.82 249.228 112.596C249.587 112.268 249.801 112.236 250.087 112.184ZM29.5195 94.3561C29.7904 94.1634 30.0039 94.0124 30.5299 93.9082C30.9622 93.8249 29.9779 91.9395 30.3893 92.1322C30.8008 92.3197 32.2799 94.6686 33.0039 95.002C33.2747 95.127 33.9362 94.7311 33.9779 94.3301C34.5247 89.403 36.5299 70.2936 41.7122 67.6895C41.4466 72.3613 43.6914 75.9447 48.3789 77.5072C48.3789 77.5072 45.4674 79.4238 45.0352 81.1686C44.2591 84.2884 46.5768 85.8822 46.5768 85.8822C46.5768 85.8822 43.1497 88.2051 42.3216 89.6478C40.5872 92.6634 41.6185 94.2884 41.6185 94.2884C41.6185 94.2884 40.2643 94.6374 39.7487 95.5853C38.8424 97.2572 39.5612 98.8717 39.5612 98.8717C39.5612 98.8717 37.8633 98.028 37.1758 98.1061C36.3477 98.1999 35.7487 99.3145 35.7487 99.3145C35.7487 99.3145 36.8008 100.648 36.6706 100.919C36.5977 101.075 36.0456 100.809 35.5352 100.773C35.1706 100.742 35.0352 100.757 34.7956 100.95C34.6237 101.085 34.5456 101.309 34.5091 101.606C34.4518 102.117 34.582 102.715 34.4154 102.757C34.1237 102.83 33.082 101.538 33.082 101.538C33.082 101.538 31.8164 101.924 31.5612 102.715C31.3477 103.377 31.8372 105.184 31.8372 105.184C31.8372 105.184 30.3997 104.158 28.5872 104.715C27.5508 105.038 26.9414 106.294 26.9414 106.294C26.9414 106.294 25.556 104.96 22.2591 106.059C20.6862 106.585 17.7279 109.492 17.7279 109.492C17.7279 109.492 16.6289 106.903 13.4206 107.044C11.6237 107.122 9.17057 109.601 9.17057 109.601C8.57162 104.689 5.50391 101.778 0.878906 101.111C4.45703 96.5436 23.5664 98.3613 28.4987 98.804C28.8997 98.8405 29.4154 98.2728 29.3477 97.9863C29.1654 97.2051 27.1602 95.2936 27.056 94.8509C26.9518 94.4082 28.5508 95.7415 28.7227 95.3301C28.9674 94.7363 29.2018 94.5749 29.5195 94.3561ZM385.639 58.2415C385.863 58.4811 386.035 58.6634 386.202 59.1582C386.337 59.5697 388.025 58.377 387.895 58.7988C387.764 59.2207 385.691 60.9499 385.462 61.6895C385.379 61.9655 385.842 62.554 386.233 62.5436C391.051 62.4395 409.723 61.9447 412.895 66.6165C408.358 66.9551 405.191 69.5749 404.285 74.304C404.285 74.304 402.066 71.7363 400.332 71.5436C397.223 71.1947 395.978 73.6322 395.978 73.6322C395.978 73.6322 393.306 70.6165 391.811 70.002C388.686 68.7155 387.249 69.9186 387.249 69.9186C387.249 69.9186 386.743 68.653 385.759 68.278C384.035 67.6165 382.572 68.5176 382.572 68.5176C382.572 68.5176 383.165 66.7676 383.004 66.1165C382.811 65.3249 381.66 64.8874 381.66 64.8874C381.66 64.8874 380.504 66.0749 380.233 65.9863C380.066 65.9342 380.254 65.3665 380.228 64.8717C380.207 64.5124 380.176 64.3822 379.962 64.179C379.806 64.028 379.582 63.9863 379.29 63.9863C378.796 63.9915 378.238 64.1999 378.171 64.0384C378.066 63.7676 379.171 62.5957 379.171 62.5957C379.171 62.5957 378.645 61.4238 377.848 61.278C377.186 61.1582 375.499 61.8613 375.499 61.8613C375.499 61.8613 376.306 60.3405 375.54 58.6634C375.103 57.7051 373.806 57.278 373.806 57.278C373.806 57.278 374.915 55.7676 373.436 52.7259C372.728 51.2728 369.551 48.7884 369.551 48.7884C369.551 48.7884 371.905 47.3926 371.363 44.3145C371.061 42.5905 368.358 40.5384 368.358 40.5384C373.014 39.3301 375.426 36.002 375.483 31.4499C380.337 34.3197 381.02 53.002 381.223 57.8249C381.238 58.2155 381.853 58.6426 382.124 58.5384C382.848 58.2676 384.441 56.0853 384.853 55.929C385.27 55.7728 384.186 57.4811 384.603 57.5957C385.202 57.7572 385.389 57.9655 385.639 58.2415ZM310.223 20.5592C310.384 20.6009 310.504 20.627 310.712 20.7884C310.879 20.9186 311.254 19.9603 311.316 20.1686C311.379 20.3822 310.993 21.6738 311.103 22.0436C311.145 22.1842 311.499 22.2988 311.66 22.1895C313.634 20.8145 321.27 15.4499 323.874 16.5176C322.082 17.9134 321.483 19.877 322.41 22.0957C322.41 22.0957 320.78 21.6374 320.004 22.0384C318.613 22.752 318.77 24.1061 318.77 24.1061C318.77 24.1061 316.827 23.5957 316.035 23.752C314.379 24.0801 314.113 24.9759 314.113 24.9759C314.113 24.9759 313.556 24.5905 313.04 24.7051C312.139 24.903 311.78 25.6842 311.78 25.6842C311.78 25.6842 311.546 24.7936 311.301 24.5645C310.999 24.2884 310.4 24.429 310.4 24.429C310.4 24.429 310.249 25.2363 310.108 25.278C310.025 25.2988 309.947 25.0124 309.801 24.8145C309.691 24.6686 309.645 24.627 309.499 24.6009C309.395 24.5801 309.285 24.627 309.165 24.7051C308.962 24.8457 308.785 25.0853 308.717 25.0384C308.598 24.9551 308.733 24.1582 308.733 24.1582C308.733 24.1582 308.191 23.8197 307.816 23.9759C307.509 24.1113 307.004 24.8665 307.004 24.8665C307.004 24.8665 306.921 24.0124 306.134 23.528C305.691 23.2467 305.035 23.429 305.035 23.429C305.035 23.429 305.082 22.4915 303.629 21.6374C302.931 21.2259 300.926 21.0697 300.926 21.0697C300.926 21.0697 301.52 19.8405 300.441 18.7103C299.842 18.0749 298.155 17.9655 298.155 17.9655C299.759 16.179 299.842 14.127 298.613 12.2207C301.426 12.0697 306.858 19.6582 308.27 21.6061C308.384 21.7676 308.759 21.7728 308.842 21.6582C309.072 21.3405 309.129 19.9967 309.259 19.8145C309.389 19.6374 309.41 20.6478 309.613 20.5801C309.91 20.4811 310.046 20.5124 310.223 20.5592ZM107.915 15.528C108.066 15.4238 108.181 15.3405 108.467 15.2832C108.707 15.2363 108.165 14.2051 108.389 14.3092C108.618 14.4134 109.426 15.6947 109.822 15.877C109.967 15.9447 110.327 15.7311 110.353 15.5124C110.65 12.8197 111.749 2.37695 114.582 0.955078C114.436 3.50716 115.66 5.4655 118.223 6.31966C118.223 6.31966 116.629 7.36654 116.395 8.31966C115.973 10.0228 117.238 10.8978 117.238 10.8978C117.238 10.8978 115.363 12.1686 114.91 12.9551C113.962 14.6009 114.53 15.4915 114.53 15.4915C114.53 15.4915 113.79 15.679 113.509 16.1999C113.009 17.1113 113.405 17.9915 113.405 17.9915C113.405 17.9915 112.478 17.5332 112.103 17.5749C111.65 17.627 111.322 18.2363 111.322 18.2363C111.322 18.2363 111.895 18.9655 111.827 19.1113C111.785 19.1999 111.483 19.054 111.202 19.0332C111.004 19.0176 110.931 19.0228 110.801 19.127C110.707 19.2051 110.665 19.3249 110.645 19.4915C110.613 19.7676 110.686 20.0905 110.592 20.1165C110.431 20.1582 109.863 19.4499 109.863 19.4499C109.863 19.4499 109.171 19.6582 109.03 20.0957C108.915 20.4551 109.181 21.4447 109.181 21.4447C109.181 21.4447 108.4 20.8822 107.405 21.1895C106.842 21.3613 106.509 22.0488 106.509 22.0488C106.509 22.0488 105.749 21.3197 103.952 21.9238C103.087 22.2103 101.473 23.7988 101.473 23.7988C101.473 23.7988 100.868 22.3822 99.1185 22.4603C98.1341 22.502 96.7956 23.8561 96.7956 23.8561C96.4675 21.1738 94.7904 19.5801 92.2643 19.2155C94.2175 16.7207 104.66 17.7155 107.358 17.9603C107.577 17.9759 107.858 17.6686 107.822 17.5072C107.723 17.0853 106.629 16.0384 106.572 15.7936C106.514 15.554 107.389 16.2832 107.478 16.0592C107.613 15.7363 107.743 15.6478 107.915 15.528Z" fill="black"/>
</g>
</svg>
