<svg width="722" height="676" viewBox="0 0 722 676" fill="none" xmlns="http://www.w3.org/2000/svg">
<mask id="mask0_163_22040" style="mask-type:luminance" maskUnits="userSpaceOnUse" x="0" y="0" width="830" height="472">
<path d="M0 0H829.333V471.457H0V0Z" fill="white"/>
</mask>
<g mask="url(#mask0_163_22040)">
<path fill-rule="evenodd" clip-rule="evenodd" d="M7.81725 294.036C13.894 291.82 19.4476 288.844 24.3874 284.844C29.8907 280.253 35.8366 278.894 42.8691 280.381C59.0469 283.701 70.4559 275.406 82.5993 264.302C74.6211 262.647 68.4639 263.839 62.4274 264.007C55.3647 264.342 51.3705 261.032 49.0264 255.081C47.7285 251.672 47.0746 248.017 45.7365 244.697C41.4908 234.578 38.5832 223.436 24.6591 221.564C22.1439 221.268 18.5823 219.475 20.7052 215.436C22.5765 211.741 25.4337 213.652 27.5163 215.012C32.6775 218.539 37.1043 217.14 41.4405 213.564C44.7002 211.012 48.0404 208.539 51.3806 206.115C52.5879 205.229 53.936 204.381 55.3244 205.574C56.7531 206.884 56.0991 208.381 55.1936 209.485C53.111 212.115 51.1995 215.012 48.5133 217.14C45.2234 219.859 45.0423 222.332 47.2154 225.771C50.4248 230.874 53.2016 236.273 56.3607 241.416C62.9103 252.263 70.7175 255.199 83.2533 251.248C87.1669 250.017 90.8492 247.889 94.6622 246.224C99.9542 243.849 105.156 241.032 110.76 239.12C121.565 235.426 127.42 237.977 132.008 248.145C134.141 252.687 135.7 257.534 137.089 262.391C138.568 267.623 141.344 271.495 146.455 273.78C160.42 280.076 169.877 290.204 172.915 305.347C173.952 310.361 176.426 310.696 180.461 308.49C190.693 302.834 200.331 304.834 209.698 310.529C216.599 314.696 223.139 319.416 228.954 324.903C239.236 334.509 249.206 335.406 261.4 328.046C269.469 323.159 275.455 316.135 281.703 309.376C289.289 301.081 288.806 297.554 277.92 294.194C265.213 290.283 255.766 282.293 246.218 273.958C234.296 263.662 228.35 252.431 236.852 237.209C238.582 234.066 239.015 230.362 236.067 227.091C230.695 221.13 216.026 218.322 209.486 222.913C200.331 229.386 191.135 228.362 181.769 224.066C177.251 221.977 172.784 220.372 167.845 219.603C156.697 217.82 145.681 215.268 134.523 214.066C119.995 212.5 110.458 206.756 110.287 191.061C110.287 189.869 109.764 188.638 109.331 187.574C103.818 174.608 98.1835 161.761 80.1847 162.362C87.2977 154.027 91.4528 153.337 99.3506 159.465C110.025 167.928 118.436 178.096 123.728 190.687C124.815 193.229 125.509 196.549 128.678 197.485C142.21 201.485 156.134 202.756 170.963 205.061C167.885 198.165 165.541 192.549 163.025 187.199C162.543 186.175 161.376 185.406 160.339 184.854C155.389 182.303 151.657 178.48 148.186 174.48C145.671 171.623 140.208 168.145 143.94 164.401C148.186 160.106 151.053 166.273 154.001 168.401C165.802 176.992 162.15 179.199 171.356 165.249C177.08 156.657 175.773 146.707 170.833 138.5C165.802 130.125 156.949 126.884 146.586 130.254C144.111 131.061 141.244 132.421 138.558 129.948C155.088 117.83 181.417 127.19 180.159 147.899C179.938 151.475 180.893 155.091 181.336 158.707C182.201 164.657 180.642 170.017 177.342 175.12C171.487 184.135 172.05 186.007 181.849 190.766C184.837 192.214 188.228 193.15 191.477 194.253C195.029 195.189 197.464 194.253 199.114 190.687C201.971 184.647 206.056 179.712 211.69 175.968C220.101 170.529 220.362 168.914 215.503 160.145C213.511 156.618 209.959 153.524 211.519 146.756C218.541 154.116 225.574 159.603 226.127 169.465C226.389 173.968 226.439 178.864 222.052 181.16C210.653 187.111 207.957 198.943 201.448 208.293C207.092 208.293 212.384 208.125 217.676 208.293C223.35 208.46 228.863 209.485 234.236 211.396C250.333 217.14 253.362 221.899 251.42 238.312C251.068 241.209 250.726 244.105 250.374 246.992C250.202 249.16 250.464 251.071 252.074 252.943C268.724 272.381 290.456 281.022 315.869 281.396C317.177 281.396 319.34 282.115 319.562 280.164L349.624 282.46C356.958 290.243 365.671 295.051 376.949 293.859C380.54 293.514 383.237 292.194 385.541 289.179C393.126 279.051 404.364 275.652 416.075 277.692C429.386 279.987 439.678 275.997 449.216 267.918C452.334 265.357 456.067 262.894 454.679 257.879C453.24 252.766 450.161 249.367 444.779 248.224C436.629 246.559 428.52 244.697 420.321 243.071C415.542 242.056 411.467 240.184 408.348 236.519C406.699 234.48 404.183 232.44 405.924 229.554C407.654 226.569 410.642 227.81 413.208 228.697C419.275 230.657 425.482 231.849 431.901 232.352C437.545 232.825 439.577 231.544 436.972 225.721C433.631 218.322 431.116 210.46 427.866 202.933C425.874 198.332 426.83 195.78 431.861 194.421C436.539 193.15 441.187 191.574 445.916 190.253C454.326 187.958 461.741 184.086 468.472 178.608C473.019 174.904 475.233 171.377 472.979 165.672C471.722 162.529 470.726 159.081 471.852 155.17C486.249 167.13 485.736 177.84 472.416 186.303C465.303 190.854 459.135 196.982 452.767 202.598C448.34 206.51 448.562 213.012 453.25 215.436C469.77 223.82 484.217 235.179 499.791 244.953L567.541 203.101L626.266 133.189L631.99 106.263L726.975 57.4853L828.73 -0.189453V84.9138L734.782 104.825L696.259 126.382C690.363 134.766 663.471 171.81 659.225 170.874C654.446 169.85 599.715 216.037 599.715 216.037C599.715 216.037 572.823 239.13 568.879 245.169C566.313 249.041 534.39 262.903 511.754 272.391C510.969 273.278 510.446 274.135 509.58 275.11C507.246 277.573 504.641 279.829 502.035 282.046C488.936 293.278 476.319 305.051 465.081 318.194C454.236 331.041 442.616 342.874 425.693 348.361C421.267 349.75 417.625 352.864 414.586 356.43C412.504 358.893 411.296 361.613 411.115 364.933C410.642 375.435 410.29 375.869 399.535 376.923C382.049 378.716 364.926 378.677 348.487 370.765C339.633 366.42 329.22 364.598 321.675 372.716C311.825 383.346 302.589 394.795 301.895 410.401C301.593 417.12 300.859 423.839 300.336 430.637C297.388 427.928 295.818 425.031 294.259 422.056C289.228 412.765 287.931 412.351 278.292 416.854C277.176 417.376 276.089 417.967 275.002 418.519C258.603 426.637 245.504 424.854 232.103 412.263C223.984 404.775 214.708 400.785 203.52 401.425C198.087 401.731 192.715 401.977 187.332 402.184C168.167 402.824 167.553 402.736 166.084 421.79C165.259 432.933 160.752 441.1 150.339 444.706C138.457 448.883 131.344 455.977 131.213 468.657C131.213 468.913 130.69 469.09 130.388 469.346C123.446 454.46 125.016 449.642 138.98 441.691C141.274 440.253 143.447 438.716 145.741 437.268C153.246 432.637 157.019 426.381 155.721 417.287C154.675 409.248 157.281 401.593 160.4 394.233C161.617 391.307 163.357 388.874 166.909 389.77C181.054 393.297 195.28 390.282 209.416 389.898C215.352 389.642 220.433 391.435 224.859 395.425C229.89 399.938 235.011 404.617 240.645 408.44C250.233 415.071 258.342 419.159 268.493 408.942C273 404.391 278.815 401.465 284.631 398.913C287.578 397.603 289.138 395.77 290.003 392.617C293.041 381.987 296.432 371.435 299.47 360.805C301.201 354.549 304.41 351.278 311.614 352.893C316.423 354.007 321.503 354.007 326.272 352.47C335.468 349.583 344.06 351.455 352.471 355.613C356.807 357.879 361.143 360.204 365.741 361.829C371.466 363.918 377.452 364.332 382.482 360.135C392.462 351.701 390.631 330.992 379.051 325.248C368.95 320.322 359.141 314.834 349.694 308.834C344.754 305.603 339.633 304.499 333.637 305.475C325.659 306.834 317.59 308.155 309.612 308.756C305.668 309.051 303.364 310.371 301.372 313.435C293.917 325.002 284.54 335.376 277.518 347.287C275.173 351.278 271.833 353.406 267.155 352.48C254.79 350.095 242.204 350.647 229.809 349.071C221.7 348.007 214.969 344.775 212.193 336.056C207.856 322.529 199.788 319.041 186.256 324.411C171.939 330.017 159.283 338.105 148.437 348.913C142.019 355.445 134.724 360.47 125.579 362.726C115.599 365.1 105.538 367.278 95.5174 369.829C90.7083 371.012 86.7544 369.957 83.6356 366.253C79.5509 361.484 75.6573 356.48 71.7034 351.622C69.5806 348.913 67.4075 346.519 63.5039 346.017C61.7332 345.839 58.4835 347.839 58.1314 344.647C57.9604 341.967 60.9484 340.903 63.2524 340.007C67.7596 338.352 71.3111 339.544 74.44 342.992C77.911 347.11 81.6335 350.933 85.2755 354.854C87.9718 357.75 91.2717 358.805 95.2055 357.879C105.015 355.573 114.774 353.15 124.493 350.933C128.225 350.056 130.911 348.233 131.082 344.223C131.253 338.824 134.634 335.504 138.93 332.785C144.272 329.386 149.604 325.987 155.067 322.785C157.542 321.347 159.182 320.066 159.444 316.834C160.581 302.539 157.361 296.076 143.84 290.765C133.427 286.637 126.565 280.174 124.231 269.278C123.617 266.726 122.581 264.263 121.545 261.8C117.329 251.337 112.953 250.066 104.361 257.889C98.6765 263.081 93.958 269.278 88.7465 275.071C78.8969 286.046 67.2364 294.204 51.7931 292.342C39.9113 290.933 29.5889 293.022 19.3469 298.46C15.3629 300.677 10.3727 300.933 7.03251 304.588C5.99624 305.682 6.16727 309.258 3.13897 307.219C1.17711 305.77 -0.0704333 303.563 0.794798 300.834C1.8713 297.347 4.39657 295.307 7.81725 294.036Z" fill="black"/>
</g>
<path fill-rule="evenodd" clip-rule="evenodd" d="M321.594 531.684C327.319 529.477 332.963 529.812 338.557 532.197C340.981 531.261 343.758 530.837 346.444 530.325C345.227 528.709 344.1 527.093 342.973 525.389C340.84 522.167 340.025 518.078 341.585 514.344C342.973 510.601 344.704 508.384 343.195 504.394C342.017 501.497 339.553 497.497 340.981 494.443C342.581 491.369 346.273 491.714 348.527 490.019C347.4 489.172 346.012 488.059 344.835 487.635C341.454 486.108 338.154 486.945 334.904 488.147C327.661 491.034 323.968 495.803 329.26 503.123C330.609 505.162 331.393 507.714 331.524 510.266C331.605 516.472 325.317 521.487 321.151 525.408C318.898 527.615 316.684 529.32 314.129 531.704C316.906 531.182 319.29 531.182 321.594 531.684Z" fill="#1B0000"/>
<path fill-rule="evenodd" clip-rule="evenodd" d="M358.065 533.556C364.614 536.787 370.48 539.851 378.277 540.354C388.167 540.699 394.756 535.684 404.737 539.851C412.977 543.585 419.265 550.393 423.742 558.305C438.752 584.59 436.147 629.329 417.755 652.984C408.168 665.398 396.024 673.221 379.625 667.191C376.979 666.245 375.46 667.526 373.508 668.886C363.447 676.718 352.471 678.669 341.283 671.772C338.718 670.324 337.118 671.26 334.905 672.363C323.576 677.9 312.821 676.196 303.032 668.285C301.12 666.758 299.682 665.565 297.086 666.245C279.6 670.492 265.726 663.437 254.448 650.423C235.232 628.393 232.023 579.576 247.506 554.472C258.563 536.787 273.443 532.196 292.83 540.354C295.959 541.546 305.064 534.403 308.143 533.044C315.387 529.733 323.194 528.452 331.172 528.452C340.8 528.364 349.392 529.044 358.065 533.556Z" fill="#1B0000"/>
<path fill-rule="evenodd" clip-rule="evenodd" d="M334.906 626.099C331.787 626.099 328.84 626.099 325.892 626.099C324.453 626.099 324.715 625.084 324.453 624.227C322.682 617.931 322.682 617.931 316.475 617.429C306.897 616.916 297.389 615.557 288.023 613.429C286.292 613.094 285.94 613.261 286.333 615.301C289.633 631.636 299.432 642.01 314.432 648.384C314.785 645.153 315.086 642.443 315.308 639.37C321.908 640.729 328.487 641.409 334.916 641.754C336.305 641.754 336.828 642.266 337.13 643.626C337.522 646.01 338.085 648.552 338.558 651.281C338.86 652.463 339.122 652.808 340.42 652.631C358.117 651.961 371.387 643.971 379.284 627.468C381.407 622.532 382.715 617.429 383.319 611.98C380.452 612.404 377.725 613.094 375.16 613.429C370.039 614.276 365.058 614.956 360.018 615.724C358.63 615.892 357.805 616.059 358.026 617.931C358.851 623.98 358.76 623.98 352.905 625.084C352.171 625.084 351.386 625.251 350.651 625.508C348.438 625.764 346.919 625.251 346.919 622.7C346.828 619.557 345.48 618.109 342.361 619.044C341.929 619.133 341.325 619.044 340.802 619.044C334.041 619.133 334.041 619.133 334.906 626.099Z" fill="#FFA71C"/>
<path fill-rule="evenodd" clip-rule="evenodd" d="M323.495 602.542C322.157 593.862 318.344 587.823 312.82 582.552C307.669 577.705 301.764 574.641 295.174 572.256C293.172 571.665 292.186 572 291.009 573.705C286.28 580.335 283.423 587.823 282.376 595.813C281.944 597.941 282.376 598.453 284.288 597.685C290.013 595.389 295.777 593.606 301.935 593.35C309.661 593.251 316.472 595.389 321.895 601.173C322.066 601.439 322.499 601.606 323.495 602.542Z" fill="#FFA71C"/>
<path fill-rule="evenodd" clip-rule="evenodd" d="M346.621 602.538C351.088 598.026 355.766 595.139 361.32 593.947C368.564 592.499 375.586 594.272 382.578 596.321C383.534 596.587 384.309 597.011 385.224 597.178C386.563 597.681 387.297 597.09 387.045 595.641C385.697 587.139 383.142 579.651 377.629 573.109C377.025 572.164 376.542 571.149 374.942 571.74C360.666 575.74 348.995 587.484 346.621 602.538Z" fill="#FFA71C"/>
<path d="M335.639 520.579C334.231 520.579 333.094 519.456 333.094 518.077V360.461C333.094 359.072 334.241 357.959 335.639 357.959C337.058 357.959 338.195 359.082 338.195 360.461V518.077C338.195 519.456 337.058 520.579 335.639 520.579Z" fill="black"/>
<path fill-rule="evenodd" clip-rule="evenodd" d="M91.6618 469.763C95.8269 468.058 100.073 468.403 104.147 470.186C105.968 469.428 107.88 469.26 110.003 468.738C109.087 467.546 108.222 466.364 107.357 465.083C105.837 462.699 105.234 459.723 106.361 456.925C107.357 454.285 108.654 452.541 107.487 449.773C106.703 447.556 104.841 444.709 105.968 442.374C107.095 440.157 109.781 440.452 111.482 439.063C110.606 438.423 109.61 437.694 108.745 437.448C106.23 436.334 103.886 436.856 101.451 437.822C96.159 439.783 93.4325 443.448 97.2958 448.847C98.3321 450.236 98.815 452.117 98.986 453.94C98.986 458.61 94.4285 462.275 91.2694 465.083C89.7905 466.62 88.1405 467.97 86.1484 469.763C88.2713 469.339 89.9212 469.339 91.6618 469.763Z" fill="#1B0000"/>
<path fill-rule="evenodd" clip-rule="evenodd" d="M118.554 471.042C123.323 473.337 127.579 475.879 133.344 476.057C140.547 476.401 145.266 472.658 152.691 475.889C158.758 478.441 163.365 483.534 166.615 489.16C177.722 508.549 175.76 541.308 162.229 558.736C155.206 567.918 146.272 573.534 134.34 569.111C132.217 568.431 131.221 569.446 129.833 570.382C122.408 576.175 114.52 577.534 106.099 572.51C104.288 571.317 103.111 572.175 101.461 572.943C93.1811 577.111 85.3337 575.83 78.1301 569.958C76.6109 568.854 75.5244 567.918 73.7034 568.431C60.9161 571.662 50.6742 566.46 42.4746 557.032C28.2888 540.697 25.9547 504.805 37.3134 486.431C45.4727 473.594 56.3988 470.185 70.5845 476.057C72.8381 477.081 79.4783 471.801 81.7319 470.786C87.0742 468.402 92.9195 467.387 98.6944 467.387C105.838 467.219 112.045 467.899 118.554 471.042Z" fill="#1B0000"/>
<path fill-rule="evenodd" clip-rule="evenodd" d="M101.459 539.171C99.1956 539.171 97.0728 539.171 94.7789 539.171C93.7427 539.171 93.9036 538.314 93.7829 537.644C92.5253 532.964 92.5253 532.964 87.8772 532.787C80.8548 532.205 73.9631 531.26 66.9809 529.811C65.673 529.476 65.502 529.644 65.8038 531.003C68.1882 543.082 75.3515 550.649 86.4486 555.328C86.7102 553.033 86.8409 550.905 87.0623 548.688C91.9116 549.713 96.7307 550.225 101.459 550.392C102.455 550.392 102.848 550.816 103.109 551.929C103.321 553.634 103.763 555.496 104.146 557.457C104.317 558.383 104.538 558.56 105.494 558.56C118.543 557.969 128.181 552.097 133.986 540.028C135.586 536.442 136.551 532.787 136.934 528.619C134.851 528.954 132.95 529.378 130.948 529.811C127.265 530.402 123.664 530.826 119.891 531.417C118.895 531.516 118.19 531.595 118.412 532.954C119.106 537.378 119.026 537.378 114.679 538.314C114.126 538.314 113.643 538.481 113.08 538.481C111.389 538.826 110.212 538.481 110.212 536.442C110.212 534.225 109.216 533.2 106.963 533.89C106.61 533.89 106.218 533.89 105.836 533.89C100.765 533.9 100.765 533.9 101.459 539.171Z" fill="#FFA71C"/>
<path fill-rule="evenodd" clip-rule="evenodd" d="M93.1829 521.82C92.1768 515.269 89.2793 510.924 85.3254 506.934C81.5123 503.614 77.166 501.239 72.3167 499.535C70.8881 499.022 70.0631 499.357 69.2381 500.55C65.6766 505.407 63.8153 510.924 62.9904 516.884C62.5577 518.333 62.9904 518.766 64.2882 518.077C68.4936 516.372 72.7091 515.269 77.2164 515.013C82.941 514.845 87.8909 516.372 91.9152 520.796C92.046 520.963 92.4384 521.141 93.1829 521.82Z" fill="#FFA71C"/>
<path fill-rule="evenodd" clip-rule="evenodd" d="M110.016 521.82C113.396 518.411 116.817 516.194 120.942 515.435C126.193 514.332 131.345 515.701 136.375 517.228C137.119 517.396 137.683 517.563 138.377 517.81C139.373 518.076 139.936 517.741 139.765 516.716C138.759 510.421 136.727 504.893 132.783 500.125C132.351 499.445 132.039 498.765 130.831 499.11C120.419 502.086 111.877 510.677 110.016 521.82Z" fill="#FFA71C"/>
<path d="M101.933 468.658C100.837 468.658 99.9414 467.781 99.9414 466.707V368.629C99.9414 367.545 100.837 366.668 101.933 366.668C103.04 366.668 103.936 367.545 103.936 368.629V466.707C103.936 467.781 103.04 468.658 101.933 468.658Z" fill="black"/>
</svg>
