<svg width="230" height="245" viewBox="0 0 230 245" fill="none" xmlns="http://www.w3.org/2000/svg">
<mask id="mask0_163_22112" style="mask-type:luminance" maskUnits="userSpaceOnUse" x="34" y="3" width="149" height="187">
<path d="M34.0117 13.0859L169.207 3.19959L182.089 179.352L46.8931 189.238L34.0117 13.0859Z" fill="white"/>
</mask>
<g mask="url(#mask0_163_22112)">
<path d="M180.461 165.974C180.167 162.035 179.843 158.103 179.525 154.166C178.395 140.241 177.34 126.311 176.307 112.379L174.756 91.4804C174.242 84.521 173.859 77.531 173.111 70.5886C173.088 70.384 173.028 70.2083 172.936 70.0636C173.338 69.3345 173.169 68.3573 172.216 67.9048C171.469 67.5443 170.594 67.4961 169.799 67.2461C169.103 67.0254 168.431 66.7326 167.787 66.4037C166.498 65.7487 165.308 64.8409 164.394 63.7642C162.345 61.3476 161.321 58.1146 161.765 55.0273C161.877 54.2646 161.43 53.7229 160.848 53.4809C160.618 52.973 160.109 52.5924 159.348 52.6559C156.468 52.8926 153.588 53.145 150.704 53.3637C150.151 48.6315 148.865 43.9608 146.949 39.5763C139.412 22.3423 121.759 10.2134 101.97 8.20369C101.824 8.18829 101.691 8.20064 101.567 8.23056C101.441 8.21893 101.307 8.22609 101.164 8.26263C81.8756 13.1273 66.1746 27.6952 61.2281 45.8395C59.9677 50.4615 59.3774 55.2669 59.5161 60.0293C56.6303 60.2325 53.7477 60.4016 50.8607 60.5866C50.0985 60.6345 49.6508 61.0849 49.5 61.6208C48.9593 61.9449 48.5952 62.5459 48.8141 63.2844C49.7061 66.2739 49.1629 69.6216 47.4846 72.3108C46.7394 73.5088 45.6915 74.5776 44.5121 75.4157C43.9251 75.8346 43.2996 76.2224 42.6437 76.5393C41.8936 76.9048 41.0376 77.0823 40.3477 77.5452C39.474 78.1313 39.4459 79.1229 39.9498 79.7857C39.8802 79.9422 39.8461 80.1249 39.8528 80.3307C40.1254 87.3078 40.7636 94.2765 41.2644 101.24L42.7705 122.142C43.7755 136.075 44.7582 150.011 45.6658 163.952C45.9232 167.891 46.1777 171.83 46.4575 175.77C46.733 179.654 46.798 183.714 47.771 187.504C47.9733 188.283 49.0166 188.45 49.6809 188.096C49.8181 188.138 49.9679 188.161 50.1356 188.161C54.3271 188.16 58.5538 187.723 62.7349 187.428C66.93 187.132 71.1248 186.833 75.3226 186.536C83.7126 185.941 92.1054 185.348 100.499 184.761C105.108 184.437 109.841 184.388 114.381 183.492C118.999 183.716 123.689 183.078 128.299 182.728C136.686 182.088 145.076 181.454 153.466 180.822C157.659 180.505 161.853 180.19 166.047 179.873C170.226 179.557 174.474 179.375 178.619 178.766C178.785 178.741 178.932 178.696 179.059 178.635C179.768 178.891 180.779 178.572 180.863 177.772C181.282 173.882 180.753 169.856 180.461 165.974Z" fill="#4F2A0A"/>
</g>
<path d="M198.105 178.815C195.032 174.16 191.749 175.538 188.531 175.828C185.075 176.141 181.616 176.451 178.16 176.764C171.245 177.387 164.329 178.003 157.407 178.53L116.615 181.636C89.1731 183.723 61.7437 185.98 34.3138 188.231C28.8084 188.683 30.3062 209.28 35.8272 208.926C63.2927 207.163 90.7587 205.405 118.212 203.479L159.022 200.617C165.947 200.132 172.879 199.734 179.811 199.347L190.208 198.762C193.445 198.58 196.878 199.481 199.246 194.415C201.317 189.984 200.798 182.894 198.105 178.815Z" fill="#4F2A0A"/>
<path d="M215.551 200.153C211.752 192.948 207.843 194.978 203.991 195.343C199.85 195.735 195.71 196.129 191.569 196.521C183.285 197.307 175.004 198.082 166.709 198.72L117.837 202.484C84.9587 205.014 52.1021 207.8 19.2424 210.582C12.6466 211.14 14.9465 242.743 21.5644 242.335C54.4792 240.306 87.3914 238.281 120.288 236.003L169.188 232.615C177.484 232.04 185.793 231.602 194.103 231.175L206.564 230.532C210.445 230.332 214.584 231.797 217.301 224.092C219.678 217.352 218.883 206.476 215.551 200.153Z" fill="#4F2A0A"/>
<path d="M46.957 203.105C42.7468 202.658 35.9432 200.986 35.6924 196.028C35.6104 194.41 33.0105 194.624 33.024 196.223C33.0259 196.44 33.0333 196.656 33.0487 196.866C32.9807 196.968 32.9242 197.074 32.8901 197.181C31.8447 200.388 31.6279 204.988 34.924 207.074C38.1705 209.128 43.0976 207.609 46.6733 207.173C48.9971 206.89 49.5424 203.381 46.957 203.105Z" fill="#474C4B" fill-opacity="0.5"/>
<path d="M134.7 199.879C132.032 198.823 128.892 199.478 126.066 199.664C122.865 199.877 119.667 200.09 116.469 200.303C109.695 200.751 102.938 201.402 96.1625 201.83C82.7998 202.671 69.4197 203.198 56.0575 204.084C54.4448 204.194 54.6211 206.489 56.2284 206.421C69.6081 205.85 82.9671 204.92 96.3435 204.305C102.941 204 109.543 203.914 116.146 203.637C119.35 203.505 122.556 203.364 125.76 203.229C128.765 203.101 132.16 203.445 134.857 202.031C135.729 201.576 135.571 200.222 134.7 199.879Z" fill="#474C4B" fill-opacity="0.5"/>
<path d="M31.434 235.533C31.4364 235.528 31.4388 235.522 31.4412 235.517C28.1388 235.257 25.1455 233.646 23.7007 230.778C22.076 227.552 22.1204 223.536 21.1479 220.096C20.6195 218.22 18.1414 218.762 17.5656 220.25C17.1101 220.555 16.8044 221.037 16.8883 221.65C17.5368 226.466 17.4809 232.428 19.97 236.813C21.9231 240.249 26.4061 241.217 30.2149 240.071C30.5132 240.099 30.8108 240.119 31.1135 240.131C34.0142 240.248 34.0502 236.039 31.434 235.533Z" fill="#474C4B" fill-opacity="0.5"/>
<path d="M81.9593 198.06C74.3851 198.805 66.7659 198.743 59.258 197.606C55.9717 197.107 53.3596 196.199 50.6977 194.341C48.5627 192.85 46.5405 191.525 43.8354 191.18C43.3531 191.119 42.7972 191.274 42.3947 191.578C41.6711 191.657 41.0064 192.082 40.9395 192.849C40.9443 192.914 40.9349 192.977 40.9341 193.042C40.6358 193.09 40.3462 193.219 40.0973 193.406C39.0407 193.403 38.1723 194.252 38.5158 195.358C38.9357 196.705 37.9182 197.999 38.6398 199.346C39.2547 200.494 40.4748 200.786 41.7181 201.05C46.1177 201.984 50.8489 202.218 55.3492 202.466C64.221 202.958 73.3768 202.213 82.1751 201.05C84.2065 200.781 84.0318 197.857 81.9593 198.06Z" fill="#535756" fill-opacity="0.25"/>
<path d="M144.462 195.81C140.855 195.207 137.056 195.715 133.412 195.872C129.443 196.042 125.476 196.212 121.509 196.382C113.576 196.722 105.642 197.062 97.7086 197.402C96.0401 197.474 96.2191 199.884 97.8855 199.819C105.821 199.503 113.756 199.186 121.691 198.87C125.472 198.719 129.25 198.568 133.028 198.417C136.846 198.265 140.876 198.467 144.588 197.527C145.521 197.292 145.348 195.96 144.462 195.81Z" fill="#535756" fill-opacity="0.25"/>
<path d="M95.7585 231.372C88.3144 229.348 80.3945 230.18 72.8212 231.128C69.1385 231.591 65.4095 231.764 61.6766 231.732C61.4256 231.165 60.8772 230.696 59.9593 230.526C55.5147 229.702 51.0172 229.188 46.5853 228.269C46.5682 228.265 46.5484 228.261 46.5313 228.257C46.5285 228.257 46.5257 228.258 46.5228 228.255C43.6413 227.064 40.7967 225.805 37.9908 224.461C36.3466 222.193 35.7856 219.106 33.7239 217.241C32.2834 214.509 30.1978 212.165 27.3792 212.063C25.3172 211.989 23.677 213.519 23.1857 215.323C22.7513 216.91 23.1232 218.327 23.968 219.563C22.6174 225.359 23.0573 231.908 29.5957 234.655C33.4068 236.253 38.2639 236.222 42.367 236.54C47.2176 236.917 51.7138 236.917 56.5356 236.212C56.7485 236.181 56.9454 236.122 57.1213 236.044C57.1414 236.05 57.156 236.059 57.1733 236.066C62.6248 237.858 68.71 236.622 74.3279 236.065C77.4879 235.753 80.6469 235.428 83.8099 235.157C85.8954 234.979 88.051 234.688 90.2002 234.502C91.9863 234.546 93.7693 234.549 95.5483 234.382L95.5451 234.338C97.2493 234.104 97.6546 231.889 95.7585 231.372Z" fill="#535756" fill-opacity="0.25"/>
<path d="M162.425 224.519C153.579 223.774 144.421 224.603 135.568 225.127C126.458 225.666 117.359 226.378 108.276 227.246C105.188 227.542 105.227 231.678 107.861 232.122C108.253 232.618 108.877 232.946 109.741 232.867C118.465 232.075 127.193 231.288 135.918 230.459C138.111 230.249 140.308 230.031 142.511 229.818C149.073 229.604 155.683 229.463 162.137 228.615C164.599 228.61 164.916 224.728 162.425 224.519Z" fill="#535756" fill-opacity="0.25"/>
<path d="M180.967 192.367C176.082 192.124 170.896 192.981 166.016 193.346C164.004 193.498 164.214 196.409 166.23 196.265C171.114 195.918 176.369 196.011 181.164 195.06C181.161 195.053 181.16 195.047 181.157 195.042C182.86 194.897 182.933 192.466 180.967 192.367Z" fill="#535756" fill-opacity="0.25"/>
<path d="M166.729 71.6871C164.16 69.9142 161.883 67.9294 159.937 65.5522C158.136 63.355 157.002 60.8715 155.511 58.5237C155.603 57.7598 155.076 56.8924 154.014 56.9231L145.857 57.1592C145.584 57.1687 145.354 57.2352 145.169 57.3375C144.919 56.63 144.648 55.9031 144.328 55.2032C144.425 54.9194 144.525 54.6406 144.521 54.3197C144.514 53.8399 144.354 53.3816 144.22 52.9214C143.935 51.958 143.619 51.0072 143.271 50.0641C142.598 48.2335 141.793 46.4438 140.881 44.7064C139.044 41.2117 136.829 37.909 134.221 34.8753C129.048 28.8623 122.554 23.8988 115.119 20.5157C110.934 18.6078 106.468 17.1877 101.895 16.3315C101.598 16.2776 101.343 16.3144 101.133 16.4134C101.114 15.9291 100.662 15.4478 100.027 15.6588C85.1857 20.5872 73.0222 32.2491 67.8055 46.1261C66.3221 50.0673 65.4041 54.1368 65.1105 58.2991C65.0723 58.8841 66.0257 59.0833 66.0903 58.4755C67.6509 44.1636 76.2731 30.6955 89.0492 22.597C92.6143 20.3364 96.4544 18.51 100.509 17.1743C100.358 17.7467 100.611 18.4201 101.405 18.5787C116.778 21.645 130.21 31.7224 137.358 44.7186C138.348 46.5208 139.2 48.3932 139.943 50.3022C140.308 51.2363 140.643 52.1857 140.942 53.1403C141.109 53.6659 141.206 54.2384 141.414 54.7454C141.55 55.0748 141.767 55.3017 141.996 55.5174C142.256 56.6289 142.656 57.7406 143.038 58.7674C143.338 59.581 144.238 59.6639 144.85 59.3163C145.1 59.6401 145.502 59.8691 146.049 59.8527C148.595 59.7866 151.142 59.723 153.688 59.6569C154.349 62.3057 156.045 64.863 157.698 66.9952C159.642 69.4979 162.069 71.7746 164.788 73.5417C164.279 73.6886 163.857 74.1033 163.866 74.7657C163.977 81.2065 164.604 87.6459 165.071 94.0658C165.538 100.494 165.983 106.923 166.475 113.349C167.468 126.278 168.453 139.206 169.463 152.134C170.025 159.361 170.217 166.767 171.597 173.904C171.79 174.9 173.227 174.798 173.273 173.781C173.563 167.356 172.828 160.859 172.391 154.457C171.951 148.03 171.506 141.598 171.058 135.169C170.16 122.233 169.253 109.3 168.299 96.3675C167.766 89.1092 167.432 81.7971 166.496 74.5735C166.455 74.2501 166.315 74.0045 166.123 73.8253C167.107 73.5654 167.756 72.3978 166.729 71.6871Z" fill="#474C4B" fill-opacity="0.5"/>
<path d="M63.2788 65.9074C61.6558 64.9974 59.0016 65.2333 57.2205 65.5619C56.782 65.641 56.4848 65.8951 56.3283 66.2016C55.8466 66.0723 55.2877 66.262 55.1298 66.8923C54.4696 69.5201 53.7579 71.9768 52.3629 74.3763C50.9827 76.7487 49.1408 78.8833 46.9536 80.6515C46.3969 81.1021 46.5411 81.8122 46.9551 82.1631C46.2874 82.1649 45.6149 82.5979 45.6575 83.4094C47.0282 109.261 49.2793 135.077 51.2034 160.893C51.4696 164.495 51.7525 168.096 52.0296 171.694C52.1724 173.532 52.3126 175.373 52.4554 177.211C52.5916 178.997 52.6331 180.788 53.1121 182.523C53.3818 183.498 55.1245 183.371 55.2495 182.367C55.6347 179.266 55.0535 175.979 54.8404 172.875C54.6163 169.657 54.3949 166.438 54.1705 163.217C53.7247 156.777 53.2514 150.342 52.7889 143.904C51.8613 130.951 50.9282 117.999 49.995 105.047C49.471 97.767 48.8859 90.4915 48.2063 83.223C48.1702 82.8053 47.9563 82.5181 47.6699 82.3458C47.7964 82.3183 47.926 82.2566 48.0556 82.1557C52.5281 78.6225 56.3173 73.3117 57.0209 67.7618C57.1278 67.7723 57.2479 67.7713 57.3804 67.7486C58.3132 67.589 59.2482 67.4971 60.1936 67.5481C61.0998 67.5967 61.9629 67.8599 62.8691 67.8328C64.0318 67.7974 64.1299 66.3882 63.2788 65.9074Z" fill="#474C4B" fill-opacity="0.5"/>
<path d="M166.522 148.813C166.206 145.147 165.954 140.928 163.413 137.933C158.817 132.515 150.225 134.256 145.136 138.139C141.915 140.602 139.425 143.727 136.674 146.617C133.934 149.499 130.824 152.026 127.42 154.202C112.244 163.909 93.4726 166.063 75.6473 167.019C73.8574 167.113 72.0697 167.2 70.2791 167.283C67.0447 167.037 63.6694 167.461 61.6098 170.134C59.4019 172.995 60.867 176.637 63.7376 178.482C67.3298 180.794 72.0513 180.054 76.1427 179.716C81.0397 179.313 85.9368 178.911 90.8325 178.49C110.582 176.795 130.333 175.116 150.072 173.307C153.833 172.964 157.769 172.684 161.13 170.882C164.613 169.017 166.136 165.587 166.548 162.009C167.046 157.656 166.899 153.161 166.522 148.813Z" fill="#535756" fill-opacity="0.25"/>
<path d="M102.178 26.1153C100.268 26.5918 98.3999 27.1904 96.5843 27.9263C95.6724 28.2959 94.7289 28.6155 93.805 28.9729C93.6368 28.9277 93.4476 28.939 93.2554 29.0235C93.5281 28.1289 93.7022 27.2233 93.7214 26.3394C93.7317 25.8687 92.983 25.8712 92.8686 26.2947C92.5444 27.5168 92.2444 28.6875 91.85 29.8286C91.7078 29.9095 91.563 29.9932 91.4211 30.0767C90.9117 30.3724 90.9868 30.9021 91.3113 31.2126C90.9949 31.9302 90.6188 32.6339 90.1557 33.3309C88.6803 35.5484 86.6728 37.4053 84.3248 38.8093C83.8562 39.089 84.3404 39.7481 84.8089 39.4684C87.2436 38.0267 89.3001 36.114 90.8552 33.8411C91.2362 33.2806 91.6113 32.6788 91.9564 32.0479C92.1137 32.1356 92.313 32.1471 92.5097 32.01C92.9404 31.7096 93.3773 31.4166 93.8175 31.1311C93.8929 31.3214 94.0712 31.4677 94.3747 31.4899C95.8689 31.5947 97.5348 31.9063 99.0272 31.7553C99.8398 31.6724 99.8838 30.6301 99.1184 30.4432C97.983 30.1634 96.6918 30.1612 95.4729 30.1146C96.0277 29.792 96.5887 29.4769 97.1595 29.1819C98.8319 28.3207 100.636 27.3872 102.43 26.7809C102.894 26.6242 102.644 25.9976 102.178 26.1153Z" fill="#474C4B" fill-opacity="0.5"/>
<path d="M63.479 115.216C62.5405 113.692 61.2299 112.355 60.5846 110.676C59.819 108.69 60.6787 107.071 61.5701 105.275C63.1381 102.109 62.8154 99.0331 60.9576 96.0594C59.0081 92.9384 55.6627 90.9064 52.506 88.9702C51.8507 88.569 51.3171 89.6028 51.9611 90.0022C54.9926 91.8692 58.2172 93.8552 60.0241 96.8978C60.9069 98.3841 61.3585 100.166 61.1514 101.88C60.9544 103.467 60.0315 104.832 59.4115 106.29C59.3949 106.33 59.3837 106.367 59.3669 106.405C58.7415 103.814 57.5078 101.426 55.6806 99.3668C55.2879 98.9256 54.3646 99.2542 54.6387 99.8686C55.0167 100.721 55.3948 101.573 55.7757 102.425C54.3828 101.911 52.8439 101.846 51.3605 102.309C50.6911 102.517 51.0802 103.445 51.7139 103.244L51.7144 103.252C53.3352 102.794 54.9966 102.968 56.3979 103.826L56.8359 104.81C57.2007 105.634 57.5684 106.458 57.9468 107.276C58.2292 107.89 58.4541 108.558 58.8602 109.105C58.8675 109.282 58.8832 109.459 58.9072 109.634C58.6036 109.57 58.2687 109.691 58.2204 110.063C58.0055 111.786 57.8488 113.503 57.6814 115.225C57.6253 115.796 58.5419 115.987 58.6329 115.398C58.8558 113.975 59.0849 112.561 59.2855 111.139C59.6265 112.057 60.1531 112.953 60.8035 113.861C62.2781 115.912 64.9428 119.336 62.3547 121.622C61.7063 122.194 62.7476 123.021 63.3912 122.46C65.6078 120.52 64.8075 117.372 63.479 115.216Z" fill="#474C4B" fill-opacity="0.5"/>
<path d="M163.735 117.202C163.423 117.373 163.327 117.433 163.172 117.574C160.811 117.149 158.441 116.772 156.073 116.37C157.435 115.464 158.999 114.694 159.706 113.246C160.892 110.809 158.574 108.457 159.512 106.08C159.661 105.706 159.158 105.482 158.928 105.812C157.353 108.115 160.18 110.399 159.294 112.723C158.262 115.432 154.1 115.494 152.819 118.141C152.404 118.999 152.313 120.013 152.758 120.863C153.371 122.032 155.181 122.242 155.23 123.719C155.323 126.477 151.585 127.98 150.58 130.362C150.391 130.804 151.097 131.128 151.288 130.683C152.287 128.367 155.048 127.273 155.868 124.845C156.169 123.953 156.223 122.816 155.701 121.982C155.435 121.56 154.976 121.315 154.593 121.006C153.791 120.36 153.548 119.599 153.931 118.647C154.192 118.007 154.63 117.497 155.153 117.051C155.204 117.089 155.267 117.116 155.344 117.131C157.981 117.654 160.604 118.217 163.247 118.713C163.519 118.763 163.76 118.623 163.896 118.409C164.154 118.004 164.158 117.983 164.282 117.535C164.366 117.234 163.985 117.069 163.735 117.202Z" fill="#474C4B" fill-opacity="0.5"/>
<path d="M166.336 112.493C165.799 111.721 164.591 111.822 163.904 112.395C163.453 112.769 163.249 113.304 163.104 113.834C162.894 114.604 162.812 116.459 161.473 116.186C160.818 116.053 160.612 117.014 161.266 117.143C162.298 117.342 163.168 116.735 163.607 115.87C163.924 115.239 164.291 111.687 165.81 112.931C166.113 113.183 166.552 112.807 166.336 112.493Z" fill="#474C4B" fill-opacity="0.5"/>
<path d="M121.922 66.6238C119.404 65.3171 116.443 66.3247 114.355 67.9604C113.092 68.9509 111.782 70.3442 111.363 71.8683C110.815 73.8561 112.802 76.6428 114.858 77.1347C117.492 77.7671 120.622 76.131 122.553 74.5564C124.953 72.6029 124.841 68.1387 121.922 66.6238Z" fill="#78726D"/>
<path d="M89.2476 69.0134C91.549 67.3544 94.6251 67.9205 96.9287 69.235C98.3227 70.0312 99.8207 71.2193 100.457 72.6661C101.288 74.553 99.7284 77.5991 97.7655 78.3849C95.2517 79.3938 91.9168 78.2304 89.7779 76.9534C87.1192 75.3699 86.5799 70.9369 89.2476 69.0134Z" fill="#78726D"/>
<path d="M109.752 81.3702C109.61 81.0046 109.384 80.6948 109.072 80.4409C108.905 80.3356 108.735 80.2331 108.565 80.128C108.184 79.9549 107.779 79.8853 107.351 79.914C107.025 79.9274 106.727 80.0119 106.453 80.1728C106.168 80.2825 105.923 80.4544 105.725 80.6856C105.509 80.8998 105.365 81.1505 105.288 81.4329C105.16 81.706 105.114 81.9939 105.147 82.2996C105.189 82.4923 105.232 82.6877 105.274 82.8804C105.415 83.2486 105.642 83.5584 105.954 83.8123C106.121 83.915 106.29 84.0201 106.457 84.1228C106.842 84.2957 107.249 84.3677 107.675 84.3392C108.001 84.3258 108.299 84.2388 108.572 84.0804C108.858 83.9707 109.102 83.7988 109.3 83.5676C109.516 83.3508 109.66 83.1027 109.738 82.8203C109.866 82.5446 109.912 82.2567 109.878 81.9536C109.836 81.7583 109.794 81.5656 109.752 81.3702Z" fill="#78726D"/>
<path d="M87.9537 130.055C86.9458 131.327 85.7941 132.009 84.4988 132.104C83.7178 132.161 83.1562 132.009 82.8138 131.645C82.4742 131.281 82.2711 130.682 82.21 129.846L81.9536 126.34C81.878 124.351 80.9438 123.422 79.1566 123.553C78.7119 123.585 78.2459 123.671 77.7615 123.811L78.2838 130.953C78.3113 131.33 78.2636 131.594 78.1408 131.749C78.0154 131.907 77.844 132.009 77.6239 132.056C77.4037 132.101 77.0131 132.148 76.4544 132.189L73.0717 132.436C73.6304 132.395 73.8889 132.071 73.8447 131.466L72.5024 113.11C72.4352 112.191 71.9874 111.762 71.1619 111.822C72.1701 110.552 73.3218 109.87 74.617 109.776C75.2646 109.728 75.7515 109.813 76.083 110.029C76.412 110.247 76.64 110.615 76.7669 111.127C77.1156 110.661 77.5814 110.266 78.1611 109.939C78.7437 109.615 79.4365 109.421 80.2398 109.362C81.157 109.295 82.0773 109.46 83.0057 109.851C83.9315 110.246 84.728 110.934 85.3946 111.912C86.0615 112.891 86.4537 114.166 86.5682 115.732C86.6812 117.277 86.5345 118.596 86.1335 119.685C85.7298 120.774 85.1238 121.62 84.3157 122.225C85.5969 123.16 86.2955 124.422 86.4116 126.009L86.6131 128.764C86.6805 129.686 87.1282 130.116 87.9537 130.055ZM79.6101 120.966C80.0132 120.937 80.3935 120.94 80.7566 120.976C81.7364 120.275 82.1422 118.755 81.9713 116.418C81.8429 114.662 81.4791 113.394 80.8851 112.607C80.2884 111.823 79.555 111.461 78.685 111.525C77.9234 111.581 77.3436 111.905 76.9375 112.504L77.5833 121.336C78.287 121.139 78.9625 121.013 79.6101 120.966Z" fill="#78726D"/>
<path d="M95.597 130.062C95.0477 129.619 94.7485 129.043 94.6964 128.332C94.6461 127.643 94.8591 127.04 95.3382 126.522C95.8172 126.004 96.4252 125.72 97.1617 125.666C97.8983 125.612 98.5412 125.805 99.0905 126.248C99.6371 126.691 99.9383 127.256 99.9886 127.945C100.041 128.656 99.8256 129.27 99.3493 129.788C98.8703 130.306 98.2625 130.593 97.526 130.647C96.7866 130.701 96.1463 130.505 95.597 130.062Z" fill="#78726D"/>
<path d="M115.554 129.328L112.168 129.576C110.895 129.669 110.217 129.142 110.133 127.991L108.85 110.451C108.783 109.532 108.335 109.103 107.509 109.163C108.518 107.894 109.669 107.211 110.964 107.117C111.746 107.06 112.307 107.212 112.65 107.576C112.989 107.94 113.192 108.539 113.253 109.372L114.65 128.478C114.695 129.086 114.995 129.369 115.554 129.328Z" fill="#78726D"/>
<path d="M125.378 127.882C124.832 127.439 124.53 126.864 124.478 126.152C124.427 125.464 124.64 124.861 125.119 124.343C125.598 123.825 126.206 123.54 126.943 123.486C127.68 123.432 128.322 123.626 128.872 124.068C129.421 124.511 129.72 125.077 129.77 125.765C129.822 126.477 129.61 127.09 129.131 127.608C128.652 128.126 128.044 128.413 127.307 128.467C126.571 128.521 125.928 128.325 125.378 127.882Z" fill="#78726D"/>
<path d="M149.863 104.966C150.789 105.361 151.588 106.046 152.254 107.026C152.921 108.006 153.31 109.278 153.425 110.846C153.543 112.454 153.387 113.839 152.955 115.006C152.524 116.171 151.888 117.066 151.048 117.696C150.205 118.324 149.239 118.68 148.144 118.76C147.363 118.817 146.658 118.73 146.038 118.504C145.415 118.275 144.909 117.968 144.523 117.575L145.143 126.062C145.171 126.439 145.12 126.706 144.998 126.861C144.875 127.017 144.701 127.118 144.483 127.165C144.26 127.213 143.87 127.257 143.314 127.298L139.931 127.545C140.49 127.504 140.746 127.183 140.701 126.575L139.359 108.22C139.292 107.3 138.847 106.871 138.021 106.931C139.027 105.662 140.178 104.98 141.474 104.885C142.121 104.838 142.608 104.922 142.94 105.138C143.271 105.357 143.499 105.724 143.626 106.237C143.972 105.77 144.438 105.376 145.02 105.049C145.603 104.724 146.296 104.53 147.099 104.471C148.017 104.407 148.937 104.572 149.863 104.966ZM148.308 115.455C148.781 114.591 148.956 113.283 148.828 111.527C148.7 109.774 148.336 108.503 147.742 107.719C147.145 106.932 146.412 106.571 145.542 106.635C144.78 106.69 144.2 107.017 143.794 107.613L144.417 116.134C144.906 116.665 145.527 116.904 146.289 116.848C147.158 116.782 147.831 116.318 148.308 115.455Z" fill="#78726D"/>
<path d="M176.128 29.0871C175.49 28.4679 174.724 28.041 173.879 27.4918C172.468 26.5716 171.332 25.3283 169.969 24.3471C168.942 23.6102 168.363 24.0572 167.037 23.9636C165.566 23.8597 164.069 23.4235 162.664 23.0406C161.743 22.7894 160.83 22.5037 159.935 22.1828C159.097 21.8837 158.253 21.4155 157.369 21.2556C156.531 21.1054 155.725 21.3967 154.924 21.6014C153.847 21.8813 152.775 22.1737 151.701 22.4612C148.209 23.3979 144.867 24.3107 141.705 26.0406C145.077 25.2378 148.093 24.7536 151.571 24.6977C153.329 24.8877 155.059 25.239 156.715 25.8436C159.739 26.9489 162.13 28.6251 163.626 31.3093C163.459 31.0083 166.007 29.5217 166.313 29.3792C167.564 28.7917 168.751 28.6684 170.119 28.7302C172.507 28.8323 174.603 30.0889 177.025 30.2825C176.767 29.8001 176.465 29.4175 176.128 29.0871Z" fill="#78726D"/>
<mask id="mask1_163_22112" style="mask-type:luminance" maskUnits="userSpaceOnUse" x="174" y="0" width="41" height="25">
<path d="M174.184 2.83984L212.988 0.00219409L214.591 21.9154L175.786 24.753L174.184 2.83984Z" fill="white"/>
</mask>
<g mask="url(#mask1_163_22112)">
<path d="M211.461 0.943562C211.97 0.726159 212.489 0.518534 213.011 0.323691C209.428 1.23319 205.899 2.22753 202.253 2.69259C200.627 2.9002 198.992 3.04588 197.351 3.10847C195.726 3.17243 194.062 3.03306 192.447 3.18252C192.191 3.20641 191.959 3.43226 191.997 3.68274C192.093 4.34671 191.631 5.2551 191.426 5.89407C191.183 6.65076 190.919 7.40108 190.593 8.1325C189.979 9.52717 189.188 10.8539 188.229 12.0702C186.314 14.5026 183.778 16.5182 180.874 17.8376C180.755 17.8907 180.682 17.9717 180.63 18.0591C180.51 18.0966 180.388 18.1499 180.284 18.2515C179.923 18.599 179.645 19.0005 179.341 19.3908C179.037 19.7786 178.73 20.1666 178.417 20.5472C177.794 21.3133 177.174 22.0845 176.54 22.8436C176.282 23.1496 176.273 23.5864 176.562 23.8733C176.86 24.17 177.283 24.1861 177.654 23.984C178.653 23.4357 179.653 22.8823 180.652 22.3314C181.495 21.8677 182.355 21.4367 183.107 20.8596C183.41 20.7721 183.717 20.6922 184.023 20.6307C184.797 20.4801 185.588 20.4065 186.374 20.4066C187.262 20.4094 188.118 20.608 188.997 20.6324C189.165 20.6384 189.365 20.4959 189.427 20.3556C190.829 16.9791 194.8 15.2632 198.416 14.923C198.738 14.8916 199.029 14.5492 198.878 14.247C197.342 11.2054 200.463 8.11039 202.72 6.26136C205.351 4.1004 208.285 2.30107 211.461 0.943562Z" fill="#78726D"/>
</g>
<path d="M181.621 29.373C181.37 29.0676 180.996 28.9174 180.76 28.5979C180.521 28.2733 180.403 27.8825 180.335 27.4958C180.164 26.5292 180.114 25.5382 180.007 24.567C179.906 23.6423 179.76 22.7235 179.232 21.9214C178.817 21.2938 178.193 20.8251 177.46 20.5732C177.445 20.4464 177.419 20.3204 177.388 20.1999C177.274 19.7566 177.028 19.3359 176.75 18.9673C176.177 18.1998 175.429 17.5626 174.67 16.9628C174.234 16.6187 173.56 17.1536 173.909 17.6033C173.949 17.6578 173.998 17.7091 174.038 17.7635C174.046 17.7969 174.103 18.0016 174.075 17.894C174.119 18.0709 174.167 18.2371 174.233 18.4072C174.34 18.6892 174.436 18.9694 174.516 19.2637C174.535 19.3328 174.554 19.4019 174.573 19.471C174.581 19.5018 174.589 19.5326 174.594 19.5635C174.598 19.5737 174.598 19.5789 174.603 19.6021C174.627 19.7439 174.652 19.8883 174.665 20.0309C174.681 20.1759 174.689 20.3216 174.688 20.4652C174.688 20.5461 174.686 20.6299 174.681 20.7112C174.682 20.7293 174.679 20.7296 174.68 20.7399C174.678 20.7819 174.672 20.8215 174.67 20.8634C174.664 20.8978 174.672 20.9311 174.674 20.9649C174.231 21.0548 173.802 21.188 173.391 21.3799C172.889 21.615 172.442 21.9245 172.063 22.3151C171.989 22.2605 171.912 22.2086 171.822 22.1552C171.754 22.1105 171.687 22.0685 171.619 22.0264C171.59 22.0102 171.564 21.9939 171.52 21.9684C171.456 21.9261 171.394 21.8836 171.332 21.8385C171.202 21.7462 171.08 21.6455 170.963 21.5391C170.907 21.4885 170.852 21.435 170.792 21.3767C170.768 21.3524 170.747 21.3252 170.723 21.3009C170.619 21.1857 170.523 21.0622 170.433 20.933C170.389 20.871 170.348 20.8087 170.31 20.7462C170.288 20.7113 170.266 20.6789 170.244 20.6362C170.18 20.4946 170.109 20.3615 170.054 20.2193C169.992 20.0593 169.849 19.934 169.682 19.8679C169.681 19.821 169.675 19.7744 169.677 19.7273C169.699 19.4881 169.581 19.2539 169.306 19.2061C169.046 19.1573 168.806 19.321 168.745 19.5578C168.645 19.9463 168.591 20.3132 168.626 20.7153C168.741 21.9888 169.603 23.038 170.137 24.1791C171.445 26.9815 173.816 29.3276 176.845 30.5551C177.853 30.9644 178.956 31.2493 180.064 31.0847C180.861 30.969 182.441 30.3757 181.621 29.373Z" fill="#78726D"/>
<path d="M33.7146 170.172C33.8477 169.316 33.7422 168.486 33.6884 167.521C33.6011 165.906 33.9554 164.293 33.9518 162.677C33.9492 161.458 33.2175 161.31 32.4909 160.277C31.6805 159.13 31.1384 157.755 30.6035 156.478C30.2518 155.642 29.9382 154.793 29.6629 153.933C29.403 153.13 29.2831 152.217 28.8787 151.463C28.4942 150.753 27.7598 150.339 27.0974 149.878C26.2084 149.262 25.3089 148.654 24.4117 148.041C21.4971 146.053 18.6958 144.161 15.3125 142.91C18.0425 144.896 20.287 146.815 22.4503 149.344C23.3639 150.754 24.1215 152.25 24.6212 153.848C25.5302 156.763 25.5765 159.574 24.2287 162.351C24.3792 162.04 27.1844 162.991 27.4875 163.123C28.7437 163.679 29.5677 164.478 30.3511 165.522C31.7196 167.346 31.9402 169.675 33.2532 171.581C33.505 171.088 33.6444 170.626 33.7146 170.172Z" fill="#78726D"/>
<path d="M78.9116 178.632C79.404 178.87 79.8921 179.124 80.3751 179.386C77.4292 177.315 74.4455 175.337 71.8336 172.941C70.6682 171.869 69.5503 170.758 68.498 169.589C67.4548 168.431 66.5595 167.118 65.4455 166.022C65.2708 165.849 64.9388 165.819 64.751 166.002C64.2528 166.488 63.2076 166.715 62.5466 166.962C61.7606 167.257 60.9674 167.529 60.1534 167.748C58.6052 168.167 57.0078 168.409 55.3994 168.464C52.1881 168.571 48.947 167.964 46.0701 166.645C45.9544 166.591 45.8424 166.588 45.7348 166.607C45.632 166.539 45.5137 166.487 45.3617 166.472C44.8495 166.423 44.3444 166.471 43.8315 166.487C43.3189 166.509 42.8086 166.523 42.295 166.532C41.2708 166.549 40.2443 166.575 39.2191 166.579C38.803 166.584 38.4312 166.848 38.3676 167.239C38.2995 167.647 38.541 167.968 38.9401 168.114C40.0112 168.508 41.085 168.9 42.1559 169.291C43.0605 169.625 43.945 169.988 44.8897 170.183C45.1506 170.349 45.4037 170.524 45.641 170.713C46.2375 171.189 46.7826 171.726 47.258 172.305C47.8005 172.959 48.1519 173.714 48.667 174.376C48.7656 174.502 49.005 174.566 49.1608 174.518C52.8574 173.443 56.7178 175.297 59.2053 177.749C59.4251 177.965 59.8918 177.965 60.0543 177.666C61.6799 174.636 66.1834 175.004 69.1153 175.51C72.5341 176.101 75.832 177.139 78.9116 178.632Z" fill="#78726D"/>
<path d="M36.8171 174.397C36.9209 174.022 36.8184 173.65 36.9448 173.278C37.0709 172.901 37.3291 172.571 37.6123 172.279C38.3219 171.551 39.1234 170.895 39.8751 170.208C40.5905 169.558 41.2811 168.875 41.6324 167.985C41.9084 167.289 41.9206 166.539 41.6851 165.841C41.7847 165.75 41.8755 165.654 41.9578 165.557C42.2611 165.195 42.4634 164.752 42.6076 164.316C42.9021 163.415 42.9837 162.466 43.0243 161.531C43.0495 160.997 42.188 160.833 42.0204 161.37C42.0002 161.437 41.9853 161.5 41.965 161.567C41.9419 161.595 41.8062 161.764 41.8781 161.678C41.7572 161.82 41.6471 161.958 41.541 162.112C41.3699 162.37 41.192 162.613 40.9945 162.855C40.9457 162.913 40.9024 162.971 40.8536 163.029C40.8331 163.054 40.8125 163.079 40.792 163.104C40.7841 163.11 40.7817 163.116 40.7633 163.133C40.6568 163.242 40.55 163.349 40.44 163.449C40.3273 163.551 40.2112 163.646 40.0893 163.735C40.0204 163.787 39.9486 163.837 39.8796 163.887C39.8635 163.896 39.8609 163.898 39.8527 163.902C39.8181 163.925 39.7807 163.949 39.7431 163.97C39.7109 163.988 39.6878 164.015 39.6615 164.038C39.3147 163.766 38.9401 163.535 38.5298 163.351C38.0272 163.126 37.4921 162.993 36.9333 162.956C36.9352 162.867 36.9315 162.778 36.9213 162.677C36.9158 162.602 36.9129 162.524 36.9046 162.449C36.9023 162.418 36.9 162.386 36.8937 162.337C36.8911 162.264 36.8886 162.192 36.8888 162.118C36.8887 161.964 36.8972 161.812 36.914 161.66C36.9225 161.586 36.9341 161.515 36.9449 161.433C36.9537 161.401 36.9596 161.367 36.9684 161.335C37.0049 161.183 37.0472 161.036 37.1007 160.889C37.1265 160.822 37.1522 160.752 37.1836 160.684C37.1974 160.644 37.2144 160.609 37.2363 160.566C37.316 160.432 37.3841 160.294 37.4723 160.162C37.5708 160.019 37.5853 159.835 37.5398 159.671C37.5796 159.642 37.6162 159.608 37.6562 159.582C37.8699 159.446 37.9955 159.215 37.8722 158.981C37.7528 158.763 37.4678 158.687 37.2323 158.791C36.8451 158.96 36.5013 159.149 36.1859 159.423C35.1856 160.303 34.8273 161.593 34.1928 162.699C32.6309 165.414 32.103 168.627 32.9144 171.623C33.1829 172.619 33.6131 173.611 34.4281 174.324C35.0104 174.835 36.4712 175.629 36.8171 174.397Z" fill="#78726D"/>
</svg>
