<svg width="138" height="129" viewBox="0 0 138 129" fill="none" xmlns="http://www.w3.org/2000/svg">
<g opacity="0.59" clip-path="url(#clip0_205_3633)">
<path fill-rule="evenodd" clip-rule="evenodd" d="M1.22932 55.0403C1.86664 56.7619 2.98476 58.2643 4.45082 59.3692C5.17458 59.9137 5.95012 60.3858 6.76627 60.7786L8.60352 61.6595C9.10683 61.9093 9.50479 62.3301 9.72614 62.8466C9.94749 63.3631 9.97778 63.9415 9.81158 64.4783C10.8495 65.6147 12.2792 66.3161 13.8133 66.4413C15.4869 66.6096 17.1732 66.6096 18.8468 66.4413L24.1321 66.2652C25.7663 66.3342 27.3394 66.9055 28.6372 67.9011C28.8634 68.114 29.0429 68.3716 29.1642 68.6575C29.2855 68.9435 29.346 69.2516 29.3419 69.5622C29.3934 70.3472 29.1808 71.1268 28.7378 71.7769C27.5549 73.6394 25.2395 74.2937 21.7915 73.7652C23.9932 76.0622 26.8982 77.559 30.0466 78.0186L33.9224 78.9498C34.8997 79.1446 35.7848 79.658 36.4392 80.4095C37.2272 81.485 37.6664 82.7763 37.6976 84.1092C37.7176 84.5696 37.6109 85.0266 37.3889 85.4305C37.167 85.8343 36.8385 86.1695 36.4392 86.3995C35.2961 86.8838 34.0143 86.9286 32.8402 86.5253C32.1157 86.458 31.4255 86.1855 30.8504 85.7397C30.2753 85.2939 29.8393 84.6934 29.5935 84.0085C29.065 83.8575 28.612 84.2099 28.1841 85.0656C27.7563 85.9213 27.2026 86.4498 26.5986 86.3995H22.1942C20.2492 86.2848 18.3402 85.8245 16.5566 85.0404C15.4827 84.5371 14.6438 84.6377 14.0398 85.3424C13.4848 86.2181 13.2451 87.2568 13.3603 88.2871C13.368 89.643 13.6062 90.9876 14.065 92.2636C14.411 93.4754 15.0116 94.5994 15.8267 95.5606C16.4428 96.2031 17.2105 96.6804 18.0593 96.9487C18.9081 97.217 19.8107 97.2676 20.6841 97.0958L23.2009 96.8693C24.0459 96.839 24.8801 97.0672 25.5918 97.5237C26.394 98.1639 27.0685 98.9494 27.5801 99.8391C28.2622 100.91 29.218 101.779 30.3486 102.356C31.9046 103.133 33.6695 103.389 35.3822 103.086C37.0234 102.964 38.5551 102.216 39.6607 100.997C40.217 100.245 40.9359 99.6275 41.7639 99.1917C42.5919 98.7559 43.5075 98.5127 44.4426 98.4801C46.2335 98.6016 47.9647 99.1729 49.4762 100.141C49.8641 100.437 50.1791 100.817 50.3972 101.254C50.6153 101.69 50.7307 102.17 50.7346 102.658C50.9235 103.916 50.7122 105.201 50.1305 106.332C48.4527 109.403 45.097 109.948 40.0634 107.968C41.8025 111.212 44.6665 113.709 48.1171 114.99C50.1217 115.517 52.2283 115.517 54.2329 114.99C55.6653 114.405 56.855 113.348 57.6054 111.995C58.7631 110.384 59.644 109.478 60.248 109.478C63.2215 109.262 66.1881 109.984 68.7296 111.542C69.3224 112.042 69.7809 112.682 70.0635 113.405L70.7431 115.468C71.1961 116.777 72.6558 117.734 75.1223 118.338C76.0418 118.696 77.0407 118.801 78.0146 118.642C78.9886 118.482 79.9019 118.064 80.6592 117.431C81.7789 116.171 82.9634 114.97 84.2079 113.832C85.1687 112.901 86.3314 112.203 87.6055 111.794L91.2549 110.913C93.1677 110.561 94.0989 110.636 94.0989 111.19C93.9853 112.795 94.1212 114.408 94.5015 115.972C94.9294 116.903 96.1123 117.431 98.0251 117.557C99.3536 117.483 100.666 117.229 101.926 116.802C103.921 116.201 105.865 115.444 107.74 114.537C112.773 112.121 115.626 109.604 116.297 106.987C116.472 106.324 116.476 105.628 116.309 104.963C116.141 104.299 115.808 103.687 115.341 103.186L114.309 102.004C114.169 101.862 114.061 101.692 113.991 101.506C113.922 101.319 113.893 101.12 113.906 100.921C114.033 100.028 114.417 99.1907 115.012 98.5115C115.606 97.8323 116.385 97.3405 117.253 97.0958C118.654 96.9157 120.011 96.4807 121.255 95.8123C122.339 94.6714 123.141 93.2922 123.596 91.7854C124.181 90.4521 124.587 89.0473 124.804 87.6075C124.804 87.1545 125.206 86.9028 125.886 86.8525C126.186 86.8699 126.486 86.8123 126.758 86.6849C127.031 86.5574 127.267 86.3642 127.446 86.1226C128.035 85.1682 128.485 84.1342 128.78 83.0522C129.133 81.6176 129.107 80.9381 128.78 81.0136L127.144 81.2652C127.013 81.2837 126.88 81.2706 126.755 81.227C126.63 81.1834 126.517 81.1105 126.426 81.0145C126.335 80.9184 126.268 80.802 126.231 80.6749C126.194 80.5478 126.188 80.4136 126.213 80.2837C126.219 79.3934 126.471 78.522 126.943 77.7669L128.68 76.2065C129.621 75.3788 130.803 74.8758 132.052 74.7719C133.134 74.7719 133.789 74.3692 133.99 73.9414C134.539 72.8109 135.026 71.6515 135.45 70.4682C136.084 69.0012 136.541 67.4634 136.809 65.8877C137.199 62.6864 137.199 59.4496 136.809 56.2484C136.388 53.2747 135.809 50.3259 135.072 47.4144C135.072 47.0621 134.493 48.0436 133.612 50.4094C132.732 52.7752 131.851 54.4363 131.398 54.5621L128.881 54.7383C128.349 54.6023 127.862 54.3317 127.465 53.9526C127.068 53.5735 126.776 53.0987 126.616 52.5738C126.333 51.3372 126.3 50.0564 126.521 48.8071C126.741 47.5577 127.21 46.3653 127.899 45.3003L129.762 41.5755C130.334 40.4195 130.749 39.1922 130.995 37.9261C131.127 36.7861 130.926 35.6322 130.416 34.604C129.931 33.5798 129.174 32.709 128.227 32.0872C127.144 31.4105 125.869 31.1057 124.597 31.2193C123.326 31.3329 122.125 31.8585 121.18 32.7164C120.122 33.4714 119.065 32.8674 117.983 30.9295C117.185 29.8145 116.762 28.4749 116.775 27.1039C117.016 26.2543 117.372 25.4414 117.832 24.6878C118.145 24.2153 118.382 23.6975 118.537 23.1526C118.25 21.5774 117.433 20.1477 116.221 19.1005C114.636 17.4646 113.277 16.8606 112.169 17.2885C110.467 17.9743 108.833 18.8169 107.287 19.8052C105.852 20.6365 104.495 21.5968 103.235 22.6744C102.125 23.5347 100.733 23.9478 99.3338 23.8321C97.3707 23.8321 96.3891 23.4546 96.3891 22.5234C96.498 21.628 96.2543 20.7255 95.7096 20.0066C95.1559 19.4277 94.3254 19.5536 93.1928 20.3338C92.9234 20.5282 92.61 20.653 92.2807 20.6969C91.9513 20.7408 91.6162 20.7025 91.3052 20.5854C90.6894 20.3739 90.1593 19.9675 89.7952 19.4277C89.3938 18.9587 89.1789 18.3586 89.1911 17.7415C89.189 17.4568 89.2717 17.178 89.4286 16.9405C89.5854 16.7029 89.8094 16.5174 90.072 16.4076C90.748 16.0582 91.3297 15.5509 91.7678 14.9287C92.206 14.3066 92.4876 13.5879 92.5888 12.8337C92.7399 11.8376 92.5791 10.8191 92.1286 9.91786C91.678 9.01668 90.9596 8.27696 90.072 7.80015C88.2563 6.59175 86.2717 5.65881 84.1827 5.03169C82.7434 4.58638 81.2705 4.25813 79.7783 4.05014C79.3823 4.77256 78.8627 5.41995 78.2431 5.9629C77.5887 6.56693 77.035 6.84377 76.6072 6.7431C75.4174 5.9149 74.35 4.92366 73.436 3.79846C71.6956 2.07613 69.3871 1.04715 66.9427 0.904152C64.6905 0.791692 62.4407 1.16952 60.3487 2.01154C58.738 2.81691 58.738 3.67262 60.3487 4.52833C65.181 7.32196 67.4461 9.56191 67.1692 10.8958C66.8513 12.1061 66.1654 13.1878 65.2061 13.9915C64.5233 14.7574 63.6574 15.3376 62.6893 15.6777C61.8287 15.5968 61.0085 15.2739 60.3235 14.7465C59.5581 14.262 58.7685 13.8168 57.9578 13.4126C57.5551 13.4126 57.3286 13.4126 57.3286 13.6643C57.3215 14.0819 57.2272 14.4934 57.0517 14.8723C56.8181 15.2551 56.5072 15.5849 56.1388 15.8406C55.7704 16.0963 55.3527 16.2722 54.9124 16.3572C54.502 16.5188 54.0583 16.578 53.6198 16.5298C53.1814 16.4815 52.7612 16.3273 52.3957 16.0804C52.0553 15.7605 51.8334 15.3346 51.7665 14.8723C51.6422 14.2513 51.4825 13.6379 51.2883 13.0351C51.0833 12.2519 50.6676 11.5398 50.0863 10.9763C49.505 10.4128 48.7804 10.0194 47.9913 9.83875C45.5852 9.33076 43.1177 9.17813 40.6674 9.38573C38.3796 9.28154 36.1005 9.73046 34.0231 10.6945C32.362 11.8522 31.6825 12.8841 31.9845 13.8153C32.2865 14.7465 33.7462 15.5015 36.263 15.8287C37.7848 16.0062 39.2655 16.4402 40.6423 17.1123C42.0768 17.8673 42.555 18.6475 42.0265 19.6291C41.498 20.6106 41.0198 20.1324 39.8117 20.1324C38.6037 20.1324 37.8486 20.4596 37.5466 21.114C37.2446 21.7683 37.5466 21.8438 38.2765 22.2717C38.837 22.6117 39.3675 22.999 39.862 23.4294C40.265 23.9451 40.4703 24.5878 40.4409 25.2415C40.4409 25.9965 40.0382 26.3489 39.3839 26.3489C38.7752 26.3538 38.176 26.1975 37.6473 25.8959L36.1875 24.8892C35.6842 25.1408 35.4073 25.4429 35.3822 25.8204C35.3927 26.2294 35.4869 26.632 35.659 27.0033C35.8773 27.6264 35.9409 28.2933 35.8445 28.9465C35.748 29.5997 35.4944 30.2198 35.1053 30.7533C34.5741 31.6728 33.7368 32.3766 32.7395 32.7415C32.0248 32.8206 31.3019 32.7139 30.6405 32.4317C29.9791 32.1495 29.4018 31.7015 28.9643 31.1308L25.9694 28.2113C25.1287 27.427 24.1688 26.7814 23.1254 26.2986C19.966 25.2782 16.6052 25.0449 13.3351 25.619C12.4438 25.7205 11.616 26.13 10.9945 26.7767C10.4041 27.3604 9.97868 28.0897 9.76125 28.8909C9.51757 29.5831 9.51757 30.3379 9.76125 31.0301C9.88376 31.3406 10.0944 31.6084 10.3671 31.8007C10.6399 31.993 10.9629 32.1013 11.2965 32.1123H15.0465L18.6958 31.7852C21.2126 31.7852 22.4207 32.5905 22.32 34.5285C24.4008 34.9314 26.336 35.8836 27.9247 37.2865C29.5135 38.6894 30.6979 40.4917 31.3553 42.5067C31.8743 44.1309 32.029 45.8495 31.8083 47.5403C31.6555 48.9428 31.2097 50.2976 30.4996 51.5168C29.7068 52.7075 28.5634 53.6222 27.2278 54.1343C25.9804 54.6569 24.6213 54.856 23.2764 54.7131C21.9842 54.5934 20.7447 54.1427 19.6774 53.4044C18.6256 52.7204 17.8499 51.6862 17.4878 50.4849C17.3675 49.8846 17.0584 49.3385 16.6056 48.9264C16.1527 48.5143 15.58 48.2579 14.971 48.1946C13.8473 48.1408 12.7246 48.3207 11.674 48.7232C11.1381 49.1624 10.6714 49.68 10.2898 50.2584C9.92126 50.7088 9.46167 51.0761 8.94118 51.3364C8.42068 51.5966 7.85103 51.7439 7.26962 51.7685L1.35516 52.5235C0.650467 52.5235 0.549805 53.4547 1.12866 55.0403H1.22932Z" fill="#664497"/>
<path fill-rule="evenodd" clip-rule="evenodd" d="M70.2896 120.023C69.8559 119.493 69.2922 119.086 68.6537 118.84C68.0896 119.091 67.5503 119.394 67.0429 119.746C66.0827 120.358 64.9596 120.665 63.8215 120.627L61.5815 120.249C60.8552 120.062 60.0931 120.062 59.3667 120.249C58.8035 120.483 58.2971 120.835 57.8818 121.281C57.3808 121.713 56.933 122.203 56.5479 122.741C56.3031 123.193 56.2123 123.713 56.2895 124.222C56.3668 124.731 56.6077 125.2 56.9758 125.56C57.9268 126.71 59.2731 127.464 60.751 127.674L65.256 127.951C67.0988 127.981 68.8892 127.337 70.2896 126.139C70.8831 125.624 71.3153 124.948 71.534 124.194C71.7528 123.439 71.7489 122.638 71.5228 121.885C71.2985 121.192 70.8999 120.568 70.3651 120.073L70.2896 120.023Z" fill="#664497"/>
<path fill-rule="evenodd" clip-rule="evenodd" d="M94.9562 2.24219C93.8991 2.24219 93.3706 2.56937 93.3454 3.22374C93.4493 3.93817 93.6794 4.62845 94.025 5.26233C94.3579 5.9283 94.7907 6.5394 95.3085 7.07442L96.8941 8.60966C97.8514 9.68489 98.7503 10.8107 99.5871 11.9822C100.249 13.0226 101.27 13.7839 102.456 14.1214H106.131C106.582 13.8598 106.965 13.4956 107.249 13.0583C107.533 12.6211 107.711 12.1231 107.767 11.6046C107.885 10.7615 107.885 9.90587 107.767 9.06269C107.767 7.80429 107.59 7.07442 107.238 6.87308C106.696 6.54196 106.084 6.34361 105.451 6.29422C104.811 6.23005 104.179 6.10361 103.564 5.9167L102.028 4.68347C101.202 3.90922 100.2 3.34774 99.1089 3.04756C97.7282 2.57722 96.2875 2.30604 94.8303 2.24219H94.9562Z" fill="#664497"/>
<path fill-rule="evenodd" clip-rule="evenodd" d="M21.1113 102.458L20.5325 102.156C20.4066 102.156 20.2304 102.156 19.9788 102.483C19.6662 102.687 19.3276 102.848 18.9721 102.962C18.6305 103.076 18.3143 103.256 18.0408 103.49C17.7316 103.919 17.5653 104.434 17.5653 104.962C17.5653 105.491 17.7316 106.006 18.0408 106.435C18.6474 107.597 19.4188 108.665 20.3311 109.606C21.2665 110.664 22.3519 111.58 23.5526 112.324C24.5499 112.873 25.6948 113.093 26.8244 112.953C28.0045 112.837 29.1547 112.513 30.2221 111.997C30.8064 111.719 31.3156 111.304 31.707 110.789C31.9708 110.515 32.169 110.184 32.2867 109.822C32.4044 109.461 32.4385 109.077 32.3865 108.7C32.0845 107.492 31.0275 106.611 29.2154 106.183C27.6585 105.777 26.0784 105.466 24.4838 105.252C23.7479 105.076 23.087 104.67 22.5962 104.094C22.1304 103.539 21.6258 103.018 21.0862 102.534L21.1113 102.458Z" fill="#664497"/>
<path fill-rule="evenodd" clip-rule="evenodd" d="M2.0625 70.2135C1.58432 70.4148 1.40814 70.9937 1.58432 71.8745L2.16318 73.9131C2.52839 74.8409 3.19265 75.6203 4.05077 76.1279C4.93056 76.6545 5.77162 77.2433 6.56756 77.8897C7.92537 78.9822 9.50606 79.7639 11.1985 80.1799C13.4887 80.784 14.8478 80.3058 15.326 78.7454C15.6406 77.1038 15.4016 75.4043 14.6465 73.9131C14.1542 72.5429 13.3433 71.3094 12.2807 70.3141C11.8577 70.0591 11.3616 69.9528 10.8713 70.0121L9.46186 70.2386C8.13556 70.6016 6.73614 70.6016 5.40984 70.2386H2.16318L2.0625 70.2135Z" fill="#664497"/>
<path fill-rule="evenodd" clip-rule="evenodd" d="M2.33673 38.2051C2.07541 38.2896 1.84728 38.4541 1.68467 38.6755C1.52206 38.8968 1.43321 39.1637 1.43068 39.4383C1.34648 39.9585 1.44426 40.4919 1.70753 40.9484L2.05988 41.2756L2.4374 41.6279C2.47449 41.751 2.47449 41.8823 2.4374 42.0054V42.3578C2.93281 42.8502 3.53594 43.2207 4.19915 43.44C4.80252 43.7258 5.48071 43.8139 6.13708 43.6917C6.57523 43.6311 6.97683 43.4145 7.2681 43.0816C7.55937 42.7487 7.72077 42.3219 7.72266 41.8796C7.69802 41.1183 7.50914 40.3714 7.16896 39.69C6.96762 39.1027 6.28809 38.6497 5.13037 38.3309L2.13538 38.2051H2.33673Z" fill="#664497"/>
<path fill-rule="evenodd" clip-rule="evenodd" d="M54.5407 33.0917C53.8053 31.6884 52.8054 30.4406 51.596 29.4172C50.1363 28.2343 49.3309 28.6621 49.0792 30.7259C48.8276 32.7897 47.6195 33.9474 45.0272 35.0548L42.3091 36.1622C41.4534 36.59 41.0003 37.0682 40.9248 37.5968C40.8764 37.9565 40.9151 38.3226 41.0378 38.6642C41.1604 39.0059 41.3634 39.313 41.6295 39.5599C42.2074 40.0627 42.8615 40.4705 43.5675 40.7679C44.2766 41.0936 44.9511 41.4899 45.5809 41.9508C45.8688 42.1631 46.103 42.4398 46.2647 42.7588C46.4264 43.0779 46.5111 43.4304 46.5121 43.7881C46.4898 44.36 46.297 44.9122 45.9584 45.3736L44.9769 46.5817C44.6228 47.0163 44.4512 47.5714 44.4981 48.13C44.5451 48.6886 44.8069 49.2072 45.2285 49.5767C45.9333 50.4072 45.8577 50.9861 45.0272 51.3384C43.9015 51.634 42.743 51.7863 41.5792 51.7914L37.7285 52.0683C36.5456 52.32 36.0423 52.773 36.2436 53.4022L37.1245 55.919C37.4489 56.8465 37.6602 57.8099 37.7537 58.7881C37.8128 59.2908 37.7696 59.8002 37.6265 60.2857C37.4835 60.7712 37.2437 61.2228 36.9216 61.6131C36.5994 62.0035 36.2016 62.3246 35.752 62.5571C35.3024 62.7896 34.8104 62.9287 34.3057 62.966C32.6698 63.3435 32.1412 64.1992 32.7453 65.4828L35.0607 68.8805C35.5433 69.6863 35.964 70.5277 36.3191 71.3972L37.2 73.6372C37.4859 74.3424 37.9368 74.9687 38.5149 75.4636C39.0929 75.9585 39.7813 76.3074 40.5221 76.4812C41.348 76.6626 42.0756 77.1477 42.5607 77.8402C42.7674 78.1004 42.9205 78.3989 43.0112 78.7186C43.102 79.0382 43.1285 79.3727 43.0893 79.7026C42.8543 80.4292 42.4968 81.1101 42.0322 81.7161C41.5416 82.2899 41.2425 83.0026 41.1765 83.7547C41.1765 84.9124 41.9315 85.9191 43.492 86.8252C46.0349 88.0529 48.8226 88.6896 51.6464 88.6876C52.6279 88.6876 52.9551 89.4678 52.6027 90.9024L52.0239 92.941C51.8234 93.6474 51.6969 94.3728 51.6464 95.1054C51.6464 95.8604 52.4517 96.8671 54.1632 98.0752C55.8746 99.2833 56.6799 100.365 56.8309 101.322C56.9819 103.033 57.4853 104.015 58.3662 104.267H59.7253H61.336L67.0239 104.468C69.0374 104.694 70.2203 105.374 70.5978 106.456C70.9753 107.538 72.1834 108.369 74.2723 108.973C75.0396 109.282 75.8768 109.375 76.6931 109.242C77.5094 109.109 78.2738 108.754 78.9032 108.218C79.7748 107.292 80.8527 106.585 82.0492 106.154L85.1197 105.424C86.125 104.925 87.0923 104.353 88.014 103.713C89.4989 102.807 90.2287 102.555 90.2287 102.983C90.2287 105.022 90.6314 106.305 91.4368 106.884C93.3414 107.562 95.4215 107.562 97.3261 106.884C97.9644 105.945 98.8303 105.183 99.8429 104.669C100.782 104.314 101.75 104.045 102.737 103.864C103.54 103.711 104.302 103.394 104.977 102.933C105.344 102.618 105.644 102.234 105.861 101.801C106.077 101.369 106.204 100.898 106.236 100.416C106.31 99.0599 106.852 97.7718 107.77 96.7711C108.688 95.7705 109.925 95.1195 111.269 94.9292L114.667 94.5014C115.634 94.341 116.519 93.8627 117.184 93.1423C117.796 92.3832 118.289 91.5343 118.643 90.6255C119.197 89.2664 119.046 88.3352 118.165 87.8822C117.284 87.4292 116.856 86.4476 117.486 85.2144L118.291 83.6288C118.547 83.0879 118.618 82.4775 118.492 81.8923L117.561 79.3755C117.208 78.5777 116.987 77.7276 116.907 76.8587C116.893 75.9983 117.047 75.1434 117.36 74.3419C117.518 74.0527 117.751 73.8112 118.034 73.643C118.317 73.4747 118.641 73.3858 118.97 73.3855C122.393 73.1338 124.256 71.9509 124.583 69.862L124.759 67.1439C124.819 66.2052 125.201 65.3161 125.841 64.6271C127.125 63.3687 126.848 61.3804 125.061 58.6875C124.441 57.7587 123.706 56.9129 122.871 56.1707C122.091 55.4408 121.563 55.1388 121.286 55.2143C119.247 55.7931 117.913 55.2143 117.284 53.5029C116.941 52.2923 116.788 51.0356 116.831 49.778V45.2981C116.605 41.6236 115.321 39.8115 112.955 39.9122C112.301 39.9186 111.661 39.7274 111.118 39.3636C110.574 38.9999 110.153 38.4806 109.91 37.8736C109.107 36.1104 108.819 34.1559 109.079 32.236C109.185 31.5343 109.442 30.8643 109.835 30.2729C110.1 29.8749 110.312 29.4432 110.464 28.9893C110.464 28.184 108.45 27.7813 104.449 27.7813C100.447 27.7813 98.207 28.0833 97.6281 28.6873C97.1473 29.2293 96.564 29.6707 95.9117 29.986C95.2594 30.3014 94.5511 30.4844 93.8277 30.5246C93.5598 30.558 93.2877 30.5293 93.0326 30.4408C92.7774 30.3523 92.5461 30.2063 92.3563 30.0141C92.1666 29.822 92.0236 29.5887 91.9383 29.3325C91.8531 29.0763 91.8279 28.8038 91.8647 28.5363C91.8647 27.6806 91.2355 27.0766 89.9771 26.6739C88.8044 26.2929 87.5327 26.3556 86.4032 26.8501C85.1853 27.3912 83.8283 27.5365 82.5234 27.2656C81.2185 26.9947 80.0316 26.3212 79.1297 25.34L76.6129 22.8232C76.0402 22.1322 75.317 21.5813 74.4988 21.2125C73.6213 20.9181 72.6767 20.8876 71.782 21.1247C70.8873 21.3618 70.0818 21.8561 69.4652 22.5464C67.751 24.6611 66.4452 27.0764 65.6145 29.6689C65.1708 30.8864 64.4406 31.9793 63.4857 32.8554C62.5308 33.7315 61.3791 34.365 60.1279 34.7024C59.0757 35.0681 57.9416 35.1292 56.8561 34.8786C56.3525 34.7618 55.8793 34.54 55.4673 34.2277C55.0553 33.9154 54.7138 33.5198 54.4652 33.0665L54.5407 33.0917Z" fill="#51308E"/>
<path fill-rule="evenodd" clip-rule="evenodd" d="M65.9591 123.752C65.1781 123.359 64.3167 123.152 63.4423 123.148L60.4977 122.695C59.2141 122.519 58.4591 122.695 58.2578 122.921C57.5782 123.953 57.9809 124.935 59.4407 125.841C60.9499 126.761 62.7132 127.175 64.4742 127.024C65.3672 127.037 66.2436 126.783 66.991 126.294C67.1936 126.151 67.3365 125.939 67.3922 125.697C67.4479 125.456 67.4126 125.202 67.293 124.985C66.9904 124.424 66.5005 123.988 65.9088 123.752H65.9591Z" fill="#51308E"/>
<path fill-rule="evenodd" clip-rule="evenodd" d="M22.8742 110.537C23.5617 111.013 24.3784 111.268 25.2148 111.267C26.0947 111.135 26.9458 110.854 27.7316 110.436L28.7131 110.134C28.9396 109.958 28.99 109.555 28.7131 108.926C28.6166 108.331 28.3094 107.79 27.8475 107.402C27.3855 107.013 26.7996 106.804 26.1963 106.812L22.1946 106.384C20.307 105.906 19.401 106.183 19.4765 107.19C19.552 108.196 20.6594 109.304 22.698 110.537H22.8742Z" fill="#51308E"/>
<path fill-rule="evenodd" clip-rule="evenodd" d="M13.2348 75.1502C13.1985 74.7681 13.0753 74.3994 12.8746 74.0722C12.674 73.7451 12.4012 73.4681 12.077 73.2626C11.8505 73.0864 11.2213 73.0864 10.2398 73.2626L8.45287 73.4136C7.93503 73.1059 7.35899 72.909 6.76116 72.8354C6.16333 72.7618 5.55672 72.813 4.9797 72.9858C4.19949 73.2878 3.92265 73.7408 4.09882 74.37C4.21747 74.7266 4.43358 75.043 4.72269 75.2832C5.01181 75.5233 5.36238 75.6778 5.73473 75.7291C6.57098 75.8594 7.36931 76.1684 8.07535 76.6351C8.75557 77.2819 9.65363 77.6501 10.5921 77.667C10.9493 77.6773 11.3048 77.6158 11.6377 77.4861C11.9706 77.3564 12.2741 77.1612 12.5301 76.9119C12.7708 76.7039 12.9614 76.4442 13.0878 76.1523C13.2141 75.8603 13.273 75.5436 13.2599 75.2257L13.2348 75.1502Z" fill="#51308E"/>
<path fill-rule="evenodd" clip-rule="evenodd" d="M3.7714 40.041C3.64274 40.0826 3.5301 40.1629 3.44898 40.2711C3.36786 40.3793 3.32223 40.5099 3.31837 40.645C3.22633 40.9142 3.22633 41.2064 3.31837 41.4756L3.49455 41.6266L3.6959 41.8028V42.0041V42.2055C3.93185 42.4689 4.23707 42.6607 4.57677 42.7591L5.60865 42.885C5.83322 42.8544 6.03892 42.7429 6.18719 42.5715C6.33545 42.4 6.4161 42.1804 6.41402 41.9538C6.41564 41.5513 6.3207 41.1543 6.13717 40.7961C6.13717 40.5192 5.65898 40.2927 5.05495 40.1165H3.51972L3.7714 40.041Z" fill="#51308E"/>
<path fill-rule="evenodd" clip-rule="evenodd" d="M51.1437 81.2627C53.0273 85.5543 55.7091 89.4488 59.0465 92.7393C62.3837 96.0847 66.3193 98.7739 70.6489 100.667C75.027 102.56 79.7465 103.537 84.5164 103.536C89.2293 103.536 93.891 102.559 98.2077 100.667C102.412 98.8288 106.216 96.1871 109.407 92.8903C112.624 89.5839 115.186 85.6984 116.958 81.4389C118.791 77.0281 119.732 72.2977 119.726 67.521C119.937 62.8488 119.21 58.1816 117.589 53.7945C115.968 49.4073 113.486 45.3888 110.288 41.9756C106.985 38.621 103.018 35.9929 98.641 34.2594C94.2638 32.5259 89.573 31.7251 84.8687 31.9085C80.0933 31.915 75.3653 32.8554 70.9509 34.6769C66.6221 36.4447 62.6616 39.0054 59.273 42.2273C55.8878 45.4171 53.1603 49.239 51.2444 53.4774C49.2742 57.8165 48.2613 62.529 48.2746 67.2945C48.2728 72.0886 49.2759 76.8298 51.2192 81.2124L51.1437 81.2627Z" fill="#3E4E57"/>
<path fill-rule="evenodd" clip-rule="evenodd" d="M93.7233 93.8516C97.4654 93.9267 101.193 93.365 104.747 92.1905C108.113 90.9179 111.156 88.9152 113.656 86.3264C106.329 85.4629 98.9615 84.9756 91.584 84.8667C80.3088 84.4976 72.4984 84.4976 68.1527 84.8667C71.4263 87.7525 75.2184 89.9902 79.3272 91.4607C83.9349 93.1609 88.8121 94.0135 93.7233 93.9775V93.8516Z" fill="#ED8599"/>
<path fill-rule="evenodd" clip-rule="evenodd" d="M53.8312 43.6113C52.3802 46.1366 51.4475 48.9259 51.0879 51.8161C50.5973 55.1573 50.6398 58.5553 51.2137 61.8832C51.6548 65.5452 52.9099 69.0621 54.8871 72.1759C56.8642 75.2897 59.5133 77.9215 62.6399 79.8783C65.3168 81.5804 68.4037 82.5282 71.5745 82.6216C74.4947 82.6696 77.3763 81.9493 79.9303 80.5326C82.5594 79.1343 84.8127 77.1228 86.4991 74.6685C88.3413 72.0603 89.5872 69.0787 90.1484 65.9353C86.8514 63.5695 82.9001 60.9017 78.244 57.806C70.4049 52.5927 62.2612 47.8526 53.8563 43.6113H53.8312Z" fill="white"/>
<path fill-rule="evenodd" clip-rule="evenodd" d="M110.283 57.1847L100.82 66.4213C100.726 68.606 101.131 70.7834 102.003 72.7888C102.813 75.0202 104.102 77.0474 105.778 78.7284C106.459 79.5163 107.301 80.1486 108.248 80.5828C109.194 81.0171 110.223 81.2429 111.264 81.2452C112.552 81.0704 113.785 80.6146 114.877 79.91C115.969 79.2054 116.892 78.2693 117.582 77.168C120.906 72.6351 122.831 67.2282 123.119 61.6143C123.66 56.2612 122.936 50.8557 121.004 45.834C117.684 49.8488 114.102 53.6406 110.283 57.1847Z" fill="white"/>
<path fill-rule="evenodd" clip-rule="evenodd" d="M73.0585 84.6695C72.9507 86.349 73.0097 88.0352 73.2347 89.7031C73.2651 91.2049 73.5023 92.6955 73.9394 94.1326C75.0917 93.0321 76.0154 91.715 76.6576 90.2568C77.5961 88.4935 78.2421 86.5895 78.5703 84.6191L73.0585 84.6695Z" fill="white"/>
<path fill-rule="evenodd" clip-rule="evenodd" d="M106.512 85.7168V89.8947C106.448 91.1019 106.448 92.3116 106.512 93.5188C107.706 92.2955 108.714 90.9051 109.507 89.3913C110.129 88.3539 110.627 87.2474 110.992 86.0943L106.462 85.7168H106.512Z" fill="white"/>
<path fill-rule="evenodd" clip-rule="evenodd" d="M100.887 6.99805C100.526 7.00249 100.173 7.10269 99.8636 7.28841C99.554 7.47413 99.2994 7.73871 99.1256 8.0551C98.6474 8.73463 98.5971 9.23799 98.9494 9.56517L100.61 11.6541C101.032 12.31 101.675 12.7924 102.423 13.0132H104.713C105.004 12.8476 105.252 12.6153 105.436 12.3352C105.619 12.0552 105.734 11.7355 105.77 11.4024C105.939 10.7779 105.903 10.1155 105.668 9.5129C105.432 8.91027 105.009 8.39924 104.461 8.0551C103.399 7.36917 102.151 7.02651 100.887 7.07355V6.99805Z" fill="#51308E"/>
<path fill-rule="evenodd" clip-rule="evenodd" d="M18.6964 56.2532C17.0411 55.8528 15.4489 55.2261 13.9649 54.3908C13.4969 53.9654 12.8859 53.7317 12.2534 53.7364C11.9514 53.7364 11.6997 54.0636 11.5236 54.5669L10.9699 56.2028C10.7199 56.8398 10.3232 57.4089 9.81215 57.8639C9.28363 58.317 9.33396 58.9965 9.93799 59.9025C10.6344 60.8302 11.4858 61.6306 12.4548 62.2683C13.2991 62.9224 14.2796 63.3783 15.3239 63.6022C16.23 63.7281 16.6578 63.3757 16.6327 62.52C16.6075 61.6643 17.0102 61.2113 17.891 60.9596L20.5588 60.8086L22.824 60.5821C23.3021 60.3304 23.2518 59.7767 22.6729 58.8958C21.6892 57.6341 20.304 56.7462 18.7468 56.379L18.6964 56.2532Z" fill="#51308E"/>
<path fill-rule="evenodd" clip-rule="evenodd" d="M26.3229 89.7469C24.4536 90.3274 22.5156 90.6574 20.5595 90.7285C17.8665 90.7285 17.1618 91.6094 18.4202 93.2453C18.983 93.9059 19.6453 94.4748 20.3833 94.9315C21.0078 95.3558 21.7087 95.655 22.4471 95.8124C23.1004 95.8647 23.7569 95.8647 24.4102 95.8124C25.1055 95.7608 25.8038 95.7608 26.4991 95.8124C27.4284 95.9645 28.3115 96.324 29.0827 96.8643C29.8539 97.4046 30.4935 98.1118 30.9538 98.9332C32.6317 101.635 33.7643 102.289 34.3515 100.896C34.5602 100.225 34.6952 99.533 34.7542 98.8325C34.7967 98.2842 34.9066 97.7432 35.0814 97.2218C35.7785 96.4101 36.6352 95.7504 37.5982 95.2839C38.63 94.7553 39.0831 94.0758 38.9824 93.2201C38.7055 91.3577 37.9757 90.4013 36.7928 90.3006C36.3514 90.2864 35.9125 90.3724 35.5092 90.5523C35.2193 90.6788 34.9739 90.8892 34.8045 91.1563C34.4522 91.8359 33.521 92.0875 32.0109 91.8862C30.7167 91.7854 29.5019 91.2226 28.5881 90.3006C28.3187 89.9536 27.9354 89.7129 27.5058 89.6211L26.2223 89.8224L26.3229 89.7469Z" fill="#51308E"/>
<path fill-rule="evenodd" clip-rule="evenodd" d="M70.0188 16.8342C70.3009 17.055 70.624 17.2179 70.9693 17.3134C71.3147 17.4089 71.6755 17.4351 72.031 17.3907C72.3865 17.3463 72.7297 17.232 73.0409 17.0544C73.3521 16.8768 73.6252 16.6395 73.8443 16.356C74.1966 15.903 75.0524 15.8778 76.3611 16.356C76.8652 16.5782 77.4167 16.6716 77.9659 16.6276C78.515 16.5837 79.0447 16.4039 79.5071 16.1043C80.4721 15.3586 81.6033 14.8578 82.8041 14.6446C84.0625 14.4181 84.8427 14.4936 85.3209 14.8963C85.799 15.299 85.8242 15.1983 85.8242 14.5943C85.7741 13.8252 85.5318 13.081 85.1195 12.4298C84.9512 11.9444 84.6796 11.5014 84.3233 11.1312C83.967 10.7611 83.5346 10.4727 83.056 10.2861C82.5774 10.0994 82.0639 10.0189 81.5511 10.0501C81.0383 10.0813 80.5384 10.2234 80.0859 10.4667L77.1916 10.7436C75.7727 10.512 74.476 9.80139 73.5171 8.73016C72.5693 7.76177 71.3783 7.0663 70.0691 6.71672C68.7856 6.38954 68.1564 6.54055 68.1564 7.16975C68.3046 7.90461 68.6236 8.59431 69.0876 9.18318C69.5808 9.74041 69.9193 10.4173 70.0691 11.1463L70.2201 12.9332C70.2201 13.6127 69.4902 14.2923 68.3325 14.9466C68.1312 14.9466 68.2067 15.3241 68.5087 15.7268C68.8866 16.1796 69.348 16.5555 69.8678 16.8342H70.0188Z" fill="#51308E"/>
<path fill-rule="evenodd" clip-rule="evenodd" d="M75.8532 89.9003C81.154 88.6631 86.569 87.9799 92.011 87.8617C97.4021 87.7785 102.757 88.7621 107.766 90.756C109.895 89.5597 111.844 88.0685 113.555 86.3264C106.227 85.4629 98.86 84.9756 91.4824 84.8667C80.2072 84.4976 72.3968 84.4976 68.0511 84.8667C70.3712 86.8952 72.9634 88.5894 75.7525 89.9003H75.8532Z" fill="#CE7486"/>
<path fill-rule="evenodd" clip-rule="evenodd" d="M62.7856 61.8832C62.3312 57.7171 63.3267 53.5218 65.6044 50.004C61.3511 47.4872 57.4249 45.3731 53.8259 43.6113C52.3664 46.1391 51.4093 48.9251 51.0071 51.8161C50.4877 55.1517 50.4877 58.5476 51.0071 61.8832C51.4063 65.5392 52.6281 69.0574 54.5808 72.1739C56.5335 75.2904 59.1665 77.9244 62.2823 79.8783C64.3479 81.2514 66.6906 82.1528 69.1439 82.5182C71.5972 82.8835 74.1009 82.704 76.477 81.9924C81.237 80.5341 85.2722 77.3347 87.7773 73.0326C84.4785 75.1037 80.5734 75.9912 76.7035 75.5494C73.2331 75.0963 70.002 73.5337 67.492 71.0947C64.9156 68.6625 63.2763 65.4019 62.8611 61.8832H62.7856Z" fill="#DBDCDC"/>
<path fill-rule="evenodd" clip-rule="evenodd" d="M71.3029 100.494C75.5037 102.177 79.9905 103.032 84.516 103.011C90.486 103.03 96.3583 101.495 101.555 98.556C88.5177 101.576 77.1083 99.999 67.3264 93.8244C58.647 88.1516 52.0689 79.7875 48.6014 70.0156C48.9293 74.5593 50.1614 78.9916 52.2256 83.0526C54.1985 87.0032 56.8767 90.5599 60.1283 93.5476C63.4022 96.5454 67.1869 98.9321 71.3029 100.595V100.494Z" fill="#27333A"/>
<path fill-rule="evenodd" clip-rule="evenodd" d="M110.635 81.3425C113.428 81.3425 116.071 79.4045 118.487 75.5287C120.395 72.7284 121.627 69.5235 122.086 66.1662C121.275 67.8087 119.997 69.1747 118.411 70.0924C116.812 71.0942 114.963 71.6262 113.076 71.6277C111.135 71.6595 109.251 70.9688 107.791 69.6897C105.965 68.01 104.751 65.7693 104.343 63.3223C103.286 64.472 102.114 65.5094 100.844 66.4179C100.697 69.7632 101.575 73.0737 103.361 75.9062C105.475 79.5304 107.891 81.3425 110.584 81.3425H110.635Z" fill="#DBDCDC"/>
<path fill-rule="evenodd" clip-rule="evenodd" d="M106.512 85.7168V89.8947C106.448 91.1019 106.448 92.3116 106.512 93.5188C107.706 92.2955 108.714 90.9051 109.507 89.3913C110.129 88.3539 110.627 87.2474 110.992 86.0943L106.462 85.7168H106.512Z" fill="white"/>
<path fill-rule="evenodd" clip-rule="evenodd" d="M73.0585 84.6695C72.9507 86.349 73.0097 88.0352 73.2347 89.7031C73.2651 91.2049 73.5023 92.6955 73.9394 94.1326C75.0917 93.0321 76.0154 91.715 76.6576 90.2568C77.5961 88.4935 78.2421 86.5895 78.5703 84.6191L73.0585 84.6695Z" fill="white"/>
<path fill-rule="evenodd" clip-rule="evenodd" d="M106.508 85.7168V87.7302C107.123 87.3195 107.86 87.1329 108.596 87.2017C109.244 87.291 109.84 87.6024 110.283 88.0826L111.113 86.2201L106.583 85.8426L106.508 85.7168Z" fill="#DBDCDC"/>
<path fill-rule="evenodd" clip-rule="evenodd" d="M73.0638 84.668V86.7569C73.8652 86.271 74.7963 86.0426 75.7316 86.1025C76.6539 86.0524 77.5586 86.369 78.2484 86.9834C78.4474 86.2203 78.607 85.4475 78.7266 84.668H73.0638Z" fill="#DBDCDC"/>
<path fill-rule="evenodd" clip-rule="evenodd" d="M1.93628 55.7473C1.13091 53.91 0.979904 52.9537 1.50842 52.8782L7.42288 52.1483C8.33092 52.0918 9.20401 51.7775 9.93967 51.2422C10.3902 50.8581 10.7804 50.4084 11.0974 49.9083C11.2681 49.5529 11.5394 49.2553 11.8776 49.0526C12.591 48.8256 13.3241 48.6655 14.0672 48.5744C14.7181 48.4839 15.3814 48.5799 15.98 48.8513C16.3076 49.0328 16.5906 49.2852 16.8083 49.5899C17.026 49.8947 17.1729 50.2443 17.2384 50.613C17.6029 51.7854 18.3354 52.8091 19.3273 53.5325C20.4097 54.3632 21.6969 54.885 23.0521 55.0426C24.4605 55.2568 25.9003 55.1007 27.23 54.5896C28.7484 54.041 30.0294 52.9824 30.8542 51.5946C31.8361 49.9001 32.3243 47.9648 32.2636 46.0073C32.268 44.508 31.9861 43.0217 31.4331 41.6281C30.8229 40.1584 29.9046 38.8367 28.7401 37.7523C27.0156 36.1667 24.9354 35.0187 22.6746 34.4049C22.6998 34.0235 22.6457 33.6409 22.5158 33.2814C22.3858 32.9219 22.1828 32.5932 21.9196 32.316C21.2071 31.7516 20.3096 31.4733 19.4028 31.5358L15.9296 31.7623L11.2484 31.9888C10.998 31.9694 10.7565 31.888 10.5455 31.7517C10.3346 31.6155 10.161 31.4288 10.0403 31.2086C9.88077 30.8886 9.80295 30.5341 9.81384 30.1767C9.80396 29.2648 10.1058 28.3768 10.6695 27.6599C10.9533 27.2374 11.3252 26.8815 11.7597 26.6164C12.1941 26.3514 12.6808 26.1836 13.1863 26.1247C16.2384 25.6141 19.3652 25.7773 22.3475 26.6029C24.3598 27.6025 26.1623 28.9779 27.6579 30.6549L28.5639 31.5358C28.995 32.0849 29.5452 32.5288 30.1731 32.834C30.801 33.1393 31.49 33.2977 32.1881 33.2975C32.8233 33.182 33.4254 32.9283 33.9516 32.5542C34.4779 32.1802 34.9155 31.695 35.2334 31.1331C35.7786 30.4046 36.0861 29.5258 36.1143 28.6163C36.0882 28.0308 35.9692 27.4531 35.7619 26.9049L35.5606 26.0995C35.5741 25.9706 35.6205 25.8473 35.6954 25.7415C35.7704 25.6357 35.8713 25.551 35.9884 25.4955L36.4415 25.8227L37.6244 26.5777C38.1217 26.8041 38.6636 26.9159 39.2099 26.9049C39.4717 26.9227 39.7327 26.8599 39.9577 26.7249C40.1827 26.5899 40.3609 26.3892 40.4683 26.1499C40.6491 25.6941 40.6928 25.1955 40.5942 24.7153C40.4864 24.234 40.2808 23.7799 39.9901 23.3814C39.5982 22.9811 39.1486 22.6418 38.6562 22.3747L37.9012 21.8461C37.6999 21.67 37.6495 21.5441 37.6999 21.4183C37.7733 21.2654 37.8787 21.1301 38.0089 21.0216C38.1392 20.913 38.2913 20.8337 38.4549 20.7891L39.814 20.5877H41.2234C41.4586 20.5172 41.6775 20.4008 41.8675 20.2453C42.0576 20.0898 42.215 19.8983 42.3307 19.6817C42.4667 19.4625 42.5388 19.2098 42.5388 18.9518C42.5388 18.6939 42.4667 18.4411 42.3307 18.222C41.7454 17.3217 40.8498 16.6678 39.814 16.3847C38.6763 15.9271 37.483 15.6225 36.2653 15.4787C35.3051 15.3789 34.3643 15.1416 33.4716 14.774C32.767 14.4468 32.3391 14.0693 32.2636 13.6414C32.1881 13.2136 32.7166 11.9803 34.1763 11.1246C36.2119 10.2028 38.4379 9.78003 40.6697 9.89139C43.0771 9.68778 45.5013 9.83187 47.8677 10.3192C48.8993 10.536 49.8037 11.151 50.3845 12.0307C50.7742 12.7863 51.0619 13.5903 51.2402 14.4216L51.5674 15.6548C51.7641 15.9704 52.0545 16.2168 52.3979 16.3595C52.758 16.616 53.1726 16.7858 53.6091 16.8557C54.0457 16.9255 54.4925 16.8936 54.9147 16.7622C55.4451 16.6624 55.9501 16.457 56.3996 16.1582C56.8258 15.8967 57.1803 15.5335 57.4315 15.1011C57.6313 14.7287 57.7433 14.3155 57.7587 13.8931V13.7421H57.9348C58.5018 13.9771 59.0418 14.2724 59.5456 14.623L61.3325 15.6548C61.7791 15.9231 62.2979 16.0463 62.8174 16.0072C63.8824 15.6828 64.8336 15.0632 65.5607 14.2203C66.5102 13.361 67.1845 12.2402 67.4986 10.9988C67.8007 9.36286 65.46 7.09775 60.4516 4.25378C59.7469 3.82593 59.4198 3.47358 59.5204 3.14639C59.6211 2.81921 60.4013 2.24035 61.7604 1.888C63.4046 1.46768 65.0969 1.26461 66.7939 1.28397C68.5389 1.31601 70.233 1.87776 71.6513 2.89471C72.8764 3.74528 74.0145 4.71475 75.049 5.78902L75.9299 6.6699L76.5088 6.99708C76.8469 7.026 77.187 6.975 77.5018 6.84822C77.8166 6.72143 78.0972 6.52241 78.3208 6.26721C78.9603 5.72359 79.5047 5.07714 79.9316 4.35445C81.3545 4.55599 82.7597 4.86732 84.1346 5.28567C86.1519 5.9908 88.0651 6.96431 89.8226 8.17997C90.5293 8.6323 91.1372 9.22303 91.6095 9.91656C92.0847 10.6127 92.3311 11.4396 92.3142 12.2823C92.2926 13.1073 92.0397 13.9096 91.5843 14.5978C91.1748 15.3078 90.5609 15.8779 89.8226 16.2337C89.4936 16.3689 89.2126 16.5993 89.0153 16.8952C88.818 17.1911 88.7135 17.5391 88.7152 17.8948C88.7203 18.5007 88.9138 19.09 89.2689 19.581C89.6037 20.1189 90.0718 20.5611 90.6279 20.8646C91.0396 21.096 91.5081 21.207 91.9799 21.1847C92.4517 21.1625 92.9077 21.0079 93.2957 20.7388C94.1179 20.2186 94.7471 20.0173 95.1833 20.1347C95.7119 20.4367 95.9887 21.2169 95.9887 22.6515C96.0004 22.9632 96.1083 23.2635 96.2976 23.5114C96.4868 23.7592 96.7482 23.9424 97.0458 24.0357C98.1523 24.3857 99.3286 24.4549 100.469 24.2371C101.555 24.1709 102.594 23.7661 103.438 23.0794C104.65 21.9749 105.965 20.9889 107.365 20.1347C108.89 19.1412 110.508 18.2983 112.197 17.6179C112.595 17.5163 113.012 17.5137 113.411 17.6102C113.81 17.7067 114.18 17.8995 114.487 18.1716C115.466 18.8581 116.317 19.7097 117.004 20.6884C117.583 21.4158 117.956 22.2848 118.086 23.2052C118.077 23.4915 117.99 23.7698 117.834 24.0106L117.356 24.7404C117.004 25.4453 116.709 26.1776 116.475 26.9301C116.466 27.9495 116.717 28.9543 117.205 29.8495C117.595 31.0778 118.34 32.1634 119.345 32.9704C119.648 33.203 120.019 33.3291 120.402 33.3291C120.784 33.3291 121.155 33.203 121.459 32.9704C122.437 32.2204 123.605 31.7584 124.831 31.6365C125.966 31.5313 127.105 31.7962 128.078 32.3915C129.037 32.9856 129.785 33.866 130.217 34.9083C130.689 35.9029 130.856 37.0153 130.695 38.1046C130.515 39.0872 130.211 40.0429 129.789 40.9486L128.38 43.8429C127.597 45.3008 126.924 46.8151 126.366 48.3731C125.889 49.8024 125.889 51.3482 126.366 52.7775C126.522 53.2626 126.777 53.71 127.115 54.0913C127.453 54.4725 127.867 54.7794 128.329 54.9923C129.378 55.373 130.527 55.373 131.576 54.9923C131.954 54.9923 132.356 54.3882 132.809 53.5074C133.262 52.6265 133.615 51.7204 134.244 50.0342L134.949 48.2221C135.452 50.8899 135.905 53.004 136.131 54.5141C136.498 56.6676 136.683 58.8481 136.685 61.0326C136.693 62.6307 136.6 64.2278 136.408 65.8145C136.106 67.3575 135.651 68.8666 135.049 70.3195L133.564 73.8178C133.518 73.9181 133.452 74.0079 133.37 74.0815C133.287 74.1551 133.191 74.211 133.086 74.2457L132.18 74.3967C130.593 74.5502 129.095 75.2021 127.902 76.2591C127.284 76.7642 126.777 77.3916 126.413 78.1019C126.049 78.8122 125.836 79.5901 125.787 80.3867C125.779 80.5697 125.811 80.7524 125.88 80.922C125.95 81.0915 126.056 81.2438 126.19 81.3682L127.549 81.5444H128.657C128.751 81.9331 128.751 82.3386 128.657 82.7273L128.304 83.885C128.112 84.6676 127.816 85.4209 127.423 86.1249L126.945 86.5025H126.215L125.309 86.7038C125.146 86.7863 125.007 86.9119 124.91 87.0672C124.812 87.2224 124.759 87.4014 124.756 87.5847C124.564 89.0108 124.166 90.4013 123.573 91.7122C123.13 93.1888 122.335 94.536 121.257 95.6384C120.609 96.0073 119.903 96.2626 119.168 96.3934C118.022 96.6121 116.918 97.0113 115.897 97.5763C115.315 97.9578 114.825 98.4619 114.46 99.0532C114.095 99.6446 113.863 100.309 113.782 100.999V101.201C113.796 101.529 113.911 101.845 114.11 102.107L114.814 102.962C115.198 103.359 115.536 103.798 115.821 104.271C116.158 104.796 116.334 105.409 116.324 106.033C116.331 106.364 116.288 106.695 116.199 107.014C115.611 109.498 112.801 111.922 107.767 114.288C105.927 115.174 104.016 115.907 102.054 116.477C100.844 116.894 99.582 117.139 98.3041 117.207C96.5927 117.207 95.5608 116.704 95.1582 115.999C94.7456 114.682 94.6002 113.296 94.7303 111.922V111.217C94.7304 111.104 94.703 110.992 94.6504 110.891C94.5978 110.79 94.5216 110.703 94.4283 110.638C93.796 110.325 93.071 110.253 92.3897 110.437L88.5893 111.268L87.8091 111.469C86.4704 111.875 85.246 112.591 84.2353 113.558C83.4551 114.263 82.2722 115.471 80.6363 117.207C80.0887 117.743 79.3824 118.088 78.6229 118.189L75.6782 118.063C74.6737 117.86 73.7117 117.485 72.8342 116.956C72.1842 116.609 71.6635 116.062 71.3493 115.395L71.1228 114.691C70.8059 113.257 70.028 111.966 68.908 111.016C66.3372 109.614 63.4253 108.96 60.502 109.128C60.2255 109.138 59.9539 109.203 59.7031 109.32C59.4523 109.437 59.2276 109.603 59.0422 109.808L57.7335 111.494C57.2834 112.135 56.796 112.748 56.2738 113.331C55.7821 113.905 55.1354 114.324 54.4113 114.539C52.6326 115.039 50.7606 115.108 48.9499 114.741C45.7091 113.739 42.95 111.58 41.1982 108.675C43.4607 109.61 45.9895 109.673 48.2955 108.852C49.413 108.347 50.3079 107.452 50.8123 106.335C51.3902 105.148 51.5753 103.808 51.3409 102.509C51.3016 102.013 51.1553 101.531 50.912 101.096C50.6687 100.662 50.3342 100.285 49.9315 99.9925C48.4069 99.0481 46.6837 98.4708 44.8979 98.3062C43.8601 98.2604 42.8266 98.4652 41.8847 98.9033C40.9429 99.3413 40.1203 99.9998 39.4868 100.823C38.4297 101.98 36.9719 102.691 35.4096 102.811C33.7458 103.087 32.0375 102.831 30.527 102.081C29.8388 101.741 29.2167 101.281 28.6898 100.722L27.6579 99.3129C27.1818 98.4851 26.5391 97.7652 25.7703 97.1988C25.0965 96.7789 24.3238 96.5445 23.5303 96.5193L21.3407 96.6703H18.8239C17.8424 96.4867 16.9539 95.9713 16.3072 95.2106C15.1146 93.7743 14.3552 92.0286 14.1175 90.177C13.6573 88.6468 13.8014 86.9984 14.5202 85.5713C14.9481 84.9672 15.6025 84.8917 16.5085 85.3196C17.945 85.9692 19.473 86.3936 21.0387 86.578L24.9146 86.8045H26.475C26.7171 86.835 26.963 86.81 27.1941 86.7315C27.4252 86.653 27.6354 86.5231 27.8089 86.3515L28.4632 85.2692L28.8659 84.5394C28.9119 84.4787 28.9742 84.4323 29.0454 84.4056C29.1167 84.3789 29.1941 84.3729 29.2686 84.3884C29.4763 84.8873 29.788 85.3362 30.183 85.7051C30.5779 86.074 31.047 86.3544 31.5589 86.5276C32.4744 86.8824 33.4462 87.0699 34.428 87.0813C35.1543 87.1585 35.8875 87.0276 36.5421 86.7038C36.8867 86.494 37.1849 86.2162 37.4186 85.8873C37.6522 85.5585 37.8165 85.1855 37.9012 84.791V83.9102C37.8314 82.5646 37.3675 81.2693 36.5673 80.1853C36.0539 79.5171 35.3392 79.0318 34.5287 78.8011C33.5405 78.474 32.5315 78.2134 31.5086 78.0209C29.9807 77.7013 28.4758 77.2809 27.0035 76.7625C25.414 76.1701 23.9654 75.253 22.7501 74.0695C24.4192 74.3152 26.1229 74.0151 27.6075 73.2138C28.369 72.7508 28.9807 72.0779 29.3693 71.2759C29.6774 70.5988 29.7907 69.8493 29.6965 69.1115C29.6544 68.4668 29.366 67.8631 28.8911 67.4252C27.5856 66.4018 25.9929 65.8122 24.3357 65.739L19.0756 65.89L15.1746 66.0913C14.0388 66.1036 12.9112 65.8985 11.8524 65.4873C11.3662 65.2984 10.9216 65.0162 10.5437 64.6567C10.3416 64.3248 10.2533 63.936 10.292 63.5493C10.3024 63.2207 10.2427 62.8936 10.1169 62.5898C9.99103 62.2861 9.80193 62.0126 9.56215 61.7876C9.01024 61.3592 8.40007 61.0118 7.75006 60.7557C6.65514 60.3028 5.62315 59.7107 4.67958 58.994C3.52621 58.1077 2.58835 56.972 1.93628 55.6718V55.7473ZM0.0738525 52.6265C-0.0496826 53.7584 0.226303 54.898 0.854065 55.848C1.6082 57.3249 2.67279 58.6213 3.97487 59.6483C4.98788 60.3827 6.07625 61.007 7.22154 61.5107C7.95366 61.8152 8.57045 62.3439 8.98329 63.0208C9.15738 63.2659 9.27287 63.5476 9.32088 63.8443C9.36887 64.141 9.3481 64.4448 9.26015 64.7322C9.03363 65.3614 9.73833 65.89 11.3994 66.343C13.9531 66.8995 16.5827 67.0186 19.1763 66.6953C21.8287 66.2854 24.541 66.5273 27.079 67.4C28.9163 68.1802 29.4448 69.4135 28.6898 71.0494C27.9347 72.6853 25.6696 73.7423 22.2971 73.2138C21.9492 73.1301 21.5828 73.1748 21.2652 73.3397C20.9968 73.5242 20.9968 73.8011 21.2652 74.1702C22.5445 75.69 24.2158 76.8303 26.0975 77.4672C26.928 77.744 28.6143 78.1971 31.3324 78.8011L34.2519 79.531C34.9629 79.73 35.5956 80.143 36.0639 80.7138C36.6732 81.563 37.0937 82.5327 37.2972 83.5578C37.3844 84.0321 37.3335 84.5214 37.1505 84.9676C36.9676 85.4138 36.6603 85.798 36.2653 86.0746C35.5461 86.4211 34.7369 86.5354 33.9498 86.4018C33.1785 86.3172 32.4285 86.0956 31.7351 85.7474C31.2761 85.4374 30.8967 85.0235 30.6277 84.5394L29.6965 83.1803C29.1679 82.5259 28.5639 82.9538 27.8844 84.4135L27.23 85.5713C27.0287 85.9739 26.777 86.1501 26.5253 86.1249H24.8642L21.1142 85.8984C19.6191 85.7139 18.16 85.3067 16.7853 84.6904C16.1438 84.3521 15.3999 84.2625 14.6964 84.4387C14.2581 84.5415 13.8677 84.7899 13.589 85.1434C12.718 86.7229 12.4412 88.5621 12.8088 90.328C12.9217 92.3527 13.6703 94.2902 14.9481 95.8649C15.8055 96.6975 16.8605 97.2983 18.0141 97.6109C19.1676 97.9235 20.3816 97.9376 21.5421 97.6518L23.5555 97.5008C24.2348 97.532 24.8942 97.7402 25.4683 98.1049C25.8378 98.3277 26.1622 98.618 26.4246 98.9606L27.1545 99.9673L28.2619 101.503C28.8494 102.119 29.5391 102.63 30.3005 103.013C32.0047 103.842 33.9434 104.055 35.7871 103.617C37.5677 103.414 39.2181 102.584 40.4432 101.276C40.8952 100.638 41.4851 100.11 42.1692 99.7307C42.8532 99.3516 43.6138 99.1314 44.3945 99.0864C46.2508 99.1922 48.0469 99.7822 49.6043 100.798C49.9194 101.022 50.1787 101.315 50.362 101.656C50.5454 101.996 50.6478 102.375 50.6613 102.761C50.8413 103.85 50.674 104.968 50.1831 105.957C49.9084 106.498 49.5288 106.979 49.0665 107.373C48.6042 107.766 48.0684 108.063 47.4902 108.248C45.5882 108.871 43.5212 108.754 41.7016 107.92C39.7385 107.19 39.0589 107.266 39.6126 108.147C43.824 114.741 48.6227 117.375 54.0087 116.05C54.8506 115.824 55.6382 115.43 56.3241 114.892C56.9925 114.344 57.585 113.709 58.0859 113.004L59.4198 111.167C59.9734 110.462 60.4013 110.135 60.7033 110.135C63.3901 109.975 66.0698 110.549 68.455 111.796C69.4294 112.672 70.0994 113.836 70.3678 115.118L70.5691 115.823C70.9665 116.731 71.6232 117.502 72.4567 118.038C73.3548 118.68 74.3736 119.134 75.4517 119.372H79.0507C80.0476 119.304 80.9981 118.925 81.7688 118.29L84.9148 114.615C85.7037 113.63 86.7486 112.881 87.935 112.451L88.7403 112.249C91.9618 111.394 93.7739 111.142 93.9753 111.469C93.7641 113.189 93.8407 114.933 94.2018 116.628C94.6548 117.711 95.9132 118.239 97.977 118.264C99.3418 118.184 100.693 117.948 102.004 117.56C104.067 116.986 106.086 116.262 108.044 115.395C113.38 112.996 116.417 110.269 117.155 107.216C117.41 106.233 117.284 105.19 116.803 104.296C116.363 103.641 115.866 103.026 115.318 102.459L114.688 101.729C114.557 101.556 114.495 101.341 114.512 101.125C114.576 100.576 114.784 100.054 115.116 99.6114C115.447 99.1692 115.891 98.823 116.4 98.6082L119.445 97.9035L120.93 97.526C121.357 97.436 121.761 97.2558 122.113 96.9975C123.283 95.7102 124.075 94.1253 124.403 92.4169C124.891 90.9032 125.22 89.3428 125.385 87.7609C125.4 87.6877 125.434 87.6195 125.482 87.5625C125.53 87.5054 125.592 87.4611 125.662 87.4337H126.392L127.348 87.2827C127.71 87.1482 128.014 86.8896 128.204 86.5528C128.699 85.6648 129.079 84.7177 129.336 83.734C129.789 82.2994 129.865 81.3934 129.588 81.0159C129.311 80.6383 128.883 80.6635 128.128 80.8397C127.634 81.0273 127.087 81.0273 126.593 80.8397C126.442 80.6887 126.392 80.3615 126.593 79.8078L126.87 78.7759C127.24 78.0868 127.756 77.4859 128.38 77.0142C129.587 76.1513 131.004 75.6297 132.482 75.5041L133.917 75.3028C134.155 75.2662 134.383 75.1772 134.583 75.0424C134.783 74.9075 134.951 74.7299 135.074 74.5226C135.561 73.3097 135.965 72.0652 136.283 70.7977C136.758 69.2234 137.12 67.6169 137.365 65.9906L137.742 63.4738C137.874 62.7001 137.95 61.9179 137.969 61.1332C137.939 58.742 137.695 56.3583 137.239 54.0107L135.653 46.9889C135.653 46.41 135.276 46.2842 134.949 46.5862C134.251 47.506 133.731 48.5471 133.413 49.6567C133.027 50.5963 132.65 51.4352 132.281 52.1735C131.777 53.2053 131.4 53.7339 131.173 53.8094C130.301 54.1168 129.36 54.1777 128.455 53.9855C128.083 53.851 127.747 53.6304 127.476 53.3418C127.205 53.0531 127.006 52.7046 126.895 52.3245C126.498 51.0202 126.588 49.6165 127.147 48.3731C127.373 47.7691 128.078 46.3093 129.261 44.0191L130.821 41.0241C131.288 40.0834 131.626 39.0846 131.828 38.0543C132.008 36.7012 131.753 35.3259 131.098 34.1281C130.516 32.8732 129.591 31.8087 128.43 31.0576C127.317 30.4197 126.003 30.2306 124.756 30.5291C123.374 30.8275 122.076 31.4292 120.955 32.2908H119.672C118.795 31.6057 118.152 30.6645 117.834 29.5979C117.481 28.8069 117.309 27.947 117.331 27.0811C117.575 26.3633 117.923 25.6851 118.363 25.0676C118.786 24.4663 119.038 23.7619 119.093 23.029C119.011 21.9501 118.568 20.9304 117.834 20.1347C116.973 19.1643 115.982 18.3173 114.89 17.6179C114.372 17.2682 113.825 16.965 113.254 16.7119C113.027 16.6157 112.783 16.5661 112.537 16.5661C112.29 16.5661 112.046 16.6157 111.819 16.7119C110.121 17.4584 108.495 18.3599 106.962 19.4049C105.562 20.2789 104.239 21.2725 103.011 22.3747C102.277 22.9434 101.411 23.3158 100.494 23.4569C99.485 23.7659 98.4069 23.7659 97.3981 23.4569C96.9954 23.3059 96.7941 23.0542 96.7941 22.7774C96.8178 22.0765 96.7586 21.3754 96.6179 20.6884C96.6007 20.4431 96.5284 20.2048 96.4064 19.9913C96.2844 19.7778 96.1158 19.5946 95.9132 19.4552H94.6045C94.0091 19.5881 93.4394 19.8177 92.9182 20.1347H91.0055C90.556 19.8886 90.1753 19.5338 89.8981 19.1028C89.6187 18.7334 89.4684 18.2824 89.4702 17.8193C89.4842 17.6158 89.5554 17.4204 89.6757 17.2557C89.7959 17.0909 89.9602 16.9635 90.1497 16.8881C90.9229 16.5348 91.6229 16.0397 92.2135 15.4283C92.8836 14.7491 93.3011 13.8609 93.3964 12.9115C93.4555 11.9058 93.2352 10.9032 92.76 10.0149C92.2847 9.12652 91.5729 8.38694 90.7034 7.87796C87.9644 5.87901 84.8986 4.37165 81.643 3.42324L79.9568 3.2219C79.5112 3.35174 79.1216 3.62625 78.8494 4.0021L77.6161 5.58768C77.1631 6.16654 76.8359 6.44339 76.6598 6.39305L75.5775 5.38634C74.5242 4.18509 73.3889 3.05823 72.1799 2.01384C70.7076 0.778728 68.8654 0.0701679 66.945 0.000406567C65.1168 -0.0121947 63.2984 0.268206 61.559 0.830947C59.8224 1.40981 58.8409 2.08934 58.6395 2.84438C58.4382 3.59942 58.8661 4.15311 59.9231 4.78231C61.9959 5.85131 63.8964 7.22572 65.5607 8.85951C66.3158 9.66488 66.6178 10.3444 66.5171 10.8729C66.2302 11.9912 65.6169 12.9988 64.7553 13.7672C64.1563 14.5007 63.3624 15.0503 62.4651 15.3528C61.539 15.1098 60.6791 14.6626 59.9483 14.0441L58.9667 13.3142C58.7275 13.1036 58.4555 12.9336 58.1614 12.8109C57.507 12.5844 57.1043 12.8109 56.9533 13.2136L56.5254 14.6733C56.2782 15.0272 55.9614 15.327 55.5942 15.5542C55.2555 15.8093 54.8711 15.9973 54.4617 16.1079C54.1857 16.1944 53.892 16.2074 53.6095 16.1457C53.327 16.0839 53.0655 15.9494 52.8509 15.7555C52.5062 15.2765 52.274 14.7259 52.1714 14.1448C51.9527 13.113 51.5793 12.1203 51.064 11.2001C50.7438 10.6371 50.3136 10.1443 49.7991 9.75083C49.2846 9.35739 48.6963 9.07139 48.069 8.90984L40.5187 8.68333C38.1804 8.70395 35.8762 9.24562 33.7737 10.2689C32.0622 11.477 31.2569 12.6095 31.5589 13.6666C31.8037 14.4118 32.3266 15.0339 33.0186 15.4032C34.0232 16.0053 35.1497 16.375 36.3156 16.4854C37.3984 16.6082 38.4681 16.8271 39.5119 17.1397C40.9717 17.5928 41.7519 18.0961 41.8777 18.7002C42.0036 19.3042 41.2737 19.8579 39.6881 19.9585C38.1025 20.0592 36.8442 20.3864 36.5925 20.9401C36.5045 21.1331 36.4892 21.3514 36.5493 21.5549C36.6094 21.7583 36.7409 21.9332 36.9196 22.0475C37.2624 22.3784 37.6753 22.6279 38.1277 22.7774C38.5299 22.94 38.8915 23.1888 39.1871 23.5062C39.4828 23.8236 39.7054 24.202 39.8391 24.6146C40.2166 25.571 39.8391 26.0492 38.8828 26.0492C38.3733 26.0329 37.8884 25.8264 37.5237 25.4703L36.3156 24.3881H35.9633C35.0572 24.816 34.6294 25.2438 34.6294 25.6968C34.7362 26.1857 34.9233 26.6534 35.1831 27.0811C35.3559 27.5846 35.4576 28.1098 35.4851 28.6415C35.4417 29.381 35.1788 30.0907 34.73 30.6801C34.4683 31.1551 34.1086 31.5691 33.6747 31.8946C33.2408 32.22 32.7426 32.4494 32.2133 32.5677C31.6325 32.54 31.0639 32.3914 30.5438 32.1313C30.0238 31.8713 29.5637 31.5056 29.1931 31.0576L27.6579 29.2203C27.1786 28.5827 26.6484 27.9851 26.0723 27.4334C24.3303 25.9547 22.1606 25.0727 19.881 24.9166L12.9598 25.2438C12.3765 25.3021 11.8109 25.477 11.2964 25.758C10.782 26.039 10.3291 26.4205 9.96484 26.8797C9.24162 27.7126 8.83212 28.7719 8.80711 29.8747C8.79071 30.5772 9.00267 31.266 9.41115 31.8378C9.76271 32.3684 10.3023 32.7461 10.9212 32.8948L16.4833 32.4167C19.2266 32.0643 20.8877 32.165 21.3911 32.769C21.4765 32.8782 21.5386 33.0038 21.5732 33.1381C21.6078 33.2723 21.6144 33.4123 21.5924 33.5492V34.6566C21.5853 34.6996 21.5868 34.7437 21.5969 34.7861C21.607 34.8285 21.6255 34.8685 21.6513 34.9037C21.6771 34.9388 21.7097 34.9685 21.7471 34.9909C21.7845 35.0133 21.8261 35.028 21.8692 35.0341C24.0973 35.5989 26.1701 36.6568 27.9347 38.1298C29.1313 39.1669 30.0704 40.4679 30.678 41.9301C31.3202 43.5955 31.5365 45.3949 31.3072 47.165C31.102 48.6168 30.5683 50.0027 29.7468 51.2171C29.0651 52.3325 28.0478 53.2036 26.8407 53.7054C25.6336 54.2073 24.2986 54.3141 23.027 54.0107C21.9103 54.0259 20.8184 53.6819 19.9121 53.0293C19.0058 52.3768 18.3332 51.4503 17.9934 50.3865C17.8311 49.8307 17.5665 49.3101 17.2132 48.8513C16.9332 48.4247 16.564 48.0641 16.131 47.7942C15.4022 47.4769 14.5919 47.3976 13.8155 47.5677L11.2987 48.2473C11.0343 48.3318 10.7989 48.4887 10.6192 48.7003L10.1159 49.405C9.8425 49.8417 9.52176 50.2468 9.15947 50.613C8.57985 51.1029 7.85388 51.3862 7.0957 51.4184L3.72321 51.6449L0.854065 51.8463C0.620987 51.8479 0.394638 51.9247 0.20871 52.0652C0.0227966 52.2058 -0.112778 52.4027 -0.177826 52.6265H0.0738525Z" fill="#664497"/>
<path fill-rule="evenodd" clip-rule="evenodd" d="M55.9982 44.9483C56.2987 45.0473 56.586 45.1826 56.8539 45.351C57.645 44.4018 58.4851 43.4946 59.3707 42.6329C62.7375 39.3955 66.6929 36.8326 71.0234 35.0825C75.3236 33.3317 79.9208 32.426 84.5637 32.4147C89.3609 32.3709 94.124 33.2245 98.6074 34.9315C106.222 37.9118 112.366 43.7576 115.722 51.2151C116.113 51.0025 116.449 50.7007 116.703 50.3342C114.118 44.6589 109.939 39.8581 104.673 36.5171C98.7186 32.7991 91.8082 30.901 84.7902 31.0556C79.1899 31.0787 73.6731 32.4148 68.6828 34.9567C63.8603 37.3874 59.5797 40.769 56.0988 44.898L55.9982 44.9483Z" fill="#0D131A"/>
<path fill-rule="evenodd" clip-rule="evenodd" d="M50.5106 56.5012C50.438 55.7395 50.438 54.9726 50.5106 54.2109C48.7595 58.3357 47.8442 62.7669 47.8176 67.2479C47.8047 72.173 48.8071 77.048 50.7622 81.5684C52.6381 85.9496 55.3477 89.9244 58.7405 93.2715C62.1304 96.622 66.1279 99.2956 70.519 101.149C75.0348 103.054 79.8881 104.03 84.7892 104.018C93.0444 104.081 101.044 101.158 107.314 95.7883C114.118 90.2067 118.603 82.2947 119.898 73.5902C119.495 74.1939 119.15 74.8343 118.867 75.503C118.609 76.1088 118.298 76.69 117.935 77.2396C115.909 84.5775 111.522 91.0434 105.452 95.6373C99.4343 100.384 91.9753 102.933 84.311 102.86C79.5861 102.869 74.9095 101.91 70.5694 100.042C62.0571 96.3772 55.2494 89.6235 51.5173 81.1406C49.6425 76.846 48.6743 72.2107 48.6733 67.5247C48.6605 63.8058 49.2818 60.112 50.5106 56.6019V56.5012Z" fill="#0D131A"/>
<path fill-rule="evenodd" clip-rule="evenodd" d="M48.9508 40.5963C47.4407 39.9419 46.434 39.7154 46.434 39.9168C46.434 40.1181 46.9122 40.5711 48.3971 41.2758C52.9609 43.4403 60.1673 47.5007 70.0163 53.4571C76.8686 57.3779 83.4902 61.6887 89.8486 66.3682C90.9057 67.1988 91.5097 67.5008 91.6607 67.2491C91.8117 66.9974 91.409 66.4186 90.3771 65.5628C83.9829 60.6478 77.2553 56.1824 70.2428 52.1987C63.3807 47.9292 56.2802 44.0555 48.976 40.5963H48.9508Z" fill="#0D131A"/>
<path fill-rule="evenodd" clip-rule="evenodd" d="M123.804 43.0869C124.408 42.2061 124.684 41.6524 124.609 41.4259C124.533 41.1993 124.08 41.5517 123.225 42.4829L112.277 54.4125C108.489 58.6075 104.464 62.5822 100.221 66.3169C99.3907 66.9964 98.988 67.4998 98.988 67.827C98.988 68.1542 99.441 67.978 100.322 67.3488C105.012 63.482 109.411 59.276 113.485 54.7648C117.207 51.0665 120.688 47.1322 123.904 42.9863L123.804 43.0869Z" fill="#0D131A"/>
<path fill-rule="evenodd" clip-rule="evenodd" d="M77.0831 90.0742C76.9698 90.3313 76.8169 90.5691 76.6301 90.7789C81.9426 93.3083 87.7598 94.5991 93.6436 94.5541C98.0792 94.6658 102.486 93.8068 106.555 92.0373V91.1061C104.703 91.9697 102.75 92.5955 100.741 92.9685C98.4242 93.3903 96.0739 93.6009 93.7191 93.5977C87.991 93.6778 82.3142 92.5098 77.0831 90.1749V90.0742Z" fill="#0D131A"/>
<path fill-rule="evenodd" clip-rule="evenodd" d="M73.0352 88.8421V87.9612C71.6384 87.1169 70.309 86.1661 69.0586 85.1172C73.6644 84.8404 81.1392 84.8907 91.4077 85.1172C101.676 85.3437 108.799 85.9226 112.775 86.4763C111.788 87.3998 110.728 88.2415 109.604 88.9931L108.774 90.478C110.597 89.3189 112.285 87.9598 113.807 86.4259C114.185 86.0484 114.109 85.7967 113.631 85.7212C106.289 84.71 98.8933 84.1385 91.4832 84.0098C83.6739 83.6744 75.8522 83.7584 68.0519 84.2615C67.8002 84.2615 67.6492 84.2615 67.5989 84.4628C67.5486 84.6642 67.5989 84.7145 67.8002 84.8907C69.3599 86.2994 71.0447 87.5631 72.8338 88.6659L73.0352 88.8421Z" fill="#0D131A"/>
<path fill-rule="evenodd" clip-rule="evenodd" d="M53.2268 43.4453C51.6806 46.3701 50.7148 49.5664 50.3828 52.8581C49.9586 56.3398 50.1031 59.8674 50.8107 63.3028C51.3359 66.8072 52.6048 70.1586 54.5321 73.1322C56.4595 76.1057 59.0007 78.6324 61.9852 80.5428C64.6452 82.1668 67.6697 83.0983 70.7825 83.2522C73.8952 83.4061 76.9969 82.7774 79.8041 81.4237C82.617 80.0715 85.0479 78.0386 86.8763 75.5092C88.8883 72.7766 90.1547 69.5674 90.5508 66.1971C90.5508 66.0629 90.4249 65.9622 90.1733 65.8951C89.8964 65.8951 89.7454 65.8951 89.7454 65.8951C89.2239 69.1952 87.9304 72.3254 85.9702 75.031C84.2328 77.3974 81.9315 79.292 79.2756 80.5428C76.7284 81.7911 73.9029 82.3631 71.0708 82.2039C68.1323 82.0913 65.2721 81.2246 62.7654 79.6871C59.8673 77.8275 57.4002 75.3699 55.5294 72.479C53.6586 69.5882 52.4273 66.3308 51.9181 62.9253C51.2202 59.6171 51.0503 56.2194 51.4147 52.8581C51.7476 49.6803 52.6875 46.596 54.1832 43.7725C54.1832 43.7725 54.1832 43.5712 53.7805 43.4453H53.2268Z" fill="#0D131A"/>
<path fill-rule="evenodd" clip-rule="evenodd" d="M121.008 45.3049C120.807 45.6069 120.706 45.783 120.731 45.8837C122.554 50.809 123.209 56.0903 122.644 61.3116C122.413 66.807 120.585 72.1159 117.384 76.5885C116.282 78.1316 114.799 79.3629 113.08 80.1624C112.378 80.4545 111.626 80.6049 110.865 80.6049C110.105 80.6049 109.352 80.4545 108.651 80.1624C106.155 78.9642 104.191 76.8841 103.139 74.3234C101.784 71.8607 101.115 69.0793 101.201 66.2697H100.849C100.597 66.2697 100.471 66.4711 100.471 66.5466C100.434 69.4723 101.126 72.3613 102.484 74.9526C103.536 77.6248 105.559 79.8005 108.147 81.0433C109.63 81.5612 111.245 81.5612 112.728 81.0433C114.962 80.3512 116.924 78.9786 118.34 77.1171C121.691 72.4547 123.575 66.8992 123.751 61.1606C124.306 55.6972 123.502 50.1812 121.411 45.1035C121.411 45.1035 121.235 45.1035 121.008 45.4055V45.3049Z" fill="#0D131A"/>
<path fill-rule="evenodd" clip-rule="evenodd" d="M93.0229 57.8851C93.0229 57.3314 92.8216 57.0545 92.6957 57.0797C92.5699 57.1049 92.4692 57.3817 92.4692 57.9354C92.505 59.513 92.3785 61.0901 92.0917 62.6418C91.9831 62.9944 91.9831 63.3715 92.0917 63.724C92.2176 63.9002 92.4189 63.5982 92.6454 62.818C93.1749 61.195 93.3044 59.4682 93.0229 57.7844V57.8851Z" fill="#B05965"/>
<path fill-rule="evenodd" clip-rule="evenodd" d="M98.9532 58.2913C98.9532 59.2225 98.9532 60.0531 98.777 60.8081C98.6458 61.6558 98.4693 62.496 98.2485 63.3249C98.0974 63.8534 98.0974 64.1303 98.2485 64.1554C98.3995 64.1806 98.5253 63.9289 98.7266 63.5262C99.0872 62.7239 99.341 61.8778 99.4817 61.0094C99.5946 60.1743 99.5946 59.3278 99.4817 58.4926C99.4817 57.939 99.381 57.6621 99.1797 57.6621C98.9783 57.6621 98.9028 57.9138 98.9532 58.4171V58.2913Z" fill="#B05965"/>
<path fill-rule="evenodd" clip-rule="evenodd" d="M101.077 73.1126C100.851 71.98 100.675 71.4012 100.499 71.376C100.322 71.3508 100.297 71.8038 100.499 72.7854C100.612 74.1466 100.944 75.4807 101.48 76.7368C101.949 77.7494 102.607 78.6633 103.418 79.4297C104.072 80.0841 104.425 80.3106 104.5 80.1596C104.576 80.0086 104.374 79.6059 103.871 79.0522C103.181 78.2225 102.614 77.2988 102.185 76.3089C101.708 75.2931 101.37 74.2181 101.178 73.1126H101.077Z" fill="#B05965"/>
<path fill-rule="evenodd" clip-rule="evenodd" d="M89.8978 72.7363C90.0236 71.7799 90.0236 71.2514 89.8978 71.201C89.772 71.1507 89.5706 71.6037 89.3441 72.6104C89.0917 73.7875 88.6943 74.9288 88.1612 76.0081C87.6044 77.0829 86.9471 78.1025 86.1981 79.0534C85.8206 79.5568 85.6696 79.8588 85.7703 79.9343C85.8709 80.0098 86.1478 79.9343 86.626 79.4309C87.6093 78.5066 88.3967 77.3939 88.9414 76.1591C89.4205 75.0692 89.7425 73.9167 89.8978 72.7363Z" fill="#B05965"/>
<path fill-rule="evenodd" clip-rule="evenodd" d="M55.2431 77.0139C55.8639 77.4669 56.3169 77.6683 56.6021 77.6179C56.8874 77.5676 56.7112 77.3159 56.0736 76.8629C54.7064 75.8254 53.5814 74.5029 52.7766 72.9871C51.8924 71.3318 51.3046 69.5345 51.04 67.6766C50.9142 66.7454 50.7632 66.3176 50.587 66.4434C50.4108 66.5692 50.3605 67.0978 50.587 68.0541C50.7341 69.8674 51.2028 71.6401 51.9712 73.2891C52.7819 74.7958 53.9376 76.0895 55.3437 77.0643L55.2431 77.0139Z" fill="#B05965"/>
<path fill-rule="evenodd" clip-rule="evenodd" d="M73.4136 84.6654C73.4136 84.6654 73.2877 84.6654 73.0612 84.5144C72.8347 84.3634 72.7089 84.5144 72.6837 84.6402C72.599 86.2446 72.658 87.8534 72.8599 89.4473C72.9453 90.9554 73.1558 92.4538 73.4891 93.9272L73.6904 94.5312C73.6904 94.5312 74.0931 94.5312 74.5713 94.0278C75.6565 92.9815 76.5134 91.7218 77.0881 90.3281C77.9821 88.5658 78.5855 86.6705 78.875 84.7157C78.875 84.7157 78.875 84.5647 78.5478 84.5144C78.2206 84.464 78.1451 84.5144 78.1451 84.6402C77.8598 86.395 77.2992 88.0938 76.484 89.6738C75.8399 91.0593 74.9915 92.3403 73.9673 93.4741C73.6271 91.8165 73.4334 90.1321 73.3884 88.4406C73.3884 86.2006 73.2626 84.9422 73.3884 84.6654H73.4136Z" fill="#0D131A"/>
<path fill-rule="evenodd" clip-rule="evenodd" d="M106.858 85.7194C106.858 85.7194 106.858 85.5684 106.556 85.5684C106.254 85.5684 106.279 85.5684 106.254 85.5684C106.095 88.1834 106.095 90.8057 106.254 93.4207C106.254 93.6473 106.254 93.7731 106.481 93.7731C106.707 93.7731 106.833 93.7731 107.185 93.3452C108.344 92.1795 109.297 90.8266 110.004 89.3435C110.608 88.304 111.065 87.186 111.363 86.0214C111.363 86.0214 111.363 85.8452 111.086 85.82C110.81 85.7949 110.734 85.82 110.734 85.82C110.407 86.8185 109.977 87.7801 109.451 88.6892C108.748 90.0413 107.905 91.3152 106.934 92.4895V89.2177V85.5684L106.858 85.7194Z" fill="#0D131A"/>
<path fill-rule="evenodd" clip-rule="evenodd" d="M71.0726 122.039C71.2496 122.577 71.2917 123.149 71.1952 123.707C71.0986 124.264 70.8664 124.789 70.5189 125.236C69.9713 125.952 69.2411 126.509 68.4048 126.846C67.4001 127.274 66.3251 127.513 65.2337 127.551C63.7074 127.679 62.1707 127.568 60.6783 127.224C59.3474 127.031 58.1361 126.349 57.2806 125.311C57.0246 125.011 56.8358 124.659 56.7269 124.279C56.6377 124.059 56.6026 123.821 56.6244 123.585C56.6463 123.348 56.7246 123.12 56.8528 122.92C57.2116 122.4 57.6343 121.926 58.1112 121.511C58.5081 121.119 58.9674 120.796 59.4702 120.555C60.1795 120.367 60.9254 120.367 61.6347 120.555L63.7991 120.932C64.8878 120.921 65.9547 120.626 66.8948 120.076L68.581 119.17C69.1914 119.411 69.737 119.791 70.1741 120.281C70.6111 120.77 70.9275 121.355 71.0978 121.989L71.0726 122.039ZM72.1297 121.763C71.8338 120.899 71.3429 120.115 70.6951 119.472C70.2127 118.761 69.5293 118.209 68.732 117.887C68.4552 117.887 68.0525 117.887 67.4988 118.415L65.8377 119.623C65.2939 120.015 64.6451 120.234 63.9753 120.252L61.6095 119.875C60.8401 119.691 60.0383 119.691 59.2689 119.875C58.5888 120.173 57.9733 120.6 57.4568 121.133C56.898 121.643 56.3921 122.208 55.9467 122.82C55.7843 123.065 55.6737 123.342 55.6218 123.632C55.5699 123.922 55.5777 124.219 55.6447 124.506C55.7871 125.067 56.0348 125.597 56.3746 126.066C56.9605 126.723 57.6723 127.255 58.4678 127.631C59.2633 128.007 60.1263 128.22 61.0055 128.256C62.4292 128.375 63.8603 128.375 65.284 128.256C66.5292 128.196 67.7549 127.924 68.9082 127.451C69.8899 127.087 70.7582 126.471 71.425 125.664C71.8292 125.104 72.1025 124.46 72.2244 123.781C72.3464 123.101 72.314 122.403 72.1297 121.737V121.763Z" fill="#664497"/>
<path fill-rule="evenodd" clip-rule="evenodd" d="M25.2215 105.711L26.8826 106.013L29.3994 106.491C30.2194 106.691 30.9576 107.14 31.5135 107.775C31.7947 108.077 31.9786 108.457 32.0414 108.866C32.1043 109.274 32.0431 109.692 31.8658 110.065C31.7171 110.454 31.4909 110.808 31.2011 111.106C30.9112 111.405 30.5637 111.641 30.1796 111.802C29.1638 112.281 28.075 112.587 26.9581 112.708C25.8826 112.856 24.7879 112.653 23.8373 112.129C22.6173 111.351 21.5154 110.401 20.5655 109.31C19.5743 108.261 18.7279 107.085 18.0487 105.812C17.8747 105.53 17.8119 105.193 17.8724 104.868C17.9329 104.542 18.1123 104.25 18.3759 104.05C19.0662 103.572 19.7992 103.159 20.5655 102.817C20.8936 102.85 21.2104 102.955 21.4931 103.125C21.7759 103.294 22.0178 103.524 22.2014 103.798C22.6008 104.351 23.095 104.828 23.6611 105.208C24.1749 105.442 24.7161 105.611 25.2719 105.711H25.2215ZM22.5789 103.194L21.7232 102.338C21.429 102.036 21.0529 101.826 20.641 101.734C19.9745 101.773 19.3347 102.009 18.8037 102.414C18.1469 102.783 17.5931 103.311 17.193 103.949C17.0136 104.402 17.0136 104.906 17.193 105.359L17.797 106.718C18.4883 107.983 19.3337 109.158 20.3138 110.216C21.2458 111.316 22.3407 112.266 23.5604 113.035C24.6808 113.623 25.9687 113.809 27.2098 113.563C28.4775 113.355 29.7127 112.983 30.8843 112.456C31.5256 112.108 32.0704 111.607 32.4699 110.996C32.7697 110.656 32.9906 110.255 33.1168 109.82C33.243 109.384 33.2713 108.927 33.1997 108.479C33.0349 107.893 32.7135 107.364 32.2701 106.947C31.8266 106.53 31.2779 106.242 30.683 106.114C29.3668 105.77 28.0302 105.509 26.6813 105.333L24.7182 104.981C24.2541 104.858 23.8349 104.605 23.5101 104.251L22.7047 103.244L22.5789 103.194Z" fill="#664497"/>
<path fill-rule="evenodd" clip-rule="evenodd" d="M2.59089 73.8187L2.46505 73.4412L2.01203 71.7801C2.01203 71.1006 2.01202 70.6979 2.31404 70.5469C2.70041 70.4069 3.11519 70.3637 3.52211 70.421L4.98184 70.6476L7.17144 70.9244C8.00833 70.951 8.84109 70.7964 9.61273 70.4714H10.8963C11.2967 70.4156 11.7042 70.4954 12.054 70.6979C13.0681 71.6644 13.8435 72.8534 14.3191 74.1711C15.0902 75.5659 15.3904 77.1725 15.1748 78.7516C15.0971 79.0536 14.9427 79.3304 14.7267 79.5553C14.5106 79.7801 14.2402 79.9454 13.9416 80.0352C12.6781 80.2696 11.3727 80.0932 10.2168 79.5318C9.07433 79.0671 8.01906 78.4118 7.09594 77.5939C6.76876 77.3674 6.21507 76.9647 5.35936 76.411L3.69828 75.3036C3.23187 74.9061 2.87637 74.3945 2.6664 73.8187H2.59089ZM2.06236 69.8925C1.78552 69.8925 1.55901 70.3204 1.408 70.8741C1.30145 71.2868 1.30145 71.7198 1.408 72.1325C1.56549 73.2636 1.98804 74.3416 2.64122 75.2785C3.35201 75.9635 4.14697 76.5555 5.007 77.0402L5.86271 77.7197L6.66809 78.4748C7.66462 79.2447 8.78928 79.8326 9.99026 80.2114C11.3395 80.7866 12.8323 80.9359 14.2688 80.6392C14.6885 80.5177 15.0693 80.2891 15.3737 79.9757C15.6782 79.6624 15.8959 79.2753 16.0054 78.8523C16.294 77.0736 16.0397 75.2492 15.2755 73.6174C14.8334 72.1289 14.0192 70.7776 12.9097 69.6912C12.3604 69.4327 11.7414 69.362 11.148 69.4898C10.573 69.5758 10.0081 69.7191 9.46172 69.9177C8.78998 70.1447 8.08047 70.2387 7.37279 70.1945L5.25869 69.9177L3.62277 69.6912C3.12699 69.6335 2.62469 69.7028 2.16304 69.8925H2.06236Z" fill="#664497"/>
<path fill-rule="evenodd" clip-rule="evenodd" d="M2.36644 41.0468L2.06443 40.77C1.92857 40.5297 1.84295 40.2642 1.81275 39.9898C1.74806 39.6912 1.74806 39.3823 1.81275 39.0837C1.85158 38.9595 1.91994 38.8465 2.01199 38.7545C2.10404 38.6624 2.21702 38.594 2.34128 38.5552H5.10974C6.16679 38.8321 6.77082 39.2096 6.947 39.6878C7.13165 40.1203 7.28309 40.5662 7.40002 41.0217C7.55753 41.461 7.55753 41.9414 7.40002 42.3807C7.27065 42.5957 7.09919 42.7823 6.89592 42.9293C6.69265 43.0764 6.46177 43.1808 6.21713 43.2365C5.63173 43.3298 5.03184 43.2327 4.50572 42.9596C3.90361 42.7961 3.35617 42.4746 2.92014 42.0284L2.74396 41.3237L2.34128 40.921L2.36644 41.0468ZM2.36644 37.3975C2.12957 37.4631 1.9131 37.5875 1.73712 37.7591C1.56113 37.9307 1.43133 38.1439 1.35973 38.379C1.2195 38.835 1.15988 39.312 1.18355 39.7884V40.2163L1.43523 41.1475L2.13993 41.8019C2.16287 42.0894 2.25811 42.3664 2.41678 42.6073C2.93781 43.1769 3.5722 43.6312 4.2792 43.9411C4.9394 44.328 5.71154 44.4789 6.46881 44.369C6.81272 44.2896 7.13609 44.1388 7.41792 43.9264C7.69976 43.7139 7.93376 43.4446 8.10473 43.1358C8.29041 42.5429 8.3549 41.9188 8.29437 41.3005C8.23384 40.6822 8.04951 40.0824 7.75237 39.5368C7.50978 39.1007 7.18204 38.7178 6.78861 38.4108C6.39518 38.1039 5.94407 37.8791 5.46209 37.7498C4.46383 37.2861 3.34108 37.1623 2.26577 37.3975H2.36644Z" fill="#664497"/>
<path fill-rule="evenodd" clip-rule="evenodd" d="M93.8026 2.96627C93.9285 2.71459 94.306 2.61391 94.9603 2.61391C96.3833 2.67091 97.7906 2.9337 99.1382 3.39412C99.8667 3.61676 100.561 3.93857 101.202 4.3505L102.259 5.28171C102.834 5.90333 103.592 6.32632 104.423 6.48977L105.833 6.66595C106.307 6.7431 106.76 6.91425 107.167 7.1693C107.368 7.32031 107.494 7.92434 107.519 9.00656C107.619 9.78359 107.619 10.5701 107.519 11.3472C107.48 11.813 107.335 12.2638 107.095 12.6651C106.855 13.0663 106.527 13.4075 106.135 13.6626H102.637C101.956 13.5075 101.335 13.1577 100.85 12.6559L99.3647 10.7683C98.5821 9.7799 97.7417 8.83865 96.8479 7.94951C95.873 7.10948 95.0327 6.12487 94.3563 5.03003L93.853 3.87231C93.784 3.73124 93.7482 3.5763 93.7482 3.41929C93.7482 3.26228 93.784 3.10734 93.853 2.96627H93.8026ZM94.9603 1.58203C93.853 1.58203 93.2489 2.00989 93.1231 2.84043C93.0526 3.7158 93.2454 4.59225 93.6768 5.35722C94.3014 6.48293 95.0903 7.5093 96.0174 8.40253C96.9185 9.29359 97.7593 10.2437 98.5342 11.2465L100.22 13.4864C100.751 14.1393 101.487 14.592 102.309 14.77H106.236C106.808 14.5186 107.305 14.1212 107.676 13.6178C108.047 13.1143 108.279 12.5223 108.35 11.9009C108.456 11.1496 108.456 10.387 108.35 9.63576C108.316 8.8783 108.163 8.13089 107.897 7.42098C107.653 6.99988 107.31 6.64458 106.897 6.38585C106.485 6.12711 106.016 5.97273 105.531 5.93608C104.607 5.77954 103.714 5.47352 102.888 5.03003L101.227 3.59546C100.675 3.11451 100.034 2.7468 99.3396 2.51324C97.9342 1.98697 96.4582 1.67311 94.9603 1.58203Z" fill="#664497"/>
<path fill-rule="evenodd" clip-rule="evenodd" d="M81.6133 64.2008C81.6133 62.9927 81.4874 62.3887 81.1099 62.3887C80.7324 62.3887 80.7576 62.5648 80.6317 62.9424L80.4304 64.1001C80.4304 65.283 80.4304 65.887 80.9086 65.9373C81.3868 65.9877 81.5378 65.3585 81.6133 64.2008Z" fill="#0D131A"/>
<path fill-rule="evenodd" clip-rule="evenodd" d="M108.023 64.457C108.174 63.3497 108.023 62.7708 107.696 62.7205C107.369 62.6701 107.319 62.7205 107.168 63.2238L106.916 64.2557C106.765 65.3379 106.916 65.9419 107.243 66.0174C107.57 66.0929 107.772 65.4386 108.023 64.457Z" fill="#0D131A"/>
</g>
<defs>
<clipPath id="clip0_205_3633">
<rect width="137.97" height="128.356" fill="white" transform="matrix(-1 0 0 1 137.969 0)"/>
</clipPath>
</defs>
</svg>
