<svg width="749" height="1256" viewBox="0 0 749 1256" fill="none" xmlns="http://www.w3.org/2000/svg">
<path d="M-162.682 956.194C-267.789 1014.53 -367.931 968.473 -367.931 968.473C-342.672 968.473 -316.058 949.03 -316.058 949.03C-350.342 943.404 -371.091 926.513 -371.091 926.513H-351.241C-376.05 910.648 -395 890.689 -395 890.689C-335.907 906.043 -247.04 875.335 -247.04 875.335C-276.814 880.961 -322.372 863.055 -322.372 863.055C-276.359 863.055 -242.53 833.884 -242.53 833.884C-272.754 829.789 -297.114 823.136 -297.114 823.136L-274.56 816.993C-314.259 810.85 -331.397 791.917 -331.397 791.917C-265.534 791.917 -219.526 713.112 -219.526 713.112C-281.774 710.043 -313.353 687.015 -313.353 687.015H-282.229C-321.928 678.314 -335.008 663.477 -335.008 663.477C-280.424 672.178 -236.671 625.095 -236.671 625.095L-254.266 618.952C-186.147 605.135 -151.864 545.263 -151.864 545.263C-204.642 594.387 -290.805 563.175 -290.805 563.175C-241.181 563.175 -188.858 498.696 -188.858 498.696C-238.026 504.839 -256.52 498.696 -256.52 498.696C-231.256 494.091 -191.113 449.055 -191.113 449.055H-211.862C-186.603 435.238 -155.474 393.788 -155.474 393.788C-187.503 421.422 -250.206 408.115 -250.206 408.115C-208.252 408.115 -184.798 363.086 -184.798 363.086C-203.742 360.528 -221.787 350.29 -221.787 350.29C-186.603 355.406 -122.995 296.554 -122.995 296.554C-160.889 318.561 -221.787 305.765 -221.787 305.765C-204.192 305.765 -160.889 282.227 -160.889 282.227C-176.228 278.131 -187.053 268.92 -187.053 268.92C-164.499 260.219 -133.369 223.375 -133.369 223.375L-140.589 214.163C-125.255 207 -85.5562 178.339 -85.5562 178.339C-108.566 178.339 -130.215 168.618 -130.215 168.618C-108.11 159.917 -98.1856 136.379 -98.1856 136.379L-69.7665 128.194L-83.7512 101.071L-65.2567 111.82V50.9199L-47.6622 61.4101L-41.5694 18.4224L-38.1871 25.0756L-33.8997 0L-29.6122 25.0756L-26.2299 18.4224L-20.137 61.4101L-2.5426 50.9199V111.82L15.9518 101.071L1.96722 128.194L30.3863 136.379C30.3863 136.379 40.3109 159.917 62.4152 168.618C62.4152 168.618 40.761 178.339 17.7569 178.339C17.7569 178.339 57.4559 207 72.7901 214.163L65.5698 223.375C65.5698 223.375 96.6937 260.219 119.253 268.92C119.253 268.92 108.429 278.131 93.0892 282.227C93.0892 282.227 136.393 305.765 153.987 305.765C153.987 305.765 93.0892 318.561 55.1953 296.554C55.1953 296.554 118.798 355.4 153.987 350.29C153.987 350.29 135.943 360.522 116.999 363.086C116.999 363.086 140.458 408.115 182.407 408.115C182.407 408.115 119.703 421.422 87.6744 393.788C87.6744 393.788 118.798 435.238 144.062 449.055H123.313C123.313 449.055 163.462 494.091 188.721 498.696C188.721 498.696 170.227 504.839 121.059 498.696C121.059 498.696 173.387 563.175 223.005 563.175C223.005 563.175 136.843 594.393 84.0642 545.263C84.0642 545.263 114.871 598.91 176.008 616.331C190.409 612.551 212.192 600.731 212.192 600.731C201.262 597.814 193.547 591.249 193.547 591.249C209.62 585.05 231.802 558.789 231.802 558.789L226.659 552.224C237.589 547.121 265.881 526.695 265.881 526.695C249.486 526.695 234.052 519.765 234.052 519.765C249.802 513.565 256.878 496.787 256.878 496.787L277.133 490.953L267.169 471.623L280.349 479.278V435.881L292.884 443.36L297.227 412.727L299.637 417.465L302.692 399.597L305.746 417.465L308.157 412.727L312.5 443.36L325.041 435.881V479.278L338.22 471.623L328.256 490.953L348.511 496.787C348.511 496.787 355.581 513.565 371.338 519.765C371.338 519.765 355.903 526.695 339.508 526.695C339.508 526.695 367.8 547.121 378.73 552.224L373.587 558.789C373.587 558.789 395.769 585.05 411.842 591.249C411.842 591.249 404.128 597.814 393.198 600.731C393.198 600.731 424.06 617.509 436.601 617.509C436.601 617.509 393.198 626.626 366.195 610.944C366.195 610.944 411.525 652.886 436.601 649.238C436.601 649.238 423.744 656.534 410.237 658.355C410.237 658.355 426.954 690.449 456.85 690.449C456.85 690.449 412.164 699.931 389.338 680.236C389.338 680.236 411.52 709.779 429.525 719.626H414.735C414.735 719.626 443.349 751.721 461.349 755.003C461.349 755.003 448.17 759.382 413.125 755.003C413.125 755.003 450.419 800.958 485.78 800.958C485.78 800.958 424.377 823.205 386.761 788.193C386.761 788.193 411.192 830.866 459.738 840.708L447.198 845.086C447.198 845.086 464.381 863.527 489.129 870.534C492.084 866.772 493.639 863.811 493.639 863.811C484.192 862.532 475.189 857.429 475.189 857.429C492.739 859.98 524.457 830.633 524.457 830.633C505.557 841.609 475.189 835.226 475.189 835.226C483.964 835.226 505.563 823.489 505.563 823.489C497.915 821.447 492.517 816.854 492.517 816.854C503.764 812.513 519.287 794.141 519.287 794.141L515.688 789.548C523.335 785.976 543.135 771.686 543.135 771.686C531.661 771.686 520.864 766.835 520.864 766.835C531.888 762.494 536.837 750.757 536.837 750.757L551.01 746.674L544.035 733.147L553.26 738.509V708.141L562.035 713.37L565.073 691.93L566.761 695.25L568.899 682.744L571.038 695.25L572.726 691.93L575.764 713.37L584.539 708.141V738.509L593.764 733.147L586.788 746.674L600.962 750.757C600.962 750.757 605.91 762.494 616.935 766.835C616.935 766.835 606.138 771.686 594.664 771.686C594.664 771.686 614.463 785.976 622.111 789.548L618.512 794.141C618.512 794.141 634.035 812.519 645.281 816.854C645.281 816.854 639.883 821.447 632.235 823.489C632.235 823.489 653.834 835.226 662.609 835.226C662.609 835.226 632.236 841.609 613.341 830.633C613.341 830.633 645.065 859.98 662.609 857.429C662.609 857.429 653.612 862.532 644.16 863.811C644.16 863.811 655.862 886.272 676.783 886.272C676.783 886.272 645.509 892.906 629.536 879.127C629.536 879.127 645.059 899.799 657.656 906.692H647.309C647.309 906.692 667.33 929.153 679.932 931.446C679.932 931.446 670.707 934.508 646.187 931.446C646.187 931.446 672.284 963.603 697.032 963.603C697.032 963.603 654.062 979.172 627.737 954.669C627.737 954.669 644.832 984.527 678.805 991.419L670.029 994.481C670.029 994.481 691.851 1017.96 719.076 1013.62C719.076 1013.62 712.55 1021.03 692.756 1025.36H708.279C708.279 1025.36 692.528 1036.85 661.482 1038.38C661.482 1038.38 684.431 1077.68 717.276 1077.68C717.276 1077.68 708.729 1087.12 688.929 1090.18L700.176 1093.25C700.176 1093.25 688.03 1096.56 672.956 1098.61C672.956 1098.61 689.829 1113.16 712.778 1113.16C712.778 1113.16 690.057 1122.09 675.206 1119.28C675.206 1119.28 719.526 1134.59 749 1126.94C749 1126.94 739.553 1136.89 727.179 1144.8H737.076C737.076 1144.8 726.729 1153.23 709.628 1156.03C709.628 1156.03 722.902 1165.73 735.498 1165.73C735.498 1165.73 685.553 1188.7 633.135 1159.6C633.135 1159.6 680.604 1207.08 740.675 1207.08C740.675 1207.08 727.851 1218.56 713.45 1222.39L723.347 1223.67C723.347 1223.67 712.544 1236.17 683.975 1237.95L697.249 1244.34C697.249 1244.34 668.68 1254.29 636.279 1240.76L651.574 1257.35C651.574 1257.35 618.951 1256.58 605.677 1244.85L618.051 1266.29L591.276 1250.97V1294.87H546.506V1250.97L519.737 1266.29L532.111 1244.85C518.837 1256.58 486.213 1257.35 486.213 1257.35L501.514 1240.76C469.119 1254.29 440.544 1244.34 440.544 1244.34L453.818 1237.95C425.249 1236.17 414.447 1223.67 414.447 1223.67L424.343 1222.39C422.572 1221.91 420.822 1221.32 419.117 1220.65C410.692 1220.28 372.098 1217.75 355.253 1202.85L372.937 1233.48L334.682 1211.6V1274.33H270.707V1211.6L232.452 1233.48L250.136 1202.85C231.169 1219.63 184.55 1220.72 184.55 1220.72L206.41 1197.01C160.119 1216.34 119.287 1202.11 119.287 1202.11L138.253 1192.99C97.4214 1190.44 81.9927 1172.57 81.9927 1172.57L96.1384 1170.75C75.5613 1165.28 57.239 1148.87 57.239 1148.87C66.8583 1148.87 76.1999 1147.91 85.2971 1146.4C68.4245 1142.74 50.8467 1136.81 39.8611 1127.09L64.6701 1170.08L10.9922 1139.38V1227.4H-78.7749V1139.38L-132.458 1170.08L-107.649 1127.09C-134.263 1150.63 -199.671 1152.17 -199.671 1152.17L-168.997 1118.9C-233.955 1146.03 -291.243 1126.07 -291.243 1126.07L-264.629 1113.27C-321.917 1109.69 -343.572 1084.62 -343.572 1084.62L-323.722 1082.06C-352.591 1074.38 -378.306 1051.36 -378.306 1051.36C-257.859 1051.38 -162.682 956.194 -162.682 956.194ZM394.481 1081.05C394.481 1081.05 409.77 1096.22 434.829 1112.21C446.748 1110.1 456.106 1104.79 461.01 1101.44C440.511 1099.65 417.668 1093.92 394.481 1081.05ZM407.782 1206.57C412.797 1206.11 417.657 1205.28 422.433 1204.27C414.896 1202.68 407.032 1200.39 398.979 1197.03L407.782 1206.57ZM479.677 889.214H499.92C504.841 883.676 508.273 879.121 508.273 879.121C502.536 884.073 494.827 886.367 487.302 887.299C484.908 887.967 482.404 888.616 479.677 889.214ZM480.065 983.443C482.637 981.988 485.036 980.438 487.28 978.825C483.331 980.01 479.093 981.093 474.206 981.849L480.065 983.443ZM467.775 994.488L461.593 992.327C458.339 992.875 454.929 993.41 451.385 993.883C451.385 993.883 454.84 996.857 460.899 1000.56C465.242 997.178 467.775 994.488 467.775 994.488ZM504.141 962.929C508.057 958.128 510.067 954.669 510.067 954.669C506.835 957.681 503.342 960.075 499.715 961.978C501.176 962.343 502.653 962.664 504.141 962.929ZM462.598 1119.29C457.517 1120.24 451.519 1119.82 445.815 1118.86C447.892 1120.05 449.969 1121.23 452.146 1122.41C458.544 1120.68 462.598 1119.29 462.598 1119.29ZM434.99 907.813C434.99 907.813 449.603 932.706 473.206 949.345C484.042 940.745 491.623 931.446 491.623 931.446C467.103 934.508 457.878 931.446 457.878 931.446C470.479 929.146 490.501 906.692 490.501 906.692H480.149C485.903 903.541 492.251 897.531 497.471 891.917C488.952 896.661 468.053 906.188 434.99 907.813ZM131.183 981.849C128.317 981.408 125.729 980.816 123.186 980.205C124.396 981.131 125.618 982.057 126.901 983.015L131.183 981.849ZM94.8943 956.194C94.8943 956.194 97.3715 958.664 101.976 962.772C103.303 962.52 104.625 962.255 105.924 961.921C102.259 960.125 98.5821 958.242 94.8943 956.194ZM192.264 755.009C190.176 755.268 188.171 755.494 186.233 755.696C187.216 756.635 188.232 757.567 189.254 758.5C191.148 756.364 192.264 755.009 192.264 755.009ZM170.654 739.101C181.695 729.675 190.659 719.633 190.659 719.633H175.87C180.818 716.93 186.067 712.721 191.098 708.065C179.724 710.497 166.633 712.393 151.738 713.124C151.738 713.124 158.553 724.767 170.654 739.101ZM154.009 993.883C148.517 993.139 143.307 992.276 138.575 991.407C141.713 993.581 145.007 995.786 148.434 998.016C151.994 995.603 154.009 993.883 154.009 993.883ZM184.595 619.614L168.877 625.101C168.877 625.101 177.58 634.426 192.009 644.009C214.88 633.405 239.2 610.944 239.2 610.944C222.55 620.615 199.696 620.855 184.595 619.614ZM138.098 1129.9C126.335 1127.7 113.933 1124.24 101.215 1118.93L118.648 1137.83C125.429 1135.45 131.877 1132.75 138.098 1129.9Z" fill="#0C0B0A"/>
</svg>
