<svg width="749" height="1256" viewBox="0 0 749 1256" fill="none" xmlns="http://www.w3.org/2000/svg">
<g clip-path="url(#clip0_306_2)">
<path d="M911.682 956.194C1016.79 1014.53 1116.93 968.473 1116.93 968.473C1091.67 968.473 1065.06 949.03 1065.06 949.03C1099.34 943.404 1120.09 926.513 1120.09 926.513H1100.24C1125.05 910.648 1144 890.689 1144 890.689C1084.91 906.043 996.04 875.335 996.04 875.335C1025.81 880.961 1071.37 863.055 1071.37 863.055C1025.36 863.055 991.53 833.884 991.53 833.884C1021.75 829.789 1046.11 823.136 1046.11 823.136L1023.56 816.993C1063.26 810.85 1080.4 791.917 1080.4 791.917C1014.53 791.917 968.526 713.112 968.526 713.112C1030.77 710.043 1062.35 687.015 1062.35 687.015H1031.23C1070.93 678.314 1084.01 663.477 1084.01 663.477C1029.42 672.178 985.671 625.095 985.671 625.095L1003.27 618.952C935.147 605.135 900.864 545.263 900.864 545.263C953.642 594.387 1039.8 563.175 1039.8 563.175C990.181 563.175 937.858 498.696 937.858 498.696C987.026 504.839 1005.52 498.696 1005.52 498.696C980.256 494.091 940.113 449.055 940.113 449.055H960.862C935.603 435.238 904.474 393.788 904.474 393.788C936.503 421.422 999.206 408.115 999.206 408.115C957.252 408.115 933.798 363.086 933.798 363.086C952.742 360.528 970.787 350.29 970.787 350.29C935.603 355.406 871.995 296.554 871.995 296.554C909.889 318.561 970.787 305.765 970.787 305.765C953.192 305.765 909.889 282.227 909.889 282.227C925.228 278.131 936.053 268.92 936.053 268.92C913.499 260.219 882.369 223.375 882.369 223.375L889.589 214.163C874.255 207 834.556 178.339 834.556 178.339C857.566 178.339 879.215 168.618 879.215 168.618C857.11 159.917 847.186 136.379 847.186 136.379L818.767 128.194L832.751 101.071L814.257 111.82V50.9199L796.662 61.4101L790.569 18.4224L787.187 25.0756L782.9 0L778.612 25.0756L775.23 18.4224L769.137 61.4101L751.543 50.9199V111.82L733.048 101.071L747.033 128.194L718.614 136.379C718.614 136.379 708.689 159.917 686.585 168.618C686.585 168.618 708.239 178.339 731.243 178.339C731.243 178.339 691.544 207 676.21 214.163L683.43 223.375C683.43 223.375 652.306 260.219 629.747 268.92C629.747 268.92 640.571 278.131 655.911 282.227C655.911 282.227 612.607 305.765 595.013 305.765C595.013 305.765 655.911 318.561 693.805 296.554C693.805 296.554 630.202 355.4 595.013 350.29C595.013 350.29 613.057 360.522 632.001 363.086C632.001 363.086 608.542 408.115 566.593 408.115C566.593 408.115 629.297 421.422 661.326 393.788C661.326 393.788 630.202 435.238 604.938 449.055H625.687C625.687 449.055 585.538 494.091 560.279 498.696C560.279 498.696 578.773 504.839 627.941 498.696C627.941 498.696 575.613 563.175 525.995 563.175C525.995 563.175 612.157 594.393 664.936 545.263C664.936 545.263 634.129 598.91 572.992 616.331C558.591 612.551 536.808 600.731 536.808 600.731C547.738 597.814 555.453 591.249 555.453 591.249C539.38 585.05 517.198 558.789 517.198 558.789L522.341 552.224C511.411 547.121 483.119 526.695 483.119 526.695C499.514 526.695 514.948 519.765 514.948 519.765C499.198 513.565 492.122 496.787 492.122 496.787L471.867 490.953L481.831 471.623L468.651 479.278V435.881L456.116 443.36L451.773 412.727L449.363 417.465L446.308 399.597L443.254 417.465L440.843 412.727L436.5 443.36L423.959 435.881V479.278L410.78 471.623L420.744 490.953L400.489 496.787C400.489 496.787 393.419 513.565 377.662 519.765C377.662 519.765 393.097 526.695 409.492 526.695C409.492 526.695 381.2 547.121 370.27 552.224L375.413 558.789C375.413 558.789 353.231 585.05 337.158 591.249C337.158 591.249 344.872 597.814 355.802 600.731C355.802 600.731 324.94 617.509 312.399 617.509C312.399 617.509 355.802 626.626 382.805 610.944C382.805 610.944 337.475 652.886 312.399 649.238C312.399 649.238 325.256 656.534 338.763 658.355C338.763 658.355 322.046 690.449 292.15 690.449C292.15 690.449 336.836 699.931 359.662 680.236C359.662 680.236 337.48 709.779 319.475 719.626H334.265C334.265 719.626 305.651 751.721 287.651 755.003C287.651 755.003 300.83 759.382 335.875 755.003C335.875 755.003 298.581 800.958 263.22 800.958C263.22 800.958 324.623 823.205 362.239 788.193C362.239 788.193 337.808 830.866 289.262 840.708L301.802 845.086C301.802 845.086 284.619 863.527 259.871 870.534C256.916 866.772 255.361 863.811 255.361 863.811C264.808 862.532 273.811 857.429 273.811 857.429C256.261 859.98 224.543 830.633 224.543 830.633C243.443 841.609 273.811 835.226 273.811 835.226C265.036 835.226 243.437 823.489 243.437 823.489C251.085 821.447 256.483 816.854 256.483 816.854C245.236 812.513 229.713 794.141 229.713 794.141L233.312 789.548C225.665 785.976 205.865 771.686 205.865 771.686C217.339 771.686 228.136 766.835 228.136 766.835C217.112 762.494 212.163 750.757 212.163 750.757L197.99 746.674L204.965 733.147L195.74 738.509V708.141L186.965 713.37L183.927 691.93L182.239 695.25L180.101 682.744L177.962 695.25L176.274 691.93L173.236 713.37L164.461 708.141V738.509L155.236 733.147L162.212 746.674L148.038 750.757C148.038 750.757 143.09 762.494 132.065 766.835C132.065 766.835 142.862 771.686 154.336 771.686C154.336 771.686 134.537 785.976 126.889 789.548L130.488 794.141C130.488 794.141 114.965 812.519 103.719 816.854C103.719 816.854 109.117 821.447 116.765 823.489C116.765 823.489 95.166 835.226 86.391 835.226C86.391 835.226 116.764 841.609 135.659 830.633C135.659 830.633 103.935 859.98 86.391 857.429C86.391 857.429 95.3881 862.532 104.84 863.811C104.84 863.811 93.138 886.272 72.217 886.272C72.217 886.272 103.491 892.906 119.464 879.127C119.464 879.127 103.941 899.799 91.344 906.692H101.691C101.691 906.692 81.67 929.153 69.068 931.446C69.068 931.446 78.293 934.508 102.813 931.446C102.813 931.446 76.716 963.603 51.968 963.603C51.968 963.603 94.938 979.172 121.263 954.669C121.263 954.669 104.168 984.527 70.1951 991.419L78.9709 994.481C78.9709 994.481 57.1491 1017.96 29.9241 1013.62C29.9241 1013.62 36.45 1021.03 56.244 1025.36H40.7209C40.7209 1025.36 56.4721 1036.85 87.5181 1038.38C87.5181 1038.38 64.569 1077.68 31.724 1077.68C31.724 1077.68 40.271 1087.12 60.071 1090.18L48.824 1093.25C48.824 1093.25 60.9699 1096.56 76.0439 1098.61C76.0439 1098.61 59.1709 1113.16 36.2219 1113.16C36.2219 1113.16 58.9429 1122.09 73.7939 1119.28C73.7939 1119.28 29.474 1134.59 0 1126.94C0 1126.94 9.44705 1136.89 21.821 1144.8H11.9241C11.9241 1144.8 22.2711 1153.23 39.3721 1156.03C39.3721 1156.03 26.098 1165.73 13.502 1165.73C13.502 1165.73 63.447 1188.7 115.865 1159.6C115.865 1159.6 68.396 1207.08 8.32495 1207.08C8.32495 1207.08 21.149 1218.56 35.55 1222.39L25.6531 1223.67C25.6531 1223.67 36.456 1236.17 65.025 1237.95L51.751 1244.34C51.751 1244.34 80.3199 1254.29 112.721 1240.76L97.426 1257.35C97.426 1257.35 130.049 1256.58 143.323 1244.85L130.949 1266.29L157.724 1250.97V1294.87H202.494V1250.97L229.263 1266.29L216.889 1244.85C230.163 1256.58 262.787 1257.35 262.787 1257.35L247.486 1240.76C279.881 1254.29 308.456 1244.34 308.456 1244.34L295.182 1237.95C323.751 1236.17 334.553 1223.67 334.553 1223.67L324.657 1222.39C326.428 1221.91 328.178 1221.32 329.883 1220.65C338.308 1220.28 376.902 1217.75 393.747 1202.85L376.063 1233.48L414.318 1211.6V1274.33H478.293V1211.6L516.548 1233.48L498.864 1202.85C517.831 1219.63 564.45 1220.72 564.45 1220.72L542.59 1197.01C588.881 1216.34 629.713 1202.11 629.713 1202.11L610.747 1192.99C651.579 1190.44 667.007 1172.57 667.007 1172.57L652.862 1170.75C673.439 1165.28 691.761 1148.87 691.761 1148.87C682.142 1148.87 672.8 1147.91 663.703 1146.4C680.576 1142.74 698.153 1136.81 709.139 1127.09L684.33 1170.08L738.008 1139.38V1227.4H827.775V1139.38L881.458 1170.08L856.649 1127.09C883.263 1150.63 948.671 1152.17 948.671 1152.17L917.997 1118.9C982.955 1146.03 1040.24 1126.07 1040.24 1126.07L1013.63 1113.27C1070.92 1109.69 1092.57 1084.62 1092.57 1084.62L1072.72 1082.06C1101.59 1074.38 1127.31 1051.36 1127.31 1051.36C1006.86 1051.38 911.682 956.194 911.682 956.194ZM354.519 1081.05C354.519 1081.05 339.23 1096.22 314.171 1112.21C302.252 1110.1 292.894 1104.79 287.99 1101.44C308.489 1099.65 331.332 1093.92 354.519 1081.05ZM341.218 1206.57C336.203 1206.11 331.343 1205.28 326.567 1204.27C334.104 1202.68 341.968 1200.39 350.021 1197.03L341.218 1206.57ZM269.323 889.214H249.08C244.159 883.676 240.727 879.121 240.727 879.121C246.464 884.073 254.173 886.367 261.698 887.299C264.092 887.967 266.596 888.616 269.323 889.214ZM268.935 983.443C266.363 981.988 263.964 980.438 261.72 978.825C265.669 980.01 269.907 981.093 274.794 981.849L268.935 983.443ZM281.225 994.488L287.407 992.327C290.661 992.875 294.071 993.41 297.615 993.883C297.615 993.883 294.16 996.857 288.101 1000.56C283.758 997.178 281.225 994.488 281.225 994.488ZM244.859 962.929C240.943 958.128 238.933 954.669 238.933 954.669C242.165 957.681 245.658 960.075 249.285 961.978C247.824 962.343 246.347 962.664 244.859 962.929ZM286.402 1119.29C291.483 1120.24 297.481 1119.82 303.185 1118.86C301.108 1120.05 299.031 1121.23 296.854 1122.41C290.456 1120.68 286.402 1119.29 286.402 1119.29ZM314.01 907.813C314.01 907.813 299.397 932.706 275.794 949.345C264.958 940.745 257.377 931.446 257.377 931.446C281.897 934.508 291.122 931.446 291.122 931.446C278.521 929.146 258.499 906.692 258.499 906.692H268.851C263.097 903.541 256.749 897.531 251.529 891.917C260.048 896.661 280.947 906.188 314.01 907.813ZM617.817 981.849C620.683 981.408 623.271 980.816 625.814 980.205C624.604 981.131 623.382 982.057 622.099 983.015L617.817 981.849ZM654.106 956.194C654.106 956.194 651.628 958.664 647.024 962.772C645.697 962.52 644.375 962.255 643.076 961.921C646.741 960.125 650.418 958.242 654.106 956.194ZM556.736 755.009C558.824 755.268 560.829 755.494 562.767 755.696C561.784 756.635 560.768 757.567 559.746 758.5C557.852 756.364 556.736 755.009 556.736 755.009ZM578.346 739.101C567.305 729.675 558.341 719.633 558.341 719.633H573.13C568.182 716.93 562.933 712.721 557.902 708.065C569.276 710.497 582.367 712.393 597.262 713.124C597.262 713.124 590.447 724.767 578.346 739.101ZM594.991 993.883C600.483 993.139 605.693 992.276 610.425 991.407C607.287 993.581 603.993 995.786 600.566 998.016C597.006 995.603 594.991 993.883 594.991 993.883ZM564.405 619.614L580.123 625.101C580.123 625.101 571.42 634.426 556.991 644.009C534.12 633.405 509.8 610.944 509.8 610.944C526.45 620.615 549.304 620.855 564.405 619.614ZM610.902 1129.9C622.665 1127.7 635.067 1124.24 647.785 1118.93L630.352 1137.83C623.571 1135.45 617.123 1132.75 610.902 1129.9Z" fill="#0C0B0A"/>
</g>
<defs>
<clipPath id="clip0_306_2">
<rect width="749" height="1256" fill="white" transform="matrix(-1 0 0 1 749 0)"/>
</clipPath>
</defs>
</svg>
