<svg width="3175" height="306" viewBox="0 0 3175 306" fill="none" xmlns="http://www.w3.org/2000/svg">
<path d="M3048.08 279.575C3081.59 264.585 3116.24 279.206 3116.24 279.206C3066.46 245.676 3013.78 259.599 3013.78 259.599C3040.99 238.565 3069.93 243.243 3069.93 243.243C3036.93 229.654 2995.83 248.715 2995.83 248.715L3002.78 238.322L2980.78 259.603L2885.96 248.165L2897.31 236.336L2870.05 247.211C2867.26 246.734 2864.44 246.253 2861.63 245.776L2795.6 219.525V229.676L2767.28 223.02L2793.8 210.896L2671.72 215.462C2617.85 207.441 2561.41 199.527 2502.83 191.935L2485.25 183.887L2411.73 152.941L2424.04 173.884L2375.47 167.167L2405.94 127.775L2352.67 171.903L2319.94 159.536L2346.85 150.17L2183.63 142.5C2173.19 39.7833 2123.35 13.2206 2123.35 13.2206C2139.46 44.154 2126.92 120.672 2126.92 120.672C2106.07 19.9285 2042.97 0 2042.97 0C2080.02 24.9106 2091.6 131.742 2091.6 131.742L2050.5 96.013L2071.92 135.523C2021.56 95.0201 1970.61 127.775 1970.61 127.775C2018.66 113.292 2066.15 146.892 2066.15 146.892C1909.22 135.076 1745.79 127.775 1581.5 127.775C1467.01 127.775 1352.94 131.317 1241.2 137.466L1175.22 133.455C1206.26 111.406 1222.11 112.919 1222.11 112.919C1164.8 97.973 1109.22 137.466 1109.22 137.466C1135.75 112.1 1183.32 93.4071 1183.32 93.4071C1137.01 93.4071 1073.33 130.589 1073.33 130.589C1088.38 61.3507 1140.49 26.567 1140.49 26.567C1087.81 42.619 1045.55 108.865 1045.55 108.865C1040.34 58.3155 1055.39 10.7274 1055.39 10.7274C1032.81 37.5068 1014.26 141.481 1014.26 141.481L966.377 137.466L136.102 271.896C107.738 238.799 49.2679 219.521 49.2679 219.521C66.6357 229.81 90.946 275.46 90.946 275.46C52.7369 259.213 3.53123 271.896 3.53123 271.896C25.0981 271.896 51.0319 282.22 66.0235 289.149C-51.0435 312.442 -119 328.729 -119 328.729V480H3282V328.729C3282 328.729 3194.93 307.859 3048.08 279.575Z" fill="#471B00"/>
</svg>
